<?xml version="1.0" standalone="no"?>
<!DOCTYPE svg PUBLIC "-//W3C//DTD SVG 20010904//EN"
 "http://www.w3.org/TR/2001/REC-SVG-20010904/DTD/svg10.dtd">
<svg version="1.0" xmlns="http://www.w3.org/2000/svg"
 width="1068.000000pt" height="572.000000pt" viewBox="0 0 1068.000000 572.000000"
 preserveAspectRatio="xMidYMid meet">

<g transform="translate(0.000000,572.000000) scale(0.100000,-0.100000)"
fill="#000000" stroke="none">
<path d="M0 2855 l0 -2855 5340 0 5340 0 0 2855 0 2855 -5340 0 -5340 0 0
-2855z m2290 2720 c0 -8 -4 -15 -9 -15 -13 0 -22 16 -14 24 11 11 23 6 23 -9z
m80 -50 c0 -8 5 -15 10 -15 6 0 10 -18 10 -40 0 -22 -4 -40 -10 -40 -5 0 -10
-7 -10 -15 0 -11 -11 -15 -41 -15 -50 0 -44 -13 16 -30 54 -15 57 -19 49 -59
-6 -26 -11 -31 -35 -31 -26 0 -29 4 -29 30 0 30 -1 30 -55 30 -54 0 -55 0 -55
-30 0 -25 -4 -30 -23 -30 -16 0 -28 9 -36 27 -11 24 -10 29 9 45 12 10 30 18
39 18 10 0 26 7 37 15 18 13 16 14 -23 15 -31 0 -43 4 -43 15 0 8 -4 15 -8 15
-15 0 -8 74 8 93 20 24 190 26 190 2z m5919 -92 c-1 -37 -1 -37 -8 -8 -7 28
-5 45 5 45 2 0 3 -17 3 -37z m-4064 7 c7 0 16 6 18 13 3 6 5 -4 5 -23 0 -19
-2 -27 -5 -17 -2 9 -8 17 -13 17 -5 0 -14 -8 -19 -17 -8 -15 -10 -11 -10 17 0
19 3 29 6 23 2 -7 11 -13 18 -13z m505 -28 c0 -11 -3 -12 -13 -3 -10 8 -17 7
-25 -1 -15 -15 -15 -7 -1 29 10 27 11 27 25 9 8 -11 14 -26 14 -34z m55 7 c0
-8 -10 -15 -22 -17 -20 -3 -23 1 -23 29 0 30 1 31 23 17 12 -9 22 -22 22 -29z
m405 31 c-13 -9 -13 -11 0 -19 10 -7 20 -5 31 5 14 13 18 13 29 -1 10 -12 9
-15 -6 -15 -14 0 -16 -2 -6 -9 9 -5 -2 -8 -30 -8 -27 0 -36 2 -24 7 17 6 18 7
3 13 -22 8 -22 37 1 37 14 0 15 -2 2 -10z m595 -20 c0 -18 -7 -26 -23 -28 -19
-3 -22 1 -22 28 0 27 3 31 22 28 16 -2 23 -10 23 -28z m22 -17 c-3 -10 -5 -2
-5 17 0 19 2 27 5 18 2 -10 2 -26 0 -35z m376 40 c-27 -5 -31 -39 -5 -46 16
-4 16 -5 -1 -6 -10 0 -20 6 -23 14 -10 24 4 45 28 44 l23 -2 -22 -4z m282 -28
c0 -14 -3 -25 -7 -25 -4 0 -8 14 -8 32 0 36 13 30 15 -7z m1638 28 c-10 -3
-10 -9 0 -23 15 -25 -5 -52 -25 -32 -9 9 -8 12 8 12 18 1 18 1 2 11 -26 14
-22 39 5 38 12 0 17 -3 10 -6z m33 -1 c-3 -5 19 -8 47 -8 51 1 52 0 54 -29 1
-20 0 -23 -4 -7 -6 28 -23 29 -23 0 0 -12 -3 -18 -7 -15 -3 4 -11 -1 -18 -10
-18 -24 -48 -10 -40 19 7 23 7 23 -9 3 -15 -19 -15 -18 -16 18 0 20 5 37 11
37 5 0 8 -4 5 -8z m-3828 -30 c3 -17 -2 -22 -17 -22 -14 0 -21 6 -21 18 0 38
33 41 38 4z m79 -3 l2 -24 -9 25 -8 25 -8 -25 -8 -25 -7 25 -6 25 -11 -25
c-10 -23 -11 -24 -11 -3 -2 39 63 41 66 2z m63 10 c0 -5 -8 -9 -17 -9 -15 0
-16 -2 -3 -10 13 -8 13 -10 -2 -10 -23 0 -32 18 -18 35 12 14 40 10 40 -6z
m388 -7 c3 -17 -2 -22 -17 -22 -14 0 -21 6 -21 18 0 38 33 41 38 4z m87 3 c0
-14 -3 -25 -7 -25 -5 0 -8 11 -8 25 0 14 3 25 8 25 4 0 7 -11 7 -25z m478 18
c-7 -2 -13 -11 -13 -18 0 -7 6 -16 13 -18 7 -3 5 -6 -5 -6 -11 -1 -18 6 -18
17 0 21 9 32 24 31 6 0 5 -3 -1 -6z m55 -11 c2 -7 -4 -12 -13 -12 -10 0 -14
-5 -9 -12 5 -10 4 -10 -6 -1 -7 6 -10 19 -6 28 7 18 27 16 34 -3z m32 8 c-12
-8 -12 -10 3 -16 9 -3 14 -10 11 -16 -3 -5 -12 -1 -19 9 -14 19 -11 33 8 33 7
0 6 -4 -3 -10z m370 -5 c13 -16 6 -35 -15 -35 -18 0 -28 17 -21 35 7 19 20 19
36 0z m50 -2 c0 -15 -2 -16 -10 -3 -5 8 -10 11 -10 6 0 -5 7 -18 17 -28 9 -10
13 -21 9 -25 -4 -4 -11 -1 -15 6 -7 11 -9 11 -13 0 -9 -24 -16 -5 -11 29 5 33
33 46 33 15z m338 -11 c3 -16 -2 -22 -16 -22 -24 0 -35 23 -19 39 16 16 31 8
35 -17z m62 -8 c0 -23 -18 -16 -23 9 -4 22 -4 22 -15 -3 -10 -24 -11 -24 -11
-3 -1 12 5 23 12 26 15 6 37 -11 37 -29z m25 11 c0 -14 -3 -25 -7 -25 -5 0 -8
11 -8 25 0 14 3 25 8 25 4 0 7 -11 7 -25z m53 -3 c3 -17 -2 -22 -17 -22 -25 0
-28 18 -5 27 13 5 13 8 2 15 -10 8 -10 9 2 5 8 -2 16 -13 18 -25z m34 16 c-17
-17 -15 -26 6 -31 15 -4 15 -5 0 -6 -23 -1 -32 17 -18 34 7 8 15 15 18 15 3 0
1 -5 -6 -12z m1928 -13 c0 -28 -19 -35 -21 -7 -1 16 -2 16 -6 0 -7 -27 -23
-22 -23 7 0 20 5 25 25 25 20 0 25 -5 25 -25z m-3479 -15 c5 0 9 7 9 15 0 8 5
15 10 15 6 0 10 -9 10 -20 0 -15 -7 -20 -25 -20 -20 0 -25 5 -24 23 1 16 2 18
6 5 2 -10 9 -18 14 -18z m412 10 c-3 -11 -7 -20 -9 -20 -2 0 -4 9 -4 20 0 11
4 20 9 20 5 0 7 -9 4 -20z m51 12 c3 7 5 4 3 -6 -3 -27 -23 -31 -30 -6 -4 17
-3 19 8 10 10 -8 15 -7 19 2z m23 -24 c-3 -7 -5 -2 -5 12 0 14 2 19 5 13 2 -7
2 -19 0 -25z m-3107 -97 c0 -11 -4 -23 -10 -26 -6 -4 -10 5 -10 19 0 14 5 26
10 26 6 0 10 -9 10 -19z m40 -21 c0 -5 -7 -10 -16 -10 -8 0 -12 5 -9 10 3 6
10 10 16 10 5 0 9 -4 9 -10z m5710 -960 c0 -5 -5 -10 -11 -10 -5 0 -7 5 -4 10
3 6 8 10 11 10 2 0 4 -4 4 -10z m0 -55 c0 -8 -2 -15 -4 -15 -2 0 -6 7 -10 15
-3 8 -1 15 4 15 6 0 10 -7 10 -15z m547 -67 c-3 -8 -6 -5 -6 6 -1 11 2 17 5
13 3 -3 4 -12 1 -19z m38 -100 c74 -318 92 -674 51 -988 -13 -98 -38 -258 -42
-270 -4 -11 -11 -8 -29 15 -13 16 -27 26 -30 23 -8 -8 -34 -198 -35 -250 0
-25 24 -92 74 -204 68 -152 106 -219 106 -186 0 7 -4 12 -10 12 -5 0 -10 5
-10 11 0 5 5 7 10 4 12 -8 12 28 0 240 -5 88 -14 173 -20 189 -15 40 -6 43 13
4 l17 -33 0 38 c0 20 5 37 11 37 5 0 7 -5 3 -12 -4 -7 -3 -8 4 -4 6 4 25 0 42
-9 29 -15 30 -15 31 7 1 18 3 16 10 -10 5 -18 14 -30 19 -27 12 7 90 -32 90
-46 0 -6 4 -8 8 -5 5 3 16 -4 25 -15 19 -21 22 -33 7 -24 -5 3 -10 1 -10 -4 0
-6 5 -11 10 -11 6 0 10 -6 10 -13 0 -7 9 -30 20 -52 58 -114 -12 -250 -170
-329 -88 -45 -149 -63 -255 -77 -162 -21 -333 5 -470 71 -128 61 -205 155
-205 250 0 41 44 150 64 159 4 2 3 7 -4 11 -16 10 17 43 36 36 8 -3 13 0 11 6
-1 7 21 24 48 40 52 29 70 34 61 19 -4 -5 3 -7 15 -4 16 4 17 8 7 14 -8 5 -1
8 19 6 25 -1 33 -7 33 -22 1 -17 3 -16 16 8 8 15 17 27 19 27 3 0 0 -12 -6
-27 -23 -60 -38 -479 -17 -466 11 6 64 117 131 274 l45 105 -17 132 c-17 129
-25 156 -39 137 -4 -6 -15 -17 -26 -25 -18 -14 -18 -12 -15 27 3 23 1 39 -2
37 -4 -2 -9 12 -11 32 -5 43 2 48 38 29 34 -17 44 -19 44 -6 0 5 -8 12 -17 16
-28 9 -70 50 -78 74 -7 22 -6 22 25 6 55 -29 66 -13 14 23 -36 26 -44 36 -33
43 10 6 10 9 2 9 -7 0 -13 11 -13 25 0 14 4 25 8 25 11 0 9 286 -1 296 -4 4
-5 -12 -2 -37 3 -24 2 -66 -3 -94 -8 -42 -9 -35 -7 48 2 54 5 101 8 103 3 3
14 -14 25 -38 23 -53 65 -76 114 -62 75 22 100 135 45 207 -52 69 -120 86
-157 40 l-21 -26 6 59 c6 63 1 64 -10 1 -3 -21 -10 -35 -16 -32 -5 4 -4 15 3
28 6 12 12 60 14 107 1 47 2 100 3 118 1 18 4 31 9 29 4 -3 8 10 9 29 3 67 6
84 14 90 4 2 6 11 3 18 -4 9 11 6 42 -10 82 -42 215 -30 249 22 19 30 33 31
40 2z m-2088 -20 c-3 -7 -5 -2 -5 12 0 14 2 19 5 13 2 -7 2 -19 0 -25z m243
-72 c0 -2 -8 -10 -17 -17 -16 -13 -17 -12 -4 4 13 16 21 21 21 13z m19 -32
c-6 -7 -15 -11 -21 -8 -5 3 -4 12 3 20 6 7 15 11 21 8 5 -3 4 -12 -3 -20z m31
2 c0 -2 -8 -10 -17 -17 -16 -13 -17 -12 -4 4 13 16 21 21 21 13z m-525 -26
c18 -11 40 -31 49 -45 15 -22 15 -25 0 -33 -12 -6 -23 -2 -40 15 -13 12 -30
23 -37 23 -17 0 -49 44 -40 54 11 11 35 6 68 -14z m-3527 -18 c3 -19 -1 -22
-27 -22 -24 0 -31 4 -31 19 0 37 53 39 58 3z m220 16 c17 -17 15 -26 -7 -37
-13 -7 -24 -6 -37 3 -15 12 -16 16 -5 30 16 19 33 20 49 4z m270 -16 c3 -19
-1 -22 -27 -22 -24 0 -31 4 -31 19 0 37 53 39 58 3z m461 19 c21 -13 5 -41
-24 -41 -18 0 -25 5 -25 18 0 31 21 41 49 23z m825 3 c9 -3 16 -15 16 -25 0
-14 -7 -19 -30 -19 -22 0 -30 5 -30 18 0 30 13 38 44 26z m-1624 -20 c0 -9 -9
-18 -20 -21 -23 -6 -27 -23 -5 -23 9 0 15 -9 15 -25 0 -16 -6 -25 -15 -25 -12
0 -15 -13 -15 -60 l0 -60 -30 0 -30 0 0 60 c0 33 -4 60 -10 60 -5 0 -10 9 -10
19 0 11 5 23 10 26 6 3 10 14 10 24 0 27 21 41 62 41 28 0 38 -4 38 -16z m630
-99 l0 -115 -30 0 -30 0 0 115 0 115 30 0 30 0 0 -115z m810 0 l0 -115 -30 0
-30 0 0 115 0 115 30 0 30 0 0 -115z m100 0 l0 -115 -30 0 -30 0 0 115 0 115
30 0 30 0 0 -115z m-2093 5 c39 -119 39 -120 4 -120 -21 0 -32 6 -36 20 -5 15
-15 20 -40 20 -25 0 -35 -5 -40 -20 -4 -14 -15 -20 -36 -20 -16 0 -29 3 -29 8
0 4 14 53 32 110 l32 103 40 -3 41 -3 32 -95z m273 65 c0 -8 9 -15 20 -15 28
0 27 -40 -1 -47 -16 -5 -19 -12 -17 -42 2 -27 7 -36 21 -35 12 1 17 -5 17 -22
0 -21 -5 -24 -38 -24 -49 0 -62 14 -62 67 0 24 -6 52 -12 64 -11 17 -10 22 5
30 9 6 17 17 17 24 0 9 10 15 25 15 16 0 25 -6 25 -15z m1400 0 c0 -8 9 -15
20 -15 15 0 20 -7 20 -25 0 -14 -3 -24 -7 -24 -28 5 -34 -3 -31 -38 2 -29 7
-38 21 -37 12 1 17 -5 17 -22 0 -21 -5 -24 -38 -24 -50 0 -62 14 -62 72 0 26
-4 48 -10 48 -16 0 -12 19 12 50 23 32 58 40 58 15z m-1568 -26 c3 -9 9 -9 25
0 33 17 43 14 43 -14 0 -15 -6 -25 -14 -25 -28 0 -46 -30 -46 -76 0 -40 -2
-44 -25 -44 -25 0 -25 1 -25 85 0 77 2 85 19 85 11 0 21 -5 23 -11z m298 -74
l0 -85 -30 0 -30 0 0 85 0 85 30 0 30 0 0 -85z m227 -2 l1 -83 -29 0 -29 0 0
86 0 85 28 -3 c27 -3 27 -3 29 -85z m167 78 c12 -19 -6 -43 -27 -37 -28 7 -47
-11 -47 -44 0 -33 20 -43 55 -30 22 8 25 7 25 -14 0 -27 -16 -36 -66 -36 -46
0 -74 29 -74 79 0 58 30 91 85 91 24 0 46 -4 49 -9z m96 -76 l0 -85 -30 0 -30
0 0 85 0 85 30 0 30 0 0 -85z m174 69 c12 -11 16 -35 16 -85 0 -62 -2 -69 -19
-69 -11 0 -23 5 -27 11 -4 8 -9 8 -17 0 -6 -6 -26 -11 -44 -11 -26 0 -36 6
-45 25 -18 40 3 73 52 81 22 4 40 11 40 17 0 5 -14 7 -34 4 -26 -4 -36 -2 -41
10 -3 9 0 20 7 25 23 14 96 9 112 -8z m296 -69 l0 -85 -30 0 -30 0 0 85 0 85
30 0 30 0 0 -85z m87 74 c8 -8 13 -8 17 0 10 15 69 14 84 -1 7 -7 12 -42 12
-85 l0 -73 -30 0 c-30 0 -30 0 -30 58 0 63 -4 74 -26 65 -10 -4 -14 -23 -14
-64 0 -59 0 -59 -30 -59 l-30 0 0 85 c0 75 2 85 18 85 10 0 23 -5 29 -11z
m433 -11 c11 -12 20 -34 20 -50 0 -27 -2 -28 -51 -28 -36 0 -49 -4 -46 -12 2
-8 21 -13 46 -12 37 1 42 -2 39 -20 -2 -17 -11 -22 -50 -24 -26 -2 -56 2 -67
8 -41 21 -44 118 -4 148 28 20 89 15 113 -10z m310 -63 l0 -85 -30 0 -30 0 0
85 0 85 30 0 30 0 0 -85z m200 70 c0 -8 -4 -15 -10 -15 -5 0 -10 -9 -10 -19 0
-37 -12 -51 -54 -63 l-41 -12 48 -6 c68 -9 83 -36 46 -84 -18 -22 -28 -26 -74
-26 -72 0 -110 37 -71 70 8 6 12 18 9 26 -3 8 -1 20 5 27 7 8 6 18 -4 31 -19
27 -18 42 6 66 26 26 150 30 150 5z m160 -5 c11 -11 20 -33 20 -50 0 -29 -1
-30 -51 -30 -36 0 -49 -4 -46 -12 2 -8 21 -13 46 -12 37 1 42 -2 39 -20 -3
-18 -11 -21 -55 -24 -68 -4 -93 18 -93 83 0 59 25 85 80 85 27 0 47 -7 60 -20z
m100 8 c0 -9 3 -9 12 0 7 7 27 12 44 12 47 0 64 -29 64 -107 l0 -63 -30 0
c-30 0 -30 1 -30 53 0 64 -11 87 -34 68 -11 -9 -16 -30 -16 -67 0 -53 0 -54
-30 -54 l-30 0 0 85 c0 84 0 85 25 85 14 0 25 -5 25 -12z m285 -13 c0 -15 -7
-20 -25 -20 -35 0 -50 -12 -50 -39 0 -35 25 -52 56 -37 24 11 25 10 22 -16 -3
-26 -7 -28 -49 -31 -41 -3 -50 1 -68 24 -29 37 -28 88 4 120 20 20 33 25 68
22 34 -2 42 -7 42 -23z m168 11 c10 -8 21 -30 24 -50 l6 -36 -53 0 c-37 0 -50
-4 -47 -12 2 -8 21 -13 46 -12 37 1 42 -2 39 -20 -3 -18 -11 -21 -55 -24 -42
-2 -56 1 -72 17 -29 29 -29 103 -1 131 23 23 85 27 113 6z m1658 -18 c16 -31
15 -31 38 -19 18 10 23 7 43 -29 13 -22 31 -40 41 -40 13 0 17 -8 17 -35 l0
-35 -62 36 c-35 19 -78 42 -95 51 -27 14 -33 23 -33 49 0 29 9 41 32 43 4 1
13 -9 19 -21z m-249 -163 c20 -31 42 -51 56 -53 18 -3 54 -42 38 -42 -8 0
-131 72 -141 82 -7 8 -6 8 4 3 10 -5 12 -4 7 4 -4 6 -11 9 -16 6 -10 -6 -70
21 -70 31 0 4 8 4 18 2 10 -3 27 1 37 9 25 18 28 16 67 -42z m462 -7 c-5 -7
-2 -9 7 -6 11 4 15 -1 15 -17 0 -13 -4 -21 -8 -19 -5 3 -5 10 -2 16 5 8 1 9
-10 5 -11 -5 -15 -3 -10 5 5 8 2 9 -9 5 -18 -7 -33 8 -17 18 6 4 7 11 4 17 -4
6 2 5 15 -2 12 -6 18 -16 15 -22z m51 -17 c3 -5 2 -12 -3 -15 -5 -3 -9 1 -9 9
0 17 3 19 12 6z m-245 -159 c22 -9 42 -23 45 -31 4 -11 1 -11 -17 1 -13 8 -53
32 -90 52 -62 35 -90 56 -53 42 8 -3 14 -2 14 2 -1 4 2 17 6 30 7 20 10 18 31
-28 19 -41 32 -55 64 -68z m305 100 c-3 -3 -11 0 -18 7 -9 10 -8 11 6 5 10 -3
15 -9 12 -12z m777 -64 c-6 -6 -7 0 -4 19 5 21 7 23 10 9 2 -10 0 -22 -6 -28z
m-5282 -28 c0 -37 2 -40 19 -30 28 14 38 13 61 -10 15 -15 20 -33 20 -70 0
-73 -39 -107 -90 -80 -13 7 -21 7 -25 0 -3 -5 -15 -10 -26 -10 -18 0 -19 8
-19 120 l0 120 30 0 c28 0 30 -2 30 -40z m1472 34 c14 -13 -6 -44 -28 -44 -26
0 -38 14 -30 35 5 14 47 21 58 9z m-2094 -20 c26 -18 28 -50 5 -76 -13 -15
-14 -21 -4 -31 10 -9 14 -8 22 6 6 10 22 17 39 17 l30 0 -16 -40 c-15 -38 -15
-42 0 -59 9 -10 16 -21 16 -24 0 -10 -52 -8 -68 2 -7 4 -30 4 -50 -2 -48 -12
-89 4 -103 40 -8 22 -6 32 10 54 15 21 19 34 13 51 -12 32 -5 54 21 66 32 15
59 14 85 -4z m334 -2 c18 -18 -3 -41 -35 -39 -45 3 -46 -15 -3 -37 39 -21 52
-50 42 -90 -7 -30 -63 -51 -112 -42 -28 6 -34 11 -34 32 0 24 2 25 45 18 37
-5 45 -4 45 10 0 8 -18 25 -40 36 -86 44 -49 138 49 125 19 -2 38 -8 43 -13z
m5408 8 c0 -5 -4 -10 -10 -10 -5 0 -10 5 -10 10 0 6 5 10 10 10 6 0 10 -4 10
-10z m-3540 -25 c0 -8 9 -15 20 -15 15 0 20 -7 20 -25 0 -18 -5 -25 -20 -25
-17 0 -20 -7 -20 -40 0 -36 3 -40 25 -40 27 0 33 -18 13 -38 -17 -17 -49 -15
-76 4 -18 12 -22 25 -22 65 0 27 -4 49 -10 49 -5 0 -10 7 -10 15 0 8 5 15 10
15 6 0 16 11 22 25 12 27 48 34 48 10z m4340 -15 c0 -5 -4 -10 -10 -10 -5 0
-10 5 -10 10 0 6 5 10 10 10 6 0 10 -4 10 -10z m-6109 -60 l17 -55 17 58 c15
53 19 57 46 57 16 0 29 -2 29 -5 0 -2 -18 -51 -41 -109 -41 -108 -63 -136
-106 -136 -18 0 -23 6 -23 25 0 15 6 25 14 25 35 0 37 26 6 101 -37 92 -38
101 -3 97 24 -3 30 -11 44 -58z m442 49 c30 -16 37 -28 37 -66 l0 -33 -52 0
c-48 -1 -51 -2 -34 -15 11 -8 30 -12 47 -8 24 5 29 2 29 -15 0 -34 -59 -43
-109 -17 -32 16 -41 33 -41 76 0 70 63 109 123 78z m121 -4 c5 -14 8 -14 30 1
31 20 45 12 38 -21 -3 -18 -11 -25 -28 -25 -21 0 -23 -5 -26 -57 -3 -55 -4
-58 -30 -61 l-28 -3 0 90 c0 83 2 91 19 91 10 0 22 -7 25 -15z m280 5 c37 -14
24 -43 -15 -35 -38 9 -37 -9 1 -25 33 -14 49 -53 33 -79 -13 -21 -65 -35 -97
-27 -19 4 -26 13 -26 29 0 20 4 23 35 19 19 -2 35 -2 35 1 0 3 -16 14 -35 26
-28 16 -35 27 -35 51 0 43 48 62 104 40z m199 -21 c9 -12 17 -34 17 -50 0 -28
-2 -29 -50 -29 -27 0 -50 -4 -50 -9 0 -14 28 -21 60 -14 26 5 30 2 30 -15 0
-40 -100 -41 -135 -2 -11 12 -18 36 -18 62 0 57 39 93 92 84 20 -3 44 -15 54
-27z m164 25 c17 -5 20 -10 14 -27 -7 -17 -15 -21 -39 -19 -34 4 -49 -21 -37
-59 6 -18 13 -20 41 -16 31 5 34 3 34 -18 0 -52 -107 -40 -130 15 -32 77 34
146 117 124z m103 -49 c0 -57 11 -81 33 -72 11 4 17 23 19 64 3 56 4 58 31 59
l27 1 0 -88 c0 -83 -1 -89 -20 -86 -11 2 -22 6 -26 9 -3 4 -16 2 -29 -4 -59
-27 -95 17 -95 113 0 48 7 57 43 56 14 -1 17 -11 17 -52z m192 41 c12 -11 17
-11 33 0 30 22 45 17 45 -15 0 -25 -4 -30 -27 -33 -26 -3 -28 -7 -31 -53 -4
-58 -12 -70 -41 -60 -19 6 -21 14 -21 84 0 92 10 110 42 77z m158 -77 l0 -90
-27 3 c-27 3 -28 5 -31 76 -4 89 0 102 33 102 25 0 25 0 25 -91z m241 31 l17
-55 16 55 c15 51 19 56 47 58 22 2 30 -1 27 -10 -3 -7 -20 -53 -38 -103 -35
-95 -66 -135 -106 -135 -19 0 -24 5 -24 25 0 18 5 25 19 25 32 0 32 26 1 102
-37 90 -37 95 -3 94 24 -1 29 -7 44 -56z m2002 -169 c1 -20 -2 -52 -6 -71 l-8
-35 16 28 c9 15 13 32 10 37 -4 6 1 7 11 3 11 -4 15 -3 11 4 -4 6 -4 18 -1 27
5 12 11 9 31 -14 14 -17 29 -28 33 -25 5 3 13 -2 18 -11 6 -11 22 -16 52 -16
23 1 40 -2 37 -5 -3 -3 -21 -5 -41 -5 -34 0 -34 -1 -23 -26 6 -15 18 -38 26
-52 l15 -25 -27 24 c-15 14 -27 32 -27 40 0 13 -2 14 -9 2 -7 -11 -17 -9 -56
12 l-47 27 -19 -24 c-11 -14 -32 -26 -47 -28 -22 -2 -27 -9 -30 -33 -4 -46 11
-62 43 -47 38 18 73 15 111 -9 32 -19 39 -43 11 -34 -50 15 -66 15 -60 -1 5
-14 3 -15 -15 -5 -18 10 -22 9 -22 -4 0 -11 11 -15 40 -15 22 0 40 -4 40 -10
0 -5 -10 -10 -21 -10 -17 0 -19 -3 -10 -13 12 -15 211 -121 215 -116 14 16 96
168 96 177 0 7 -10 12 -22 12 -19 0 -20 2 -8 11 11 7 3 9 -30 5 l-45 -6 45 16
c25 8 50 16 57 16 7 1 21 23 33 50 21 50 40 63 40 28 0 -11 4 -20 9 -20 5 0
19 -16 30 -36 24 -40 25 -32 -24 -101 -7 -9 -6 -16 3 -22 11 -7 11 -9 -2 -14
-9 -4 -16 -14 -16 -23 0 -17 -58 -120 -96 -171 -31 -41 -56 -42 -178 -8 -49
13 -92 22 -95 20 -3 -1 -2 -69 3 -150 7 -122 6 -149 -5 -157 -29 -19 -160 -3
-239 31 -112 47 -107 40 -85 110 15 52 16 67 6 101 -13 45 -31 50 -60 18 -23
-24 -79 -28 -92 -6 -19 29 -9 169 17 254 29 93 56 124 107 124 32 0 67 24 67
47 0 9 13 13 39 13 33 0 43 5 61 30 13 18 30 30 44 30 23 0 46 43 46 86 0 11
5 25 12 32 15 15 28 -13 31 -67z m1444 -83 c-2 -24 -4 -5 -4 42 0 47 2 66 4
43 2 -24 2 -62 0 -85z m137 42 c-7 -15 -9 -7 -10 32 0 50 0 51 9 20 6 -19 6
-40 1 -52z m906 36 c0 -8 -7 -17 -16 -20 -23 -9 -24 -8 -24 14 0 13 7 20 20
20 11 0 20 -6 20 -14z m-2230 -71 c7 -8 10 -15 7 -15 -3 0 5 -12 18 -26 14
-15 25 -32 25 -37 0 -6 -17 7 -38 29 -20 21 -36 42 -35 46 2 3 -3 9 -9 11 -9
4 -7 6 3 6 9 1 22 -6 29 -14z m1980 -9 c0 -8 -4 -17 -9 -20 -10 -7 -23 19 -14
28 11 11 23 6 23 -8z m-793 -108 c-2 -13 -4 -5 -4 17 -1 22 1 32 4 23 2 -10 2
-28 0 -40z m849 27 c-11 -8 -25 -15 -30 -15 -6 1 0 7 14 15 32 19 40 18 16 0z
m-149 -222 c-1 -43 -3 -10 -3 72 0 83 2 118 3 78 2 -40 2 -107 0 -150z m-787
177 c0 -5 -7 -10 -16 -10 -8 0 -12 5 -9 10 3 6 10 10 16 10 5 0 9 -4 9 -10z
m-4993 -132 c-2 -13 -4 -5 -4 17 -1 22 1 32 4 23 2 -10 2 -28 0 -40z m214 32
c14 0 19 -7 18 -27 -2 -24 -2 -25 -6 -5 -2 12 -11 22 -18 22 -7 0 -16 -10 -18
-22 -2 -13 -5 -5 -5 17 0 22 2 34 5 28 2 -7 13 -13 24 -13z m106 -32 c-2 -13
-4 -5 -4 17 -1 22 1 32 4 23 2 -10 2 -28 0 -40z m63 17 c0 -29 -4 -35 -20 -35
-24 0 -38 26 -22 42 8 8 9 5 5 -11 -4 -15 -1 -21 11 -21 10 0 17 7 15 18 -2
25 0 42 6 42 3 0 5 -16 5 -35z m797 -17 c-2 -13 -4 -5 -4 17 -1 22 1 32 4 23
2 -10 2 -28 0 -40z m313 17 c0 -30 -3 -35 -22 -34 -18 1 -19 2 -5 6 10 3 17
12 16 21 -2 25 0 42 6 42 3 0 5 -16 5 -35z m212 -11 c-6 -35 -12 -29 -12 14 0
23 3 32 9 24 4 -7 6 -24 3 -38z m370 0 c-6 -35 -12 -29 -12 14 0 23 3 32 9 24
4 -7 6 -24 3 -38z m-1380 6 c5 -36 -8 -41 -14 -5 -4 21 -1 35 8 35 1 0 4 -13
6 -30z m971 4 c-3 -9 0 -20 8 -26 12 -8 11 -9 -1 -5 -8 2 -16 16 -18 31 -2 18
0 26 7 22 5 -4 7 -14 4 -22z m-2405 -6 c-2 -13 -11 -23 -21 -24 -12 -1 -13 -1
-2 3 8 2 15 11 15 20 0 9 -6 13 -15 9 -8 -3 -15 -1 -15 4 0 6 9 10 21 10 15 0
20 -5 17 -22z m46 14 c-7 -4 -14 -16 -17 -27 -4 -15 -5 -14 -6 8 -1 20 4 27
17 27 11 0 13 -3 6 -8z m31 -2 c-3 -5 -2 -10 4 -10 5 0 12 6 14 13 3 7 6 5 6
-5 1 -11 -6 -18 -16 -19 -15 0 -15 -2 2 -9 16 -7 17 -9 3 -9 -9 -1 -20 4 -23
9 -7 12 0 40 10 40 4 0 3 -4 0 -10z m86 -17 c-5 -26 -6 -26 -9 -5 -2 12 -7 22
-12 22 -5 0 -11 -10 -13 -22 -4 -20 -4 -19 -6 5 -1 22 3 27 23 27 20 0 22 -4
17 -27z m37 -9 c-3 -14 -5 -12 -10 9 -3 19 -2 25 4 19 6 -6 8 -18 6 -28z m49
-1 c-3 -10 -5 -4 -5 12 0 17 2 24 5 18 2 -7 2 -21 0 -30z m35 15 c-4 -17 -2
-20 11 -15 10 4 17 2 17 -3 0 -6 -6 -10 -14 -10 -8 0 -17 -6 -19 -12 -3 -7 -6
4 -6 25 -1 20 3 37 8 37 5 0 7 -10 3 -22z m73 -7 c-6 -5 -25 10 -25 20 0 5 6
4 14 -3 8 -7 12 -15 11 -17z m57 -5 c14 4 18 2 14 -5 -4 -6 -16 -11 -27 -11
-14 0 -19 6 -18 28 2 24 2 24 6 4 4 -18 9 -21 25 -16z m40 9 c-2 -14 -6 -25
-8 -25 -2 0 -4 11 -4 25 0 14 4 25 9 25 4 0 6 -11 3 -25z m67 -2 c-2 -24 -2
-25 -6 -5 -2 12 -8 22 -13 22 -5 0 -10 -10 -12 -22 -3 -21 -4 -21 -9 5 -5 23
-3 27 17 27 20 0 24 -5 23 -27z m105 -15 c-3 -4 -13 -8 -22 -7 -14 0 -14 2 2
8 18 7 18 8 3 14 -9 3 -17 11 -17 17 0 5 9 2 19 -7 11 -9 18 -20 15 -25z m86
32 c0 -5 -7 -7 -15 -4 -10 4 -15 0 -15 -11 0 -11 5 -15 15 -11 8 3 15 1 15 -4
0 -6 -6 -10 -14 -10 -8 0 -17 -6 -19 -12 -3 -7 -6 4 -6 25 -1 31 2 37 19 37
11 0 20 -4 20 -10z m90 -17 c0 -30 -9 -27 -15 6 -2 11 0 21 6 21 5 0 9 -12 9
-27z m23 8 c-3 -13 1 -21 14 -24 15 -4 15 -5 1 -6 -20 -1 -32 15 -24 34 8 22
15 18 9 -4z m52 9 c-3 -5 1 -10 10 -10 10 0 13 5 9 12 -4 7 -3 8 5 4 15 -10 4
-26 -17 -26 -15 0 -15 -2 -2 -10 9 -6 10 -10 3 -10 -6 0 -15 5 -18 10 -7 12 0
40 10 40 4 0 3 -4 0 -10z m153 -12 c-2 -13 -11 -23 -21 -24 -14 -2 -14 -1 -1
3 10 3 14 12 11 24 -3 10 -1 19 5 19 5 0 8 -10 6 -22z m142 12 c8 13 10 12 10
-2 0 -10 -7 -18 -16 -18 -8 0 -12 -4 -9 -10 3 -5 2 -10 -4 -10 -12 0 -20 21
-13 38 4 11 6 11 13 0 7 -11 11 -10 19 2z m44 -5 c-4 -8 -8 -15 -10 -15 -2 0
-4 7 -4 15 0 8 4 15 10 15 5 0 7 -7 4 -15z m101 5 c-3 -5 2 -11 12 -11 16 -1
15 -2 -2 -7 l-20 -5 20 -8 c16 -6 17 -8 3 -8 -9 -1 -20 4 -23 9 -7 12 0 40 10
40 4 0 3 -4 0 -10z m80 -15 c0 -12 -6 -21 -15 -21 -9 0 -15 9 -15 21 0 12 6
21 15 21 9 0 15 -9 15 -21z m98 6 c-3 -13 1 -21 14 -24 15 -4 15 -5 1 -6 -20
-1 -32 15 -24 34 8 22 15 18 9 -4z m85 -4 c4 -20 -25 -34 -40 -19 -15 15 -1
44 19 40 10 -2 19 -11 21 -21z m24 -2 c-2 -14 -6 -25 -8 -25 -2 0 -4 11 -4 25
0 14 4 25 9 25 4 0 6 -11 3 -25z m67 -2 c-2 -24 -2 -25 -6 -5 -2 12 -8 22 -13
22 -5 0 -10 -10 -12 -22 -3 -21 -4 -21 -9 5 -5 23 -3 27 17 27 20 0 24 -5 23
-27z m28 -10 c-3 -10 -5 -4 -5 12 0 17 2 24 5 18 2 -7 2 -21 0 -30z m35 12
c-2 -14 -6 -25 -7 -25 -1 0 -5 11 -7 25 -3 16 -1 25 7 25 8 0 10 -9 7 -25z
m36 -11 c-3 -14 -5 -12 -10 9 -3 19 -2 25 4 19 6 -6 8 -18 6 -28z m25 16 c-4
-14 0 -20 12 -20 12 0 16 6 12 20 -3 11 -1 18 4 14 14 -9 10 -34 -7 -41 -8 -3
-20 -1 -26 5 -6 6 -8 18 -5 26 9 23 16 20 10 -4z m94 -17 c-3 -10 -5 -4 -5 12
0 17 2 24 5 18 2 -7 2 -21 0 -30z m81 7 c-13 -39 -23 -44 -25 -13 0 16 2 21 7
14 5 -9 9 -6 13 8 3 12 8 21 11 21 3 0 0 -14 -6 -30z m92 5 c0 -18 -5 -25 -20
-25 -11 0 -20 4 -20 10 0 5 7 7 15 4 10 -4 15 0 15 15 0 12 2 21 5 21 3 0 5
-11 5 -25z m50 -16 c0 -7 -6 -4 -15 7 -19 25 -19 40 0 20 8 -8 15 -20 15 -27z
m50 31 c8 13 10 12 10 -2 0 -10 -7 -18 -16 -18 -8 0 -12 -4 -9 -10 3 -5 1 -10
-4 -10 -6 0 -11 12 -11 28 0 21 2 24 10 12 9 -13 11 -13 20 0z m33 -5 c-3 -9
-8 -14 -10 -11 -3 3 -2 9 2 15 9 16 15 13 8 -4z m119 -10 c-2 -14 -6 -25 -8
-25 -2 0 -4 11 -4 25 0 14 4 25 9 25 4 0 6 -11 3 -25z m38 0 c0 -14 -2 -25 -4
-25 -2 0 -6 11 -8 25 -3 14 -1 25 3 25 5 0 9 -11 9 -25z m128 -11 c-3 -14 -5
-12 -10 9 -3 19 -2 25 4 19 6 -6 8 -18 6 -28z m27 26 c-3 -5 0 -10 7 -10 10 0
10 -2 -1 -9 -11 -7 -10 -10 5 -14 16 -4 16 -5 2 -6 -9 0 -20 4 -23 9 -7 12 0
40 10 40 4 0 3 -4 0 -10z m33 -15 c-3 -3 -9 2 -12 12 -6 14 -5 15 5 6 7 -7 10
-15 7 -18z m82 16 c0 -6 -4 -12 -8 -15 -5 -3 -9 1 -9 9 0 8 4 15 9 15 4 0 8
-4 8 -9z m100 -23 c0 -26 -9 -19 -15 11 -2 12 0 19 6 16 5 -4 9 -16 9 -27z
m60 7 c0 -18 -5 -25 -20 -25 -11 0 -20 4 -20 10 0 5 7 7 15 4 9 -4 15 0 15 9
0 9 -8 18 -17 20 -14 4 -12 5 5 6 17 1 22 -4 22 -24z m57 -12 c-3 -10 -5 -4
-5 12 0 17 2 24 5 18 2 -7 2 -21 0 -30z m30 0 c-3 -10 -5 -4 -5 12 0 17 2 24
5 18 2 -7 2 -21 0 -30z m36 21 c-3 -9 0 -20 8 -25 11 -7 11 -9 -3 -9 -13 0
-18 8 -18 25 0 14 4 25 10 25 5 0 7 -7 3 -16z m-286 -51 c-4 -3 -7 -1 -7 5 0
7 -7 12 -15 12 -8 0 -15 -5 -15 -12 0 -6 -2 -9 -5 -7 -2 3 -2 15 1 26 6 22 6
22 27 3 11 -11 17 -23 14 -27z m70 32 c0 -8 -4 -12 -9 -9 -5 3 -6 10 -3 15 9
13 12 11 12 -6z m2207 -25 c7 -24 6 -24 -6 -4 -7 12 -19 19 -27 16 -12 -4 -12
-3 0 11 16 18 24 12 33 -23z m-4961 13 c-7 -2 -19 -2 -25 0 -7 3 -2 5 12 5 14
0 19 -2 13 -5z m5142 -13 c3 -6 -1 -7 -9 -4 -18 7 -21 14 -7 14 6 0 13 -4 16
-10z m-25 -86 c0 -4 -11 3 -24 16 -15 13 -32 20 -41 16 -13 -5 -14 -2 -4 16
11 21 12 21 40 -10 16 -17 29 -34 29 -38z m-4690 -29 c0 -19 -4 -35 -9 -35 -5
0 -7 9 -4 20 4 14 0 20 -12 20 -12 0 -16 -6 -12 -20 3 -11 1 -18 -4 -14 -16
10 -9 36 11 41 11 3 20 9 20 14 0 5 2 9 5 9 3 0 5 -16 5 -35z m196 15 c8 0 14
-4 14 -10 0 -5 -7 -7 -15 -4 -10 4 -15 0 -15 -11 0 -11 5 -15 15 -11 8 3 15 1
15 -4 0 -6 -9 -10 -20 -10 -17 0 -20 6 -19 38 0 20 3 31 6 25 2 -7 11 -13 19
-13z m41 -32 c-2 -13 -4 -5 -4 17 -1 22 1 32 4 23 2 -10 2 -28 0 -40z m471 17
c1 -19 -3 -35 -7 -35 -5 0 -7 9 -4 20 4 14 0 20 -12 20 -12 0 -16 -6 -12 -20
3 -11 1 -20 -4 -20 -18 0 -9 42 11 47 11 3 20 9 20 14 0 5 2 9 3 9 2 0 4 -16
5 -35z m385 3 c-7 -43 -13 -49 -13 -11 0 25 6 43 16 43 1 0 0 -15 -3 -32z
m714 -20 c-2 -13 -4 -5 -4 17 -1 22 1 32 4 23 2 -10 2 -28 0 -40z m543 17 c0
-19 -4 -35 -9 -35 -5 0 -7 9 -4 20 4 14 0 20 -12 20 -12 0 -16 -6 -12 -20 3
-11 1 -18 -4 -14 -16 10 -9 36 11 41 11 3 20 9 20 14 0 5 2 9 5 9 3 0 5 -16 5
-35z m-2595 -10 c0 -14 -3 -25 -7 -25 -4 0 -8 14 -8 32 0 36 13 30 15 -7z
m624 -4 c-2 -24 -2 -24 -6 -3 -3 16 -9 21 -22 17 -11 -3 -18 0 -18 8 0 9 9 12
24 9 18 -3 23 -10 22 -31z m476 4 c0 -14 -2 -25 -6 -25 -8 0 -18 48 -11 55 9
8 15 -4 17 -30z m1230 0 c0 -14 -2 -25 -6 -25 -8 0 -18 48 -11 55 9 8 15 -4
17 -30z m2652 29 c-3 -3 -12 -4 -19 -1 -8 3 -5 6 6 6 11 1 17 -2 13 -5z
m-5171 -44 c16 0 19 26 4 33 -6 3 -5 4 2 3 21 -4 21 -35 1 -43 -10 -4 -21 -11
-25 -17 -4 -6 -7 7 -6 29 0 23 3 30 5 18 2 -13 11 -23 19 -23z m64 36 c0 -3
-4 -8 -10 -11 -5 -3 -10 -1 -10 4 0 6 5 11 10 11 6 0 10 -2 10 -4z m27 -33
c-3 -10 -5 -4 -5 12 0 17 2 24 5 18 2 -7 2 -21 0 -30z m62 10 c-2 -24 -2 -25
-6 -5 -2 12 -8 22 -13 22 -5 0 -11 -10 -13 -22 -4 -20 -4 -19 -6 5 -1 21 4 27
19 27 15 0 20 -6 19 -27z m151 2 c0 -14 -4 -25 -10 -25 -5 0 -7 7 -3 16 3 9 0
20 -8 25 -11 7 -11 9 4 9 12 0 17 -8 17 -25z m48 18 c-9 -2 -19 -14 -21 -26
-4 -18 -5 -17 -6 6 -1 22 3 27 22 26 15 -1 17 -3 5 -6z m134 -17 c3 -14 1 -31
-3 -38 -6 -8 -9 1 -9 25 0 42 6 48 12 13z m35 8 c3 -8 0 -21 -6 -27 -9 -9 -11
-8 -5 7 4 11 2 21 -7 27 -10 6 -11 9 -1 9 7 0 15 -7 19 -16z m25 -9 c3 -13 1
-22 -3 -19 -9 5 -13 44 -5 44 2 0 6 -11 8 -25z m38 0 c0 -14 -4 -25 -9 -25 -4
0 -6 11 -3 25 2 14 6 25 8 25 2 0 4 -11 4 -25z m117 -12 c-3 -10 -5 -4 -5 12
0 17 2 24 5 18 2 -7 2 -21 0 -30z m39 28 c-18 -7 -18 -8 -3 -14 9 -3 17 -11
17 -17 0 -5 -9 -2 -19 7 -22 18 -19 33 7 32 14 0 14 -2 -2 -8z m101 -28 c-3
-10 -5 -4 -5 12 0 17 2 24 5 18 2 -7 2 -21 0 -30z m62 10 c-2 -25 -2 -26 -6
-5 -3 15 -10 22 -19 18 -8 -3 -14 -1 -14 4 0 6 9 10 20 10 15 0 20 -6 19 -27z
m61 18 c0 -6 -4 -12 -8 -15 -5 -3 -9 1 -9 9 0 8 4 15 9 15 4 0 8 -4 8 -9z m47
-28 c-3 -10 -5 -4 -5 12 0 17 2 24 5 18 2 -7 2 -21 0 -30z m51 30 c-9 -2 -19
-14 -21 -26 -4 -18 -5 -17 -6 6 -1 22 3 27 22 26 15 -1 17 -3 5 -6z m142 -18
c0 -14 -4 -25 -9 -25 -4 0 -6 11 -3 25 2 14 6 25 8 25 2 0 4 -11 4 -25z m41
16 c-9 -6 -10 -11 -2 -15 6 -4 11 -12 11 -19 0 -12 -29 23 -30 36 0 4 8 7 18
7 13 0 14 -2 3 -9z m92 2 c-7 -2 -13 -14 -14 -26 0 -12 -3 -16 -6 -9 -7 18 4
42 19 41 10 0 10 -2 1 -6z m24 -30 c-3 -10 -5 -4 -5 12 0 17 2 24 5 18 2 -7 2
-21 0 -30z m61 20 c2 -8 -5 -13 -17 -13 -12 0 -21 6 -21 16 0 18 31 15 38 -3z
m38 8 c-18 -7 -18 -8 -3 -14 19 -7 23 -27 6 -27 -5 0 -8 4 -5 9 3 5 -1 12 -10
15 -19 7 -9 26 14 25 14 0 14 -2 -2 -8z m132 -19 c3 -18 -1 -22 -20 -21 -17 1
-18 3 -5 6 9 2 17 11 17 18 0 7 -8 16 -17 19 -14 4 -14 4 2 3 12 -1 21 -11 23
-25z m46 20 c-7 -4 -14 -16 -17 -27 -4 -15 -5 -14 -6 8 -1 20 4 27 17 27 11 0
13 -3 6 -8z m86 -17 c0 -14 -4 -25 -9 -25 -5 0 -7 9 -4 20 3 11 1 20 -5 20 -6
0 -13 -15 -15 -32 -4 -32 -4 -32 -5 5 -2 31 1 37 18 37 15 0 20 -7 20 -25z
m44 17 c-7 -4 -14 -16 -17 -27 -4 -15 -5 -14 -6 8 -1 20 4 27 17 27 11 0 13
-3 6 -8z m41 0 l-20 -5 20 -8 c18 -7 18 -8 2 -8 -12 -1 -16 -6 -11 -13 5 -10
4 -10 -6 -1 -17 15 -5 43 17 42 15 -1 15 -2 -2 -7z m43 -17 c-3 -3 -9 2 -12
12 -6 14 -5 15 5 6 7 -7 10 -15 7 -18z m32 17 c0 -5 -7 -17 -15 -28 -14 -18
-14 -17 -4 9 12 27 19 34 19 19z m17 -29 c-3 -10 -5 -4 -5 12 0 17 2 24 5 18
2 -7 2 -21 0 -30z m38 27 c-3 -5 2 -11 12 -11 17 -1 17 -2 0 -6 -10 -3 -14
-10 -11 -16 5 -9 4 -9 -6 0 -12 11 -8 43 5 43 4 0 3 -4 0 -10z m65 -7 c0 9 5
17 10 17 14 0 12 -11 -4 -33 -14 -19 -18 -16 -29 18 -7 20 -7 20 8 1 13 -17
15 -18 15 -3z m67 -20 c-3 -10 -5 -4 -5 12 0 17 2 24 5 18 2 -7 2 -21 0 -30z
m62 20 c0 -11 -3 -13 -6 -5 -8 19 -21 14 -26 -10 -4 -20 -4 -19 -6 5 -1 21 4
27 19 27 13 0 20 -6 19 -17z m35 2 c-4 -8 -8 -15 -10 -15 -2 0 -4 7 -4 15 0 8
4 15 10 15 5 0 7 -7 4 -15z m23 -7 c-3 -8 -6 -5 -6 6 -1 11 2 17 5 13 3 -3 4
-12 1 -19z m113 -3 c0 -14 -5 -25 -11 -25 -5 0 -7 5 -4 10 3 6 1 10 -4 10 -6
0 -11 -5 -11 -12 0 -6 -3 -8 -7 -5 -3 4 2 16 13 26 24 25 24 25 24 -4z m28 0
c-3 -3 -9 2 -12 12 -6 14 -5 15 5 6 7 -7 10 -15 7 -18z m21 -14 c-6 -18 -14
-30 -17 -27 -2 3 1 19 8 36 7 17 14 29 16 27 2 -2 -1 -18 -7 -36z m68 23 c3
-8 1 -20 -5 -26 -8 -8 -9 -5 -5 11 4 15 1 21 -12 21 -13 0 -16 -6 -12 -21 4
-16 3 -19 -5 -11 -14 14 -3 42 17 42 9 0 18 -7 22 -16z m63 -9 c0 -14 -4 -25
-9 -25 -4 0 -6 11 -3 25 2 14 6 25 8 25 2 0 4 -11 4 -25z m87 19 c-3 -3 -12
-4 -19 -1 -8 3 -5 6 6 6 11 1 17 -2 13 -5z m83 -19 c0 -14 -5 -25 -11 -25 -5
0 -7 5 -4 10 3 6 2 10 -4 10 -5 0 -12 -6 -14 -12 -4 -10 -6 -10 -6 0 -1 7 6
15 14 18 8 4 12 10 9 15 -3 5 0 9 5 9 6 0 11 -11 11 -25z m48 18 c-9 -2 -19
-14 -21 -26 -4 -18 -5 -17 -6 6 -1 22 3 27 22 26 15 -1 17 -3 5 -6z m3889 -35
c-3 -7 -5 -2 -5 12 0 14 2 19 5 13 2 -7 2 -19 0 -25z m-6314 7 c-3 -9 -8 -14
-10 -11 -3 3 -2 9 2 15 9 16 15 13 8 -4z m684 -32 c-4 -3 -7 -1 -7 5 0 7 -7
12 -15 12 -8 0 -15 7 -15 15 0 13 4 12 22 -5 12 -11 18 -23 15 -27z m1079 20
c-10 -10 -19 5 -10 18 6 11 8 11 12 0 2 -7 1 -15 -2 -18z m529 16 c11 -16 1
-19 -13 -3 -7 8 -8 14 -3 14 5 0 13 -5 16 -11z m152 -11 c-3 -8 -6 -5 -6 6 -1
11 2 17 5 13 3 -3 4 -12 1 -19z m-534 -5 c-7 -2 -19 -2 -25 0 -7 3 -2 5 12 5
14 0 19 -2 13 -5z m3205 -113 c2 -14 22 -45 45 -70 l42 -45 -50 46 c-28 25
-58 49 -67 52 -10 4 -18 13 -18 20 0 37 43 34 48 -3z m-5312 -9 c-18 -7 -18
-8 -3 -14 9 -3 17 -11 17 -17 0 -5 -9 -2 -19 7 -22 18 -19 33 7 32 14 0 14 -2
-2 -8z m36 -16 c3 -13 1 -22 -3 -19 -9 5 -13 44 -5 44 2 0 6 -11 8 -25z m38 0
c0 -14 -4 -25 -9 -25 -4 0 -6 11 -3 25 2 14 6 25 8 25 2 0 4 -11 4 -25z m47
19 c-3 -3 -12 -4 -19 -1 -8 3 -5 6 6 6 11 1 17 -2 13 -5z m122 -21 c-2 -24 -2
-25 -6 -5 -2 12 -8 22 -13 22 -5 0 -11 -10 -13 -22 -4 -20 -4 -19 -6 5 -1 21
4 27 19 27 15 0 20 -6 19 -27z m38 -4 c1 -19 1 -20 -4 -4 -3 11 -10 24 -17 28
-7 6 -6 7 4 4 8 -2 16 -14 17 -28z m60 15 c3 -8 1 -20 -5 -26 -8 -8 -9 -5 -5
11 4 15 1 21 -12 21 -13 0 -16 -6 -12 -21 4 -16 3 -19 -5 -11 -14 14 -3 42 17
42 9 0 18 -7 22 -16z m40 9 c-13 -3 -17 -11 -13 -25 3 -15 2 -18 -6 -10 -15
15 -2 42 19 41 17 -1 17 -2 0 -6z m95 -18 c3 -14 1 -25 -3 -25 -5 0 -9 11 -9
25 0 14 2 25 4 25 2 0 6 -11 8 -25z m38 0 c0 -14 -4 -25 -9 -25 -4 0 -6 11 -3
25 2 14 6 25 8 25 2 0 4 -11 4 -25z m58 -3 c2 -12 -1 -22 -6 -22 -6 0 -8 10
-4 22 4 17 2 20 -12 15 -11 -4 -15 -3 -11 4 10 16 30 5 33 -19z m49 22 c-3 -3
-12 -4 -19 -1 -8 3 -5 6 6 6 11 1 17 -2 13 -5z m-693 -28 c-6 -15 -24 -23 -24
-11 0 8 24 34 28 30 1 -1 0 -10 -4 -19z m33 -8 c-3 -7 -5 -2 -5 12 0 14 2 19
5 13 2 -7 2 -19 0 -25z m145 15 c-6 -2 -10 -9 -6 -14 3 -5 0 -9 -5 -9 -12 0
-14 13 -4 23 3 4 11 7 17 6 6 0 5 -3 -2 -6z m28 -8 c0 -8 -4 -15 -10 -15 -5 0
-7 7 -4 15 4 8 8 15 10 15 2 0 4 -7 4 -15z m305 4 c11 -16 1 -19 -13 -3 -7 8
-8 14 -3 14 5 0 13 -5 16 -11z m180 0 c11 -16 1 -19 -13 -3 -7 8 -8 14 -3 14
5 0 13 -5 16 -11z m4355 -346 c0 -7 -39 17 -46 28 -3 6 5 3 20 -6 14 -10 26
-19 26 -22z m-200 2 c0 -8 -4 -15 -10 -15 -5 0 -10 7 -10 15 0 8 5 15 10 15 6
0 10 -7 10 -15z m-30 -16 c0 -5 -4 -9 -10 -9 -5 0 -10 7 -10 16 0 8 5 12 10 9
6 -3 10 -10 10 -16z m-40 -19 c0 -5 -4 -10 -10 -10 -5 0 -10 5 -10 10 0 6 5
10 10 10 6 0 10 -4 10 -10z m100 -56 c0 -8 -4 -12 -10 -9 -5 3 -10 10 -10 16
0 5 5 9 10 9 6 0 10 -7 10 -16z m-3593 -34 c24 -14 43 -28 43 -33 0 -10 -91
-68 -99 -63 -8 5 -1 128 7 124 4 -2 26 -14 49 -28z m-1087 0 c12 -8 9 -10 -11
-10 -15 0 -30 -7 -33 -16 -8 -21 1 -34 22 -33 11 0 12 3 5 6 -20 7 -15 25 5
21 11 -2 26 3 35 11 20 16 47 8 47 -14 0 -8 -10 -16 -22 -16 l-23 -2 23 -4
c30 -6 28 -23 -3 -23 -17 0 -25 6 -25 17 0 15 -1 15 -13 -1 -32 -44 -92 9 -61
53 16 23 31 26 54 11z m200 0 c0 -5 -8 -10 -17 -10 -15 0 -14 -3 5 -18 28 -22
20 -52 -14 -52 -13 0 -24 5 -24 10 0 6 10 10 23 10 l22 0 -25 19 c-20 16 -22
21 -11 35 15 18 41 22 41 6z m340 -36 c0 -44 -1 -45 -27 -42 -22 2 -29 9 -31
31 -3 22 1 30 17 34 12 3 21 9 21 14 0 5 5 9 10 9 6 0 10 -21 10 -46z m674 24
l7 -23 9 23 c5 12 12 22 15 22 3 0 10 -10 15 -22 l9 -23 7 23 c3 12 11 22 16
22 5 0 7 -8 4 -17 -3 -10 -8 -30 -12 -45 -8 -36 -20 -36 -31 -1 l-10 28 -6
-28 c-4 -15 -12 -27 -17 -27 -8 0 -30 60 -30 83 0 17 18 5 24 -15z m291 0 c26
-22 33 -52 15 -63 -6 -4 -10 5 -10 19 0 14 -4 26 -10 26 -5 0 -10 -11 -10 -25
0 -14 -4 -25 -10 -25 -5 0 -10 20 -10 45 0 25 2 45 5 45 3 0 16 -10 30 -22z
m79 -5 l14 -28 7 28 c7 26 25 38 25 17 0 -16 -28 -80 -35 -80 -7 0 -35 64 -35
80 0 17 9 11 24 -17z m65 -20 c0 -32 -3 -42 -8 -29 -7 18 -3 76 5 76 2 0 4
-21 3 -47z m71 2 c0 -41 -2 -45 -24 -45 -16 0 -27 7 -31 20 -7 23 10 50 32 50
8 0 11 5 8 10 -3 6 -1 10 4 10 6 0 11 -20 11 -45z m-1600 14 c0 -5 -4 -9 -10
-9 -14 0 -12 -28 3 -33 6 -2 9 -8 5 -12 -15 -15 -38 5 -38 33 0 16 3 31 6 35
8 8 34 -3 34 -14z m126 10 c3 -6 3 -14 -2 -18 -13 -9 -16 -31 -4 -31 6 0 10
-4 10 -10 0 -5 -6 -10 -14 -10 -13 0 -28 57 -19 73 6 10 21 9 29 -4z m164 -10
c0 -5 -4 -9 -10 -9 -14 0 -12 -28 3 -33 6 -2 9 -8 5 -12 -12 -13 -38 4 -38 25
0 11 -7 20 -15 20 -9 0 -15 -9 -15 -25 0 -14 -5 -25 -11 -25 -6 0 -9 14 -7 33
2 25 8 32 25 32 12 0 25 4 28 7 9 9 35 -1 35 -13z m985 11 c3 -6 17 -7 30 -4
12 3 26 1 29 -5 4 -6 0 -11 -8 -11 -9 0 -16 -7 -16 -15 0 -8 7 -15 15 -15 8 0
15 -4 15 -10 0 -5 -19 -9 -42 -7 -36 2 -43 6 -48 27 -10 39 8 68 25 40z
m-1087 -38 c3 -28 0 -32 -21 -32 -34 0 -43 28 -14 40 18 7 19 9 4 9 -10 1 -15
6 -12 12 14 21 40 4 43 -29z m146 32 c23 -9 20 -34 -5 -34 -11 0 -18 -4 -14
-10 3 -5 13 -6 23 -3 13 5 15 3 5 -7 -25 -27 -67 16 -43 45 14 17 13 17 34 9z
m902 -20 c8 -30 -6 -47 -32 -42 -29 5 -30 38 -2 39 17 1 18 3 5 6 -20 5 -13
23 8 23 8 0 18 -12 21 -26z m418 20 c24 -9 19 -34 -6 -35 -22 -1 -22 -1 2 -8
l25 -7 -23 -12 c-20 -11 -23 -10 -34 12 -8 20 -8 29 2 41 14 17 13 17 34 9z
m80 -16 c13 -22 -14 -54 -38 -45 -16 6 -22 48 -9 61 11 11 35 3 47 -16z m2906
-22 c0 -2 -8 -10 -17 -17 -16 -13 -17 -12 -4 4 13 16 21 21 21 13z m20 -10 c0
-2 -8 -10 -17 -17 -16 -13 -17 -12 -4 4 13 16 21 21 21 13z m-145 -1245 c16
-7 8 -11 -38 -21 -60 -14 -73 -11 -64 15 7 16 66 20 102 6z m-4599 -15 c1 0
17 -30 36 -66 30 -54 34 -69 25 -87 -7 -17 -19 -23 -44 -23 -31 0 -33 2 -23
20 9 17 4 34 -31 96 l-41 75 38 -7 c22 -4 39 -7 40 -8z m1868 5 c7 -10 -16
-71 -26 -71 -15 0 -25 35 -17 58 8 22 33 30 43 13z m-1964 -20 c14 -27 13 -31
-10 -31 -13 0 -30 -20 -55 -65 -20 -36 -40 -65 -44 -65 -4 0 -13 10 -20 23
-11 20 -8 31 26 90 32 57 42 67 65 67 17 0 31 -7 38 -19z m2058 -5 c3 -14 0
-17 -13 -13 -10 4 -14 3 -9 -4 6 -11 -33 -59 -48 -59 -17 0 -7 55 14 77 25 27
51 26 56 -1z m2932 -81 c0 -78 -3 -95 -15 -95 -12 0 -15 17 -15 95 0 78 3 95
15 95 12 0 15 -17 15 -95z m-4350 75 c0 -5 -7 -10 -15 -10 -8 0 -15 5 -15 10
0 6 7 10 15 10 8 0 15 -4 15 -10z m4253 -2 c2 -7 -3 -28 -12 -46 -12 -26 -17
-30 -21 -16 -9 26 1 74 15 74 7 0 15 -6 18 -12z m615 -5 c-5 -26 -38 -29 -38
-4 0 15 6 21 21 21 14 0 19 -5 17 -17z m685 3 c7 -19 -18 -40 -38 -32 -15 6
-20 28 -8 39 12 12 41 7 46 -7z m-5905 -33 c-2 -32 0 -38 22 -44 21 -6 20 -7
-12 -8 l-38 -1 0 45 c0 34 4 45 16 45 12 0 15 -9 12 -37z m116 4 c10 -7 16
-22 14 -33 -2 -14 -12 -19 -38 -19 -26 0 -36 5 -38 19 -4 17 20 46 38 46 3 0
14 -6 24 -13z m95 -18 c-5 -11 -17 -19 -27 -20 -12 0 -10 -3 6 -10 33 -13 22
-34 -19 -36 l-34 -1 30 7 30 8 -25 7 c-19 5 -26 14 -25 32 0 30 18 43 50 36
21 -3 23 -7 14 -23z m85 18 c13 -10 16 -20 11 -36 -5 -18 -13 -22 -38 -19 -38
4 -49 34 -21 55 22 16 26 16 48 0z m56 -28 c0 -52 -24 -48 -28 4 -2 28 1 37
12 37 12 0 16 -11 16 -41z m94 19 c14 -23 -2 -50 -33 -58 -12 -3 -22 -9 -21
-15 1 -5 -3 -11 -9 -13 -7 -2 -11 17 -11 53 l0 56 31 -3 c18 -2 37 -11 43 -20z
m71 12 c3 -5 -2 -10 -12 -10 -17 -1 -17 -1 0 -11 9 -5 17 -16 17 -24 0 -15
-35 -30 -50 -20 -17 10 -11 25 8 18 14 -5 14 -3 -2 9 -12 9 -17 21 -13 32 7
18 42 22 52 6z m45 -15 c0 -14 5 -25 10 -25 6 0 10 11 10 25 0 16 6 25 15 25
11 0 15 -11 15 -37 0 -35 -2 -38 -27 -38 -40 0 -53 12 -53 46 0 19 5 29 15 29
9 0 15 -9 15 -25z m178 -19 c4 -46 -21 -47 -27 0 l-4 29 -6 -29 c-8 -41 -31
-46 -31 -6 0 18 -4 29 -10 25 -5 -3 -10 -18 -10 -31 0 -36 -25 -25 -26 12 -1
16 0 32 2 35 2 4 27 6 56 5 l53 -1 3 -39z m899 2 c41 -40 41 -48 3 -48 -21 0
-39 9 -55 26 -26 28 -29 36 -18 47 14 15 38 6 70 -25z m193 17 c16 -19 -6 -53
-24 -35 -5 5 -18 10 -28 10 -21 0 -23 11 -6 28 16 16 43 15 58 -3z m-660 -45
c0 -33 3 -37 20 -33 14 4 20 0 20 -11 0 -12 -9 -16 -35 -16 l-35 0 0 48 c0 27
3 52 6 55 14 13 24 -5 24 -43z m760 -5 c0 -42 -3 -55 -15 -55 -11 0 -15 12
-15 49 0 43 4 53 28 60 1 1 2 -24 2 -54z m1530 45 c0 -5 -4 -10 -10 -10 -5 0
-10 5 -10 10 0 6 5 10 10 10 6 0 10 -4 10 -10z m1366 2 c13 -9 34 -46 34 -62
0 -18 -48 -60 -68 -60 -25 0 -58 29 -66 56 -13 46 59 94 100 66z m182 -69 c-4
-82 -18 -103 -69 -103 -33 0 -58 25 -41 42 8 8 15 8 26 -2 19 -15 46 -6 46 15
0 12 -4 13 -17 7 -23 -12 -59 1 -72 27 -29 53 5 90 79 89 l52 0 -4 -75z m132
57 c58 -58 -20 -142 -88 -94 -27 18 -30 69 -5 96 21 24 68 23 93 -2z m80 -45
c0 -58 -2 -65 -20 -65 -18 0 -20 7 -20 65 0 58 2 65 20 65 18 0 20 -7 20 -65z
m145 43 c34 -50 0 -115 -56 -104 -27 5 -29 3 -29 -25 0 -24 -4 -30 -17 -27
-15 3 -19 16 -21 77 -2 41 -1 80 2 86 2 7 25 13 55 13 41 1 53 -2 66 -20z
m114 13 c19 -12 3 -34 -20 -28 -11 3 -19 2 -19 -3 0 -4 11 -11 24 -14 29 -7
40 -41 19 -61 -17 -18 -46 -19 -74 -4 -16 8 -18 13 -9 24 9 11 17 12 31 4 12
-6 19 -6 19 0 0 5 -9 12 -19 16 -32 10 -44 31 -31 54 11 22 53 28 79 12z m71
-36 c0 -38 3 -45 20 -45 17 0 20 7 20 45 0 38 3 45 20 45 18 0 20 -7 20 -64
l0 -63 -42 -1 c-59 0 -78 19 -78 80 0 41 3 48 20 48 17 0 20 -7 20 -45z m291
17 c15 -39 7 -96 -13 -100 -14 -3 -17 6 -20 45 -2 35 -7 48 -18 48 -11 0 -16
-13 -18 -48 -3 -39 -6 -48 -20 -45 -12 2 -18 16 -22 48 -3 25 -9 45 -15 45 -5
0 -12 -20 -15 -45 -4 -32 -10 -46 -22 -48 -16 -3 -18 5 -18 61 l0 64 86 1 c83
0 85 -1 95 -26z m-2923 6 c26 -26 13 -38 -38 -38 -52 0 -60 8 -34 34 18 19 55
21 72 4z m-1637 -18 c10 -6 19 -19 19 -28 0 -43 -61 -58 -81 -20 -10 18 -8 24
11 40 26 21 26 21 51 8z m803 4 c22 -8 20 -25 -1 -18 -16 5 -16 4 1 -10 24
-20 14 -46 -19 -46 -28 0 -35 19 -7 21 16 1 16 2 0 6 -21 5 -24 39 -5 46 6 3
13 6 14 6 1 1 8 -2 17 -5z m234 -43 c4 -42 -20 -38 -29 5 l-6 29 -4 -29 c-5
-38 -29 -47 -29 -12 0 14 -4 26 -10 26 -5 0 -10 -12 -10 -26 0 -37 -24 -25
-28 14 -3 27 0 31 25 34 15 2 42 1 58 -2 25 -5 31 -11 33 -39z m1142 9 c0 -22
-4 -40 -10 -40 -5 0 -10 18 -10 40 0 22 5 40 10 40 6 0 10 -18 10 -40z m90 25
c21 -25 8 -60 -22 -63 -16 -2 -28 -9 -28 -18 0 -8 -4 -14 -10 -14 -5 0 -10 24
-10 53 0 50 1 52 29 54 16 1 35 -4 41 -12z m78 -5 c4 -13 3 -13 -10 -2 -9 7
-19 9 -22 4 -3 -5 6 -14 20 -21 14 -6 24 -17 22 -24 -6 -16 -48 -21 -62 -7 -8
9 -4 10 17 5 17 -5 27 -3 27 4 0 6 -6 11 -14 11 -19 0 -29 17 -22 36 7 19 37
15 44 -6z m52 -21 c0 -42 26 -37 38 9 l10 37 1 -43 c1 -43 1 -43 -31 -40 -30
3 -33 6 -36 42 -2 25 0 36 7 31 6 -3 11 -19 11 -36z m178 28 c14 -10 16 -67 2
-67 -5 0 -10 14 -10 30 0 20 -5 30 -15 30 -10 0 -15 -10 -15 -30 0 -16 -4 -30
-10 -30 -5 0 -10 14 -10 30 0 20 -5 30 -15 30 -10 0 -15 -10 -15 -30 0 -16 -4
-30 -10 -30 -11 0 -14 39 -5 62 6 15 80 19 103 5z m-2457 -9 c0 -10 2 -10 6 0
7 18 72 15 80 -4 14 -36 -41 -70 -71 -45 -10 8 -16 5 -24 -14 -9 -19 -19 -25
-42 -25 -38 0 -40 20 -2 21 26 1 26 1 3 8 -29 8 -46 33 -38 55 8 20 87 23 88
4z m626 -4 c8 -22 -9 -48 -36 -52 -11 -2 -21 -10 -21 -18 0 -8 -7 -14 -15 -14
-11 0 -15 12 -15 50 l0 50 40 0 c28 0 43 -5 47 -16z m113 -9 c0 -31 17 -33 22
-3 5 37 28 34 28 -5 0 -34 -1 -35 -37 -34 -35 2 -38 4 -41 35 -2 24 1 32 12
32 10 0 16 -9 16 -25z m-336 -6 c30 -24 32 -62 4 -67 -19 -4 -88 57 -88 77 0
19 56 12 84 -10z m1006 -22 c8 -17 27 -38 42 -45 39 -18 91 5 106 47 10 27 16
31 46 31 33 0 36 -3 36 -27 0 -16 -9 -43 -20 -61 -73 -120 -269 -83 -296 56
-6 32 -6 32 32 32 34 0 41 -5 54 -33z m-1205 -3 c17 -13 18 -16 5 -24 -18 -12
-21 -12 -39 -1 -14 9 -9 41 6 41 4 0 17 -7 28 -16z m105 -26 c0 -27 -54 -82
-73 -75 -27 10 -20 38 20 79 37 38 52 37 53 -4z m2752 -20 c40 -25 48 -47 22
-69 -22 -18 -42 -3 -75 60 -35 65 -35 68 -6 47 12 -9 39 -26 59 -38z m-4711 2
c44 0 79 -3 79 -8 0 -4 -7 -18 -16 -30 -13 -19 -24 -22 -92 -22 -68 0 -79 3
-90 21 -11 17 -11 27 -1 52 13 30 13 30 27 9 13 -19 24 -22 93 -22z m409 15
c9 0 15 -10 16 -28 1 -26 1 -26 -3 -2 -5 31 -25 28 -34 -6 -5 -18 -7 -12 -7
21 0 25 2 38 6 30 4 -8 14 -15 22 -15z m-163 -37 c-2 -13 -4 -5 -4 17 -1 22 1
32 4 23 2 -10 2 -28 0 -40z m296 45 c-21 -8 -16 -51 7 -56 17 -4 16 -4 -2 -3
-18 1 -24 8 -26 34 -3 26 0 32 15 31 10 0 13 -3 6 -6z m-223 -29 c0 -8 -10
-14 -22 -15 -22 0 -22 -1 -3 -10 20 -9 20 -9 0 -6 -23 3 -33 36 -14 47 16 11
39 1 39 -16z m32 14 c-16 -16 -15 -35 1 -41 7 -2 6 -3 -3 -3 -19 2 -26 36 -8
47 19 12 24 11 10 -3z m244 -14 c-2 -26 22 -28 27 -2 l4 23 2 -23 c1 -25 -25
-40 -41 -24 -6 6 -8 18 -5 26 8 21 15 20 13 0z m1412 -13 c4 -27 -13 -50 -27
-35 -13 12 -1 66 13 61 6 -2 13 -14 14 -26z"/>
<path d="M2214 5485 c-13 -33 4 -45 65 -45 62 0 84 17 60 46 -16 20 -118 19
-125 -1z m26 -15 c0 -5 -4 -10 -10 -10 -5 0 -10 5 -10 10 0 6 5 10 10 10 6 0
10 -4 10 -10z m90 0 c0 -5 -4 -10 -10 -10 -5 0 -10 5 -10 10 0 6 5 10 10 10 6
0 10 -4 10 -10z"/>
<path d="M4756 5433 c-11 -11 -6 -23 9 -23 8 0 15 4 15 9 0 13 -16 22 -24 14z"/>
<path d="M5750 5420 c0 -5 7 -10 16 -10 8 0 12 5 9 10 -3 6 -10 10 -16 10 -5
0 -9 -4 -9 -10z"/>
<path d="M4280 5426 c0 -9 5 -16 10 -16 6 0 10 4 10 9 0 6 -4 13 -10 16 -5 3
-10 -1 -10 -9z"/>
<path d="M4810 5425 c0 -8 5 -15 10 -15 6 0 10 7 10 15 0 8 -4 15 -10 15 -5 0
-10 -7 -10 -15z"/>
<path d="M5836 5431 c-4 -7 -5 -15 -2 -18 9 -9 19 4 14 18 -4 11 -6 11 -12 0z"/>
<path d="M6220 5426 c0 -9 5 -16 10 -16 6 0 10 4 10 9 0 6 -4 13 -10 16 -5 3
-10 -1 -10 -9z"/>
<path d="M8247 3429 c7 -7 15 -10 18 -7 3 3 -2 9 -12 12 -14 6 -15 5 -6 -5z"/>
<path d="M8230 3070 c0 -5 5 -10 11 -10 5 0 7 5 4 10 -3 6 -8 10 -11 10 -2 0
-4 -4 -4 -10z"/>
<path d="M2252 3860 c-9 -38 -9 -40 13 -40 22 0 23 2 13 38 -13 49 -14 49 -26
2z"/>
<path d="M3325 3789 c-4 -6 -4 -13 -1 -16 8 -8 36 5 36 17 0 13 -27 13 -35 -1z"/>
<path d="M4140 3850 c0 -5 9 -10 20 -10 11 0 20 5 20 10 0 6 -9 10 -20 10 -11
0 -20 -4 -20 -10z"/>
<path d="M4627 3863 c-13 -12 -7 -43 8 -43 9 0 15 9 15 25 0 24 -10 32 -23 18z"/>
<path d="M4600 3711 c0 -13 30 -22 51 -16 31 10 21 25 -16 25 -19 0 -35 -4
-35 -9z"/>
<path d="M4816 3851 c-3 -5 3 -11 14 -14 21 -5 32 1 24 14 -7 12 -31 11 -38 0z"/>
<path d="M5370 3850 c0 -5 9 -10 20 -10 11 0 20 5 20 10 0 6 -9 10 -20 10 -11
0 -20 -4 -20 -10z"/>
<path d="M7285 3700 c-3 -6 1 -7 9 -4 18 7 21 14 7 14 -6 0 -13 -4 -16 -10z"/>
<path d="M2924 3446 c-9 -25 0 -61 16 -61 10 0 16 12 18 38 2 28 0 37 -13 37
-8 0 -18 -6 -21 -14z"/>
<path d="M2245 3510 c-4 -6 -3 -16 3 -22 6 -6 12 -6 17 2 4 6 3 16 -3 22 -6 6
-12 6 -17 -2z"/>
<path d="M2227 3413 c-9 -15 9 -35 28 -31 16 3 15 5 -3 21 -11 10 -22 14 -25
10z"/>
<path d="M3123 3463 c-22 -8 -14 -23 13 -23 15 0 24 5 22 12 -5 14 -18 18 -35
11z"/>
<path d="M3697 3464 c-13 -13 -7 -24 14 -24 11 0 19 5 17 12 -5 14 -22 21 -31
12z"/>
<path d="M6672 3240 c-1 -35 14 -48 34 -28 12 12 11 17 -9 36 l-24 23 -1 -31z"/>
<path d="M6718 3173 c7 -3 16 -2 19 1 4 3 -2 6 -13 5 -11 0 -14 -3 -6 -6z"/>
<path d="M6628 2503 c7 -3 16 -2 19 1 4 3 -2 6 -13 5 -11 0 -14 -3 -6 -6z"/>
<path d="M3800 2945 c0 -8 7 -15 15 -15 8 0 15 7 15 15 0 8 -7 15 -15 15 -8 0
-15 -7 -15 -15z"/>
<path d="M2887 2114 c-8 -8 1 -24 14 -24 5 0 9 7 9 15 0 15 -12 20 -23 9z"/>
<path d="M4070 2105 c0 -8 7 -15 15 -15 9 0 12 6 9 15 -4 8 -10 15 -15 15 -5
0 -9 -7 -9 -15z"/>
<path d="M3780 2106 c0 -8 5 -18 10 -21 6 -3 10 3 10 14 0 12 -4 21 -10 21 -5
0 -10 -6 -10 -14z"/>
<path d="M4210 2105 c0 -8 5 -15 10 -15 6 0 10 7 10 15 0 8 -4 15 -10 15 -5 0
-10 -7 -10 -15z"/>
<path d="M2694 749 c-8 -14 11 -33 25 -25 11 7 4 36 -9 36 -5 0 -12 -5 -16
-11z"/>
<path d="M2786 762 c-3 -6 -1 -14 5 -17 15 -10 25 3 12 16 -7 7 -13 7 -17 1z"/>
<path d="M2875 750 c-7 -12 2 -30 16 -30 5 0 9 9 9 20 0 21 -15 27 -25 10z"/>
<path d="M3020 746 c0 -9 5 -16 10 -16 6 0 10 4 10 9 0 6 -4 13 -10 16 -5 3
-10 -1 -10 -9z"/>
<path d="M7386 711 c-11 -18 6 -42 28 -39 29 4 29 42 -1 46 -11 2 -24 -1 -27
-7z"/>
<path d="M7534 715 c-9 -23 3 -45 25 -45 25 0 34 14 26 40 -7 23 -43 27 -51 5z"/>
<path d="M7692 698 c2 -15 10 -23 23 -23 30 0 27 39 -3 43 -20 3 -23 0 -20
-20z"/>
<path d="M7907 707 c-8 -21 8 -39 29 -35 27 5 25 42 -2 46 -12 2 -24 -3 -27
-11z"/>
<path d="M3862 688 c6 -18 28 -21 28 -4 0 9 -7 16 -16 16 -9 0 -14 -5 -12 -12z"/>
<path d="M6122 688 c2 -13 10 -23 18 -23 8 0 16 10 18 23 3 17 -2 22 -18 22
-16 0 -21 -5 -18 -22z"/>
<path d="M3964 696 c-8 -22 3 -33 18 -18 9 9 9 15 0 24 -9 9 -13 7 -18 -6z"/>
<path d="M4050 685 c0 -8 7 -15 15 -15 8 0 15 7 15 15 0 8 -7 15 -15 15 -8 0
-15 -7 -15 -15z"/>
<path d="M4596 703 c-12 -12 -6 -33 9 -33 8 0 15 6 15 14 0 17 -14 28 -24 19z"/>
<path d="M2655 620 c-3 -5 1 -10 10 -10 9 0 13 5 10 10 -3 6 -8 10 -10 10 -2
0 -7 -4 -10 -10z"/>
</g>
</svg>
