<?xml version="1.0" standalone="no"?>
<!DOCTYPE svg PUBLIC "-//W3C//DTD SVG 20010904//EN"
 "http://www.w3.org/TR/2001/REC-SVG-20010904/DTD/svg10.dtd">
<svg version="1.0" xmlns="http://www.w3.org/2000/svg"
 width="936.000000pt" height="632.000000pt" viewBox="0 0 936.000000 632.000000"
 preserveAspectRatio="xMidYMid meet">

<g transform="translate(0.000000,632.000000) scale(0.100000,-0.100000)"
fill="#000000" stroke="none">
<path d="M27 6303 c-4 -3 -7 -1423 -7 -3155 l0 -3148 4660 0 4660 0 -2 3152
-3 3153 -4651 3 c-2558 1 -4654 -1 -4657 -5z m890 -350 c23 -38 54 -62 78 -63
16 -1 13 -4 -10 -15 l-30 -13 34 -1 c54 -1 26 -15 -42 -21 -57 -5 -62 -7 -65
-30 -4 -31 39 -115 59 -115 8 0 25 5 39 12 30 16 114 17 141 3 21 -12 25 -1 7
19 -10 10 -8 10 10 0 12 -8 25 -22 28 -33 5 -14 13 -17 34 -13 24 5 27 4 22
-15 -3 -11 -20 -29 -38 -40 -18 -11 -39 -32 -46 -48 l-12 -29 -12 27 -12 27
-1 -35 c-1 -29 -3 -32 -12 -17 -6 10 -9 36 -7 58 4 54 -15 68 -69 50 -21 -7
-47 -19 -57 -27 -18 -13 -19 -16 -3 -65 21 -65 22 -123 1 -143 -8 -9 -13 -20
-10 -25 4 -5 -5 -18 -18 -29 -23 -18 -24 -20 -8 -37 16 -16 16 -17 -6 -6 -13
7 -27 24 -33 38 -5 13 -23 30 -39 36 -39 15 -38 27 3 28 l32 1 -30 9 c-16 5
-36 7 -43 4 -7 -3 -10 0 -7 5 3 6 31 10 60 10 49 0 55 2 61 24 6 25 -24 108
-44 120 -5 3 -27 -1 -48 -10 -59 -25 -180 -19 -196 9 -11 20 -44 23 -52 5 -3
-7 -4 -2 -3 12 1 16 14 32 34 45 18 11 38 35 45 54 l13 33 12 -28 12 -29 1 39
c0 59 14 33 20 -37 5 -61 5 -62 38 -65 30 -3 112 32 112 49 0 3 -7 23 -15 42
-18 43 -20 148 -3 165 13 13 -2 17 -18 5 -5 -5 3 4 18 19 30 30 36 53 16 61
-7 3 -1 6 14 6 20 1 32 -7 45 -26z m678 -303 l1 -145 -3 138 c-3 128 -5 137
-23 137 -24 0 -29 -19 -33 -135 -3 -80 -3 -77 -5 31 l-2 121 33 -1 32 -1 0
-145z m89 144 c13 -5 16 -23 16 -88 0 -45 -4 -86 -9 -91 -5 -6 -11 -19 -14
-30 -4 -18 -5 -18 -6 3 0 12 -7 22 -15 22 -11 0 -16 -15 -19 -52 -2 -29 -4 13
-5 95 -2 139 -1 147 17 147 11 0 26 -3 35 -6z m99 -1 c3 -5 8 -48 11 -98 l7
-90 -31 0 -31 0 7 90 c7 94 9 105 24 105 5 0 11 -3 13 -7z m5662 -7 c108 -45
135 -175 53 -253 -18 -17 -51 -36 -73 -42 -26 -7 -165 -10 -400 -8 -343 2
-362 3 -395 23 -115 67 -103 234 20 283 15 6 173 10 393 10 299 1 374 -2 402
-13z m1275 -14 c98 -73 92 -213 -10 -264 -31 -16 -73 -18 -407 -18 -232 0
-382 4 -399 10 -27 10 -65 45 -94 85 -10 13 -4 11 18 -8 19 -15 39 -27 45 -27
7 0 -3 12 -20 26 -18 14 -33 31 -33 37 0 7 5 6 11 -3 8 -11 9 -7 4 16 -4 23
-1 36 12 50 17 17 17 17 1 11 -12 -4 -18 -2 -18 8 0 9 6 12 17 8 15 -6 16 -5
3 9 -13 14 -16 14 -23 2 -5 -8 -5 -24 -1 -36 5 -18 4 -19 -9 -7 -13 12 -13 18
5 50 35 63 39 63 408 70 408 7 457 5 490 -19z m-7380 -67 l0 -85 26 0 27 0 -6
85 c-4 51 -2 85 3 85 6 0 9 -53 9 -127 -1 -71 -4 -112 -8 -93 -4 26 -12 36
-28 38 -18 3 -22 -3 -26 -30 -3 -25 -4 -21 -6 17 -1 28 -3 83 -5 123 -3 40 0
72 5 72 5 0 9 -38 9 -85z m101 58 c0 -16 6 -50 13 -78 l13 -50 13 78 c8 42 17
77 21 77 3 0 0 -30 -8 -67 -8 -38 -18 -102 -22 -143 -7 -68 -8 -70 -10 -23 -1
46 -22 166 -37 216 -3 9 -1 17 5 17 6 0 11 -12 12 -27z m1744 -103 c6 -19 26
-29 24 -12 -5 32 26 47 38 17 5 -14 8 -14 24 1 24 22 51 11 47 -18 -3 -22 -7
-23 -90 -23 -49 0 -88 1 -88 2 0 1 5 14 12 28 14 30 24 32 33 5z m178 -20 c3
8 8 22 11 30 3 8 4 2 3 -15 -1 -23 -7 -30 -22 -30 -15 0 -21 8 -23 30 l-2 30
14 -30 c10 -21 15 -26 19 -15z m63 24 c-3 -9 -6 -22 -6 -30 0 -27 -18 -14 -22
16 -4 25 -1 30 15 30 13 0 17 -5 13 -16z m324 5 c0 -5 -4 -7 -10 -4 -5 3 -10
4 -10 1 0 -3 9 -10 21 -16 17 -10 20 -9 17 7 -2 13 4 19 22 20 23 2 23 2 5 -6
-11 -6 -14 -10 -6 -10 10 -1 11 -4 2 -15 -10 -11 -8 -15 6 -19 10 -2 -4 -4
-30 -4 -26 0 -43 3 -36 7 8 6 6 11 -6 18 -10 5 -15 14 -11 21 9 14 36 15 36 0z
m108 -1 c5 -7 6 -22 2 -32 -5 -15 -9 -16 -15 -7 -6 11 -9 11 -16 0 -6 -10 -9
-4 -9 19 0 33 19 43 38 20z m45 -18 c3 0 8 8 10 18 4 14 5 14 6 -3 0 -11 -4
-27 -9 -35 -11 -18 -25 -6 -34 30 -6 23 -6 23 7 8 8 -10 17 -18 20 -18z m34
-17 c-3 -10 -5 -2 -5 17 0 19 2 27 5 18 2 -10 2 -26 0 -35z m110 26 c1 -11 -4
-19 -10 -20 -7 0 -3 -4 8 -9 18 -8 17 -9 -7 -9 -22 -1 -28 4 -28 19 0 14 -7
20 -21 20 -12 0 -19 -5 -16 -12 2 -7 10 -12 16 -10 6 1 11 -2 11 -8 0 -15 -26
-12 -40 5 -19 23 3 42 48 42 30 0 38 -4 39 -18z m53 10 c0 -5 -6 -7 -12 -4 -7
4 -5 0 6 -9 20 -16 14 -36 -12 -36 -14 0 -14 2 -3 9 11 7 10 11 -4 19 -10 5
-15 14 -11 21 9 14 36 15 36 0z m316 -5 c-3 -9 -6 -22 -6 -30 0 -27 -18 -14
-22 16 -4 25 -1 30 15 30 13 0 17 -5 13 -16z m54 -4 c0 -12 -7 -20 -17 -21
-15 0 -15 -2 2 -9 19 -8 19 -9 -2 -9 -19 -1 -23 4 -23 29 0 23 4 30 20 30 13
0 20 -7 20 -20z m60 10 c0 -5 -9 -10 -21 -10 -12 0 -19 -5 -16 -12 2 -7 12
-12 21 -12 9 1 16 -2 16 -7 0 -5 -9 -9 -20 -9 -23 0 -35 22 -26 45 6 17 46 21
46 5z m35 -10 c7 0 16 6 18 13 3 6 6 -3 6 -22 1 -29 -1 -32 -15 -20 -13 10
-17 10 -25 -2 -6 -10 -9 -4 -8 21 0 19 3 29 6 23 2 -7 11 -13 18 -13z m78 7
c3 10 5 3 6 -16 1 -27 -2 -31 -12 -22 -10 8 -17 7 -25 -1 -9 -9 -12 -4 -12 22
0 32 1 33 19 16 18 -17 19 -17 24 1z m72 -17 c0 -18 -6 -26 -21 -28 -26 -4
-40 24 -23 45 18 21 44 11 44 -17z m43 -17 c14 -12 13 -13 -6 -13 -18 0 -22 5
-21 33 1 20 3 25 6 12 3 -11 12 -26 21 -32z m70 19 c4 -28 -24 -40 -45 -19
-14 13 -14 19 -3 32 18 22 44 15 48 -13z m62 18 c0 -5 -9 -10 -20 -10 -22 0
-27 -15 -9 -26 6 -3 15 0 20 7 7 11 9 10 9 -3 0 -11 -8 -18 -20 -18 -23 0 -35
22 -26 45 6 17 46 21 46 5z m25 -22 c-7 -34 -15 -34 -15 1 0 18 4 30 9 26 6
-3 8 -15 6 -27z m48 26 c-7 -3 -9 -12 -6 -20 3 -8 -1 -14 -8 -15 -8 0 -5 -4 6
-9 19 -8 19 -9 -2 -9 -19 -1 -23 4 -23 29 0 25 4 30 23 29 12 0 17 -3 10 -5z
m38 -3 c-11 -7 -10 -11 4 -19 21 -11 12 -32 -13 -32 -13 0 -14 2 -3 9 9 6 10
11 2 15 -17 11 -13 36 7 36 13 0 14 -2 3 -9z m326 -3 c8 21 21 4 15 -24 -3
-19 -7 -23 -14 -12 -7 10 -11 10 -15 1 -8 -21 -23 -14 -23 10 0 30 11 41 23
25 7 -10 10 -10 14 0z m78 -18 c0 -18 -6 -26 -21 -28 -26 -4 -40 24 -23 45 18
21 44 11 44 -17z m45 15 c1 19 1 19 14 2 14 -18 15 -18 26 0 9 15 10 13 5 -12
-8 -38 -14 -43 -26 -25 -8 13 -10 13 -19 0 -9 -13 -11 -13 -20 0 -5 8 -10 24
-10 34 0 20 0 20 15 0 14 -19 14 -19 15 1z m112 -15 c-4 -30 -22 -43 -22 -16
0 8 -3 21 -6 30 -4 11 0 16 13 16 16 0 19 -5 15 -30z m68 15 c10 -12 10 -18 0
-30 -25 -30 -61 -7 -46 30 3 8 12 15 19 15 8 0 20 -7 27 -15z m-3893 -137 c-3
-7 -5 -2 -5 12 0 14 2 19 5 13 2 -7 2 -19 0 -25z m70 -5 c-3 -10 -5 -4 -5 12
0 17 2 24 5 18 2 -7 2 -21 0 -30z m4308 -283 c5 0 21 -62 36 -140 15 -77 48
-221 73 -320 25 -99 46 -182 46 -185 0 -3 -6 -5 -13 -5 -20 0 -32 32 -71 192
-44 175 -108 522 -88 475 4 -10 12 -18 17 -17z m2042 -670 c16 -9 15 -10 -5
-5 -13 4 -53 11 -90 15 l-67 9 72 -4 c40 -2 81 -9 90 -15z m58 -10 c3 -6 -1
-7 -9 -4 -18 7 -21 14 -7 14 6 0 13 -4 16 -10z m39 -36 c3 -8 2 -12 -4 -9 -6
3 -10 10 -10 16 0 14 7 11 14 -7z m60 -5 c35 -21 48 -35 24 -26 -7 2 -21 0
-32 -5 -14 -8 -17 -7 -11 3 6 9 2 11 -13 7 -12 -4 -20 -2 -16 3 3 5 13 9 22 9
12 1 10 5 -8 15 -14 8 -20 14 -13 15 6 0 28 -9 47 -21z m-739 -69 c3 -6 -1 -7
-9 -4 -18 7 -21 14 -7 14 6 0 13 -4 16 -10z m865 -15 c26 -28 21 -35 -5 -8
-14 14 -18 14 -26 2 -10 -16 -12 -8 -3 15 8 20 6 21 34 -9z m-823 -1 c-3 -3
-12 -4 -19 -1 -8 3 -5 6 6 6 11 1 17 -2 13 -5z m58 -14 c3 -5 2 -10 -4 -10 -5
0 -13 5 -16 10 -3 6 -2 10 4 10 5 0 13 -4 16 -10z m72 -30 c-1 -3 0 -5 3 -5 3
0 18 -10 34 -22 16 -13 36 -23 45 -23 14 0 14 -2 1 -10 -13 -9 -7 -14 12 -11
4 0 4 -7 1 -17 -6 -15 -5 -15 10 -3 10 8 17 9 17 3 0 -29 -26 -22 -62 16 -21
23 -42 42 -46 42 -4 0 -20 9 -36 19 l-29 19 26 -1 c14 -1 25 -4 24 -7z m50 4
c-3 -3 -12 -4 -19 -1 -8 3 -5 6 6 6 11 1 17 -2 13 -5z m28 -24 c3 -5 -1 -10
-9 -10 -9 0 -16 5 -16 10 0 6 4 10 9 10 6 0 13 -4 16 -10z m739 -76 c4 -13 11
-24 17 -24 6 0 7 -4 4 -10 -3 -5 -2 -10 3 -10 12 0 38 -60 34 -77 -2 -7 1 -13
7 -13 5 0 17 -31 25 -69 14 -61 16 -178 16 -879 0 -767 -1 -813 -19 -884 -24
-91 -55 -155 -112 -229 -47 -61 -121 -131 -159 -151 -14 -7 -27 -15 -30 -18
-19 -19 -169 -75 -177 -66 -3 3 -13 2 -22 -3 -9 -4 -31 -11 -48 -14 -26 -5
-33 -3 -33 10 0 9 -22 65 -50 124 -27 59 -50 111 -50 116 0 5 -15 26 -32 48
-20 23 -31 48 -30 61 2 13 -17 51 -46 95 -27 41 -61 95 -75 120 -39 72 -51 89
-62 89 -6 0 -20 6 -31 14 -19 14 -19 15 2 38 12 13 28 40 35 61 7 21 19 43 25
48 17 14 64 0 64 -20 0 -14 2 -14 10 -1 5 8 10 11 10 6 0 -5 6 -3 14 3 11 9
15 9 19 -1 3 -7 6 -4 6 7 1 11 5 16 9 10 4 -5 18 -16 30 -23 22 -12 23 -12 17
9 -5 14 -4 19 4 15 6 -4 11 -15 11 -24 0 -11 3 -13 8 -6 13 20 53 24 59 6 6
-14 7 -13 13 2 6 17 7 17 22 3 14 -15 16 -15 21 2 3 14 12 18 36 15 20 -2 31
1 31 9 0 8 4 7 10 -3 8 -12 12 -12 18 -2 5 7 13 12 18 11 20 -5 44 14 44 35 1
20 1 20 14 3 14 -17 15 -17 21 4 7 21 9 21 20 6 19 -26 22 -21 20 30 -2 39 0
44 10 30 14 -19 26 -12 18 9 -3 8 0 14 7 14 9 0 11 10 7 30 -8 37 6 39 22 4
18 -40 24 -22 8 25 -8 23 -11 44 -6 47 5 3 9 0 9 -6 0 -6 5 -8 12 -4 8 5 9 2
5 -9 -3 -9 -2 -19 3 -22 6 -4 11 2 11 12 4 39 6 49 13 66 5 10 3 37 -4 63 -7
24 -10 47 -6 51 3 3 6 -4 6 -17 0 -13 3 -21 6 -17 8 7 34 -17 34 -32 0 -6 4
-11 9 -11 5 0 5 21 0 48 -14 79 -31 132 -40 126 -5 -3 -9 0 -9 5 0 18 18 12
34 -11 22 -31 31 -15 10 17 -12 19 -14 29 -6 37 8 8 2 21 -23 50 -19 21 -35
45 -35 55 0 12 7 8 25 -13 28 -33 36 -13 9 24 -9 13 -13 30 -10 38 4 11 2 12
-13 5 -16 -9 -18 -7 -18 14 0 14 3 28 8 31 15 9 -3 34 -25 34 -44 0 -67 12
-61 31 5 14 0 20 -19 25 -14 3 -26 10 -26 15 0 5 -7 9 -15 9 -8 0 -15 5 -15
11 0 5 -4 7 -10 4 -5 -3 -10 1 -10 9 0 8 -6 13 -13 10 -7 -2 -28 11 -47 31
-19 19 -29 35 -23 35 6 0 14 -6 16 -12 4 -10 6 -10 6 -1 1 6 -3 15 -9 18 -5 3
-10 11 -10 16 0 6 4 8 8 5 5 -3 9 1 9 9 0 8 -3 12 -7 10 -17 -10 -30 17 -35
74 -3 35 -8 67 -10 71 -2 3 -5 28 -6 56 -1 27 -7 52 -13 56 -5 3 -11 12 -12
20 -1 7 -5 26 -9 42 -6 23 -5 27 5 21 9 -6 11 -4 5 5 -4 7 -2 16 5 20 11 7 11
14 0 39 -7 18 -15 30 -17 27 -3 -2 0 -14 7 -25 6 -12 7 -21 2 -21 -5 0 -14 11
-22 24 -11 21 -10 27 4 41 22 22 21 24 -16 22 -25 -2 -32 -6 -30 -19 2 -10
-19 6 -48 36 -27 29 -50 58 -50 64 0 7 -5 12 -11 12 -5 0 -7 -6 -3 -12 4 -7 3
-10 -1 -5 -5 4 -9 19 -10 33 l-1 26 18 -22 c10 -12 18 -30 18 -39 0 -14 2 -14
10 -1 8 13 10 13 10 -1 0 -9 6 -22 14 -28 11 -9 18 -8 32 6 15 15 17 15 12 2
-10 -27 6 -43 25 -25 20 20 28 20 21 1 -5 -12 5 -15 57 -17 61 -1 62 -1 19 -7
-45 -6 -62 -29 -30 -39 13 -5 13 -3 1 11 -11 15 -11 17 2 17 8 0 20 -7 27 -15
7 -8 19 -15 26 -15 8 0 15 -10 16 -22 0 -13 1 -30 2 -38 1 -10 14 -16 39 -18
32 -3 37 0 37 17 0 12 7 21 15 21 10 0 15 10 15 30 0 35 12 38 39 11 19 -19
20 -19 35 2 l15 22 20 -25 21 -25 0 33 c0 31 2 32 40 32 l40 0 0 45 c0 33 4
45 15 45 8 0 15 4 15 9 0 5 10 4 23 -1 19 -9 21 -18 19 -53 -4 -41 -3 -42 27
-42 16 0 32 5 34 12 3 7 -6 10 -22 9 -24 -2 -28 2 -28 26 0 21 4 27 16 22 11
-4 9 2 -6 19 -12 13 -22 27 -22 32 -1 14 -30 64 -45 76 -21 18 -20 2 1 -21 9
-10 12 -18 7 -18 -14 0 -36 39 -28 51 9 14 71 -47 78 -77z m-7684 7 c0 -22
-21 -33 -40 -21 -18 11 -4 40 20 40 13 0 20 -7 20 -19z m-146 -15 c70 -29 87
-102 37 -158 -27 -30 -34 -33 -105 -36 l-76 -4 0 106 0 106 55 0 c31 0 71 -6
89 -14z m7186 4 c0 -5 -2 -10 -4 -10 -3 0 -8 5 -11 10 -3 6 -1 10 4 10 6 0 11
-4 11 -10z m-5750 -38 c0 -26 2 -28 37 -24 47 6 63 -15 63 -85 0 -46 -3 -53
-19 -53 -17 0 -20 8 -23 48 -3 43 -5 47 -28 47 -23 0 -25 -4 -28 -47 -3 -40
-6 -48 -23 -48 -17 0 -19 8 -19 95 0 88 1 95 20 95 15 0 20 -7 20 -28z m1085
-1 c-2 -28 -1 -29 35 -24 48 7 70 -21 70 -89 0 -41 -3 -48 -20 -48 -13 0 -20
7 -21 20 -1 11 -3 25 -4 30 -1 6 -3 19 -4 30 -1 14 -8 20 -25 20 -19 0 -26 -7
-31 -29 -3 -15 -5 -32 -4 -37 4 -23 -3 -34 -21 -34 -19 0 -20 7 -20 95 0 93 0
95 24 95 20 0 23 -4 21 -29z m5218 9 c-3 -11 -12 -20 -19 -20 -17 0 -18 12 -2
28 18 18 27 15 21 -8z m-7073 -80 c0 -83 -1 -90 -20 -90 -19 0 -20 7 -20 90 0
83 1 90 20 90 19 0 20 -7 20 -90z m708 73 c-2 -10 -10 -18 -18 -19 -8 -1 -21
-2 -27 -2 -9 -2 -13 -23 -13 -72 0 -63 -2 -70 -20 -70 -18 0 -20 7 -20 76 0
48 -4 73 -10 69 -16 -10 -50 5 -50 21 0 11 17 14 81 14 71 0 80 -2 77 -17z
m575 5 c46 -24 59 -70 36 -121 -15 -33 -49 -47 -114 -47 l-55 0 0 90 0 90 56
0 c30 0 65 -5 77 -12z m-1020 -16 c-2 -6 6 -12 17 -12 13 0 20 -7 20 -20 0
-13 -7 -20 -20 -20 -35 0 -25 -59 13 -73 29 -11 19 -27 -18 -27 -39 0 -55 20
-55 67 0 16 -5 34 -10 39 -16 16 11 65 35 61 11 -1 19 -8 18 -15z m1487 3 c0
-8 7 -15 15 -15 8 0 15 -9 15 -20 0 -11 -7 -20 -15 -20 -10 0 -15 -11 -15 -35
0 -28 4 -35 20 -35 11 0 20 -7 20 -15 0 -10 -10 -15 -27 -15 -42 0 -55 14 -57
56 0 22 -8 45 -16 52 -13 11 -13 14 3 26 9 7 17 18 17 25 0 6 9 11 20 11 11 0
20 -7 20 -15z m-2270 -75 c0 -73 -2 -80 -20 -80 -18 0 -20 7 -20 80 0 73 2 80
20 80 18 0 20 -7 20 -80z m86 30 c10 -27 21 -50 25 -50 3 0 16 23 28 50 16 36
27 50 41 50 20 0 20 -1 4 -37 -9 -21 -23 -57 -32 -81 -14 -36 -21 -42 -41 -40
-20 2 -30 17 -57 81 l-33 77 23 0 c20 0 27 -9 42 -50z m259 25 c14 -13 25 -33
25 -45 0 -18 -6 -20 -60 -20 -33 0 -60 -4 -60 -10 0 -17 41 -31 71 -25 22 5
29 3 29 -8 0 -35 -81 -37 -115 -2 -50 49 -15 135 55 135 19 0 40 -9 55 -25z
m342 -7 c8 -6 13 -33 13 -69 0 -52 -2 -59 -20 -59 -17 0 -20 7 -20 49 0 52
-12 65 -42 49 -13 -6 -18 -21 -18 -53 0 -38 -3 -45 -20 -45 -18 0 -20 7 -20
69 l0 69 57 1 c31 0 63 -5 70 -11z m280 -10 c47 -44 16 -118 -50 -118 -48 0
-77 24 -77 66 0 67 77 99 127 52z m571 5 c11 -10 23 -28 27 -40 6 -21 3 -23
-37 -24 -24 -1 -50 0 -57 1 -13 1 -13 -1 -1 -15 8 -10 25 -15 44 -13 22 2 31
-1 31 -12 0 -10 -13 -16 -42 -18 -51 -4 -83 22 -83 68 0 60 72 92 118 53z
m461 -9 c35 -44 28 -54 -35 -54 -50 0 -55 -2 -44 -15 8 -10 25 -15 44 -13 22
2 31 -1 31 -12 0 -10 -13 -16 -42 -18 -51 -4 -83 22 -83 68 0 67 88 96 129 44z
m163 15 c29 -15 41 -57 27 -91 -11 -27 -25 -34 -79 -40 -17 -2 -25 -9 -25 -23
0 -13 -8 -21 -22 -23 -22 -3 -23 -1 -23 91 l0 95 52 0 c28 1 60 -4 70 -9z
m451 5 c14 -14 -6 -30 -32 -26 -44 6 -45 -14 -2 -27 40 -12 55 -30 45 -56 -12
-30 -119 -34 -119 -5 0 11 9 14 38 12 22 -2 37 1 37 7 0 6 -8 11 -18 11 -24 0
-62 28 -62 45 0 25 31 45 69 45 21 0 40 -3 44 -6z m4487 -4 c0 -5 -4 -10 -10
-10 -5 0 -10 5 -10 10 0 6 5 10 10 10 6 0 10 -4 10 -10z m120 -30 c0 -5 -2
-10 -4 -10 -3 0 -8 5 -11 10 -3 6 -1 10 4 10 6 0 11 -4 11 -10z m-60 -50 c0
-5 -4 -10 -10 -10 -5 0 -10 5 -10 10 0 6 5 10 10 10 6 0 10 -4 10 -10z m0 -55
c0 -5 -5 -3 -10 5 -5 8 -10 20 -10 25 0 6 5 3 10 -5 5 -8 10 -19 10 -25z
m-6797 -161 c9 -10 -4 -34 -18 -34 -17 0 -28 17 -20 30 7 11 28 13 38 4z
m1592 -14 c0 -18 -33 -26 -47 -12 -6 6 -7 15 -3 22 10 16 50 8 50 -10z m-855
-100 c0 -103 -1 -110 -20 -110 -19 0 -20 7 -20 110 0 103 1 110 20 110 19 0
20 -7 20 -110z m760 0 c0 -103 -1 -110 -20 -110 -19 0 -20 7 -20 110 0 103 1
110 20 110 19 0 20 -7 20 -110z m-1741 84 c4 3 7 -4 7 -15 0 -19 -1 -19 -13
-3 -7 10 -13 23 -12 28 0 6 3 5 6 -2 2 -6 8 -10 12 -8z m165 -17 c-3 -9 -10
-17 -16 -17 -5 0 -6 -4 -3 -10 3 -5 1 -18 -5 -27 -9 -15 -10 -14 -5 7 5 22 4
23 -5 7 -7 -10 -9 -24 -7 -31 3 -7 -4 -18 -14 -24 -10 -7 -19 -11 -19 -10 1
23 32 82 50 98 21 18 21 20 4 20 -16 0 -16 2 -4 10 19 12 33 -1 24 -23z m1100
12 c32 -25 36 -77 6 -104 -19 -17 -19 -18 7 -51 l25 -34 -24 0 c-15 0 -32 11
-46 30 -15 19 -31 30 -47 30 -21 0 -25 -5 -25 -30 0 -23 -4 -30 -20 -30 -19 0
-20 7 -20 105 l0 105 59 0 c44 0 65 -5 85 -21z m-1390 5 c23 -9 20 -34 -4 -34
-11 0 -20 -4 -20 -10 0 -5 7 -10 15 -10 8 0 15 -9 15 -20 0 -11 -6 -19 -12
-17 -9 1 -14 -15 -16 -50 -3 -45 -6 -53 -23 -53 -16 0 -19 7 -19 45 0 25 -6
55 -12 66 -10 17 -10 23 0 26 6 3 12 10 12 16 0 12 30 47 41 47 4 0 14 -3 23
-6z m2056 -14 c0 -13 7 -20 20 -20 13 0 20 -7 20 -20 0 -13 -7 -20 -20 -20
-17 0 -20 -7 -20 -40 0 -36 4 -42 26 -39 10 1 23 -24 18 -33 -8 -12 -48 -9
-68 5 -11 8 -19 29 -21 57 -1 24 -8 46 -14 48 -13 4 -15 42 -2 42 5 0 11 9 14
20 3 12 14 20 26 20 14 0 21 -6 21 -20z m-2183 -21 c44 -42 35 -121 -19 -150
-32 -17 -109 -5 -130 21 -20 25 -24 81 -7 111 26 49 112 59 156 18z m723 11
c0 -13 7 -20 20 -20 11 0 20 -4 20 -10 0 -5 -9 -10 -21 -10 -18 0 -20 -5 -17
-47 3 -41 6 -48 26 -51 27 -4 29 -19 2 -27 -43 -14 -78 33 -67 90 3 17 -1 29
-12 36 -12 7 -13 12 -3 15 6 3 12 14 12 25 0 12 7 19 20 19 13 0 20 -7 20 -20z
m-250 -22 c0 6 5 12 10 12 6 0 10 -32 10 -75 0 -67 -2 -75 -19 -75 -16 0 -19
9 -20 78 -1 53 2 72 9 62 6 -10 10 -11 10 -2z m108 0 c9 -9 15 -9 24 0 7 7 18
12 25 12 22 0 15 -20 -11 -29 -28 -11 -36 -29 -36 -81 0 -40 -8 -54 -26 -42
-11 7 -17 129 -7 145 6 10 17 9 31 -5z m262 -32 c0 -62 8 -76 40 -76 32 0 40
14 40 76 0 37 3 44 20 44 18 0 20 -7 20 -75 0 -60 -3 -77 -16 -82 -9 -3 -19 0
-24 7 -6 9 -13 9 -28 1 -30 -16 -40 -14 -67 14 -21 20 -25 34 -25 80 0 48 2
55 20 55 17 0 20 -7 20 -44z m279 27 c19 -16 28 -70 22 -129 -1 -13 -109 -13
-128 -1 -20 12 -15 55 6 67 11 5 34 10 51 10 25 0 31 4 28 18 -3 13 -13 17
-46 15 -30 -1 -42 2 -42 12 0 28 77 34 109 8z m589 0 c12 -10 24 -30 28 -45
l6 -28 -61 0 c-34 0 -61 -4 -61 -10 0 -17 33 -28 62 -20 34 10 49 -7 23 -27
-48 -34 -135 12 -135 72 0 61 90 98 138 58z m175 5 c17 -14 21 -37 19 -105 -2
-31 -6 -43 -17 -43 -8 0 -15 4 -15 9 0 5 -13 4 -29 -2 -40 -15 -81 3 -81 36 0
33 18 47 62 47 26 0 38 4 38 14 0 19 -31 29 -64 20 -19 -5 -26 -2 -26 9 0 8 6
18 13 20 24 10 83 7 100 -5z m197 -68 c0 -73 -2 -80 -20 -80 -18 0 -20 7 -20
80 0 73 2 80 20 80 18 0 20 -7 20 -80z m220 28 l22 -53 24 53 c17 38 29 52 44
52 11 0 20 -1 20 -3 0 -2 -18 -43 -39 -92 -44 -100 -74 -131 -116 -121 -32 8
-28 30 6 34 13 2 28 7 32 12 5 4 -5 40 -22 80 -36 84 -37 90 -12 90 13 0 25
-16 41 -52z m-2027 29 c-4 -7 -7 -21 -6 -32 2 -13 1 -15 -4 -5 -3 8 -9 22 -14
30 -5 12 -2 16 12 17 13 1 17 -2 12 -10z m27 -69 c0 -20 -15 -24 -26 -6 -5 7
-3 8 6 3 10 -6 11 -1 6 21 -5 21 -4 25 4 14 5 -8 10 -23 10 -32z m5500 30 c0
-9 4 -8 10 2 9 13 14 11 35 -12 13 -16 29 -28 35 -28 5 0 10 -6 10 -14 0 -8
16 -28 35 -45 19 -17 35 -36 35 -43 0 -9 3 -9 11 2 8 11 9 7 5 -19 l-6 -33 19
23 19 23 -2 -47 c0 -26 -4 -47 -8 -47 -5 0 -8 6 -9 13 0 8 -2 8 -5 1 -3 -6
-17 -9 -32 -6 -15 3 -25 2 -22 -1 10 -10 75 -16 85 -7 8 7 12 5 12 -5 0 -12
-17 -15 -89 -15 -56 0 -102 -5 -125 -15 -19 -8 -37 -15 -38 -15 -1 0 -5 44 -8
98 -4 53 -9 120 -12 147 -4 47 -4 49 11 30 16 -20 16 -20 11 3 -3 15 -1 22 9
22 8 0 14 -6 14 -12z m-5443 -37 c15 13 15 12 2 -8 -8 -13 -16 -23 -19 -23
-11 0 -25 16 -28 29 -3 12 0 12 12 1 13 -10 19 -10 33 1z m4594 -199 c7 -162
18 -283 41 -446 9 -62 8 -80 -2 -86 -44 -27 -49 5 -56 400 -7 330 5 419 17
132z m-4614 152 c-3 -3 -12 -4 -19 -1 -8 3 -5 6 6 6 11 1 17 -2 13 -5z m5673
-38 c0 -3 -4 -8 -10 -11 -5 -3 -10 -1 -10 4 0 6 5 11 10 11 6 0 10 -2 10 -4z
m11 -83 c-12 -20 -14 -14 -5 12 4 9 9 14 11 11 3 -2 0 -13 -6 -23z m1629 -160
c0 -1 -8 -7 -18 -12 -14 -7 -19 -6 -19 4 0 7 9 13 19 12 10 -1 18 -2 18 -4z
m-2510 -73 c33 0 50 -5 54 -15 3 -8 11 -14 18 -13 7 2 20 -12 29 -29 9 -18 19
-30 22 -26 3 3 21 -7 38 -22 26 -21 39 -25 63 -21 17 4 38 6 46 7 46 1 80 11
80 24 0 8 7 15 16 15 8 0 30 11 48 25 21 16 51 27 80 30 26 3 56 10 67 15 15
9 21 7 26 -6 6 -16 7 -16 14 2 11 25 1 -97 -12 -154 -14 -63 -44 -116 -81
-146 l-33 -26 33 10 c33 9 91 41 127 69 11 9 4 -2 -15 -25 -19 -22 -38 -39
-41 -37 -4 1 -12 -4 -19 -12 -18 -22 -112 -38 -157 -27 -54 13 -56 14 -278 18
l-200 3 -3 181 c-2 122 1 179 8 175 5 -3 11 0 11 7 1 7 3 5 6 -4 3 -14 15 -18
53 -18z m2490 5 c7 -9 8 -15 2 -15 -5 0 -12 7 -16 15 -3 8 -4 15 -2 15 2 0 9
-7 16 -15z m-7777 -67 c8 -5 6 -8 -5 -8 -14 0 -18 8 -17 38 2 34 2 34 6 7 3
-16 10 -33 16 -37z m747 26 c0 -33 -2 -35 -27 -32 -36 4 -40 41 -5 46 12 2 22
8 22 13 0 5 2 9 5 9 3 0 5 -16 5 -36z m87 -16 c-2 -13 -4 -5 -4 17 -1 22 1 32
4 23 2 -10 2 -28 0 -40z m1383 17 c0 -19 -4 -35 -9 -35 -5 0 -7 9 -4 20 4 14
0 20 -12 20 -12 0 -16 -6 -12 -20 3 -11 1 -20 -4 -20 -5 0 -9 11 -9 25 0 18 5
25 20 25 11 0 20 5 20 10 0 6 2 10 5 10 3 0 5 -16 5 -35z m517 -2 c-3 -10 -5
-4 -5 12 0 17 2 24 5 18 2 -7 2 -21 0 -30z m-1652 -8 c0 -14 -3 -25 -7 -25 -4
0 -8 14 -8 32 0 36 13 30 15 -7z m301 5 c-1 -39 -16 -39 -16 0 0 17 4 30 9 30
4 0 8 -13 7 -30z m300 18 c4 -6 3 -8 -4 -4 -6 3 -13 2 -16 -3 -3 -5 3 -11 13
-14 12 -3 22 1 25 9 3 8 16 13 28 13 22 -2 22 -2 -2 -7 l-25 -5 25 -8 25 -7
-25 -2 -25 -2 25 -8 c22 -8 21 -9 -10 -7 -44 3 -82 33 -60 47 19 12 17 12 26
-2z m156 -18 c3 -16 1 -30 -4 -30 -4 0 -8 14 -8 30 0 17 2 30 4 30 2 0 6 -13
8 -30z m112 -22 c7 -5 5 -8 -6 -8 -14 0 -18 8 -17 33 2 27 2 28 6 7 3 -14 10
-28 17 -32z m851 17 c0 -14 -3 -25 -7 -25 -4 0 -8 14 -8 32 0 36 13 30 15 -7z
m-2720 1 c0 -11 -6 -20 -13 -22 -7 -1 -8 0 -2 3 18 9 10 33 -11 33 -17 0 -20
-5 -16 -21 4 -16 3 -19 -5 -11 -6 6 -8 18 -4 27 9 23 51 16 51 -9z m39 16 c-7
-4 -14 -16 -17 -27 -4 -15 -5 -14 -6 8 -1 20 4 27 17 27 11 0 13 -3 6 -8z m31
-2 c-3 -5 1 -10 10 -10 10 0 13 5 9 12 -4 7 -3 8 4 4 19 -12 14 -26 -10 -27
-22 0 -22 -1 -3 -9 19 -8 19 -9 -2 -9 -18 -1 -23 5 -23 24 0 14 5 25 11 25 5
0 7 -4 4 -10z m141 -15 c1 -15 0 -16 -3 -2 -8 34 -40 17 -33 -18 1 -5 -2 -6
-7 -2 -4 5 -8 14 -8 20 0 23 -33 19 -38 -5 -4 -20 -4 -19 -6 5 -1 27 0 28 47
25 39 -2 47 -6 48 -23z m51 -12 c-3 -10 -5 -4 -5 12 0 17 2 24 5 18 2 -7 2
-21 0 -30z m73 26 c0 -8 6 -7 17 2 9 8 14 9 10 3 -4 -7 2 -14 14 -17 26 -7 15
-27 -14 -26 -20 1 -20 2 3 8 l25 7 -23 6 c-15 4 -25 2 -29 -8 -3 -8 -13 -14
-23 -14 -10 0 -21 -6 -23 -12 -3 -7 -6 4 -6 25 -1 33 2 37 24 37 14 0 25 -5
25 -11z m82 -14 c3 -14 1 -25 -3 -25 -5 0 -9 11 -9 25 0 14 2 25 4 25 2 0 6
-11 8 -25z m38 0 c0 -14 -4 -25 -9 -25 -4 0 -6 11 -3 25 2 14 6 25 8 25 2 0 4
-11 4 -25z m109 -2 c-2 -24 -2 -25 -6 -5 -2 12 -11 22 -19 22 -8 0 -15 -10
-15 -22 l-2 -23 -4 23 c-2 12 -11 22 -18 22 -7 0 -16 -10 -18 -22 -4 -20 -4
-19 -6 5 -1 26 1 27 44 27 43 0 45 -1 44 -27z m167 9 c1 -7 0 -8 -3 -2 -2 5
-13 10 -24 10 -27 0 -24 -30 4 -31 18 -1 19 -2 3 -6 -23 -6 -41 11 -32 32 7
19 48 17 52 -3z m89 -7 c0 -22 -31 -33 -47 -17 -17 17 -1 44 24 40 15 -2 23
-10 23 -23z m39 17 c-7 -4 -14 -16 -17 -27 -4 -15 -5 -14 -6 8 -1 20 4 27 17
27 11 0 13 -3 6 -8z m68 -1 c-11 -7 -11 -9 2 -14 18 -7 22 -27 5 -27 -5 0 -7
5 -4 10 3 6 -1 10 -9 10 -9 0 -16 7 -16 15 0 8 8 15 18 15 13 0 14 -2 4 -9z
m35 -28 c-3 -10 -5 -4 -5 12 0 17 2 24 5 18 2 -7 2 -21 0 -30z m133 12 c0 -14
-5 -25 -11 -25 -5 0 -7 5 -4 10 3 6 -2 11 -12 11 -16 1 -15 2 2 7 l20 5 -20 8
c-19 7 -19 8 3 8 17 1 22 -5 22 -24z m71 -2 c-5 -26 -6 -26 -9 -5 -2 12 -10
22 -17 22 -7 0 -16 -10 -18 -22 -4 -20 -4 -19 -6 5 -1 23 3 27 28 27 26 0 28
-3 22 -27z m39 2 c0 -14 -2 -25 -4 -25 -2 0 -6 11 -8 25 -3 14 -1 25 3 25 5 0
9 -11 9 -25z m68 8 c2 -8 -5 -13 -18 -13 -12 0 -18 -4 -15 -10 3 -5 2 -10 -4
-10 -12 0 -20 21 -13 38 6 16 44 12 50 -5z m134 10 c-18 -4 -23 -9 -19 -25 4
-15 3 -18 -5 -10 -16 16 -1 42 24 41 l23 -2 -23 -4z m78 -18 c0 -14 -4 -25 -9
-25 -5 0 -7 9 -4 20 4 14 0 20 -12 20 -12 0 -16 -6 -12 -20 3 -11 1 -20 -4
-20 -10 0 -12 33 -2 43 3 4 15 7 25 7 13 0 18 -7 18 -25z m66 -3 c1 -18 1 -19
-3 -2 -6 27 -31 25 -36 -2 -4 -19 -4 -18 -6 5 -1 24 2 28 22 25 15 -2 22 -10
23 -26z m157 18 c-13 -5 -23 -12 -23 -15 0 -3 10 -10 23 -15 22 -9 22 -9 0 -9
-12 -1 -23 5 -26 12 -7 21 4 37 27 36 21 0 21 0 -1 -9z m125 -7 c2 -9 -7 -13
-25 -13 -22 0 -25 -2 -13 -11 12 -9 12 -10 1 -7 -28 8 -23 28 6 29 l28 1 -25
9 -25 8 24 -2 c14 -1 26 -8 29 -14z m64 -8 c3 -13 1 -22 -3 -19 -9 5 -13 44
-5 44 2 0 6 -11 8 -25z m82 17 c-7 -4 -14 -16 -17 -27 -4 -15 -5 -14 -6 8 -1
20 4 27 17 27 11 0 13 -3 6 -8z m86 -19 c0 -22 -2 -25 -10 -13 -9 13 -11 13
-20 0 -8 -13 -10 -12 -10 3 0 9 8 17 18 18 14 0 14 2 -3 9 -19 8 -19 9 3 9 18
1 22 -4 22 -26z m97 -10 c-3 -10 -5 -4 -5 12 0 17 2 24 5 18 2 -7 2 -21 0 -30z
m36 17 c-4 -14 0 -20 10 -20 22 0 32 20 16 31 -9 6 -10 9 -2 9 6 0 14 -4 17
-9 10 -16 -5 -41 -24 -41 -10 0 -21 -6 -23 -12 -3 -7 -6 4 -6 25 -1 20 3 37 8
37 5 0 7 -9 4 -20z m64 -17 c-3 -10 -5 -4 -5 12 0 17 2 24 5 18 2 -7 2 -21 0
-30z m29 28 c-3 -5 3 -11 13 -14 12 -3 22 1 25 9 3 8 16 13 28 13 l23 -2 -22
-4 c-25 -5 -29 -13 -12 -30 8 -8 4 -11 -14 -10 -14 1 -23 5 -21 8 2 4 -6 9
-17 12 -17 5 -20 27 -3 27 3 0 3 -4 0 -9z m111 -28 c-3 -10 -5 -4 -5 12 0 17
2 24 5 18 2 -7 2 -21 0 -30z m70 7 c1 -22 1 -22 -4 -2 -2 12 -11 22 -19 22 -8
0 -19 -10 -24 -22 -8 -22 -9 -22 -9 5 -1 25 2 28 27 25 21 -2 27 -9 29 -28z
m73 5 c0 -20 -5 -25 -24 -25 -14 0 -28 5 -31 10 -12 19 4 40 30 40 20 0 25 -5
25 -25z m88 8 c2 -8 -5 -13 -18 -13 -12 0 -18 -4 -15 -10 3 -5 1 -10 -4 -10
-6 0 -11 12 -11 26 0 20 4 25 22 22 12 -2 23 -9 26 -15z m49 -20 c-3 -10 -5
-4 -5 12 0 17 2 24 5 18 2 -7 2 -21 0 -30z m3916 10 c-7 -2 -21 -2 -30 0 -10
3 -4 5 12 5 17 0 24 -2 18 -5z m-4663 -13 c0 -5 -5 -10 -11 -10 -5 0 -7 5 -4
10 3 6 8 10 11 10 2 0 4 -4 4 -10z m4583 -4 c3 -8 -1 -13 -11 -12 -26 2 -23
-48 4 -52 13 -2 23 -14 30 -35 8 -28 13 -32 44 -32 l35 0 5 -70 c6 -76 13 -95
36 -95 8 0 14 -9 14 -20 0 -11 4 -20 8 -20 5 0 8 10 8 21 -1 12 5 24 13 27 10
3 13 -3 9 -27 -2 -17 -2 -31 1 -31 15 1 29 17 34 40 4 22 4 21 6 -7 0 -17 -4
-35 -9 -38 -8 -5 -7 -11 1 -21 6 -7 9 -21 5 -29 -3 -8 -1 -15 4 -15 6 0 10 7
10 15 0 8 5 15 10 15 6 0 10 -6 10 -13 0 -7 -4 -18 -10 -25 -7 -9 -7 -9 2 -2
14 12 31 13 24 2 -2 -4 4 -8 15 -8 18 0 18 2 5 12 -9 6 -16 17 -16 25 0 8 8 4
19 -10 18 -23 18 -57 1 -46 -4 2 -12 -6 -19 -18 -24 -44 -151 -107 -216 -107
-18 0 -45 -4 -59 -10 -17 -6 -26 -6 -26 0 0 6 -8 10 -18 10 -40 0 -123 32
-180 70 -58 39 -135 134 -135 167 0 7 -5 13 -10 13 -5 0 -7 6 -4 13 2 6 1 36
-3 66 -9 69 4 144 30 184 16 24 20 26 15 10 -7 -26 12 -32 33 -11 9 9 12 9 12
0 0 -22 20 -12 21 11 1 21 1 21 8 -3 7 -24 8 -24 16 10 7 29 9 31 12 13 3 -13
9 -23 15 -23 6 0 8 11 5 25 -3 16 0 24 7 22 6 -2 12 -22 14 -45 2 -23 6 -42
10 -42 4 1 18 14 32 30 13 17 28 30 32 30 12 0 10 -27 -2 -33 -6 -3 -5 -4 2
-3 7 2 13 14 13 27 0 22 14 32 81 58 1 1 4 -5 7 -13z m124 -2 c-3 -3 -12 -4
-19 -1 -8 3 -5 6 6 6 11 1 17 -2 13 -5z m-267 -24 c-8 -5 -17 -7 -19 -4 -3 3
1 9 9 14 8 5 17 7 19 4 3 -3 -1 -9 -9 -14z m-6320 -110 c0 -36 -3 -40 -24 -40
-13 0 -26 6 -29 14 -4 9 -15 12 -34 8 l-28 -6 25 -7 c24 -7 24 -7 2 -8 -27 -1
-40 25 -22 42 10 9 11 9 6 0 -5 -9 0 -13 14 -13 14 0 19 4 14 13 -5 9 -4 9 6
0 11 -10 16 -9 26 5 8 9 14 12 14 5 0 -6 -5 -15 -10 -18 -14 -8 -3 -25 16 -25
9 0 14 8 13 18 -2 26 0 52 6 52 3 0 5 -18 5 -40z m100 0 c0 -36 -2 -40 -25
-40 -31 0 -44 26 -21 46 9 8 11 9 6 2 -16 -20 -11 -38 11 -38 13 0 20 6 18 18
-2 26 0 52 6 52 3 0 5 -18 5 -40z m1240 0 c0 -36 -3 -40 -24 -40 -31 0 -42 29
-19 49 16 15 16 15 4 -1 -14 -19 -7 -38 15 -38 9 0 14 8 13 18 -2 26 0 52 6
52 3 0 5 -18 5 -40z m-693 -6 c0 -32 -3 -35 -26 -32 -32 4 -42 42 -14 52 14 6
16 5 6 -5 -18 -18 -16 -39 2 -39 9 0 15 9 15 23 0 20 7 37 15 37 1 0 2 -16 2
-36z m66 -26 c8 -5 6 -8 -5 -8 -14 0 -18 8 -17 38 2 34 2 34 6 7 3 -16 10 -33
16 -37z m727 27 c0 -31 -3 -35 -25 -35 -31 0 -44 26 -21 46 9 8 11 9 6 2 -16
-20 -11 -38 11 -38 13 0 20 6 18 18 -2 25 0 42 6 42 3 0 5 -16 5 -35z m464 3
c1 -13 8 -24 19 -26 20 -4 23 17 5 39 -7 7 -4 6 6 -3 24 -21 14 -48 -19 -48
-22 0 -25 4 -25 37 0 38 12 40 14 1z m339 -30 c8 -5 6 -8 -5 -8 -14 0 -18 8
-17 38 2 34 2 34 6 7 3 -16 10 -33 16 -37z m97 27 c0 -30 -3 -35 -24 -35 -25
0 -36 15 -29 38 3 6 9 12 15 12 7 0 7 -5 -1 -13 -12 -15 -5 -27 16 -27 8 0 13
8 12 18 -2 25 0 42 6 42 3 0 5 -16 5 -35z m-1868 -13 c-6 -26 -6 -26 -11 -4
-3 13 -10 23 -16 23 -5 0 -13 -10 -17 -23 -6 -22 -6 -22 -7 4 -1 27 12 38 40
31 11 -3 14 -12 11 -31z m38 1 c0 -32 -5 -28 -14 10 -4 19 -3 26 4 22 5 -3 10
-18 10 -32z m270 6 c0 -5 -10 -9 -22 -10 -22 0 -22 -1 -3 -9 19 -8 19 -9 -1
-9 -28 -1 -38 24 -18 44 13 12 19 13 30 4 8 -6 14 -15 14 -20z m177 -13 c-4
-9 -15 -16 -26 -16 -11 0 -22 -6 -24 -12 -3 -7 -6 4 -6 25 -1 20 3 37 9 37 5
0 7 -7 4 -15 -4 -9 1 -18 10 -21 25 -9 32 4 17 29 -13 21 -12 21 4 5 10 -9 15
-23 12 -32z m35 32 c-16 -16 -15 -38 2 -38 8 0 17 10 19 23 4 18 4 17 6 -6 1
-24 -2 -28 -21 -25 -26 3 -37 36 -16 49 19 12 24 11 10 -3z m197 -32 c-1 -20
-2 -20 -6 -1 -3 11 -10 27 -17 35 -10 13 -9 13 7 1 9 -7 16 -23 16 -35z m33
32 c-19 -19 -14 -36 11 -41 l22 -4 -23 -2 c-27 -1 -39 23 -22 44 7 8 15 15 18
15 3 0 1 -5 -6 -12z m357 -27 c-1 -20 -2 -22 -6 -6 -3 11 -10 26 -15 33 -8 9
-7 11 6 6 10 -4 16 -16 15 -33z m31 15 c0 -13 6 -27 13 -29 7 -4 6 -6 -4 -6
-11 -1 -18 9 -21 29 -3 17 -1 30 4 30 4 0 8 -11 8 -24z m142 -6 c3 -16 1 -30
-4 -30 -4 0 -8 6 -8 14 0 8 -3 21 -6 30 -3 9 -2 16 4 16 5 0 12 -13 14 -30z
m230 18 c-18 -18 -15 -40 6 -36 10 2 16 11 14 23 -2 16 -1 17 7 6 14 -21 1
-42 -23 -39 -24 3 -34 37 -14 49 19 12 24 11 10 -3z m490 0 c-20 -20 -15 -41
8 -35 11 3 20 1 20 -5 0 -5 -10 -8 -22 -6 -26 3 -37 36 -16 49 19 12 24 11 10
-3z m4258 -3 c4 3 6 -5 2 -17 -5 -21 -6 -21 -13 -2 -4 10 -8 24 -8 29 1 6 3 4
6 -3 2 -6 8 -10 13 -7z m-6870 -18 c11 -5 9 -6 -4 -4 -11 1 -21 9 -23 17 -3
10 -2 11 4 4 4 -6 15 -14 23 -17z m263 2 c-5 -17 -2 -20 13 -17 11 2 18 11 17
22 -1 13 2 15 9 8 15 -15 2 -42 -21 -42 -23 0 -35 15 -27 35 8 23 15 18 9 -6z
m92 11 c-3 -5 3 -10 15 -10 13 0 19 4 14 12 -4 7 -3 8 5 4 15 -10 5 -26 -17
-27 -14 0 -13 -2 3 -9 19 -8 19 -9 -1 -9 -12 -1 -25 6 -28 15 -6 15 0 34 10
34 3 0 2 -4 -1 -10z m62 -27 c-3 -10 -5 -4 -5 12 0 17 2 24 5 18 2 -7 2 -21 0
-30z m48 -3 c7 0 16 10 18 23 4 19 4 18 6 -5 1 -24 -3 -28 -24 -28 -21 0 -25
4 -24 28 2 23 2 24 6 5 2 -13 11 -23 18 -23z m64 23 c24 -20 18 -33 -12 -32
-20 1 -20 2 3 8 l25 7 -22 8 c-13 4 -23 12 -23 17 0 13 7 11 29 -8z m188 -17
c-8 -21 -43 -20 -52 2 -5 14 -4 15 6 5 21 -21 42 -16 36 8 -4 16 -3 19 5 11 6
-6 8 -18 5 -26z m225 9 c-2 -14 -6 -25 -8 -25 -2 0 -4 11 -4 25 0 14 4 25 9
25 4 0 6 -11 3 -25z m40 0 c-2 -14 -6 -25 -8 -25 -2 0 -4 11 -4 25 0 14 4 25
9 25 4 0 6 -11 3 -25z m41 10 c4 -8 3 -16 -1 -19 -4 -3 -9 4 -9 15 -2 23 3 25
10 4z m169 -10 c-2 -14 -6 -25 -8 -25 -2 0 -4 11 -4 25 0 14 4 25 9 25 4 0 6
-11 3 -25z m65 -12 c-3 -10 -5 -4 -5 12 0 17 2 24 5 18 2 -7 2 -21 0 -30z m32
30 c0 -5 -4 -17 -9 -28 -8 -18 -9 -17 -9 8 -1 15 4 27 9 27 6 0 10 -3 9 -7z
m118 -30 c-3 -10 -5 -4 -5 12 0 17 2 24 5 18 2 -7 2 -21 0 -30z m100 0 c-3
-10 -5 -4 -5 12 0 17 2 24 5 18 2 -7 2 -21 0 -30z m118 -3 c7 0 16 10 18 23 4
19 4 18 6 -5 1 -24 -3 -28 -24 -28 -21 0 -25 4 -24 28 2 23 2 24 6 5 2 -13 11
-23 18 -23z m52 3 c-3 -10 -5 -4 -5 12 0 17 2 24 5 18 2 -7 2 -21 0 -30z m183
12 c0 -20 -5 -25 -25 -25 -14 0 -25 4 -25 9 0 5 9 7 20 4 15 -4 20 0 20 16 0
11 2 21 5 21 3 0 5 -11 5 -25z m160 -6 c0 -14 -7 -19 -25 -19 -16 0 -25 6 -25
15 0 8 9 15 21 15 13 0 18 4 13 12 -4 7 -3 8 4 4 7 -4 12 -16 12 -27z m162 6
c-2 -14 -6 -25 -8 -25 -2 0 -4 11 -4 25 0 14 4 25 9 25 4 0 6 -11 3 -25z m33
15 c-3 -5 3 -10 15 -10 13 0 19 4 14 12 -4 7 -3 8 4 4 19 -12 14 -26 -10 -27
-22 0 -22 -1 -3 -9 19 -8 19 -9 -1 -9 -12 -1 -25 6 -28 15 -6 15 0 34 10 34 3
0 2 -4 -1 -10z m90 0 c-3 -5 3 -10 15 -10 13 0 19 4 14 12 -4 7 -3 8 5 4 16
-10 4 -26 -22 -27 -20 -1 -20 -2 3 -9 23 -7 23 -8 3 -9 -12 -1 -25 4 -28 9 -7
12 0 40 10 40 4 0 3 -4 0 -10z m242 -24 c-8 -20 -43 -21 -51 -1 -3 8 -1 15 4
15 6 0 10 -4 10 -10 0 -5 7 -10 16 -10 12 0 15 6 11 21 -4 16 -3 19 5 11 6 -6
8 -18 5 -26z m125 9 c-2 -14 -6 -25 -8 -25 -2 0 -4 11 -4 25 0 14 4 25 9 25 4
0 6 -11 3 -25z m33 15 c-3 -5 3 -10 15 -10 13 0 19 4 14 12 -4 7 -3 8 5 4 16
-10 4 -26 -22 -27 -20 -1 -20 -2 3 -9 23 -7 23 -8 3 -9 -12 -1 -25 4 -28 9 -7
12 0 40 10 40 4 0 3 -4 0 -10z m-2702 -37 c-7 -2 -19 -2 -25 0 -7 3 -2 5 12 5
14 0 19 -2 13 -5z m7834 -25 c-3 -8 -6 -5 -6 6 -1 11 2 17 5 13 3 -3 4 -12 1
-19z m-947 -20 c0 -5 -4 -7 -9 -4 -5 4 -12 0 -14 -6 -3 -7 -6 -3 -6 9 -1 16 3
21 14 17 8 -4 15 -10 15 -16z m-6763 -110 c-2 -13 -4 -5 -4 17 -1 22 1 32 4
23 2 -10 2 -28 0 -40z m66 21 c-4 -12 0 -25 8 -31 12 -8 12 -9 0 -6 -15 4 -33
52 -24 62 11 11 21 -5 16 -25z m267 -5 c0 -33 -2 -35 -27 -32 -34 4 -45 41
-16 52 14 6 16 5 6 -5 -7 -7 -13 -19 -13 -27 0 -18 35 -11 36 8 1 8 2 21 3 28
2 27 11 10 11 -24z m433 5 c-4 -12 0 -25 8 -30 11 -7 11 -9 -2 -9 -11 0 -18
11 -21 30 -5 31 -1 43 12 35 5 -3 6 -14 3 -26z m110 -32 c18 -4 17 -5 -5 -6
-26 -1 -28 2 -26 37 1 36 1 36 5 5 3 -23 10 -33 26 -36z m169 45 c-15 -5 -16
-38 -2 -45 6 -3 5 -4 -2 -3 -7 1 -14 17 -16 34 -3 27 -1 31 14 25 11 -4 13 -8
6 -11z m4776 10 c7 -5 10 -16 6 -25 -4 -11 -1 -17 7 -17 7 0 9 -3 6 -7 -4 -3
0 -14 9 -24 10 -11 13 -23 8 -31 -5 -7 -9 -38 -10 -68 -1 -43 -5 -56 -17 -58
-10 -2 -17 1 -17 7 0 19 -29 12 -40 -9 -9 -16 -13 -18 -24 -8 -8 7 -11 14 -6
16 4 2 -10 20 -31 42 -22 22 -39 49 -39 60 0 12 -4 18 -10 15 -5 -3 -10 1 -10
9 0 9 3 15 8 15 20 -3 32 2 32 15 0 8 9 18 20 21 11 4 28 17 36 31 16 24 48
31 72 16z m-5934 -8 c10 -4 16 -17 15 -33 l-1 -26 -7 24 c-9 33 -31 39 -32 9
0 -12 -3 -17 -6 -10 -5 13 2 42 11 42 2 0 11 -3 20 -6z m74 -8 c-7 -8 -15 -12
-17 -11 -5 6 10 25 20 25 5 0 4 -6 -3 -14z m208 -19 c1 -26 1 -26 -3 -2 -5 31
-25 28 -34 -6 -6 -22 -7 -21 -8 7 -1 26 3 31 22 30 17 -1 22 -7 23 -29z m64
24 c0 -5 -7 -8 -16 -7 -27 2 -28 -23 -2 -33 22 -9 22 -10 2 -10 -26 -1 -39 26
-23 45 13 16 39 19 39 5z m228 -3 c7 -7 12 -21 11 -32 -1 -18 -2 -17 -8 4 -4
14 -13 25 -21 25 -8 0 -17 -11 -21 -25 l-7 -25 -1 27 c-1 23 8 34 30 37 3 1
10 -4 17 -11z m42 2 c0 -5 -2 -10 -4 -10 -3 0 -8 5 -11 10 -3 6 -1 10 4 10 6
0 11 -4 11 -10z m73 3 c-19 -7 -16 -41 5 -46 16 -4 16 -5 -1 -6 -10 0 -20 6
-23 14 -8 20 2 45 18 44 10 0 10 -2 1 -6z m81 1 c31 -12 16 -74 -18 -73 -21 0
-21 0 2 9 12 5 22 12 22 15 0 4 -4 4 -9 1 -16 -10 -41 5 -41 24 0 10 6 21 13
23 6 3 13 6 14 6 1 1 8 -2 17 -5z m77 -11 c13 -16 12 -17 -3 -5 -9 8 -22 11
-27 8 -14 -9 -3 -34 17 -39 12 -3 10 -5 -6 -6 -27 -1 -39 23 -22 44 16 19 25
19 41 -2z m203 11 c9 -3 16 -14 16 -23 -1 -14 -2 -14 -11 2 -13 23 -29 22 -29
-3 0 -12 7 -20 18 -21 11 0 12 -2 4 -6 -22 -9 -43 16 -31 38 11 21 11 21 33
13z m70 -3 c3 -5 -2 -8 -11 -7 -20 1 -30 -30 -11 -37 9 -2 8 -4 -2 -3 -19 2
-26 36 -8 47 17 11 25 11 32 0z m154 2 c-22 -5 -24 -23 -3 -23 8 0 15 -7 15
-15 0 -9 -9 -15 -22 -14 -19 1 -19 2 -5 6 17 4 17 5 1 17 -20 15 -11 37 14 35
15 -1 15 -2 0 -6z m138 -26 c1 -27 1 -27 -3 -2 -5 31 -25 28 -34 -6 -7 -23 -7
-23 -8 4 -1 34 -22 32 -32 -4 l-7 -24 -1 27 c-1 29 9 36 54 34 25 -1 30 -6 31
-29z m63 11 c11 -28 6 -38 -20 -38 -12 0 -19 7 -18 18 0 10 3 12 6 5 8 -21 23
-15 23 8 0 15 -5 19 -16 15 -8 -3 -12 -2 -9 4 10 17 25 11 34 -12z m112 8 c-5
-6 -11 -20 -14 -31 -3 -14 -5 -10 -6 11 -1 21 4 31 14 31 9 0 11 -4 6 -11z
m26 -33 c-3 -10 -5 -2 -5 17 0 19 2 27 5 18 2 -10 2 -26 0 -35z m46 40 c-18
-7 -16 -23 3 -23 22 0 12 -24 -12 -27 -19 -3 -19 -3 0 5 18 8 18 9 3 15 -22 8
-22 37 1 36 10 0 12 -3 5 -6z m98 -10 c13 -16 12 -17 -3 -5 -17 14 -38 9 -38
-9 0 -6 5 -7 12 -3 6 4 8 3 4 -4 -3 -6 2 -13 11 -15 14 -4 14 -5 -3 -6 -26 -1
-39 26 -23 45 15 18 24 18 40 -3z m40 3 c-5 -6 -11 -20 -14 -31 -3 -14 -5 -10
-6 11 -1 21 4 31 14 31 9 0 11 -4 6 -11z m53 8 c20 -8 21 -43 1 -50 -24 -10
-47 14 -34 37 11 21 11 21 33 13z m51 -4 c-18 -7 -19 -8 -2 -15 25 -10 21 -35
-5 -34 -21 0 -22 1 -3 8 18 7 18 8 1 18 -21 12 -13 33 12 32 14 0 13 -2 -3 -9z
m131 -23 c1 -26 1 -26 -3 -2 -5 31 -25 28 -34 -6 -6 -22 -7 -21 -8 7 -1 26 3
31 22 30 17 -1 22 -7 23 -29z m147 12 c-4 -12 0 -25 8 -31 12 -8 11 -9 -1 -5
-17 4 -27 57 -12 57 6 0 8 -9 5 -21z m65 9 c22 -22 14 -48 -13 -48 -16 0 -25
6 -25 15 0 8 5 15 11 15 5 0 7 -4 4 -10 -3 -5 1 -10 9 -10 17 0 11 29 -8 42
-8 5 -8 8 0 8 5 0 15 -5 22 -12z m44 0 c-18 -18 -14 -36 8 -41 17 -4 17 -4 -2
-3 -26 1 -37 34 -16 47 19 12 24 11 10 -3z m-2245 -35 c-3 -10 -5 -4 -5 12 0
17 2 24 5 18 2 -7 2 -21 0 -30z m170 0 c-3 -10 -5 -4 -5 12 0 17 2 24 5 18 2
-7 2 -21 0 -30z m160 0 c-3 -10 -5 -4 -5 12 0 17 2 24 5 18 2 -7 2 -21 0 -30z
m113 -3 c6 0 15 10 20 23 9 22 9 22 9 -4 1 -22 -3 -26 -26 -25 -22 1 -29 6
-30 26 -3 25 -3 25 7 3 5 -13 14 -23 20 -23z m227 18 c-3 -8 -6 -5 -6 6 -1 11
2 17 5 13 3 -3 4 -12 1 -19z m501 -13 c13 5 14 3 5 -6 -17 -17 -43 -3 -42 23
l0 23 10 -24 c6 -16 14 -21 27 -16z m307 -5 c7 0 16 10 18 23 4 18 4 17 6 -6
1 -24 -2 -28 -21 -25 -15 2 -23 10 -24 23 -1 15 0 16 3 3 3 -10 11 -18 18 -18z
m442 3 c-3 -10 -5 -4 -5 12 0 17 2 24 5 18 2 -7 2 -21 0 -30z m152 24 c6 10
11 13 11 7 0 -5 -6 -18 -13 -28 -12 -16 -14 -16 -25 11 -11 25 -11 26 2 10 14
-18 15 -18 25 0z m28 -19 c-3 -7 -5 -2 -5 12 0 14 2 19 5 13 2 -7 2 -19 0 -25z
m170 10 c-3 -8 -6 -5 -6 6 -1 11 2 17 5 13 3 -3 4 -12 1 -19z m5490 -10 c-3
-8 -6 -5 -6 6 -1 11 2 17 5 13 3 -3 4 -12 1 -19z m-7707 -3 c0 -9 -9 -15 -22
-14 -18 1 -19 2 -5 6 9 2 15 9 12 14 -4 5 -1 9 4 9 6 0 11 -7 11 -15z m525
-14 c-6 -5 -25 10 -25 20 0 5 6 4 14 -3 8 -7 12 -15 11 -17z m4978 -6 c-3 -9
-8 -14 -10 -11 -3 3 -2 9 2 15 9 16 15 13 8 -4z m449 -201 c15 -12 24 -24 21
-27 -3 -3 4 -3 16 0 16 4 22 -1 27 -22 5 -20 9 -23 15 -13 7 11 9 11 9 -1 0
-7 6 -11 15 -7 9 3 15 0 15 -10 0 -8 5 -12 10 -9 6 3 10 1 10 -5 0 -6 5 -8 10
-5 6 3 10 1 10 -4 0 -21 42 -53 62 -48 14 4 22 0 25 -14 3 -10 16 -22 29 -25
13 -3 22 -10 19 -14 -3 -4 10 -15 28 -23 18 -9 38 -26 44 -39 16 -33 16 -88 1
-88 -10 0 -10 -2 0 -9 10 -6 8 -10 -8 -14 -12 -3 -19 -10 -15 -16 3 -7 -3 -11
-15 -11 -12 0 -19 -4 -16 -9 3 -4 18 -6 33 -3 26 5 27 4 10 -12 -9 -10 -17
-23 -17 -30 0 -7 -10 -18 -22 -24 -22 -10 -22 -11 7 -13 l30 -1 -30 -8 c-16
-4 -23 -8 -15 -9 13 -1 13 -2 0 -11 -13 -8 -12 -11 5 -24 18 -14 18 -15 2 -16
-17 0 -17 -1 0 -27 10 -15 17 -35 15 -44 -2 -10 2 -20 7 -24 7 -4 3 -14 -9
-27 -46 -50 -11 -71 57 -34 26 14 67 32 90 40 l43 15 -13 -22 c-6 -12 -14 -24
-17 -27 -24 -23 -101 -120 -95 -120 4 0 2 -7 -5 -15 -6 -8 -9 -23 -5 -35 7
-21 5 -22 -57 -17 -59 5 -145 17 -228 33 l-35 7 35 9 c81 20 129 25 133 14 2
-6 8 -7 13 -3 5 4 2 12 -5 16 -9 6 -10 11 -2 15 14 9 15 56 1 56 -5 0 -10 -10
-10 -22 0 -37 -12 -45 -77 -52 -55 -6 -65 -4 -83 14 -11 11 -20 31 -20 44 0
15 -7 26 -17 29 -10 2 -7 3 7 1 l25 -3 -3 80 -4 79 -41 2 -42 1 43 4 42 4 0
68 c0 63 2 69 23 75 49 13 57 8 57 -34 0 -33 3 -40 20 -40 17 0 20 7 20 40 0
33 3 40 20 40 26 0 25 9 -5 51 -17 22 -24 42 -21 55 9 35 -31 54 -114 54 -39
0 -80 -5 -90 -10 -10 -6 -66 -13 -124 -17 -100 -6 -107 -5 -141 18 -19 13 -35
29 -35 36 0 6 -7 19 -16 28 -24 23 -8 32 25 12 27 -16 63 -14 89 6 21 17 13
51 -23 92 -35 41 -49 104 -22 102 6 -1 29 3 50 7 25 6 42 5 49 -2 12 -12 67
-5 83 9 16 15 69 6 97 -17z m-366 8 c21 -14 23 -40 3 -45 -10 -3 -19 -1 -19 4
0 5 -11 9 -25 9 -31 0 -32 13 -2 28 27 13 29 13 43 4z m-779 -67 c0 -8 -4 -12
-9 -9 -5 3 -6 10 -3 15 9 13 12 11 12 -6z m782 -98 c1 -5 -3 -5 -9 -2 -5 3
-10 16 -9 28 0 21 1 21 9 2 5 -11 9 -24 9 -28z m-4423 -113 c98 -72 97 -202
-1 -260 l-42 -24 -574 0 c-409 0 -570 3 -559 11 12 8 9 9 -12 5 -16 -4 -28 -2
-28 3 0 5 -9 13 -20 16 -11 3 -20 10 -20 15 0 5 12 2 28 -6 15 -7 34 -14 42
-13 8 0 -1 6 -20 13 -24 9 -36 20 -38 35 -2 13 0 21 5 18 4 -3 7 25 7 61 -2
93 -2 92 -21 85 -16 -6 -16 -5 -4 10 7 9 17 15 21 12 5 -3 15 4 22 14 18 26
23 26 665 26 511 0 522 0 549 -21z m558 -188 c-72 -69 -96 -75 -29 -6 27 28
45 50 40 51 -6 0 -60 0 -122 -1 -68 -1 -114 3 -118 9 -4 8 34 11 119 11 69 0
126 4 126 8 0 4 -18 26 -40 47 -22 21 -40 44 -40 49 0 6 28 -17 61 -50 l61
-62 -58 -56z m4386 160 c0 -3 -4 -8 -10 -11 -5 -3 -10 -1 -10 4 0 6 5 11 10
11 6 0 10 -2 10 -4z m-6189 -53 c-8 -15 -10 -15 -11 -2 0 17 10 32 18 25 2 -3
-1 -13 -7 -23z m-23 -19 c-3 -14 -5 -12 -10 9 -3 19 -2 25 4 19 6 -6 8 -18 6
-28z m-16 -37 c1 -20 0 -39 -3 -42 -3 -3 -7 16 -8 42 -2 54 7 55 11 0z m34
-23 c-5 -52 -10 -59 -26 -49 -9 6 -9 10 1 16 14 8 16 14 18 57 0 12 4 22 7 22
3 0 3 -21 0 -46z m5375 -35 c19 -17 25 -27 14 -21 -20 10 -63 52 -53 52 2 0
20 -14 39 -31z m83 -78 c-3 -3 -15 6 -27 18 l-22 24 27 -19 c14 -10 24 -21 22
-23z m67 -48 c13 -15 12 -15 -8 -4 -24 12 -29 21 -14 21 5 0 15 -7 22 -17z
m75 -47 c10 -8 17 -17 14 -19 -3 -3 -16 3 -29 14 -27 22 -15 26 15 5z m124
-48 c0 -5 -9 -4 -20 2 -11 6 -20 12 -20 14 0 2 9 2 20 -1 11 -3 20 -9 20 -15z
m-55 2 c3 -6 -1 -7 -9 -4 -18 7 -21 14 -7 14 6 0 13 -4 16 -10z m56 -25 c16
-9 34 -13 39 -10 5 3 7 -1 4 -9 -5 -13 -11 -13 -45 4 -21 11 -39 23 -39 25 0
8 10 6 41 -10z m85 -45 c8 -8 25 -8 55 -1 62 15 79 13 47 -3 -15 -8 -37 -12
-50 -9 -18 4 -20 3 -8 -6 8 -6 11 -11 7 -11 -13 0 -77 29 -77 34 0 10 15 7 26
-4z m94 -35 c-7 -8 -17 -12 -22 -9 -6 4 -5 10 3 15 22 14 33 10 19 -6z m97
-41 c-3 -3 -12 -4 -19 -1 -8 3 -5 6 6 6 11 1 17 -2 13 -5z m122 -10 c3 -3 -3
-5 -14 -3 -11 2 -26 0 -32 -4 -7 -4 -24 -2 -39 6 -25 13 -24 14 26 11 29 -2
56 -6 59 -10z m-5633 -1109 c37 -24 57 -63 57 -108 0 -33 -12 -64 -59 -145
-32 -56 -63 -103 -68 -103 -5 -1 -36 47 -69 105 -68 121 -75 163 -37 216 41
58 118 73 176 35z m1039 -5 c-3 -5 -10 -10 -16 -10 -5 0 -9 5 -9 10 0 6 7 10
16 10 8 0 12 -4 9 -10z m125 0 c0 -5 -4 -10 -9 -10 -6 0 -13 5 -16 10 -3 6 1
10 9 10 9 0 16 -4 16 -10z m2172 -5 c0 -5 -5 -11 -11 -13 -6 -2 -11 4 -11 13
0 9 5 15 11 13 6 -2 11 -8 11 -13z m-3078 -17 c15 -25 -3 -52 -38 -56 -14 -2
-26 -10 -26 -18 0 -8 -7 -14 -15 -14 -12 0 -15 13 -15 56 l0 55 41 -3 c27 -2
46 -9 53 -20z m278 -20 c2 -35 7 -43 23 -43 16 0 21 8 23 43 2 30 8 42 19 42
13 0 15 -9 10 -46 -5 -48 -18 -64 -52 -64 -32 0 -45 20 -45 67 0 56 18 56 22
1z m394 5 l16 -38 15 38 c17 42 49 54 33 12 -20 -52 -42 -86 -53 -82 -6 2 -21
27 -34 55 -18 42 -20 52 -8 52 8 0 22 -17 31 -37z m2350 22 c20 -15 15 -18
-27 -15 -16 1 -29 -5 -32 -14 -9 -24 3 -46 24 -46 10 0 19 7 19 15 0 8 7 15
15 15 20 0 20 -46 -1 -54 -40 -15 -77 2 -89 41 -4 17 1 29 19 48 29 29 44 31
72 10z m341 -21 c0 -16 2 -35 2 -41 1 -7 10 -13 20 -13 16 0 20 8 23 43 3 48
21 57 26 13 8 -67 -28 -103 -77 -76 -17 9 -21 20 -21 61 0 36 4 49 13 46 6 -2
13 -17 14 -33z m443 26 c19 -12 6 -24 -28 -25 -22 0 -27 -5 -27 -25 0 -20 5
-25 27 -25 34 -1 47 -13 28 -25 -36 -23 -90 8 -90 50 0 42 54 73 90 50z m150
-50 c0 -33 -4 -60 -10 -60 -11 0 -11 0 -14 73 -2 34 1 47 11 47 9 0 13 -17 13
-60z m48 5 c-4 -71 -22 -71 -26 0 -2 45 0 55 13 55 13 0 15 -10 13 -55z m1406
49 c26 -10 18 -23 -16 -26 l-33 -3 39 -18 c47 -21 46 -21 46 -2 0 20 46 30 65
15 25 -21 18 -40 -16 -40 -18 0 -28 -4 -24 -10 4 -6 16 -8 27 -4 15 4 19 2 16
-7 -7 -21 -37 -23 -58 -4 -18 16 -20 16 -35 1 -17 -17 -34 -20 -59 -10 -22 8
-20 27 2 20 9 -3 24 -1 32 4 12 7 8 12 -17 21 -37 12 -44 41 -15 58 20 12 25
13 46 5z m326 -53 c0 -57 -1 -59 -27 -59 -40 0 -63 15 -63 42 0 30 24 50 50
43 15 -4 20 0 20 14 0 10 5 19 10 19 6 0 10 -26 10 -59z m90 34 c0 -14 -1 -26
-2 -27 -1 -2 4 -13 10 -25 19 -34 42 -18 42 28 0 28 4 39 15 39 24 0 20 -73
-5 -95 -16 -15 -26 -17 -48 -9 -24 8 -27 15 -30 62 -2 32 1 52 7 52 6 0 11
-11 11 -25z m408 -11 c15 -32 24 -30 46 6 9 17 22 28 27 25 12 -8 12 -115 -1
-115 -5 0 -10 15 -10 33 l0 32 -20 -25 -20 -25 -20 25 -20 25 0 -32 c0 -18 -4
-33 -10 -33 -6 0 -10 27 -10 60 0 46 3 58 14 54 7 -3 18 -16 24 -30z m-5270 9
c12 -12 13 -18 4 -21 -17 -5 -15 -42 3 -42 8 0 15 -5 15 -11 0 -6 -10 -9 -22
-7 -16 2 -24 11 -26 28 -2 14 -7 29 -12 34 -5 5 -3 14 3 22 15 17 15 17 35 -3z
m1546 2 c22 -22 30 -79 16 -105 -10 -19 -9 -26 13 -47 21 -22 28 -23 47 -13
27 14 77 6 102 -17 21 -19 25 -92 6 -111 -36 -36 -163 2 -228 68 -66 65 -104
192 -68 228 17 17 94 15 112 -3z m157 -24 c25 -25 39 -48 39 -65 0 -36 -23
-33 -41 7 -9 20 -28 39 -51 50 -44 22 -50 47 -12 47 17 0 40 -14 65 -39z
m2477 27 c8 -8 12 -51 12 -128 0 -77 -4 -120 -12 -128 -14 -14 -324 -17 -332
-4 -8 13 -9 249 -1 261 9 16 317 15 333 -1z m-5067 -8 c13 -8 19 -21 19 -46 0
-35 -1 -35 -37 -32 -30 2 -38 7 -38 23 0 12 9 22 25 26 14 4 21 8 15 10 -20 5
-30 7 -40 8 -11 1 15 21 28 21 5 0 17 -5 28 -10z m60 -17 l11 -28 14 28 c8 15
19 27 24 27 14 0 13 -2 -14 -65 -19 -41 -30 -55 -45 -55 -12 0 -21 5 -21 10 0
6 7 10 15 10 19 0 19 17 0 50 -8 14 -14 31 -15 38 0 22 20 12 31 -15z m296 10
c3 -7 -3 -9 -16 -6 -12 3 -21 1 -21 -6 0 -6 9 -11 19 -11 23 0 34 -23 18 -39
-14 -14 -67 -15 -67 -1 0 6 12 10 28 11 l27 1 -27 10 c-30 10 -35 27 -16 46
15 15 50 12 55 -5z m124 7 c13 -8 19 -21 19 -46 0 -35 -1 -35 -37 -32 -30 2
-38 7 -38 23 0 12 9 22 25 26 23 6 23 7 3 8 -25 1 -39 17 -21 24 20 8 28 8 49
-3z m219 -35 c0 -25 -4 -45 -10 -45 -5 0 -10 20 -10 45 0 25 5 45 10 45 6 0
10 -20 10 -45z m74 39 c9 -3 14 -10 11 -15 -3 -4 -12 -6 -20 -2 -8 3 -15 0
-15 -6 0 -6 9 -11 21 -11 15 0 20 -5 17 -22 -2 -18 -11 -24 -35 -26 -19 -2
-33 1 -33 7 0 6 12 11 28 12 l27 1 -27 10 c-39 14 -37 52 4 57 3 1 13 -2 22
-5z m56 -39 c0 -25 -4 -45 -10 -45 -5 0 -10 20 -10 45 0 25 5 45 10 45 6 0 10
-20 10 -45z m2171 20 c4 -49 0 -75 -11 -75 -5 0 -10 20 -10 45 0 25 5 45 10
45 6 0 11 -7 11 -15z m51 -12 l11 -28 10 28 c6 15 17 27 24 27 11 0 10 -8 -2
-37 -20 -47 -32 -60 -44 -47 -5 5 -16 26 -25 47 -13 32 -13 37 0 37 8 0 20
-12 26 -27z m136 15 c22 -22 13 -38 -19 -38 -16 0 -28 -4 -25 -9 3 -5 15 -7
26 -4 11 3 20 0 20 -6 0 -18 -29 -25 -56 -13 -42 20 -27 82 21 82 12 0 26 -5
33 -12z m252 2 c0 -5 -10 -10 -22 -10 -22 -1 -21 -2 5 -16 31 -17 33 -26 12
-44 -17 -14 -69 -5 -60 11 4 5 16 7 27 3 14 -4 18 -2 14 5 -4 6 -13 11 -21 11
-21 0 -28 19 -15 35 14 17 60 20 60 5z m138 -37 c3 -41 3 -41 -30 -39 -48 4
-48 5 -48 21 0 9 11 20 25 25 30 11 34 25 5 17 -13 -3 -20 0 -20 10 0 10 9 13
33 11 30 -3 32 -6 35 -45z m250 30 c5 -10 9 -29 7 -43 -1 -20 -8 -25 -32 -27
-40 -3 -60 19 -38 41 9 9 21 14 26 11 5 -4 9 -1 9 6 0 6 -8 9 -20 6 -11 -3
-20 -2 -20 2 0 26 55 29 68 4z m1720 -30 c2 -26 -1 -43 -7 -43 -6 0 -11 13
-11 29 0 17 -5 33 -11 37 -14 8 -29 -14 -29 -43 0 -13 -4 -23 -10 -23 -5 0
-10 20 -10 44 l0 44 38 -1 c36 -2 37 -3 40 -44z m362 37 c0 -5 -10 -10 -22
-10 -22 -1 -21 -2 5 -16 31 -17 33 -26 12 -44 -17 -14 -69 -5 -60 11 4 5 16 7
27 3 14 -4 18 -2 14 5 -4 6 -13 11 -21 11 -21 0 -28 19 -15 35 14 17 60 20 60
5z m124 4 c11 -4 16 -19 16 -45 0 -37 -1 -38 -35 -35 -19 1 -38 5 -41 9 -12
12 5 37 26 37 11 0 20 5 20 11 0 6 -9 9 -20 6 -13 -3 -20 0 -20 9 0 15 27 18
54 8z m300 -10 c24 -23 19 -34 -15 -34 -19 0 -28 -4 -24 -11 4 -6 13 -8 21 -5
7 3 16 1 19 -4 9 -14 -33 -22 -55 -10 -11 6 -20 21 -20 33 0 44 43 62 74 31z
m86 6 c0 -5 -10 -10 -22 -11 -21 -1 -21 -2 5 -12 34 -14 36 -44 3 -53 -26 -6
-46 1 -46 16 0 4 9 6 20 3 11 -3 20 0 20 6 0 6 -9 11 -20 11 -20 0 -28 28 -13
43 10 11 53 8 53 -3z m85 0 c4 -6 -6 -10 -22 -11 l-28 -1 28 -10 c35 -12 37
-45 3 -54 -27 -6 -46 1 -46 17 0 6 9 7 20 4 11 -4 20 -2 20 4 0 6 -6 11 -14
11 -19 0 -29 17 -22 35 6 17 52 20 61 5z m83 1 c8 -5 12 -21 10 -41 -2 -27 -8
-34 -29 -37 -28 -4 -55 19 -44 37 3 5 15 10 26 10 10 0 19 5 19 11 0 6 -9 9
-20 6 -13 -3 -20 0 -20 9 0 15 37 19 58 5z m122 -41 c0 -39 -4 -52 -20 -60
-22 -12 -73 -3 -64 11 3 6 14 7 24 4 10 -3 21 -1 25 5 4 6 -4 10 -19 10 -19 0
-27 7 -32 25 -8 34 11 55 52 55 l34 0 0 -50z m86 42 c6 -4 13 -15 17 -24 5
-15 0 -18 -31 -18 -26 0 -33 -3 -23 -9 8 -5 20 -7 27 -4 6 2 15 0 18 -6 8 -12
-38 -26 -53 -16 -6 3 -15 14 -20 24 -19 35 31 76 65 53z m-4230 -68 c8 -11 10
-25 5 -33 -7 -11 -17 -6 -46 24 -30 29 -35 39 -24 46 16 9 46 -7 65 -37z
m-2724 -163 c2 -17 1 -28 -4 -25 -8 5 -12 54 -4 54 2 0 6 -13 8 -29z m321 22
c-7 -2 -19 -2 -25 0 -7 3 -2 5 12 5 14 0 19 -2 13 -5z m122 -2 c-19 -8 -19 -8
3 -20 23 -12 30 -31 11 -31 -5 0 -8 4 -4 9 3 5 -4 12 -15 16 -30 10 -24 36 9
34 12 0 11 -3 -4 -8z m222 -38 c-3 -10 -5 -2 -5 17 0 19 2 27 5 18 2 -10 2
-26 0 -35z m148 27 l13 25 8 -28 c5 -21 9 -25 15 -15 6 9 9 9 9 1 0 -23 -20
-24 -29 -1 l-8 23 -7 -23 c-7 -20 -26 -31 -26 -14 0 4 -3 18 -5 32 l-6 25 11
-25 11 -25 14 25z m85 0 c-9 -17 -8 -20 10 -20 11 0 20 -3 20 -7 0 -5 -13 -8
-29 -8 -28 0 -29 1 -15 28 8 15 17 27 20 27 2 0 0 -9 -6 -20z m108 -4 c2 -10
-2 -23 -9 -30 -9 -8 -10 -8 -5 2 4 7 1 12 -8 12 -18 0 -29 16 -21 31 10 16 39
6 43 -15z m58 -8 c1 -16 -3 -29 -12 -32 -10 -4 -13 -2 -7 6 12 21 10 48 -4 48
-8 0 -12 -3 -10 -7 3 -5 1 -17 -4 -28 -6 -16 -8 -14 -8 13 -1 29 2 33 20 30
15 -2 23 -11 25 -30z m34 12 c0 -11 -2 -20 -4 -20 -2 0 -6 9 -9 20 -3 11 -1
20 4 20 5 0 9 -9 9 -20z m58 -4 c2 -10 0 -22 -6 -28 -6 -6 -8 0 -5 16 4 20 1
26 -12 26 -13 0 -16 -6 -13 -25 3 -13 1 -22 -3 -19 -11 6 -12 38 -2 48 12 12
38 1 41 -18z m32 -6 c0 -16 -2 -30 -4 -30 -2 0 -6 14 -8 30 -3 17 -1 30 4 30
4 0 8 -13 8 -30z m72 0 c3 -16 1 -30 -4 -30 -4 0 -8 14 -8 30 0 17 2 30 4 30
2 0 6 -13 8 -30z m278 0 c0 -16 -4 -30 -8 -30 -5 0 -7 14 -4 30 2 17 6 30 8
30 2 0 4 -13 4 -30z m65 21 c-19 -8 -19 -8 0 -20 18 -11 18 -12 2 -7 -10 3
-21 6 -23 6 -2 0 -4 7 -4 15 0 9 9 15 23 14 20 0 21 -1 2 -8z m1422 -13 c-3
-8 -6 -5 -6 6 -1 11 2 17 5 13 3 -3 4 -12 1 -19z m33 -8 c0 -16 -2 -30 -4 -30
-2 0 -6 14 -8 30 -3 17 -1 30 4 30 4 0 8 -13 8 -30z m40 13 c0 -10 -4 -14 -8
-8 -4 6 -11 13 -16 18 -5 4 -2 7 7 7 10 0 17 -8 17 -17z m58 -7 c2 -10 0 -22
-6 -28 -6 -6 -8 0 -5 16 4 20 1 26 -12 26 -13 0 -16 -6 -13 -25 3 -13 1 -22
-3 -19 -11 6 -12 38 -2 48 12 12 38 1 41 -18z m26 -37 c-8 -17 -9 -13 -9 21 0
34 1 38 9 21 5 -13 5 -29 0 -42z m56 31 c0 -16 -2 -30 -4 -30 -2 0 -6 14 -8
30 -3 17 -1 30 4 30 4 0 8 -13 8 -30z m30 20 c0 -5 -2 -10 -4 -10 -3 0 -8 5
-11 10 -3 6 -1 10 4 10 6 0 11 -4 11 -10z m40 -20 c0 -16 -2 -30 -4 -30 -2 0
-6 14 -8 30 -3 17 -1 30 4 30 4 0 8 -13 8 -30z m30 0 c0 -16 -2 -30 -4 -30 -2
0 -6 14 -8 30 -3 17 -1 30 4 30 4 0 8 -13 8 -30z m67 24 c-3 -3 -12 -4 -19 -1
-8 3 -5 6 6 6 11 1 17 -2 13 -5z m61 -18 c2 -10 0 -22 -6 -28 -6 -6 -8 0 -5
16 4 20 1 26 -12 26 -13 0 -16 -6 -13 -25 3 -13 1 -22 -3 -19 -11 6 -12 38 -2
48 12 12 38 1 41 -18z m32 -6 c0 -16 -2 -30 -4 -30 -2 0 -6 14 -8 30 -3 17 -1
30 4 30 4 0 8 -13 8 -30z m60 0 c0 -16 -4 -30 -9 -30 -4 0 -6 11 -3 25 3 19 0
25 -13 25 -13 0 -16 -6 -13 -25 3 -13 1 -22 -3 -19 -11 6 -12 38 -2 47 3 4 15
7 25 7 13 0 18 -8 18 -30z m1908 23 c-29 -5 -40 -37 -15 -46 9 -4 9 -6 -1 -6
-16 -1 -26 24 -18 44 3 9 17 14 33 14 l28 -2 -27 -4z m347 -3 c-3 -5 -2 -10 2
-10 13 0 11 -40 -2 -41 -5 0 -1 -4 10 -9 14 -6 15 -9 5 -9 -20 -1 -40 18 -40
39 0 9 5 21 12 28 15 15 21 16 13 2z m47 -21 c-2 -20 -1 -21 8 -9 10 13 11 13
7 0 -6 -23 -33 -24 -33 0 0 11 5 20 11 20 5 0 3 5 -5 11 -13 9 -13 10 0 6 9
-2 14 -13 12 -28z m41 12 c2 -10 1 -25 -4 -32 -6 -10 -9 -4 -9 19 0 36 5 42
13 13z m279 -21 c4 0 8 5 8 12 0 6 2 9 5 6 7 -7 -5 -38 -14 -38 -4 0 -13 11
-19 25 -15 33 -14 48 0 18 6 -13 15 -23 20 -23z m72 32 c-7 -4 -14 -18 -17
-32 l-4 -25 -2 27 c0 16 -8 28 -18 31 -10 3 -2 5 17 6 19 0 30 -3 24 -7z m136
-8 c0 5 7 3 15 -4 8 -7 15 -20 14 -29 0 -11 -3 -9 -9 7 -5 12 -12 22 -15 22
-3 0 -10 -10 -15 -22 -8 -20 -9 -19 -9 12 -1 26 2 31 9 20 5 -8 10 -11 10 -6z
m-6281 -33 c0 -11 -3 -9 -9 7 -5 12 -12 22 -15 22 -3 0 -10 -10 -15 -22 -9
-23 -9 -23 -9 -1 -1 12 5 23 12 26 16 6 37 -12 36 -32z m51 24 c-6 -8 -8 -20
-4 -27 5 -10 4 -10 -6 -1 -11 10 -11 15 0 28 7 8 15 15 17 15 3 0 0 -7 -7 -15z
m87 -16 c1 -22 1 -22 -4 -1 -2 12 -9 22 -14 22 -5 0 -14 -10 -19 -22 -9 -23
-9 -23 -9 -1 -2 39 43 42 46 2z m269 13 c1 -7 0 -8 -3 -2 -9 18 -23 11 -24
-12 0 -13 -3 -17 -6 -10 -7 18 5 44 19 40 6 -2 13 -10 14 -16z m51 -13 c1 -19
1 -20 -4 -4 -3 11 -10 24 -17 28 -7 6 -6 7 4 4 8 -2 16 -14 17 -28z m35 6 c-2
-14 -6 -25 -8 -25 -2 0 -4 11 -4 25 0 14 4 25 9 25 4 0 6 -11 3 -25z m39 16
c-8 -5 -11 -16 -8 -25 4 -9 2 -16 -3 -16 -6 0 -10 11 -10 25 0 17 5 25 18 25
14 0 14 -2 3 -9z m80 -8 c13 -16 12 -17 -3 -4 -17 13 -22 21 -14 21 2 0 10 -8
17 -17z m644 -4 c10 -30 2 -32 -12 -3 -6 13 -7 24 -3 24 5 0 12 -9 15 -21z
m62 15 c-3 -3 -12 -4 -19 -1 -8 3 -5 6 6 6 11 1 17 -2 13 -5z m51 -12 c2 -7
-4 -12 -13 -12 -9 0 -13 -4 -10 -10 3 -5 1 -10 -4 -10 -12 0 -15 33 -4 44 9 9
26 2 31 -12z m32 3 c-6 -8 -8 -20 -4 -27 5 -10 4 -10 -6 -1 -11 10 -11 15 0
28 7 8 15 15 17 15 3 0 0 -7 -7 -15z m142 -10 c-2 -14 -6 -25 -7 -25 -1 0 -5
11 -7 25 -3 16 -1 25 7 25 8 0 10 -9 7 -25z m55 -6 c1 -19 1 -20 -4 -4 -3 11
-10 24 -17 28 -7 6 -6 7 4 4 8 -2 16 -14 17 -28z m35 6 c-2 -14 -6 -25 -7 -25
-1 0 -5 11 -7 25 -3 16 -1 25 7 25 8 0 10 -9 7 -25z m73 15 c3 5 12 10 18 9 9
0 8 -2 -1 -6 -6 -2 -10 -9 -6 -14 3 -5 -4 -9 -14 -9 -11 0 -23 7 -26 16 -5 14
-4 15 8 5 10 -8 16 -9 21 -1z m3695 -5 c-6 -8 -9 -18 -7 -22 3 -5 -3 -9 -13
-10 -17 -2 -17 0 2 23 23 25 39 34 18 9z m87 -16 c1 -24 1 -24 -4 -1 -3 16
-10 22 -19 18 -9 -3 -12 -1 -9 5 11 17 30 4 32 -22z m35 6 c-2 -14 -6 -25 -7
-25 -1 0 -5 11 -7 25 -3 16 -1 25 7 25 8 0 10 -9 7 -25z m56 -11 c-3 -14 -5
-12 -10 9 -3 19 -2 25 4 19 6 -6 8 -18 6 -28z m32 21 c-6 -8 -8 -20 -4 -26 4
-8 3 -9 -4 -5 -16 10 -15 33 1 39 19 8 20 8 7 -8z m52 -10 c-2 -14 -6 -25 -7
-25 -1 0 -5 11 -7 25 -3 16 -1 25 7 25 8 0 10 -9 7 -25z m165 -12 c-3 -10 -5
-4 -5 12 0 17 2 24 5 18 2 -7 2 -21 0 -30z m93 33 c0 -2 -6 -9 -14 -15 -11 -9
-16 -9 -22 0 -4 7 -3 9 4 5 6 -3 13 -2 17 4 6 10 15 14 15 6z m107 -27 c1 -19
1 -20 -4 -4 -3 11 -10 24 -17 28 -7 6 -6 7 4 4 8 -2 16 -14 17 -28z m171 10
c3 -12 2 -12 -6 0 -13 18 -35 4 -27 -18 5 -12 4 -13 -6 -4 -10 10 -9 16 1 28
15 18 32 15 38 -6z m46 13 c2 -4 -4 -8 -14 -8 -10 0 -16 4 -14 8 3 4 9 8 14 8
5 0 11 -4 14 -8z m130 0 c2 -4 -4 -8 -14 -8 -10 0 -16 4 -14 8 3 4 9 8 14 8 5
0 11 -4 14 -8z m57 -9 c13 -16 12 -17 -3 -5 -9 8 -23 10 -29 6 -8 -4 -9 -3 -5
4 10 17 21 15 37 -5z m95 -11 c1 -19 1 -19 -3 -2 -6 27 -21 25 -33 -2 l-9 -23
0 23 c-1 12 -5 22 -11 22 -5 0 -10 -10 -11 -22 0 -13 -3 -17 -6 -10 -10 25 5
40 39 38 27 -1 33 -6 34 -24z m-6509 -14 c-3 -7 -5 -2 -5 12 0 14 2 19 5 13 2
-7 2 -19 0 -25z m63 12 c0 -11 -4 -20 -9 -20 -5 0 -7 9 -4 20 3 11 7 20 9 20
2 0 4 -9 4 -20z m503 0 c3 -11 1 -20 -4 -20 -5 0 -9 9 -9 20 0 11 2 20 4 20 2
0 6 -9 9 -20z m634 -12 c-3 -7 -5 -2 -5 12 0 14 2 19 5 13 2 -7 2 -19 0 -25z
m60 0 c-3 -7 -5 -2 -5 12 0 14 2 19 5 13 2 -7 2 -19 0 -25z m386 12 c3 -11 1
-20 -4 -20 -5 0 -9 9 -9 20 0 11 2 20 4 20 2 0 6 -9 9 -20z m3764 -12 c-3 -7
-5 -2 -5 12 0 14 2 19 5 13 2 -7 2 -19 0 -25z m546 12 c-3 -11 -7 -20 -9 -20
-2 0 -4 9 -4 20 0 11 4 20 9 20 5 0 7 -9 4 -20z m-5753 -5 c0 -8 -2 -15 -4
-15 -2 0 -6 7 -10 15 -3 8 -1 15 4 15 6 0 10 -7 10 -15z m970 0 c0 -8 -4 -15
-10 -15 -5 0 -7 7 -4 15 4 8 8 15 10 15 2 0 4 -7 4 -15z m1727 -27 c-3 -7 -5
-2 -5 12 0 14 2 19 5 13 2 -7 2 -19 0 -25z m2957 8 c-3 -9 -12 -16 -20 -16
-11 0 -10 4 3 20 19 22 26 21 17 -4z m66 14 c0 -5 -5 -10 -11 -10 -5 0 -7 5
-4 10 3 6 8 10 11 10 2 0 4 -4 4 -10z"/>
<path d="M1640 5700 c0 -79 0 -80 25 -80 25 0 25 1 25 80 0 79 0 80 -25 80
-25 0 -25 -1 -25 -80z"/>
<path d="M1767 5773 c-2 -4 -8 -41 -11 -80 -7 -70 -6 -73 14 -73 20 0 21 3 14
78 -7 80 -9 89 -17 75z"/>
<path d="M6633 5760 c-47 -28 -67 -65 -67 -121 0 -57 22 -92 74 -120 32 -18
64 -19 405 -19 413 0 416 0 463 70 42 62 19 153 -50 194 -23 14 -77 16 -410
16 -362 0 -385 -1 -415 -20z m182 -100 c3 -5 -1 -10 -9 -10 -22 0 -20 -27 2
-33 12 -4 11 -5 -6 -6 -27 -1 -39 23 -22 44 14 17 26 19 35 5z m75 -15 c0 -19
-16 -35 -36 -35 -19 0 -24 5 -24 24 0 13 6 26 13 29 11 4 47 -9 47 -18z m110
15 c0 -5 -4 -10 -10 -10 -5 0 -10 -10 -11 -22 -1 -22 -1 -22 -8 2 -5 14 -6 28
-4 33 6 11 33 9 33 -3z m151 -18 c-6 -11 -7 -22 -4 -26 3 -3 2 -6 -4 -6 -18 0
-22 49 -4 53 22 5 24 2 12 -21z m127 7 c-10 -7 -10 -9 0 -9 6 0 12 -7 12 -15
0 -9 -9 -15 -22 -14 -22 0 -22 1 -3 9 17 7 17 9 3 9 -10 1 -18 7 -18 14 0 19
10 26 27 20 12 -5 12 -7 1 -14z m-357 -1 c0 -10 2 -10 6 0 8 21 23 13 23 -13
0 -27 -9 -32 -28 -13 -9 9 -12 9 -12 0 0 -7 -4 -12 -9 -12 -5 0 -8 11 -7 25 1
25 25 36 27 13z m125 -10 l7 -23 8 23 c5 14 16 22 31 21 l23 0 -22 -9 c-13 -5
-23 -12 -23 -15 0 -3 10 -10 23 -15 16 -6 7 -8 -35 -7 -32 1 -58 3 -58 5 0 11
22 42 30 42 5 0 12 -10 16 -22z m164 -18 c4 0 11 10 15 23 4 14 8 17 12 9 8
-21 -5 -42 -27 -42 -16 0 -20 6 -19 28 2 23 2 24 6 5 2 -13 8 -23 13 -23z"/>
<path d="M6842 5638 c6 -18 28 -21 28 -4 0 9 -7 16 -16 16 -9 0 -14 -5 -12
-12z"/>
<path d="M8035 5660 c-3 -5 1 -10 9 -10 22 0 20 -28 -1 -32 -10 -3 8 -5 40 -5
53 -1 57 0 57 22 0 26 -26 41 -45 25 -9 -8 -15 -8 -20 0 -8 13 -32 13 -40 0z
m87 -25 c0 -5 -5 -11 -11 -13 -6 -2 -11 4 -11 13 0 9 5 15 11 13 6 -2 11 -8
11 -13z"/>
<path d="M8150 5639 c0 -18 6 -28 20 -32 14 -4 20 0 20 11 0 12 3 13 12 4 7
-7 16 -12 20 -12 12 0 10 48 -2 55 -5 3 -10 -2 -10 -12 0 -15 -2 -15 -9 -4 -5
8 -19 15 -30 16 -17 1 -21 -4 -21 -26z"/>
<path d="M8261 5643 c-1 -18 4 -33 10 -33 5 0 7 5 4 10 -9 14 8 13 23 -2 9 -9
12 -4 12 23 -1 30 -2 32 -13 17 -12 -15 -14 -15 -24 0 -10 14 -12 12 -12 -15z"/>
<path d="M8323 5650 c4 -14 7 -28 7 -32 0 -16 17 -7 28 15 l11 22 0 -22 c1
-18 7 -23 26 -23 29 0 43 24 26 44 -11 13 -55 16 -67 3 -4 -4 -14 -1 -22 6
-13 10 -15 8 -9 -13z m87 -15 c0 -8 -4 -15 -10 -15 -5 0 -10 7 -10 15 0 8 5
15 10 15 6 0 10 -7 10 -15z"/>
<path d="M8440 5641 c0 -21 5 -28 18 -27 9 0 20 10 25 20 9 22 7 25 -22 31
-17 3 -21 -1 -21 -24z"/>
<path d="M8503 5643 c-3 -10 -7 -20 -9 -23 -1 -3 11 -5 27 -6 33 -1 33 0 19
27 -13 24 -29 24 -37 2z"/>
<path d="M7887 5519 c7 -7 15 -10 18 -7 3 3 -2 9 -12 12 -14 6 -15 5 -6 -5z"/>
<path d="M3284 5656 c-8 -22 3 -33 18 -18 9 9 9 15 0 24 -9 9 -13 7 -18 -6z"/>
<path d="M3830 5660 c0 -5 5 -10 11 -10 5 0 7 5 4 10 -3 6 -8 10 -11 10 -2 0
-4 -4 -4 -10z"/>
<path d="M4680 5644 c0 -9 5 -14 12 -12 18 6 21 28 4 28 -9 0 -16 -7 -16 -16z"/>
<path d="M4794 5656 c-8 -22 3 -33 18 -18 9 9 9 15 0 24 -9 9 -13 7 -18 -6z"/>
<path d="M5370 5644 c0 -9 5 -14 12 -12 18 6 21 28 4 28 -9 0 -16 -7 -16 -16z"/>
<path d="M5592 5649 c2 -6 8 -10 13 -10 5 0 11 4 13 10 2 6 -4 11 -13 11 -9 0
-15 -5 -13 -11z"/>
<path d="M8500 4198 c0 -49 5 -47 13 5 3 20 2 37 -4 37 -5 0 -9 -19 -9 -42z"/>
<path d="M7980 4185 c0 -5 5 -17 10 -25 5 -8 10 -10 10 -5 0 6 -5 17 -10 25
-5 8 -10 11 -10 5z"/>
<path d="M8641 4044 c0 -11 3 -14 6 -6 3 7 2 16 -1 19 -3 4 -6 -2 -5 -13z"/>
<path d="M8240 3989 c0 -5 5 -7 10 -4 6 3 10 8 10 11 0 2 -4 4 -10 4 -5 0 -10
-5 -10 -11z"/>
<path d="M8641 3954 c0 -11 3 -14 6 -6 3 7 2 16 -1 19 -3 4 -6 -2 -5 -13z"/>
<path d="M8131 3904 c0 -11 3 -14 6 -6 3 7 2 16 -1 19 -3 4 -6 -2 -5 -13z"/>
<path d="M8151 3904 c0 -11 3 -14 6 -6 3 7 2 16 -1 19 -3 4 -6 -2 -5 -13z"/>
<path d="M8643 3880 c0 -25 2 -35 4 -22 2 12 2 32 0 45 -2 12 -4 2 -4 -23z"/>
<path d="M8451 2974 c0 -11 3 -14 6 -6 3 7 2 16 -1 19 -3 4 -6 -2 -5 -13z"/>
<path d="M640 4195 l0 -65 39 0 c49 0 71 21 71 65 0 41 -29 65 -77 65 l-33 0
0 -65z"/>
<path d="M2603 4233 c-8 -3 -13 -24 -13 -54 0 -51 2 -53 50 -49 27 2 50 25 50
50 0 35 -52 67 -87 53z"/>
<path d="M1143 4213 c-7 -2 -13 -11 -13 -19 0 -10 12 -14 40 -14 41 0 49 7 28
28 -12 12 -33 14 -55 5z"/>
<path d="M1777 4188 c-25 -13 -22 -55 4 -63 28 -9 53 16 45 43 -8 25 -27 33
-49 20z"/>
<path d="M2350 4185 c-11 -13 -8 -15 20 -15 21 0 30 4 28 13 -7 18 -33 20 -48
2z"/>
<path d="M2800 4185 c-11 -13 -8 -15 20 -15 21 0 30 4 28 13 -7 18 -33 20 -48
2z"/>
<path d="M2976 4184 c-20 -19 -20 -25 -2 -50 12 -15 18 -17 33 -8 23 14 28 41
13 59 -16 19 -25 19 -44 -1z"/>
<path d="M2160 3835 c0 -36 7 -40 55 -35 29 3 38 15 31 44 -6 23 -12 26 -46
26 -39 0 -40 -1 -40 -35z"/>
<path d="M640 3830 c-23 -23 -26 -49 -7 -74 16 -21 60 -24 82 -6 21 17 19 63
-3 83 -25 22 -48 21 -72 -3z"/>
<path d="M1790 3749 c0 -16 5 -20 27 -17 17 2 29 10 31 21 3 13 -3 17 -27 17
-25 0 -31 -4 -31 -21z"/>
<path d="M2377 3824 c-18 -19 -5 -34 29 -34 28 0 35 3 32 18 -3 17 -48 29 -61
16z"/>
<path d="M2554 3759 c-3 -6 -2 -15 4 -21 15 -15 46 -5 50 15 3 12 -3 17 -22
17 -14 0 -28 -5 -32 -11z"/>
<path d="M1300 3315 c0 -8 9 -15 20 -15 11 0 20 7 20 15 0 8 -9 15 -20 15 -11
0 -20 -7 -20 -15z"/>
<path d="M980 3315 c0 -10 7 -15 18 -13 21 4 19 22 -2 26 -10 2 -16 -3 -16
-13z"/>
<path d="M1460 3315 c0 -8 9 -15 20 -15 11 0 20 7 20 15 0 8 -9 15 -20 15 -11
0 -20 -7 -20 -15z"/>
<path d="M1928 3323 c7 -3 16 -2 19 1 4 3 -2 6 -13 5 -11 0 -14 -3 -6 -6z"/>
<path d="M3180 3315 c0 -10 7 -15 18 -13 21 4 19 22 -2 26 -10 2 -16 -3 -16
-13z"/>
<path d="M3288 3323 c7 -3 16 -2 19 1 4 3 -2 6 -13 5 -11 0 -14 -3 -6 -6z"/>
<path d="M7360 2934 c0 -8 5 -12 10 -9 6 4 8 11 5 16 -9 14 -15 11 -15 -7z"/>
<path d="M7456 2842 c-2 -4 4 -8 14 -8 10 0 16 4 14 8 -3 4 -9 8 -14 8 -5 0
-11 -4 -14 -8z"/>
<path d="M1485 3160 c-3 -5 1 -10 10 -10 9 0 13 5 10 10 -3 6 -8 10 -10 10 -2
0 -7 -4 -10 -10z"/>
<path d="M6546 2831 c-4 -7 -5 -15 -2 -18 9 -9 19 4 14 18 -4 11 -6 11 -12 0z"/>
<path d="M1354 2989 c-10 -17 13 -36 27 -22 12 12 4 33 -11 33 -5 0 -12 -5
-16 -11z"/>
<path d="M2440 2981 c0 -12 6 -21 16 -21 9 0 14 7 12 17 -5 25 -28 28 -28 4z"/>
<path d="M6438 2733 c7 -3 16 -2 19 1 4 3 -2 6 -13 5 -11 0 -14 -3 -6 -6z"/>
<path d="M6845 2410 c-3 -5 -1 -10 4 -10 6 0 11 5 11 10 0 6 -2 10 -4 10 -3 0
-8 -4 -11 -10z"/>
<path d="M6968 2383 c6 -2 18 -2 25 0 6 3 1 5 -13 5 -14 0 -19 -2 -12 -5z"/>
<path d="M6960 2359 c0 -5 5 -7 10 -4 6 3 10 8 10 11 0 2 -4 4 -10 4 -5 0 -10
-5 -10 -11z"/>
<path d="M6877 2234 c3 -9 9 -12 12 -7 3 4 10 11 15 16 5 4 0 7 -12 7 -15 0
-20 -4 -15 -16z"/>
<path d="M6880 2165 c0 -8 4 -15 10 -15 5 0 7 7 4 15 -4 8 -8 15 -10 15 -2 0
-4 -7 -4 -15z"/>
<path d="M6910 2115 c0 -8 5 -15 10 -15 6 0 10 7 10 15 0 8 -4 15 -10 15 -5 0
-10 -7 -10 -15z"/>
<path d="M6905 2070 c3 -5 10 -10 16 -10 5 0 9 5 9 10 0 6 -7 10 -16 10 -8 0
-12 -4 -9 -10z"/>
<path d="M6927 2023 c-3 -15 -1 -38 4 -52 7 -17 6 -27 -2 -32 -6 -4 -8 -12 -5
-18 16 -25 22 -7 22 59 -1 71 -10 91 -19 43z"/>
<path d="M6890 2016 c0 -9 5 -16 10 -16 6 0 10 4 10 9 0 6 -4 13 -10 16 -5 3
-10 -1 -10 -9z"/>
<path d="M6822 2002 c-19 -3 -20 -5 -8 -18 17 -16 52 -19 61 -5 8 14 -25 28
-53 23z"/>
<path d="M6810 1891 c-33 -6 -32 -7 24 -14 32 -4 61 -5 64 -2 3 3 -8 5 -24 6
-25 0 -26 2 -9 9 l20 9 -20 -1 c-11 0 -36 -4 -55 -7z"/>
<path d="M819 2367 c0 -1 -2 -14 -4 -29 -3 -25 -1 -28 26 -28 16 0 29 5 29 13
0 9 3 9 9 -1 14 -23 46 -10 49 21 2 15 -1 27 -7 27 -6 0 -11 -12 -11 -26 0
-14 -4 -23 -10 -19 -5 3 -10 14 -10 24 0 13 -9 18 -35 19 -19 1 -35 0 -36 -1z"/>
<path d="M940 2335 l0 -30 61 3 c63 4 82 19 59 47 -21 25 -50 19 -50 -10 0
-16 -6 -25 -15 -25 -9 0 -15 9 -15 24 0 19 -5 24 -20 23 -15 -1 -20 -8 -20
-32z m110 6 c0 -6 -4 -13 -10 -16 -5 -3 -10 1 -10 9 0 9 5 16 10 16 6 0 10 -4
10 -9z"/>
<path d="M1094 2358 c3 -7 9 -21 12 -30 4 -10 10 -18 15 -18 5 0 9 8 9 18 1
16 1 16 11 0 11 -20 59 -25 59 -6 0 9 3 9 12 0 7 -7 20 -12 30 -12 14 0 18 7
17 33 -1 21 -3 25 -6 12 -8 -34 -23 -41 -23 -12 0 15 -4 27 -10 27 -5 0 -10
-5 -10 -11 0 -8 -4 -8 -14 0 -11 9 -25 10 -50 2 -22 -5 -36 -6 -36 0 0 5 -5 9
-11 9 -6 0 -8 -6 -5 -12z m94 -19 c-2 -6 -8 -10 -13 -10 -5 0 -11 4 -13 10 -2
6 4 11 13 11 9 0 15 -5 13 -11z"/>
<path d="M1270 2342 c0 -24 4 -29 23 -29 34 0 33 50 0 55 -19 3 -23 -1 -23
-26z"/>
<path d="M1355 2345 c8 -38 11 -41 29 -26 11 9 15 9 19 -1 7 -18 27 10 26 37
0 20 -1 20 -8 0 -8 -19 -8 -19 -19 0 -10 19 -11 19 -18 2 -6 -17 -7 -17 -21 0
-13 16 -14 15 -8 -12z"/>
<path d="M1444 2355 c-9 -23 3 -45 26 -45 25 0 37 25 20 45 -16 19 -39 19 -46
0z m36 -21 c0 -9 -5 -14 -12 -12 -18 6 -21 28 -4 28 9 0 16 -7 16 -16z"/>
<path d="M1510 2337 c0 -22 3 -28 9 -18 7 11 10 11 16 0 6 -9 10 -8 16 7 7 17
8 17 8 2 1 -25 96 -26 105 -2 8 21 -11 44 -35 44 -14 0 -19 -7 -19 -25 0 -16
-6 -25 -15 -25 -9 0 -15 9 -15 23 0 18 -6 22 -35 24 -33 1 -35 0 -35 -30z
m140 -2 c0 -8 -7 -15 -15 -15 -9 0 -12 6 -9 15 4 8 10 15 15 15 5 0 9 -7 9
-15z"/>
<path d="M650 2310 c0 -5 5 -10 10 -10 6 0 10 5 10 10 0 6 -4 10 -10 10 -5 0
-10 -4 -10 -10z"/>
<path d="M978 750 c-26 -26 -30 -36 -25 -68 4 -29 68 -156 90 -178 9 -10 89
142 94 178 5 32 1 42 -25 68 -23 22 -40 30 -67 30 -27 0 -44 -8 -67 -30z m104
-27 c22 -20 23 -51 1 -75 -20 -22 -42 -23 -71 -2 -26 18 -28 50 -5 76 20 22
51 23 75 1z"/>
<path d="M1036 703 c-12 -12 -6 -33 9 -33 8 0 15 6 15 14 0 17 -14 28 -24 19z"/>
<path d="M1310 750 c0 -15 5 -20 18 -18 9 2 17 10 17 18 0 8 -8 16 -17 18 -13
2 -18 -3 -18 -18z"/>
<path d="M6850 730 c0 -5 5 -10 10 -10 6 0 10 5 10 10 0 6 -4 10 -10 10 -5 0
-10 -4 -10 -10z"/>
<path d="M7050 720 c0 -15 5 -20 18 -18 9 2 17 10 17 18 0 8 -8 16 -17 18 -13
2 -18 -3 -18 -18z"/>
<path d="M3800 705 c0 -39 37 -121 66 -146 34 -30 103 -59 139 -59 32 0 35 2
35 30 0 23 -5 31 -26 36 -14 4 -30 2 -37 -5 -22 -22 -54 -11 -91 29 -37 41
-45 67 -25 87 7 7 9 23 5 37 -5 21 -13 26 -36 26 -28 0 -30 -3 -30 -35z"/>
<path d="M6295 690 c27 -27 54 -50 60 -50 6 0 33 23 60 50 l49 50 -109 0 -109
0 49 -50z"/>
<path d="M6210 626 l0 -86 140 0 140 0 0 87 0 86 -59 -56 c-33 -32 -68 -57
-78 -57 -10 0 -46 25 -80 56 l-63 56 0 -86z"/>
<path d="M1415 710 c-3 -5 1 -10 9 -10 9 0 16 5 16 10 0 6 -4 10 -9 10 -6 0
-13 -4 -16 -10z"/>
<path d="M1895 710 c-3 -5 1 -10 9 -10 9 0 16 5 16 10 0 6 -4 10 -9 10 -6 0
-13 -4 -16 -10z"/>
<path d="M4590 736 c0 -2 7 -6 15 -10 8 -3 15 -1 15 4 0 6 -7 10 -15 10 -8 0
-15 -2 -15 -4z"/>
<path d="M4980 700 c0 -5 4 -10 9 -10 6 0 13 5 16 10 3 6 -1 10 -9 10 -9 0
-16 -4 -16 -10z"/>
<path d="M5230 700 c0 -5 4 -10 9 -10 6 0 13 5 16 10 3 6 -1 10 -9 10 -9 0
-16 -4 -16 -10z"/>
<path d="M7450 700 c0 -5 4 -10 9 -10 6 0 13 5 16 10 3 6 -1 10 -9 10 -9 0
-16 -4 -16 -10z"/>
<path d="M7740 730 c0 -5 7 -10 15 -10 8 0 15 5 15 10 0 6 -7 10 -15 10 -8 0
-15 -4 -15 -10z"/>
<path d="M8000 700 c0 -5 4 -10 9 -10 6 0 13 5 16 10 3 6 -1 10 -9 10 -9 0
-16 -4 -16 -10z"/>
<path d="M8095 730 c-8 -14 3 -30 21 -30 8 0 14 9 14 20 0 21 -24 28 -35 10z"/>
<path d="M8215 730 c3 -5 10 -10 16 -10 5 0 9 5 9 10 0 6 -7 10 -16 10 -8 0
-12 -4 -9 -10z"/>
<path d="M2260 530 c0 -5 7 -10 15 -10 8 0 15 5 15 10 0 6 -7 10 -15 10 -8 0
-15 -4 -15 -10z"/>
<path d="M7092 510 c0 -14 2 -19 5 -12 2 6 2 18 0 25 -3 6 -5 1 -5 -13z"/>
</g>
</svg>
