<?xml version="1.0" standalone="no"?>
<!DOCTYPE svg PUBLIC "-//W3C//DTD SVG 20010904//EN"
 "http://www.w3.org/TR/2001/REC-SVG-20010904/DTD/svg10.dtd">
<svg version="1.0" xmlns="http://www.w3.org/2000/svg"
 width="731.000000pt" height="411.000000pt" viewBox="0 0 731.000000 411.000000"
 preserveAspectRatio="xMidYMid meet">

<g transform="translate(0.000000,411.000000) scale(0.100000,-0.100000)"
fill="#000000" stroke="none">
<path d="M4394 3851 c-43 -26 -88 -82 -172 -210 -97 -150 -104 -158 -179 -181
-120 -37 -153 -68 -153 -147 0 -75 -11 -110 -37 -122 -32 -14 -46 -14 -40 2
15 40 17 57 8 57 -5 0 -11 -9 -13 -19 -3 -18 -4 -18 -64 0 -70 22 -114 57
-114 92 0 29 24 52 45 43 23 -8 19 9 -30 154 -52 152 -73 196 -108 229 -21 19
-32 22 -62 17 -57 -11 -76 -64 -74 -203 1 -120 7 -108 -95 -187 -73 -56 -93
-120 -59 -191 14 -30 21 -35 41 -30 17 4 44 -6 94 -35 38 -22 74 -40 78 -40 5
0 51 25 102 55 87 50 97 54 129 45 19 -6 54 -26 76 -45 23 -19 46 -35 52 -35
6 0 11 -3 11 -7 0 -5 23 -21 51 -36 46 -27 52 -28 68 -13 43 39 106 9 106 -50
0 -37 2 -40 75 -81 41 -23 75 -49 75 -56 0 -8 -20 -30 -45 -49 -51 -38 -64
-68 -30 -68 24 0 80 27 80 38 0 5 -5 13 -12 20 -8 8 -8 15 1 26 12 14 16 14
42 0 16 -8 34 -12 40 -9 5 4 30 -5 54 -20 l45 -26 53 35 c42 26 56 41 61 66
14 74 2 94 -74 119 -47 15 -55 22 -58 45 -5 37 29 87 93 136 87 67 115 104
115 151 0 47 -19 87 -72 150 -45 53 -48 82 -17 179 22 72 27 147 10 178 -17
33 -63 43 -97 23z"/>
<path d="M3044 3796 c-11 -28 1 -51 25 -51 28 0 47 25 38 49 -8 20 -56 21 -63
2z"/>
<path d="M4962 3438 c-7 -7 -12 -21 -12 -33 0 -44 44 -59 75 -25 17 18 17 21
1 45 -18 27 -45 32 -64 13z"/>
<path d="M3791 3254 c0 -11 3 -14 6 -6 3 7 2 16 -1 19 -3 4 -6 -2 -5 -13z"/>
<path d="M1310 3205 c0 -2 30 -22 68 -45 37 -22 108 -67 157 -100 99 -65 127
-82 165 -102 26 -14 64 -48 58 -53 -1 -1 -37 -20 -78 -41 -45 -23 -68 -39 -58
-42 17 -3 92 31 102 47 4 5 20 12 36 16 34 7 81 -15 167 -78 30 -23 57 -36 64
-31 8 4 9 3 5 -4 -5 -8 0 -12 13 -12 28 0 26 12 -3 30 -13 8 -76 48 -140 89
-113 73 -115 75 -96 93 10 10 26 18 34 18 8 0 17 4 20 9 4 5 27 19 52 31 25
12 43 24 40 27 -2 3 -44 -16 -93 -41 -49 -25 -92 -46 -97 -46 -4 0 -82 49
-174 109 -92 59 -177 113 -189 120 -22 11 -53 15 -53 6z"/>
<path d="M2581 3076 c-59 -33 -67 -102 -17 -152 66 -66 165 -24 166 69 0 75
-81 121 -149 83z"/>
<path d="M705 2990 c-83 -42 -187 -156 -393 -432 -175 -234 -222 -278 -292
-278 -19 0 -20 -6 -20 -145 l0 -145 31 0 c76 0 166 -82 196 -179 l18 -56 6 35
c5 25 6 14 7 -35 0 -38 -2 -62 -5 -53 -3 11 -33 26 -86 44 -45 15 -101 39
-125 55 l-42 28 0 -74 0 -73 32 -7 c92 -20 169 -94 216 -208 30 -70 30 -71 35
-37 2 22 4 10 5 -29 l2 -64 29 40 c15 21 48 56 71 76 46 39 143 82 148 66 3
-7 -74 -183 -82 -190 -1 0 -40 -6 -88 -13 l-88 -12 0 32 c0 31 -3 33 -67 53
-62 19 -131 54 -191 97 l-22 16 0 -74 c0 -74 0 -74 41 -113 40 -38 99 -143 99
-175 0 -9 -16 -30 -35 -49 l-35 -32 -29 20 c-16 12 -32 21 -35 21 -8 0 -8
-394 0 -414 5 -13 9 -14 20 -5 11 9 14 6 14 -20 0 -24 -4 -31 -20 -31 -19 0
-19 -8 -20 -315 l0 -315 145 0 145 0 0 36 c0 45 45 94 87 94 43 0 88 -33 113
-84 l22 -46 139 0 c76 0 139 1 139 3 0 1 -20 29 -45 62 -87 117 -137 284 -101
340 22 34 74 34 114 0 37 -31 72 -111 79 -180 5 -46 -7 -155 -23 -209 -8 -26
10 -14 98 63 l73 63 -60 -58 c-33 -32 -51 -55 -41 -51 11 5 53 13 92 19 84 13
166 0 207 -33 20 -15 41 -19 105 -19 90 0 84 -5 98 96 l6 51 -88 6 c-54 3
-122 16 -174 32 -65 21 -88 25 -102 16 -16 -10 -15 -7 3 28 l20 40 -78 78
c-120 119 -171 239 -127 301 39 56 138 3 186 -98 l24 -49 33 71 33 72 -45 40
c-56 51 -82 89 -96 144 -10 35 -9 48 5 77 50 107 194 -5 194 -152 0 -17 4 -34
9 -38 10 -5 76 77 100 123 7 12 16 20 21 17 9 -6 50 44 69 85 11 23 10 22 -15
-5 -31 -35 -23 -17 19 42 26 37 29 48 24 92 -12 101 -71 184 -234 331 -84 75
-90 99 -62 266 22 141 26 279 9 342 -19 74 -74 123 -155 137 -36 6 -47 16
-102 91 -35 48 -65 100 -69 120 -7 37 -6 41 74 263 50 141 61 224 37 287 -33
86 -122 124 -200 84z m-178 -347 c10 -14 17 -43 17 -63 -2 -66 -73 -177 -148
-232 -23 -16 -44 -37 -47 -46 -4 -9 -6 30 -5 88 2 91 6 113 30 165 51 111 114
148 153 88z m-356 -375 c61 -57 119 -174 119 -240 0 -18 7 -11 29 27 38 66
109 131 161 146 40 12 44 12 61 -10 26 -32 24 -62 -10 -108 -34 -47 -109 -88
-193 -105 -57 -12 -57 -12 -63 -52 -12 -94 -13 -96 -9 -13 3 49 7 94 10 102 4
8 -7 17 -28 24 -57 19 -146 80 -167 115 -23 37 -28 105 -9 124 20 20 73 14 99
-10z m166 -10 c-3 -8 -6 -5 -6 6 -1 11 2 17 5 13 3 -3 4 -12 1 -19z m-13 -57
c-4 -17 -9 -30 -11 -27 -3 2 -2 19 2 36 9 41 17 33 9 -9z m-20 -90 c-4 -23 -9
-40 -11 -37 -3 3 -2 23 2 46 4 23 9 39 11 37 3 -2 2 -23 -2 -46z m291 -196
c29 -28 31 -56 9 -94 -23 -39 -82 -73 -214 -125 l-115 -45 -5 -43 -6 -43 -4
53 c-3 30 -2 56 2 58 4 2 18 30 33 61 74 162 227 252 300 178z m-318 -427 c-2
-13 -4 -3 -4 22 0 25 2 35 4 23 2 -13 2 -33 0 -45z m0 -240 c-3 -7 -5 -2 -5
12 0 14 2 19 5 13 2 -7 2 -19 0 -25z m1017 -77 c43 -47 63 -246 29 -296 -8
-12 -13 -14 -13 -6 0 8 -21 36 -46 63 -80 85 -102 163 -64 226 23 38 66 44 94
13z m-284 -995 c0 -2 -8 -10 -17 -17 -16 -13 -17 -12 -4 4 13 16 21 21 21 13z"/>
<path d="M3176 2848 c16 -12 34 -29 41 -38 15 -20 81 -55 89 -47 11 11 -15 35
-76 72 -64 39 -98 47 -54 13z"/>
<path d="M2784 2837 c11 -7 37 -29 59 -49 41 -39 53 -44 75 -29 10 6 -8 20
-62 50 -68 37 -118 57 -72 28z"/>
<path d="M3513 2799 c-39 -11 -79 -61 -88 -109 l-6 -36 -95 -11 c-120 -14
-168 -36 -172 -80 -3 -35 24 -61 108 -103 25 -12 47 -24 48 -25 2 -2 -6 -16
-17 -32 -32 -43 -37 -93 -13 -122 26 -33 116 -40 227 -16 l82 17 47 -36 c57
-43 143 -71 194 -61 45 8 89 55 103 109 l10 43 95 11 c54 6 111 19 132 30 73
37 46 97 -65 149 -29 14 -53 27 -53 29 0 3 7 15 15 28 22 33 34 81 28 106 -13
50 -112 63 -247 34 l-74 -17 -33 26 c-80 59 -165 84 -226 66z m146 -67 c25
-15 46 -32 48 -38 2 -6 -20 -20 -49 -31 -41 -15 -69 -19 -122 -15 l-68 4 6 32
c3 17 20 44 37 59 27 25 37 28 68 22 20 -3 56 -18 80 -33z m375 -45 c17 -12
17 -16 2 -48 -31 -70 -34 -71 -110 -52 -53 14 -73 25 -92 51 -22 28 -23 33 -9
39 65 24 182 30 209 10z m-260 -53 c5 -13 2 -15 -16 -10 -13 3 -30 6 -38 6
-13 0 -13 1 0 10 23 15 47 12 54 -6z m-354 -43 c0 -11 3 -26 6 -34 3 -9 -11
-28 -40 -51 l-44 -37 -54 27 c-56 28 -88 52 -88 65 0 22 88 45 178 48 35 1 42
-2 42 -18z m90 -1 c-32 -25 -40 -25 -40 0 0 16 7 20 33 20 l32 0 -25 -20z
m271 -11 c42 -9 48 -14 69 -59 13 -28 22 -51 19 -53 -24 -19 -114 -68 -133
-73 -22 -5 -139 8 -187 22 -15 4 -67 100 -58 108 2 2 31 20 64 40 57 35 63 37
120 31 33 -4 81 -11 106 -16z m157 -37 c10 -7 8 -12 -6 -25 -18 -16 -19 -16
-30 8 -10 21 -9 25 6 25 9 0 23 -4 30 -8z m155 -60 c64 -34 77 -50 53 -67 -19
-14 -123 -35 -173 -35 -27 0 -32 4 -38 36 -6 33 -3 39 32 69 42 38 50 38 126
-3z m-639 -18 c3 -9 6 -18 6 -20 0 -8 -25 -4 -40 6 -13 9 -13 11 0 20 21 13
27 12 34 -6z m-21 -63 c64 -19 106 -49 107 -77 0 -14 -89 -34 -155 -34 -60 0
-81 16 -70 52 7 19 42 78 48 78 1 0 33 -9 70 -19z m457 -7 c0 -10 -11 -14 -37
-14 l-38 0 29 19 c31 21 46 19 46 -5z m-260 -34 l25 -7 -27 -8 c-28 -7 -48 -1
-48 16 0 10 14 10 50 -1z m209 -20 c53 0 53 0 46 -27 -10 -40 -43 -82 -71 -89
-30 -8 -97 16 -144 51 l-33 24 54 25 c30 14 63 23 74 21 11 -3 44 -5 74 -5z"/>
<path d="M3630 2553 c-83 -33 -58 -112 37 -120 91 -8 150 62 88 103 -27 17
-100 28 -125 17z"/>
<path d="M2270 2600 c12 -22 25 -26 35 -11 3 6 -3 15 -14 20 -28 16 -33 14
-21 -9z"/>
<path d="M2137 2496 c-9 -22 18 -40 33 -22 6 9 9 20 5 26 -9 15 -32 12 -38 -4z"/>
<path d="M6955 2405 c-76 -76 -123 -192 -234 -582 -88 -308 -100 -329 -221
-403 -89 -55 -177 -128 -201 -168 -33 -53 -33 -168 1 -277 24 -79 24 -87 25
-445 1 -351 2 -367 23 -424 12 -33 32 -70 44 -83 l21 -23 449 0 448 0 0 884
c0 790 -2 885 -16 897 -38 31 -44 64 -44 231 0 193 -12 275 -48 342 -37 67
-69 89 -141 94 l-59 4 -47 -47z"/>
<path d="M1295 2430 c-12 -4 -27 -15 -34 -24 -18 -21 -32 -86 -19 -86 17 0
158 81 158 90 0 25 -64 37 -105 20z"/>
<path d="M5698 2290 c-83 -52 -94 -85 -52 -163 26 -51 25 -81 -4 -96 -39 -19
-82 -19 -149 -1 -80 23 -136 25 -178 4 -26 -12 -26 -13 -5 -9 85 20 146 12
222 -26 10 -5 40 -9 66 -9 88 0 131 71 81 134 -34 43 -29 86 16 134 21 23 46
42 57 42 10 0 18 5 18 10 0 17 -23 11 -72 -20z"/>
<path d="M4070 2251 c0 -15 50 -51 72 -51 11 0 17 -4 14 -9 -3 -5 10 -19 30
-30 29 -18 35 -19 30 -6 -6 16 4 14 32 -8 10 -8 10 -12 1 -18 -9 -5 -14 -66
-18 -211 -9 -350 -9 -359 14 -372 11 -6 32 -19 47 -29 15 -10 37 -19 47 -20
11 0 18 -4 15 -8 -7 -12 25 -19 58 -12 22 4 29 3 24 -5 -4 -7 -1 -12 8 -12 8
0 17 6 19 13 4 9 7 9 14 0 6 -9 40 -13 110 -12 82 0 109 -3 147 -20 46 -22 61
-40 29 -37 -12 1 -17 -6 -16 -21 0 -13 1 -56 2 -96 l1 -72 48 -25 c26 -14 49
-28 52 -31 3 -4 39 -24 80 -45 41 -21 97 -51 124 -67 47 -27 96 -31 96 -8 0 9
-171 114 -286 175 -56 30 -64 47 -64 132 0 70 -12 87 -87 125 -66 33 -71 34
-188 34 -113 0 -123 2 -165 27 -91 56 -83 22 -79 339 l4 282 -85 47 c-92 52
-130 67 -130 51z"/>
<path d="M4870 2225 c0 -17 9 -19 28 -6 11 7 10 10 -3 15 -23 9 -25 8 -25 -9z"/>
<path d="M3112 2189 l-79 -40 -6 -82 c-4 -45 -9 -143 -12 -217 -10 -241 -9
-236 -66 -271 -27 -17 -49 -34 -49 -38 0 -14 66 -3 113 18 l47 22 1 57 c0 31
2 68 4 82 5 31 25 333 25 371 0 19 -6 30 -20 34 -23 7 -26 20 -7 28 119 52
168 77 150 77 -12 0 -57 -18 -101 -41z"/>
<path d="M3909 2037 c-21 -14 -39 -38 -48 -63 -13 -37 -12 -44 5 -80 13 -26
32 -45 58 -58 36 -17 43 -18 80 -5 46 16 86 67 86 108 0 57 -65 121 -123 121
-13 0 -39 -10 -58 -23z"/>
<path d="M3272 1378 c2 -13 10 -23 18 -23 8 0 16 10 18 23 3 17 -2 22 -18 22
-16 0 -21 -5 -18 -22z"/>
<path d="M1274 768 c-4 -13 -11 -26 -16 -29 -7 -4 -6 -9 0 -13 6 -3 14 4 18
16 4 13 11 26 16 29 7 4 6 9 0 13 -6 3 -14 -4 -18 -16z"/>
<path d="M1368 773 c7 -3 16 -2 19 1 4 3 -2 6 -13 5 -11 0 -14 -3 -6 -6z"/>
<path d="M1526 752 c-2 -4 4 -9 15 -9 10 -1 19 2 19 8 0 11 -27 12 -34 1z"/>
<path d="M1373 723 c9 -2 23 -2 30 0 6 3 -1 5 -18 5 -16 0 -22 -2 -12 -5z"/>
<path d="M1470 726 c0 -2 11 -6 25 -8 13 -3 22 -1 19 3 -5 9 -44 13 -44 5z"/>
<path d="M1559 717 c16 -20 37 -22 47 -5 4 7 3 8 -4 4 -6 -4 -22 -1 -34 5 -21
11 -22 11 -9 -4z"/>
<path d="M1315 700 c-13 -6 -15 -9 -5 -9 8 0 22 4 30 9 18 12 2 12 -25 0z"/>
<path d="M1530 706 c0 -2 7 -9 15 -16 9 -7 15 -8 15 -2 0 5 -7 12 -15 16 -8 3
-15 4 -15 2z"/>
<path d="M1640 680 c8 -5 20 -10 25 -10 6 0 3 5 -5 10 -8 5 -19 10 -25 10 -5
0 -3 -5 5 -10z"/>
<path d="M1575 669 c-4 -6 -5 -12 -2 -15 2 -3 7 2 10 11 7 17 1 20 -8 4z"/>
<path d="M1680 656 c0 -2 8 -10 18 -17 15 -13 16 -12 3 4 -13 16 -21 21 -21
13z"/>
<path d="M1556 564 c-11 -7 -18 -16 -15 -18 2 -2 13 2 23 10 11 7 18 16 15 18
-2 2 -13 -2 -23 -10z"/>
<path d="M1850 560 c-9 -6 -10 -10 -3 -10 6 0 15 5 18 10 8 12 4 12 -15 0z"/>
<path d="M1880 550 c-9 -6 -10 -10 -3 -10 6 0 15 5 18 10 8 12 4 12 -15 0z"/>
<path d="M1857 519 c7 -7 15 -10 18 -7 3 3 -2 9 -12 12 -14 6 -15 5 -6 -5z"/>
<path d="M1910 510 c11 -11 23 -20 27 -20 3 0 -2 9 -12 20 -10 11 -22 20 -27
20 -4 0 1 -9 12 -20z"/>
<path d="M2148 523 c7 -3 16 -2 19 1 4 3 -2 6 -13 5 -11 0 -14 -3 -6 -6z"/>
<path d="M1620 479 c0 -5 5 -7 10 -4 6 3 10 8 10 11 0 2 -4 4 -10 4 -5 0 -10
-5 -10 -11z"/>
<path d="M2050 460 c-8 -5 -10 -10 -5 -10 6 0 17 5 25 10 8 5 11 10 5 10 -5 0
-17 -5 -25 -10z"/>
<path d="M2095 460 c-3 -5 -1 -10 4 -10 6 0 11 5 11 10 0 6 -2 10 -4 10 -3 0
-8 -4 -11 -10z"/>
<path d="M1813 445 c0 -8 4 -15 9 -15 4 0 8 4 8 9 0 6 -4 12 -8 15 -5 3 -9 -1
-9 -9z"/>
<path d="M1630 435 c7 -8 17 -15 22 -15 5 0 3 7 -6 15 -8 8 -18 15 -22 15 -3
0 -1 -7 6 -15z"/>
<path d="M1069 400 c0 -3 -2 -27 -4 -55 l-4 -50 15 43 c12 32 13 47 5 55 -6 6
-11 9 -12 7z"/>
<path d="M1079 317 c-13 -34 -25 -66 -28 -70 -2 -5 14 2 35 15 62 38 99 50
181 57 l78 7 -32 17 c-18 9 -61 20 -95 23 -35 3 -75 7 -89 9 -24 4 -29 -1 -50
-58z"/>
<path d="M2045 370 c-3 -5 1 -10 9 -10 9 0 16 5 16 10 0 6 -4 10 -9 10 -6 0
-13 -4 -16 -10z"/>
<path d="M2001 354 c0 -11 3 -14 6 -6 3 7 2 16 -1 19 -3 4 -6 -2 -5 -13z"/>
<path d="M1845 294 c11 -9 29 -20 40 -26 19 -11 20 -10 2 10 -10 11 -28 22
-40 26 -22 5 -22 5 -2 -10z"/>
<path d="M1918 253 c7 -3 16 -2 19 1 4 3 -2 6 -13 5 -11 0 -14 -3 -6 -6z"/>
</g>
</svg>
