<?xml version="1.0" standalone="no"?>
<!DOCTYPE svg PUBLIC "-//W3C//DTD SVG 20010904//EN"
 "http://www.w3.org/TR/2001/REC-SVG-20010904/DTD/svg10.dtd">
<svg version="1.0" xmlns="http://www.w3.org/2000/svg"
 width="750.000000pt" height="375.000000pt" viewBox="0 0 750.000000 375.000000"
 preserveAspectRatio="xMidYMid meet">

<g transform="translate(0.000000,375.000000) scale(0.100000,-0.100000)"
fill="#000000" stroke="none">
<path d="M760 3705 c0 -25 5 -45 10 -45 6 0 10 20 10 45 0 25 -4 45 -10 45 -5
0 -10 -20 -10 -45z"/>
<path d="M1038 3725 c-7 -32 5 -69 14 -44 2 8 2 28 -2 44 l-6 30 -6 -30z"/>
<path d="M6902 3628 c-2 -111 -4 -127 -19 -131 -16 -4 -16 -5 -1 -6 12 -1 18
-12 21 -43 l4 -43 1 42 c2 35 6 42 25 46 l22 4 -22 2 c-22 1 -22 5 -26 129
l-3 127 -2 -127z"/>
<path d="M7172 3725 c0 -16 2 -22 5 -12 2 9 2 23 0 30 -3 6 -5 -1 -5 -18z"/>
<path d="M513 3640 c0 -36 2 -50 4 -32 2 17 2 47 0 65 -2 17 -4 3 -4 -33z"/>
<path d="M1763 3625 c0 -22 2 -30 4 -17 2 12 2 30 0 40 -3 9 -5 -1 -4 -23z"/>
<path d="M2073 3625 c0 -22 2 -30 4 -17 2 12 2 30 0 40 -3 9 -5 -1 -4 -23z"/>
<path d="M2383 3625 c0 -22 2 -30 4 -17 2 12 2 30 0 40 -3 9 -5 -1 -4 -23z"/>
<path d="M3003 3625 c0 -22 2 -30 4 -17 2 12 2 30 0 40 -3 9 -5 -1 -4 -23z"/>
<path d="M3313 3625 c0 -22 2 -30 4 -17 2 12 2 30 0 40 -3 9 -5 -1 -4 -23z"/>
<path d="M3623 3625 c0 -22 2 -30 4 -17 2 12 2 30 0 40 -3 9 -5 -1 -4 -23z"/>
<path d="M3933 3625 c0 -22 2 -30 4 -17 2 12 2 30 0 40 -3 9 -5 -1 -4 -23z"/>
<path d="M4241 3633 c-1 -18 4 -33 9 -33 12 0 12 17 0 45 -7 17 -9 15 -9 -12z"/>
<path d="M6109 3658 c-6 -24 -5 -58 2 -58 5 0 9 14 9 30 0 17 -2 30 -5 30 -3
0 -5 -1 -6 -2z"/>
<path d="M6429 3658 c-6 -24 -5 -58 2 -58 5 0 9 14 9 30 0 17 -2 30 -5 30 -3
0 -5 -1 -6 -2z"/>
<path d="M1130 3625 c0 -14 5 -25 10 -25 6 0 10 11 10 25 0 14 -4 25 -10 25
-5 0 -10 -11 -10 -25z"/>
<path d="M1448 3630 c-7 -24 -3 -38 8 -28 3 4 4 17 2 30 l-3 23 -7 -25z"/>
<path d="M2692 3620 c0 -19 2 -27 5 -17 2 9 2 25 0 35 -3 9 -5 1 -5 -18z"/>
<path d="M4550 3625 c0 -14 5 -25 10 -25 6 0 10 11 10 25 0 14 -4 25 -10 25
-5 0 -10 -11 -10 -25z"/>
<path d="M4860 3625 c0 -14 5 -25 10 -25 6 0 10 11 10 25 0 14 -4 25 -10 25
-5 0 -10 -11 -10 -25z"/>
<path d="M5170 3619 c0 -17 4 -28 10 -24 6 3 10 17 10 31 0 13 -4 24 -10 24
-5 0 -10 -14 -10 -31z"/>
<path d="M5480 3626 c0 -14 5 -28 10 -31 6 -4 10 7 10 24 0 17 -4 31 -10 31
-5 0 -10 -11 -10 -24z"/>
<path d="M5790 3626 c0 -14 5 -28 10 -31 6 -4 10 7 10 24 0 17 -4 31 -10 31
-5 0 -10 -11 -10 -24z"/>
<path d="M1202 3610 c0 -14 2 -19 5 -12 2 6 2 18 0 25 -3 6 -5 1 -5 -13z"/>
<path d="M1262 3610 c0 -14 2 -19 5 -12 2 6 2 18 0 25 -3 6 -5 1 -5 -13z"/>
<path d="M3434 3619 c-3 -6 -1 -16 5 -22 8 -8 11 -5 11 11 0 24 -5 28 -16 11z"/>
<path d="M1320 3610 c0 -5 5 -10 10 -10 6 0 10 5 10 10 0 6 -4 10 -10 10 -5 0
-10 -4 -10 -10z"/>
<path d="M1380 3610 c0 -5 5 -10 10 -10 6 0 10 5 10 10 0 6 -4 10 -10 10 -5 0
-10 -4 -10 -10z"/>
<path d="M1511 3604 c0 -11 3 -14 6 -6 3 7 2 16 -1 19 -3 4 -6 -2 -5 -13z"/>
<path d="M1570 3604 c0 -8 5 -12 10 -9 6 4 8 11 5 16 -9 14 -15 11 -15 -7z"/>
<path d="M1630 3610 c0 -5 5 -10 10 -10 6 0 10 5 10 10 0 6 -4 10 -10 10 -5 0
-10 -4 -10 -10z"/>
<path d="M1701 3604 c0 -11 3 -14 6 -6 3 7 2 16 -1 19 -3 4 -6 -2 -5 -13z"/>
<path d="M1821 3604 c0 -11 3 -14 6 -6 3 7 2 16 -1 19 -3 4 -6 -2 -5 -13z"/>
<path d="M1881 3604 c0 -11 3 -14 6 -6 3 7 2 16 -1 19 -3 4 -6 -2 -5 -13z"/>
<path d="M1940 3610 c0 -5 5 -10 10 -10 6 0 10 5 10 10 0 6 -4 10 -10 10 -5 0
-10 -4 -10 -10z"/>
<path d="M2006 3605 c4 -8 8 -15 10 -15 2 0 4 7 4 15 0 8 -4 15 -10 15 -5 0
-7 -7 -4 -15z"/>
<path d="M2131 3604 c0 -11 3 -14 6 -6 3 7 2 16 -1 19 -3 4 -6 -2 -5 -13z"/>
<path d="M2190 3604 c0 -8 5 -12 10 -9 6 3 10 10 10 16 0 5 -4 9 -10 9 -5 0
-10 -7 -10 -16z"/>
<path d="M2250 3611 c0 -6 5 -13 10 -16 6 -3 10 1 10 9 0 9 -4 16 -10 16 -5 0
-10 -4 -10 -9z"/>
<path d="M2321 3604 c0 -11 3 -14 6 -6 3 7 2 16 -1 19 -3 4 -6 -2 -5 -13z"/>
<path d="M2441 3604 c0 -11 3 -14 6 -6 3 7 2 16 -1 19 -3 4 -6 -2 -5 -13z"/>
<path d="M2500 3610 c0 -5 5 -10 10 -10 6 0 10 5 10 10 0 6 -4 10 -10 10 -5 0
-10 -4 -10 -10z"/>
<path d="M2560 3610 c0 -5 5 -10 10 -10 6 0 10 5 10 10 0 6 -4 10 -10 10 -5 0
-10 -4 -10 -10z"/>
<path d="M2631 3604 c0 -11 3 -14 6 -6 3 7 2 16 -1 19 -3 4 -6 -2 -5 -13z"/>
<path d="M2751 3604 c0 -11 3 -14 6 -6 3 7 2 16 -1 19 -3 4 -6 -2 -5 -13z"/>
<path d="M2810 3610 c0 -5 5 -10 10 -10 6 0 10 5 10 10 0 6 -4 10 -10 10 -5 0
-10 -4 -10 -10z"/>
<path d="M2875 3610 c3 -5 8 -10 11 -10 2 0 4 5 4 10 0 6 -5 10 -11 10 -5 0
-7 -4 -4 -10z"/>
<path d="M2941 3604 c0 -11 3 -14 6 -6 3 7 2 16 -1 19 -3 4 -6 -2 -5 -13z"/>
<path d="M3060 3604 c0 -8 5 -12 10 -9 6 3 10 10 10 16 0 5 -4 9 -10 9 -5 0
-10 -7 -10 -16z"/>
<path d="M3120 3611 c0 -6 5 -13 10 -16 6 -3 10 1 10 9 0 9 -4 16 -10 16 -5 0
-10 -4 -10 -9z"/>
<path d="M3191 3604 c0 -11 3 -14 6 -6 3 7 2 16 -1 19 -3 4 -6 -2 -5 -13z"/>
<path d="M3251 3604 c0 -11 3 -14 6 -6 3 7 2 16 -1 19 -3 4 -6 -2 -5 -13z"/>
<path d="M3370 3611 c0 -6 5 -13 10 -16 6 -3 10 1 10 9 0 9 -4 16 -10 16 -5 0
-10 -4 -10 -9z"/>
<path d="M3501 3604 c0 -11 3 -14 6 -6 3 7 2 16 -1 19 -3 4 -6 -2 -5 -13z"/>
<path d="M3561 3604 c0 -11 3 -14 6 -6 3 7 2 16 -1 19 -3 4 -6 -2 -5 -13z"/>
<path d="M3680 3610 c0 -5 5 -10 10 -10 6 0 10 5 10 10 0 6 -4 10 -10 10 -5 0
-10 -4 -10 -10z"/>
<path d="M3740 3611 c0 -6 5 -13 10 -16 6 -3 10 1 10 9 0 9 -4 16 -10 16 -5 0
-10 -4 -10 -9z"/>
<path d="M3811 3604 c0 -11 3 -14 6 -6 3 7 2 16 -1 19 -3 4 -6 -2 -5 -13z"/>
<path d="M3870 3605 c0 -8 2 -15 4 -15 2 0 6 7 10 15 3 8 1 15 -4 15 -6 0 -10
-7 -10 -15z"/>
<path d="M3990 3610 c0 -5 5 -10 10 -10 6 0 10 5 10 10 0 6 -4 10 -10 10 -5 0
-10 -4 -10 -10z"/>
<path d="M4061 3604 c0 -11 3 -14 6 -6 3 7 2 16 -1 19 -3 4 -6 -2 -5 -13z"/>
<path d="M4121 3604 c0 -11 3 -14 6 -6 3 7 2 16 -1 19 -3 4 -6 -2 -5 -13z"/>
<path d="M4180 3605 c0 -8 2 -15 4 -15 2 0 6 7 10 15 3 8 1 15 -4 15 -6 0 -10
-7 -10 -15z"/>
<path d="M4300 3610 c0 -5 5 -10 10 -10 6 0 10 5 10 10 0 6 -4 10 -10 10 -5 0
-10 -4 -10 -10z"/>
<path d="M4371 3604 c0 -11 3 -14 6 -6 3 7 2 16 -1 19 -3 4 -6 -2 -5 -13z"/>
<path d="M4431 3604 c0 -11 3 -14 6 -6 3 7 2 16 -1 19 -3 4 -6 -2 -5 -13z"/>
<path d="M4490 3604 c0 -8 5 -12 10 -9 6 3 10 10 10 16 0 5 -4 9 -10 9 -5 0
-10 -7 -10 -16z"/>
<path d="M4610 3610 c0 -5 5 -10 10 -10 6 0 10 5 10 10 0 6 -4 10 -10 10 -5 0
-10 -4 -10 -10z"/>
<path d="M4681 3604 c0 -11 3 -14 6 -6 3 7 2 16 -1 19 -3 4 -6 -2 -5 -13z"/>
<path d="M4741 3604 c0 -11 3 -14 6 -6 3 7 2 16 -1 19 -3 4 -6 -2 -5 -13z"/>
<path d="M4800 3604 c0 -8 5 -12 10 -9 6 3 10 10 10 16 0 5 -4 9 -10 9 -5 0
-10 -7 -10 -16z"/>
<path d="M4920 3611 c0 -6 5 -13 10 -16 6 -3 10 1 10 9 0 9 -4 16 -10 16 -5 0
-10 -4 -10 -9z"/>
<path d="M4991 3604 c0 -11 3 -14 6 -6 3 7 2 16 -1 19 -3 4 -6 -2 -5 -13z"/>
<path d="M5051 3604 c0 -11 3 -14 6 -6 3 7 2 16 -1 19 -3 4 -6 -2 -5 -13z"/>
<path d="M5110 3610 c0 -5 5 -10 10 -10 6 0 10 5 10 10 0 6 -4 10 -10 10 -5 0
-10 -4 -10 -10z"/>
<path d="M5230 3611 c0 -6 5 -13 10 -16 6 -3 10 1 10 9 0 9 -4 16 -10 16 -5 0
-10 -4 -10 -9z"/>
<path d="M5301 3604 c0 -11 3 -14 6 -6 3 7 2 16 -1 19 -3 4 -6 -2 -5 -13z"/>
<path d="M5360 3604 c0 -8 5 -12 10 -9 6 3 10 10 10 16 0 5 -4 9 -10 9 -5 0
-10 -7 -10 -16z"/>
<path d="M5420 3610 c0 -5 5 -10 10 -10 6 0 10 5 10 10 0 6 -4 10 -10 10 -5 0
-10 -4 -10 -10z"/>
<path d="M5551 3604 c0 -11 3 -14 6 -6 3 7 2 16 -1 19 -3 4 -6 -2 -5 -13z"/>
<path d="M5611 3604 c0 -11 3 -14 6 -6 3 7 2 16 -1 19 -3 4 -6 -2 -5 -13z"/>
<path d="M5670 3604 c0 -8 5 -12 10 -9 6 3 10 10 10 16 0 5 -4 9 -10 9 -5 0
-10 -7 -10 -16z"/>
<path d="M5730 3611 c0 -6 5 -13 10 -16 6 -3 10 1 10 9 0 9 -4 16 -10 16 -5 0
-10 -4 -10 -9z"/>
<path d="M5861 3604 c0 -11 3 -14 6 -6 3 7 2 16 -1 19 -3 4 -6 -2 -5 -13z"/>
<path d="M5921 3604 c0 -11 3 -14 6 -6 3 7 2 16 -1 19 -3 4 -6 -2 -5 -13z"/>
<path d="M5980 3604 c0 -8 5 -12 10 -9 6 3 10 10 10 16 0 5 -4 9 -10 9 -5 0
-10 -7 -10 -16z"/>
<path d="M6040 3611 c0 -6 5 -13 10 -16 6 -3 10 1 10 9 0 9 -4 16 -10 16 -5 0
-10 -4 -10 -9z"/>
<path d="M6171 3604 c0 -11 3 -14 6 -6 3 7 2 16 -1 19 -3 4 -6 -2 -5 -13z"/>
<path d="M6290 3610 c0 -5 5 -10 10 -10 6 0 10 5 10 10 0 6 -4 10 -10 10 -5 0
-10 -4 -10 -10z"/>
<path d="M6361 3604 c0 -11 3 -14 6 -6 3 7 2 16 -1 19 -3 4 -6 -2 -5 -13z"/>
<path d="M7171 3584 c0 -11 3 -14 6 -6 3 7 2 16 -1 19 -3 4 -6 -2 -5 -13z"/>
<path d="M7431 3517 l-1 -28 -150 2 c-83 1 -154 -1 -157 -5 -8 -7 7 -8 175 -6
l132 1 0 -125 0 -125 -37 -4 c-37 -4 -37 -4 7 -5 l45 -2 -3 129 -3 130 33 4
33 4 -32 1 c-26 2 -32 7 -36 30 l-4 27 -2 -28z"/>
<path d="M6988 3493 c17 -2 47 -2 65 0 17 2 3 4 -33 4 -36 0 -50 -2 -32 -4z"/>
<path d="M435 3461 c-72 -33 -135 -120 -135 -186 0 -23 4 -25 45 -25 39 0 45
3 45 20 0 86 111 150 199 114 70 -28 101 -90 87 -169 -8 -43 -63 -101 -105
-110 -29 -6 -31 -10 -31 -52 l0 -45 33 7 c113 24 197 125 197 237 0 52 -27
118 -63 157 -46 48 -101 71 -172 71 -37 0 -75 -7 -100 -19z"/>
<path d="M3141 3352 c3 -19 -2 -33 -10 -27 -5 3 -13 1 -16 -5 -4 -6 -1 -9 7
-8 7 2 12 -3 10 -10 -1 -8 2 -11 7 -8 5 3 15 -1 22 -10 11 -13 10 -15 -3 -12
-9 1 -16 -1 -15 -7 1 -5 7 -9 13 -7 6 1 17 -5 24 -13 10 -12 10 -15 -1 -16
-13 0 24 -19 46 -23 6 -1 16 -5 22 -9 9 -6 11 -3 6 10 -4 13 3 10 24 -10 25
-23 31 -25 36 -13 7 18 -8 30 -25 21 -7 -4 -4 0 6 9 10 8 23 13 29 9 6 -3 7
-1 3 6 -4 6 -12 9 -17 6 -20 -13 -48 -13 -60 1 -6 8 -8 14 -4 14 4 0 2 7 -5
15 -7 8 -17 12 -22 9 -5 -3 -2 -14 8 -25 14 -16 15 -22 4 -32 -7 -7 -10 -7 -7
-1 4 6 -2 19 -13 29 -14 13 -17 22 -10 35 7 13 4 22 -9 34 -13 11 -21 14 -26
7 -6 -11 -5 -12 15 -15 11 -1 14 -10 8 -27 -2 -6 -14 1 -26 14 -21 22 -22 26
-8 40 13 13 14 16 1 21 -8 3 -14 2 -14 -2z m74 -122 c3 -5 1 -10 -4 -10 -6 0
-11 5 -11 10 0 6 2 10 4 10 3 0 8 -4 11 -10z"/>
<path d="M3180 3346 c0 -2 8 -10 18 -17 15 -13 16 -12 3 4 -13 16 -21 21 -21
13z"/>
<path d="M3227 3333 c-7 -16 -1 -38 11 -38 6 0 11 -3 10 -6 -2 -4 5 -16 16
-28 20 -23 44 -18 25 5 -9 11 -9 14 0 14 7 0 9 5 5 12 -4 7 -3 8 5 4 6 -4 9
-11 6 -16 -3 -4 2 -13 10 -20 8 -7 15 -9 15 -5 0 5 10 0 23 -11 14 -12 13 -8
-5 12 -37 40 -36 55 1 20 16 -15 33 -28 38 -27 4 1 8 -5 8 -11 0 -23 38 -47
57 -37 17 9 23 5 18 -16 -1 -5 2 -6 6 -2 14 13 13 36 -2 48 -8 6 -14 8 -14 4
0 -5 -9 0 -21 11 -12 10 -33 19 -48 20 -17 0 -25 5 -23 15 2 8 0 11 -4 6 -4
-4 -16 0 -26 10 -10 9 -18 13 -18 9 0 -4 -10 -1 -22 6 -13 7 -26 12 -30 13 -3
0 -10 3 -14 8 -4 4 -11 7 -15 7 -4 0 -10 -3 -12 -7z m42 -19 c14 9 21 -7 11
-24 -5 -9 -4 -20 3 -30 11 -13 10 -13 -5 -1 -10 7 -16 17 -13 21 6 9 -19 32
-27 25 -2 -3 -5 2 -5 10 0 11 4 12 13 4 7 -6 18 -8 23 -5z m166 -94 c3 -18 2
-21 -7 -12 -6 6 -12 21 -13 32 -1 12 2 17 7 12 5 -5 11 -19 13 -32z m39 2 c3
-5 -1 -9 -9 -9 -8 0 -12 4 -9 9 3 4 7 8 9 8 2 0 6 -4 9 -8z"/>
<path d="M2976 3315 c-11 -8 -14 -15 -7 -15 7 0 9 -5 5 -12 -4 -7 2 -5 14 6
12 10 19 23 16 27 -6 11 -5 11 -28 -6z"/>
<path d="M3030 3315 c-7 -8 -11 -15 -9 -16 37 -7 40 -7 30 5 -6 7 -8 16 -4 19
3 4 4 7 1 7 -3 0 -11 -7 -18 -15z"/>
<path d="M3086 3302 c-3 -5 1 -9 9 -9 8 0 12 4 9 9 -3 4 -7 8 -9 8 -2 0 -6 -4
-9 -8z"/>
<path d="M4391 3291 c-5 -9 -7 -24 -5 -34 1 -11 -1 -16 -4 -12 -4 4 -7 12 -7
18 0 7 -7 12 -15 13 -8 0 -22 4 -32 8 -9 4 -30 0 -50 -10 -18 -10 -36 -17 -40
-16 -5 1 -8 -3 -8 -9 0 -5 -4 -8 -9 -4 -6 3 -9 -4 -8 -15 1 -23 8 -25 24 -9 8
8 13 7 18 -2 5 -7 4 -10 -1 -6 -5 3 -17 0 -27 -7 -16 -12 -15 -14 5 -32 12
-10 18 -14 15 -7 -4 6 -2 15 4 19 7 4 9 3 6 -2 -3 -6 3 -15 13 -22 14 -9 21
-9 26 0 4 6 3 8 -3 5 -5 -3 -10 1 -10 9 0 11 6 9 23 -7 21 -19 24 -20 46 -5
14 9 27 14 29 11 3 -2 5 5 6 16 1 12 -2 17 -10 13 -7 -4 -9 -3 -4 1 4 5 -1 18
-10 29 -18 21 -18 21 3 3 11 -9 24 -14 27 -10 4 3 7 -6 7 -20 0 -15 3 -27 8
-28 53 -3 104 -14 132 -27 111 -53 141 -332 69 -647 -17 -71 -27 -89 -44 -75
-8 7 -19 9 -24 6 -5 -4 -13 -1 -16 5 -4 5 -13 8 -20 5 -7 -2 -16 -2 -19 2 -4
3 -12 7 -19 8 -7 1 -42 9 -79 16 -44 9 -65 11 -61 4 5 -7 2 -7 -8 0 -8 6 -21
12 -29 12 -8 0 -26 3 -39 6 -13 3 -29 2 -35 -2 -18 -11 -36 -11 -33 0 1 6 -4
13 -12 16 -9 3 -11 0 -6 -9 5 -8 5 -11 0 -7 -4 4 -13 3 -20 -2 -8 -7 -12 -5
-12 5 0 8 5 11 10 8 5 -3 7 0 5 8 -3 8 -11 13 -17 11 -7 -1 -10 2 -7 7 4 5 -1
17 -10 25 -8 9 -12 16 -8 16 4 0 -5 13 -20 29 -15 16 -28 33 -27 38 1 4 -3 8
-9 8 -5 0 -10 5 -11 10 -1 16 -31 45 -40 39 -5 -3 -6 -11 -3 -17 5 -8 3 -8 -7
1 -19 18 -28 15 -24 -8 2 -11 -1 -20 -6 -20 -6 0 -8 -4 -4 -10 3 -5 12 -7 20
-4 8 4 13 9 11 13 -3 4 4 12 14 19 16 10 18 9 17 -8 -1 -10 -4 -18 -8 -17 -6
2 -9 -4 -9 -18 0 -3 8 -1 19 4 14 8 23 5 40 -13 12 -12 18 -26 14 -29 -10 -11
-23 -8 -21 4 4 14 -39 22 -47 9 -3 -5 0 -8 7 -7 7 2 10 2 6 0 -4 -3 -10 -3
-12 -1 -3 2 -12 -6 -20 -17 -9 -11 -16 -15 -16 -9 0 6 7 17 15 24 18 15 20 35
3 24 -7 -4 -8 -3 -4 4 4 7 3 12 -3 12 -5 0 -12 -6 -14 -12 -4 -10 -6 -9 -6 1
-1 11 -4 11 -16 1 -11 -9 -19 -10 -26 -3 -8 8 -6 11 7 10 23 -2 25 22 6 45
-19 22 -35 13 -22 -12 7 -12 7 -21 0 -25 -18 -11 13 -45 37 -40 13 2 21 0 18
-6 -4 -5 -11 -7 -16 -4 -16 11 -10 -11 9 -28 10 -9 28 -15 40 -12 13 2 20 0
17 -5 -5 -8 12 -25 28 -25 4 0 6 -3 5 -7 -2 -3 8 -18 21 -32 23 -24 41 -26 41
-5 0 6 -5 7 -12 3 -6 -4 -8 -3 -5 3 4 6 -5 20 -18 33 -19 18 -22 26 -14 37 6
7 8 13 4 13 -4 0 -2 7 5 15 7 8 17 12 22 9 6 -4 5 -10 -3 -15 -9 -5 -10 -9 -3
-9 7 0 14 -6 17 -13 3 -8 -1 -14 -9 -14 -7 0 -11 4 -8 9 3 4 1 8 -5 8 -19 0
-20 -18 -2 -34 10 -10 21 -14 23 -9 3 4 4 3 2 -3 -4 -16 40 -56 51 -47 4 5 5
3 2 -3 -4 -6 2 -19 13 -29 21 -19 29 -8 9 12 -7 7 -7 13 -1 17 6 3 14 1 18 -6
12 -19 12 -47 0 -45 -6 1 -10 -3 -9 -9 1 -7 -5 -11 -14 -10 -9 0 -18 -5 -21
-13 -3 -8 0 -11 7 -7 6 4 11 2 11 -5 0 -8 5 -7 17 2 9 8 14 9 10 3 -4 -7 0
-17 8 -24 11 -9 12 -17 5 -31 -8 -13 -6 -20 5 -26 13 -8 12 -13 -9 -32 -18
-17 -24 -19 -22 -7 1 8 5 19 9 22 11 11 8 21 -5 22 -25 2 -47 8 -54 15 -4 3 5
4 19 2 25 -5 56 19 43 32 -11 11 -39 13 -51 3 -15 -12 -51 -5 -47 10 1 6 -2 9
-8 5 -11 -7 -6 -19 18 -48 15 -16 14 -17 -4 -12 -13 4 -11 2 5 -8 14 -8 41
-46 61 -83 20 -38 47 -86 58 -107 12 -21 22 -44 22 -51 0 -7 6 -19 14 -25 8
-7 24 -32 35 -57 12 -25 25 -43 29 -40 4 2 6 -20 6 -49 -1 -42 -8 -62 -33 -99
-18 -25 -29 -51 -25 -58 4 -6 3 -8 -3 -5 -5 3 -26 -24 -47 -61 -21 -37 -53
-93 -71 -125 -19 -32 -29 -55 -23 -51 7 4 8 3 4 -5 -4 -6 -3 -18 3 -25 8 -9 7
-13 -4 -13 -7 0 -13 5 -12 10 1 5 -6 11 -15 12 -19 3 -24 -10 -8 -20 6 -4 8
-11 5 -16 -4 -5 -3 -15 2 -21 13 -23 13 -40 -1 -29 -7 6 -17 7 -22 3 -4 -4 -3
1 4 10 11 14 10 16 -8 11 -11 -3 -27 -14 -34 -25 -10 -14 -15 -16 -19 -6 -4
10 -6 10 -6 1 -1 -8 -15 -13 -37 -13 -30 0 -35 -3 -30 -17 6 -16 6 -16 -12 0
-14 13 -37 17 -100 17 -44 0 -84 -5 -87 -10 -4 -7 -13 -6 -27 1 -11 6 -18 7
-15 2 4 -5 0 -10 -8 -10 -8 0 -12 4 -9 9 3 4 1 8 -5 8 -5 0 -13 -5 -16 -10 -4
-6 -12 -7 -18 -3 -16 10 -76 13 -82 3 -2 -4 7 -6 20 -4 14 1 27 -1 29 -5 3 -4
-9 -7 -27 -6 -18 1 -31 7 -30 14 3 12 -53 9 -65 -4 -4 -5 -2 -5 4 -2 6 3 11 1
12 -6 0 -7 3 -23 6 -36 4 -19 3 -22 -7 -12 -6 6 -12 19 -12 28 0 9 -6 18 -13
20 -7 3 -10 -1 -7 -10 3 -7 -1 -20 -10 -27 -9 -7 -15 -9 -14 -4 3 20 -2 34
-12 34 -6 0 -8 -7 -5 -16 3 -9 2 -12 -4 -9 -6 4 -9 14 -8 23 2 11 -3 16 -12
14 -8 -2 -12 0 -8 4 4 4 3 13 -4 21 -6 7 -8 16 -5 19 3 3 10 -4 16 -15 6 -11
17 -18 25 -15 8 3 17 0 21 -5 3 -6 11 -9 16 -5 15 9 0 24 -25 24 -21 0 -70 39
-50 41 5 0 -2 5 -16 11 -14 6 -29 10 -33 9 -5 -1 -6 3 -2 9 5 8 11 7 21 -1 13
-11 13 -9 3 14 -7 15 -17 24 -22 20 -6 -4 -8 0 -4 9 3 9 -3 25 -14 37 -11 12
-17 21 -14 21 7 0 -23 57 -43 82 -8 9 -20 14 -27 12 -7 -3 -18 4 -25 15 -10
20 -6 26 15 21 5 -1 2 7 -8 18 -20 22 -23 36 -4 26 6 -4 3 2 -7 14 -20 23 -32
30 -21 12 3 -5 2 -10 -4 -10 -5 0 -12 4 -15 9 -4 5 -17 8 -31 6 -18 -2 -34 7
-55 32 -17 19 -28 38 -25 43 3 5 1 11 -5 15 -5 3 -11 1 -11 -4 -1 -6 -2 -17
-3 -23 -1 -7 2 -19 7 -25 6 -9 6 -13 -1 -13 -6 0 -14 5 -17 10 -4 7 -11 7 -18
2 -15 -11 -48 -12 -41 0 3 4 -3 5 -13 1 -16 -6 -16 -5 -4 10 13 16 14 16 27 0
12 -17 13 -16 22 7 11 28 4 50 -9 29 -4 -7 -5 -17 -2 -23 3 -5 1 -6 -6 -2 -6
4 -9 11 -6 16 3 4 -2 13 -10 20 -12 10 -13 8 -10 -10 3 -16 0 -20 -10 -16 -10
3 -12 0 -8 -11 5 -12 3 -14 -8 -8 -8 4 -11 5 -7 0 4 -4 2 -15 -5 -23 -7 -10
-8 -13 -1 -9 7 4 18 -1 25 -10 12 -15 12 -16 -2 -11 -18 7 -51 -23 -63 -56 -6
-17 -4 -17 11 -5 10 7 25 22 34 32 15 18 16 18 30 1 9 -11 9 -15 2 -10 -7 4
-13 2 -13 -3 0 -6 -3 -10 -7 -9 -8 3 -13 -5 -13 -23 0 -6 7 -3 16 6 15 15 18
15 35 -1 19 -17 27 -40 10 -29 -5 3 -12 1 -16 -5 -4 -6 -11 -8 -16 -4 -6 3 -3
12 8 21 17 13 16 13 -4 4 -25 -12 -56 -4 -46 12 3 6 1 7 -6 3 -6 -4 -8 -12 -5
-18 4 -6 2 -8 -3 -5 -6 4 -16 1 -22 -7 -9 -10 -8 -16 4 -26 8 -7 15 -17 15
-23 0 -5 -10 -2 -22 9 -16 13 -19 14 -10 2 13 -17 1 -35 -16 -24 -5 3 -9 0
-10 -7 -6 -75 -32 -89 -107 -58 -32 13 -62 22 -82 23 -7 1 -15 8 -18 15 -4 12
-8 12 -21 -2 -21 -21 -31 -11 -13 12 7 10 9 15 4 10 -4 -4 -17 0 -27 10 -10 9
-21 13 -25 9 -4 -3 -19 5 -34 20 -17 17 -29 22 -34 15 -4 -7 -1 -10 7 -9 7 2
13 -4 13 -12 0 -8 -5 -15 -12 -15 -6 0 -14 -3 -17 -7 -3 -5 -3 -6 1 -3 3 3 12
0 20 -7 11 -9 13 -8 11 3 -2 8 4 14 12 14 8 0 14 -5 13 -12 -2 -7 6 -10 21 -7
18 3 22 0 21 -19 -3 -31 4 -40 20 -27 23 19 39 1 19 -21 -12 -14 -20 -16 -30
-8 -9 7 -12 6 -10 -8 2 -10 -2 -22 -8 -26 -7 -6 -4 -6 8 -3 14 5 17 2 12 -9
-6 -16 3 -23 41 -28 11 -2 27 -8 35 -14 13 -11 50 -25 78 -29 8 -2 20 -11 27
-20 7 -10 13 -14 13 -10 0 5 6 4 13 -2 14 -12 34 -11 57 3 13 8 13 7 1 -8 -7
-9 -17 -15 -21 -12 -5 3 -12 0 -15 -6 -4 -5 -13 -8 -21 -5 -22 8 -17 -12 6
-24 15 -8 20 -8 18 2 -2 6 11 15 27 18 18 4 29 11 27 20 -3 11 0 11 13 0 13
-11 19 -10 35 5 19 17 19 17 15 -3 -3 -16 3 -22 27 -27 21 -5 33 -3 39 6 7 11
9 10 9 -3 0 -23 8 -23 32 -1 11 10 32 18 48 18 28 1 28 0 13 -17 -17 -19 -28
-24 -19 -9 10 15 -22 21 -34 6 -9 -11 -4 -16 27 -23 21 -6 45 -11 53 -11 8 -1
28 -2 45 -4 17 -1 30 3 30 10 0 6 3 15 7 19 4 3 6 -3 3 -14 -4 -24 4 -27 81
-37 41 -5 54 -12 64 -31 8 -13 17 -24 22 -24 4 0 8 -6 8 -14 0 -7 11 -25 25
-40 14 -15 25 -31 25 -37 0 -15 12 -11 38 14 l25 22 -23 -32 -23 -32 27 -33
c15 -18 50 -61 77 -96 l51 -62 -33 -39 c-19 -22 -38 -40 -43 -40 -5 -1 -23
-12 -40 -24 -17 -13 -77 -51 -133 -84 -56 -33 -100 -63 -97 -66 3 -3 -5 -5
-18 -5 -13 0 -54 -10 -93 -21 -81 -24 -152 -27 -199 -7 -38 16 -81 67 -92 109
-3 16 -10 24 -13 18 -4 -6 -7 6 -8 27 0 20 -2 80 -5 132 -3 53 -1 129 4 170 6
53 6 76 -3 84 -9 8 -10 7 -4 -3 6 -10 4 -12 -4 -6 -9 5 -10 10 -2 18 14 14 14
30 1 22 -16 -10 -11 1 7 16 11 10 14 10 9 2 -4 -7 -3 -13 3 -13 6 0 13 10 15
23 3 12 7 34 10 50 3 15 9 39 12 55 5 21 4 24 -5 16 -7 -6 -14 -20 -15 -30 -2
-10 -9 -20 -16 -22 -9 -3 -11 2 -7 18 l6 22 -25 -23 c-18 -17 -21 -25 -12 -31
10 -6 10 -8 0 -8 -10 0 -10 -5 -2 -21 7 -11 8 -28 4 -37 -4 -9 -6 -20 -6 -24
1 -5 -2 -8 -8 -8 -5 0 -10 9 -10 20 0 11 5 20 11 20 8 0 8 5 -1 15 -7 8 -9 15
-5 15 5 0 1 8 -7 18 -9 10 -15 32 -14 55 1 20 -1 37 -6 37 -4 0 -8 -4 -8 -10
0 -15 0 -17 -11 -52 -10 -36 -3 -72 12 -62 5 3 6 10 3 16 -4 7 -2 8 5 4 6 -4
9 -12 6 -17 -4 -5 -2 -9 4 -9 7 0 7 -8 2 -23 -7 -19 -30 -24 -23 -4 1 4 -2 7
-7 7 -5 0 -12 8 -15 18 -4 13 -4 13 -3 -3 1 -11 -2 -26 -7 -34 -6 -10 -5 -12
2 -7 7 4 13 2 13 -3 5 -37 2 -46 -11 -46 -10 0 -15 -10 -15 -30 0 -20 5 -29
13 -27 8 1 11 -2 8 -7 -4 -5 -2 -12 4 -16 15 -9 12 -25 -5 -25 -9 0 -15 7 -13
16 2 10 -3 19 -9 21 -10 4 -13 -20 -13 -95 0 -101 5 -136 20 -127 4 3 11 -2
14 -11 5 -12 2 -15 -10 -10 -12 5 -15 0 -12 -27 2 -19 8 -31 16 -29 6 1 12 -7
12 -19 0 -11 -5 -17 -10 -14 -16 10 25 -92 55 -137 14 -21 36 -43 48 -48 12
-5 18 -9 12 -9 -17 -2 32 -30 76 -45 77 -25 132 -28 215 -11 146 30 318 119
478 247 87 70 87 70 109 52 12 -11 25 -23 29 -29 4 -5 8 -8 8 -5 0 3 30 -23
67 -58 75 -71 99 -87 108 -72 3 5 11 10 17 10 6 0 6 -6 -2 -15 -7 -9 -11 -17
-9 -18 2 -2 22 -15 44 -30 39 -25 85 -29 85 -5 0 5 5 6 10 3 6 -3 10 -11 10
-16 0 -6 -4 -8 -8 -5 -4 2 -14 0 -22 -5 -13 -8 -13 -10 0 -19 8 -6 23 -8 33
-6 9 2 15 0 12 -5 -12 -19 125 -70 228 -84 89 -12 188 25 248 91 40 45 65 92
95 179 23 70 28 100 32 235 4 141 1 191 -25 363 -5 31 -3 37 12 37 33 0 218
68 315 115 139 69 248 152 305 235 36 53 65 149 60 203 -12 155 -179 320 -449
447 -56 26 -126 56 -156 66 -30 10 -56 19 -58 20 -2 1 6 37 17 80 54 211 62
435 20 585 -33 120 -78 183 -158 223 -57 29 -125 41 -118 22 4 -10 -1 -12 -14
-9 -10 3 -17 8 -15 12 2 3 -9 7 -25 7 -18 1 -33 -5 -38 -15z m-39 -76 c-2 -4
2 -12 10 -17 10 -7 10 -10 -4 -19 -22 -12 -33 -12 -34 1 -1 6 -2 15 -3 20 0 6
-12 8 -25 6 -22 -4 -25 1 -17 32 1 1 11 -2 23 -9 18 -10 20 -9 14 6 -6 16 -5
16 16 3 13 -9 21 -19 20 -23z m-307 -637 c-4 -33 -4 -34 -15 -18 -5 9 -5 19 2
27 14 18 16 17 13 -9z m215 -94 c0 -8 -19 -13 -24 -6 -3 5 1 9 9 9 8 0 15 -2
15 -3z m141 -41 c9 -9 8 -11 -2 -10 -8 2 -20 6 -27 11 -7 4 -19 3 -27 -4 -12
-10 -31 1 -19 12 9 9 63 3 75 -9z m-135 -15 c19 -23 19 -23 -2 -5 -11 9 -24
14 -29 10 -4 -5 -5 -2 -1 5 9 16 10 16 32 -10z m31 7 c0 -8 -4 -12 -9 -9 -5 3
-6 10 -3 15 9 13 12 11 12 -6z m-41 -39 c1 -7 -4 -13 -11 -13 -7 0 -11 7 -10
16 2 9 4 18 4 20 2 8 15 -10 17 -23z m91 5 c0 -36 4 -43 17 -38 8 3 23 -4 35
-17 19 -21 43 -28 103 -30 14 -1 24 -4 21 -8 -2 -5 3 -8 11 -8 17 0 21 -11 8
-25 -5 -6 -28 -59 -52 -120 -24 -60 -49 -118 -56 -128 -11 -17 -12 -16 -18 8
-5 20 -11 25 -24 20 -13 -5 -14 -4 -5 6 9 9 1 32 -36 103 -85 159 -96 176
-108 171 -7 -2 -15 0 -18 6 -4 5 -1 8 7 7 7 -2 12 3 10 10 -2 10 2 10 17 2 14
-7 22 -7 26 0 5 8 11 8 20 0 18 -15 62 -22 69 -11 3 4 -6 7 -19 5 -14 -1 -28
3 -32 8 -3 7 -1 8 5 4 13 -8 17 6 5 18 -12 12 -11 33 2 33 7 0 12 -7 12 -16z
m59 -4 c1 -8 -9 -13 -22 -13 -22 0 -22 1 -7 18 17 19 26 17 29 -5z m69 2 c4
-5 12 -6 18 -3 8 5 8 3 0 -7 -7 -7 -13 -17 -13 -22 0 -4 6 -5 13 -1 6 4 8 3 4
-1 -14 -15 -39 -15 -33 1 5 12 -4 18 -25 16 -3 -1 -6 5 -6 12 0 14 34 19 42 5z
m-169 -11 c3 -4 -1 -5 -10 -4 -8 1 -18 5 -22 8 -3 4 1 5 10 4 8 -1 18 -5 22
-8z m138 -36 c3 -5 -1 -9 -9 -9 -8 0 -12 4 -9 9 3 4 7 8 9 8 2 0 6 -4 9 -8z
m-267 -28 c-3 -3 -12 -4 -19 -1 -8 3 -5 6 6 6 11 1 17 -2 13 -5z m77 -60 c3
-8 2 -12 -4 -9 -6 3 -10 10 -10 16 0 14 7 11 14 -7z m508 -38 c168 -64 346
-171 414 -249 55 -64 84 -133 71 -176 -25 -94 -113 -174 -284 -260 -72 -37
-274 -111 -301 -111 -6 0 -20 33 -32 73 -12 39 -46 135 -75 211 -53 136 -54
140 -38 170 34 66 34 67 22 82 -10 12 -9 13 4 8 18 -6 56 69 104 204 15 41 31
72 39 72 7 0 42 -11 76 -24z m-1608 -501 c32 0 79 -44 66 -60 -6 -8 -5 -18 4
-30 8 -11 12 -25 9 -31 -2 -7 1 -15 7 -19 8 -5 8 -11 -1 -21 -16 -19 4 -42 23
-27 7 5 19 8 26 7 6 -1 17 -2 24 -3 6 0 8 -4 5 -8 -4 -3 -1 -13 6 -22 11 -14
10 -14 -5 -2 -10 7 -18 9 -18 3 0 -12 25 -34 32 -27 2 3 5 -2 5 -10 0 -13 -2
-13 -17 0 -18 16 -35 20 -26 7 2 -4 -5 -8 -17 -9 -12 0 -26 -2 -32 -4 -6 -2
-10 -1 -10 2 0 3 -5 13 -12 21 -7 8 -10 26 -7 41 2 15 0 27 -6 27 -5 0 -10 -3
-11 -7 0 -5 -2 -16 -4 -26 -2 -11 5 -33 16 -50 10 -18 23 -42 29 -55 5 -13 15
-20 20 -17 6 4 9 1 8 -7 -2 -7 3 -12 10 -10 8 1 11 -2 7 -8 -4 -7 -11 -7 -18
-2 -7 5 -19 9 -27 10 -8 0 -29 3 -47 7 -24 5 -31 4 -30 -6 3 -19 14 -26 24
-15 5 5 2 6 -6 1 -10 -5 -12 -4 -7 4 4 6 12 9 17 5 14 -9 -7 -39 -28 -39 -10
0 -17 -6 -15 -13 1 -8 -2 -11 -8 -7 -6 3 -7 12 -4 18 5 8 3 8 -7 0 -7 -7 -17
-13 -22 -13 -4 0 -5 6 -1 13 6 9 5 9 -8 0 -8 -7 -18 -10 -21 -6 -4 3 -12 1
-19 -4 -7 -6 -22 -7 -32 -3 -19 6 -19 7 1 12 14 4 21 13 20 26 -1 15 -5 18
-13 12 -19 -17 -24 1 -7 27 9 13 12 23 7 22 -5 -1 -22 1 -37 6 -17 4 -33 3
-38 -2 -7 -7 -2 -9 15 -8 15 2 24 -1 20 -6 -3 -5 -9 -7 -14 -4 -4 3 -10 -1
-13 -9 -7 -17 15 -15 37 3 11 9 16 10 16 2 0 -6 -6 -14 -14 -17 -21 -8 -8 -33
15 -29 10 2 19 0 19 -4 0 -4 -16 -8 -35 -8 -26 0 -32 3 -24 13 7 8 7 14 -1 19
-5 3 -10 2 -10 -4 0 -8 -8 -8 -39 -2 -2 1 1 7 7 14 6 7 9 22 8 32 -2 11 1 26
7 33 5 7 7 15 4 18 -3 3 6 26 19 50 14 24 22 44 18 44 -4 0 -1 7 6 15 11 13
11 18 0 28 -10 9 -11 9 -6 0 11 -20 -3 -36 -19 -23 -9 8 -14 6 -19 -6 -4 -12
-2 -15 9 -11 8 4 17 1 21 -5 4 -7 3 -8 -4 -4 -8 4 -10 2 -6 -8 3 -8 -3 -19
-15 -25 -11 -6 -18 -17 -15 -25 3 -7 -6 -23 -20 -34 -30 -23 -33 -34 -8 -26
15 5 15 4 -1 -6 -15 -10 -16 -14 -5 -27 25 -31 12 -67 -16 -44 -7 6 -17 7 -21
3 -5 -4 -5 -2 -2 4 5 8 -5 11 -32 10 -29 -2 -38 2 -37 13 1 10 -7 16 -21 15
-13 -1 -20 2 -18 6 4 7 40 6 40 0 0 -1 17 -4 37 -5 31 -2 36 0 33 16 -3 13 0
17 8 13 7 -4 8 -3 4 2 -5 5 -14 9 -20 9 -7 0 -12 5 -12 12 0 6 -4 15 -9 20 -5
4 -6 3 -2 -4 3 -6 2 -14 -3 -18 -11 -6 -7 28 6 48 4 6 8 18 10 26 1 8 10 19
20 25 18 11 24 13 45 15 6 0 1 13 -13 28 -13 14 -19 24 -14 20 6 -3 17 -2 25
3 9 6 24 2 42 -12 19 -13 28 -15 26 -6 -2 8 4 12 15 10 9 -2 17 1 17 7 0 5 3
17 7 27 5 13 3 15 -7 9 -9 -5 -11 -4 -6 4 4 6 11 9 16 6 21 -13 20 19 0 39
-18 17 -22 18 -17 4 9 -26 -8 -30 -28 -8 -10 11 -14 20 -10 20 4 0 0 10 -11
21 -19 22 -19 22 4 10 12 -6 22 -8 22 -4 0 4 5 2 12 -5 9 -9 14 -8 23 4 9 13
13 12 30 -8 11 -12 13 -17 5 -11 -10 8 -21 9 -30 3 -17 -11 -15 -12 20 -14 14
-1 31 -5 39 -10 8 -6 7 1 -4 18 -10 14 -14 26 -10 26 4 0 1 8 -6 18 -7 9 4 1
24 -18 21 -19 48 -34 61 -35z m-204 1 c0 -2 -8 -10 -17 -17 -16 -13 -17 -12
-4 4 13 16 21 21 21 13z m1435 -45 c3 -5 2 -12 -3 -15 -5 -3 -9 1 -9 9 0 17 3
19 12 6z m78 -106 c16 -44 34 -99 41 -123 6 -24 15 -40 19 -36 4 4 7 4 7 1 0
-16 -67 -40 -109 -38 -12 1 -28 -2 -33 -5 -6 -4 -49 -9 -95 -11 -69 -4 -84 -2
-77 8 4 8 28 42 51 77 24 35 40 68 37 75 -4 7 -3 9 1 4 8 -7 59 67 94 136 13
25 16 26 25 10 6 -10 23 -54 39 -98z m-1187 33 c5 -7 3 -8 -6 -3 -8 5 -11 3
-8 -6 3 -8 11 -13 17 -11 7 1 10 -2 7 -7 -4 -5 0 -11 6 -14 7 -3 3 -4 -9 -4
-12 1 -20 3 -18 6 3 2 0 10 -6 17 -6 7 -8 18 -4 24 8 13 12 13 21 -2z m1945
-41 c-8 -8 -11 -3 -11 19 1 25 2 27 11 11 8 -14 8 -22 0 -30z m-961 7 c0 -8
-19 -13 -24 -6 -3 5 1 9 9 9 8 0 15 -2 15 -3z m930 -29 c-7 -9 -15 -13 -17
-11 -7 7 7 26 19 26 6 0 6 -6 -2 -15z m-2525 -22 c31 -7 51 -12 59 -12 5 -1 3
-8 -4 -16 -14 -17 0 -21 16 -5 8 8 14 7 23 -3 9 -11 8 -17 -2 -25 -19 -16 -58
12 -50 36 4 13 2 13 -10 -3 -8 -11 -13 -24 -10 -29 4 -5 1 -6 -6 -2 -6 4 -18
2 -26 -4 -8 -7 -15 -9 -15 -5 0 5 -10 0 -22 -11 l-23 -19 20 24 c17 21 18 23
3 18 -10 -3 -20 -1 -24 6 -4 7 -3 9 1 4 5 -4 19 3 32 15 19 17 21 24 10 37
-10 12 -9 13 3 6 8 -5 20 -11 25 -12z m1590 8 c3 -5 2 -12 -3 -15 -5 -3 -9 1
-9 9 0 17 3 19 12 6z m-49 -58 c-10 -11 -19 -7 -22 10 -2 15 0 16 12 6 8 -6
12 -14 10 -16z m349 18 c-9 -8 -36 -10 -30 -2 2 4 11 8 20 8 8 0 13 -3 10 -6z
m-1879 -67 c2 -11 -1 -12 -10 -5 -7 6 -17 7 -22 3 -4 -4 -2 1 5 11 15 19 24
16 27 -9z m662 17 c2 -1 0 -6 -3 -11 -5 -8 -11 -7 -20 0 -8 7 -20 8 -26 4 -8
-4 -9 -3 -5 4 6 10 22 10 54 3z m-631 -8 c-9 -8 23 -44 34 -38 4 3 10 1 13 -4
7 -10 -6 -9 -41 2 -13 5 -20 14 -18 25 5 23 4 22 12 22 3 0 3 -3 0 -7z m636
-50 c10 -2 16 1 13 6 -4 5 2 8 11 7 12 -2 18 -13 19 -32 1 -26 -2 -30 -26 -29
-23 0 -27 4 -25 23 2 19 0 20 -14 10 -9 -7 -13 -8 -9 -4 4 5 2 16 -5 24 -10
13 -9 14 3 7 8 -5 23 -11 33 -12z m762 -61 c-2 -3 0 -12 5 -21 5 -10 5 -23 -1
-32 -5 -7 -9 -9 -9 -3 0 10 -14 11 -55 5 -5 -1 -3 -6 5 -11 12 -7 12 -12 2
-22 -12 -12 -12 -12 -16 35 -1 6 5 11 13 9 12 -3 12 -1 0 14 -11 15 -11 16 0
10 9 -6 12 -5 9 5 -3 8 -11 13 -17 11 -7 -1 -4 8 6 22 l18 24 22 -21 c13 -11
21 -22 18 -25z m-836 35 c-2 -1 -14 -10 -26 -20 -16 -14 -23 -15 -29 -6 -4 7
-3 10 3 6 6 -4 16 0 23 8 7 8 17 15 23 15 6 0 8 -1 6 -3z m885 -38 c-3 -5 0
-18 8 -27 12 -15 11 -16 -4 -4 -16 13 -22 56 -6 46 5 -3 6 -10 2 -15z m-229
-11 c-1 -21 -12 -33 -28 -33 -7 0 -10 -9 -9 -20 3 -17 2 -17 -14 -4 -16 13
-17 12 -11 -6 7 -19 6 -19 -7 -2 -16 21 -14 53 4 49 6 -1 14 6 17 16 6 24 50
25 48 0z m-743 -23 c3 0 9 -3 13 -7 6 -6 -21 -4 -35 3 -6 2 -21 6 -33 8 -5 0
-5 6 -2 11 4 7 14 6 28 -2 12 -7 25 -12 29 -13z m168 9 c0 -8 -19 -13 -24 -6
-3 5 1 9 9 9 8 0 15 -2 15 -3z m277 -11 c0 -8 -4 -9 -12 -3 -7 6 -19 4 -32 -5
-19 -13 -21 -13 -18 3 2 9 4 17 4 17 45 1 58 -1 58 -12z m50 2 c0 -8 -4 -12
-9 -9 -5 3 -6 10 -3 15 9 13 12 11 12 -6z m53 10 c0 -2 -6 -8 -13 -14 -10 -8
-14 -7 -14 2 0 8 6 14 14 14 7 0 13 -1 13 -2z m664 -3 c2 -4 -5 -9 -17 -9 -17
-2 -19 0 -7 7 18 12 18 12 24 2z m-404 -22 c0 -5 -8 -10 -17 -10 -15 0 -16 2
-3 10 19 12 20 12 20 0z m-485 -20 c5 -8 11 -7 21 1 23 19 16 4 -8 -17 -12
-10 -18 -14 -15 -7 4 6 0 16 -10 22 -10 6 -13 11 -6 11 6 0 15 -5 18 -10z
m589 1 c3 -5 -1 -11 -9 -14 -9 -4 -12 -1 -8 9 6 16 10 17 17 5z m474 -78 c21
-168 23 -219 12 -324 -11 -111 -34 -189 -74 -249 -71 -108 -225 -89 -442 55
-80 53 -244 198 -244 215 0 5 6 15 13 22 53 53 106 121 102 129 -4 5 1 9 11 9
12 0 14 3 5 13 -8 11 -6 13 10 13 12 -1 28 9 36 22 9 12 11 22 5 22 -6 0 -14
-9 -17 -21 -4 -11 -9 -18 -12 -15 -3 3 2 17 11 30 11 17 22 23 34 19 9 -3 14
-3 10 2 -4 4 6 18 23 32 16 14 29 31 29 38 0 14 28 29 49 26 8 -1 10 2 5 10
-5 8 -3 10 6 4 13 -8 103 -8 153 0 12 2 45 6 72 10 90 12 120 17 124 21 2 2
19 4 36 4 l32 0 11 -87z m-983 68 c3 -5 2 -12 -3 -15 -5 -3 -9 1 -9 9 0 17 3
19 12 6z m40 -11 c-3 -15 2 -20 16 -20 11 0 18 4 14 9 -3 5 -1 13 5 16 6 4 9
1 8 -6 -2 -7 12 -14 36 -16 30 -4 36 -2 31 9 -6 10 -5 11 6 1 17 -17 171 -17
187 -1 7 7 23 13 37 14 20 1 23 -2 14 -13 -10 -11 -15 -11 -27 -1 -13 11 -14
10 -3 -10 7 -12 16 -20 22 -17 5 4 9 2 9 -4 0 -5 -9 -9 -19 -8 -11 0 -17 5
-15 9 3 4 0 8 -5 8 -15 0 -51 -37 -51 -52 0 -9 3 -8 10 2 6 10 9 5 8 -20 -1
-19 4 -36 10 -38 22 -7 12 -17 -21 -19 -17 -1 -27 1 -22 5 9 6 11 28 6 55 0 5
-8 1 -17 -7 -8 -9 -13 -20 -9 -25 3 -5 0 -13 -6 -17 -8 -5 -9 -3 -4 6 5 8 3
11 -6 8 -8 -3 -13 -12 -13 -21 1 -9 -2 -15 -6 -12 -3 2 -24 -13 -44 -34 -26
-27 -34 -40 -24 -44 7 -3 1 -4 -14 -3 -16 0 -40 16 -63 39 -23 24 -43 36 -53
32 -12 -4 -13 -3 -2 10 10 12 10 18 0 30 -11 13 -15 13 -22 3 -6 -9 -7 -6 -3
9 3 13 1 25 -7 30 -17 10 -48 58 -48 73 0 6 8 10 18 9 32 -3 62 1 61 9 -2 11
1 22 5 22 3 0 3 -9 1 -20z m-760 -8 c-3 -3 -11 0 -18 7 -9 10 -8 11 6 5 10 -3
15 -9 12 -12z m621 -9 c-10 -11 -19 -7 -22 10 -2 15 0 16 12 6 8 -6 12 -14 10
-16z m318 19 c3 -5 -1 -9 -9 -9 -8 0 -12 4 -9 9 3 4 7 8 9 8 2 0 6 -4 9 -8z
m239 -67 c4 -8 3 -16 -1 -19 -4 -3 -9 4 -9 15 -2 23 3 25 10 4z m-1243 -85 c0
-5 -2 -10 -4 -10 -3 0 -8 5 -11 10 -3 6 -1 10 4 10 6 0 11 -4 11 -10z m1070
-31 c0 -5 -4 -9 -10 -9 -5 0 -10 7 -10 16 0 8 5 12 10 9 6 -3 10 -10 10 -16z
m770 -33 c0 -3 -4 -8 -10 -11 -5 -3 -10 -1 -10 4 0 6 5 11 10 11 6 0 10 -2 10
-4z m-1865 -54 c-6 -7 -34 11 -29 19 3 5 11 3 19 -4 7 -6 12 -13 10 -15z m2
-26 c-16 -7 -33 -19 -38 -27 -5 -8 -9 -9 -9 -4 0 17 14 33 35 38 36 9 41 6 12
-7z m18 -66 c-3 -5 -1 -10 4 -10 6 0 11 -4 11 -10 0 -5 -7 -7 -15 -4 -17 7
-21 34 -4 34 5 0 7 -4 4 -10z m865 -45 c0 -8 -2 -15 -4 -15 -2 0 -6 7 -10 15
-3 8 -1 15 4 15 6 0 10 -7 10 -15z m-880 -85 c0 -5 -4 -10 -10 -10 -5 0 -10 5
-10 10 0 6 5 10 10 10 6 0 10 -4 10 -10z m1210 -55 c0 -2 -7 -2 -15 1 -11 5
-14 1 -9 -12 5 -16 4 -16 -5 -4 -19 26 -14 42 9 30 11 -6 20 -13 20 -15z
m-1176 -27 c-9 -14 -23 -8 -18 7 4 10 0 13 -15 10 -12 -2 -21 0 -21 5 0 5 8
10 18 12 18 4 44 -21 36 -34z m39 17 c-3 -9 -8 -14 -10 -11 -3 3 -2 9 2 15 9
16 15 13 8 -4z m477 -29 c0 -3 -4 -8 -10 -11 -5 -3 -10 -1 -10 4 0 6 5 11 10
11 6 0 10 -2 10 -4z m-448 -50 c7 4 8 2 4 -5 -6 -9 -11 -9 -22 0 -7 6 -11 16
-7 23 5 7 9 5 11 -7 2 -9 8 -14 14 -11z m1178 4 c0 -5 -4 -10 -10 -10 -5 0
-10 5 -10 10 0 6 5 10 10 10 6 0 10 -4 10 -10z m-26 -42 c-3 -5 -12 -4 -20 3
-19 16 -18 18 6 12 11 -3 17 -9 14 -15z m-859 -28 c3 -5 2 -10 -4 -10 -5 0
-13 5 -16 10 -3 6 -2 10 4 10 5 0 13 -4 16 -10z m982 -6 c-3 -3 -12 -4 -19 -1
-8 3 -5 6 6 6 11 1 17 -2 13 -5z m103 -10 c0 -8 -5 -12 -10 -9 -6 4 -8 11 -5
16 9 14 15 11 15 -7z m-1037 -21 c-7 -2 -19 -2 -25 0 -7 3 -2 5 12 5 14 0 19
-2 13 -5z m932 -13 c3 -6 -1 -7 -9 -4 -18 7 -21 14 -7 14 6 0 13 -4 16 -10z
m155 -65 c0 -12 -29 -3 -34 10 -4 13 -2 14 14 5 11 -6 20 -13 20 -15z"/>
<path d="M4327 3224 c-3 -4 -2 -14 3 -24 5 -10 6 -21 2 -25 -4 -5 -2 -5 4 -2
6 3 10 15 9 26 -1 24 -9 34 -18 25z"/>
<path d="M4380 2340 c0 -5 5 -10 11 -10 5 0 7 5 4 10 -3 6 -8 10 -11 10 -2 0
-4 -4 -4 -10z"/>
<path d="M4450 2396 c0 -2 7 -7 16 -10 8 -3 12 -2 9 4 -6 10 -25 14 -25 6z"/>
<path d="M2987 1736 c-3 -8 2 -20 11 -28 15 -11 16 -11 4 4 -10 13 -10 17 0
20 8 3 9 6 1 11 -6 4 -13 0 -16 -7z"/>
<path d="M3107 1730 c9 -10 10 -17 2 -27 -15 -17 3 -62 37 -94 26 -24 54 -34
54 -18 0 6 4 7 10 4 6 -4 7 1 3 11 -5 13 -3 15 8 9 8 -5 3 4 -10 18 -14 15
-21 27 -16 27 4 0 0 9 -9 19 -10 11 -25 17 -35 14 -11 -3 -22 1 -26 8 -5 7 -4
10 3 5 6 -3 14 -1 18 6 4 7 3 10 -1 5 -5 -4 -18 1 -29 10 -12 10 -15 11 -9 3z
m43 -50 c18 11 41 -6 33 -26 -3 -8 0 -14 5 -14 6 0 10 -9 9 -20 -1 -11 -5 -20
-10 -20 -5 0 -6 8 -2 18 5 13 3 14 -6 5 -15 -15 -39 -6 -33 12 3 8 -4 20 -15
27 -12 7 -21 17 -21 22 0 4 6 4 13 -2 8 -7 18 -7 27 -2z"/>
<path d="M3164 1650 c0 -16 3 -27 6 -25 8 5 6 42 -1 50 -3 2 -5 -8 -5 -25z"/>
<path d="M3190 1695 c13 -14 26 -25 28 -25 3 0 -5 11 -18 25 -13 14 -26 25
-28 25 -3 0 5 -11 18 -25z"/>
<path d="M2923 1623 c-10 -4 -9 -8 2 -20 8 -8 12 -20 8 -26 -4 -7 -8 -18 -8
-26 0 -8 -5 -16 -11 -18 -7 -2 -11 3 -10 11 0 8 -3 15 -9 15 -5 1 -10 -6 -10
-15 0 -8 -5 -18 -10 -22 -17 -12 -15 -29 4 -46 17 -15 20 -15 42 5 17 15 19
19 7 15 -28 -8 -21 7 12 29 30 20 41 41 16 32 -14 -6 -17 33 -3 44 11 8 -15
27 -30 22z m-18 -124 c2 -26 -10 -33 -25 -14 -9 10 -9 15 -1 15 6 0 10 3 10 8
-1 4 -1 11 0 16 2 16 15 -3 16 -25z"/>
<path d="M3150 1587 c0 -6 31 -67 34 -67 1 0 3 6 3 13 0 6 2 19 4 27 2 8 0 14
-6 15 -5 0 -16 4 -22 8 -7 5 -13 6 -13 4z"/>
<path d="M3216 1568 c3 -5 10 -6 15 -3 13 9 11 12 -6 12 -8 0 -12 -4 -9 -9z"/>
<path d="M3255 1524 c-10 -8 -22 -11 -28 -7 -5 3 -7 0 -5 -8 3 -8 11 -13 18
-11 10 2 10 -1 -1 -14 -13 -16 -12 -16 7 -6 12 6 24 9 27 5 5 -4 27 37 27 51
0 8 -30 1 -45 -10z"/>
<path d="M2889 1438 c-6 -22 -5 -40 5 -53 10 -15 12 -14 13 4 1 11 -3 23 -8
26 -5 4 -7 11 -4 16 4 5 4 9 1 9 -3 0 -6 -1 -7 -2z"/>
<path d="M3064 1408 c-3 -4 -3 -12 0 -16 3 -5 -2 -22 -10 -38 l-15 -29 30 29
c17 16 28 33 24 39 -3 5 4 4 16 -3 12 -6 19 -15 17 -19 -3 -4 1 -8 8 -8 14 0
16 14 3 33 -8 14 -66 24 -73 12z m19 -13 c4 -8 3 -16 -1 -19 -4 -3 -9 4 -9 15
-2 23 3 25 10 4z"/>
<path d="M2836 1398 c3 -4 9 -8 15 -8 5 0 9 4 9 8 0 5 -7 9 -15 9 -8 0 -12 -4
-9 -9z"/>
<path d="M2643 1491 c-7 -10 -9 -22 -6 -25 7 -7 43 23 43 36 0 15 -25 8 -37
-11z"/>
<path d="M2736 1481 c-4 -5 -2 -12 3 -15 5 -4 12 -2 15 3 4 5 2 12 -3 15 -5 4
-12 2 -15 -3z"/>
<path d="M3360 1375 c-10 -12 -10 -19 -2 -27 7 -7 12 -10 13 -7 3 15 5 49 4
49 -2 0 -8 -7 -15 -15z"/>
<path d="M4062 1343 c-10 -4 -9 -10 5 -25 10 -11 17 -23 15 -26 -1 -3 5 -7 13
-8 13 -2 14 1 5 11 -7 8 -9 18 -6 23 8 13 -16 31 -32 25z"/>
<path d="M3897 1306 c-3 -8 -2 -18 3 -21 13 -8 20 9 11 24 -6 10 -10 9 -14 -3z"/>
<path d="M4365 3290 c3 -5 8 -10 11 -10 2 0 4 5 4 10 0 6 -5 10 -11 10 -5 0
-7 -4 -4 -10z"/>
<path d="M2920 3280 c-13 -9 -13 -10 0 -11 8 0 4 -5 -10 -9 -18 -6 -20 -8 -7
-9 20 -1 18 -26 -1 -26 -6 0 -16 -5 -22 -11 -7 -7 2 -10 32 -8 24 1 45 2 47 3
2 0 -4 12 -13 25 -10 15 -12 27 -6 31 9 6 14 -1 12 -16 -1 -4 7 -14 18 -24 21
-19 17 -47 -6 -38 -8 3 -22 2 -31 -2 -25 -11 -45 -12 -66 -2 -21 10 -19 -12 3
-30 11 -8 19 -8 28 0 10 8 16 7 23 -4 6 -10 9 -11 9 -1 0 7 4 11 10 7 5 -3 7
-12 4 -20 -4 -8 -11 -12 -18 -8 -6 4 -5 -1 3 -10 7 -9 15 -17 16 -17 1 0 9 8
16 17 12 14 12 16 0 8 -11 -6 -13 -4 -8 7 3 9 1 20 -5 26 -15 15 10 26 27 12
8 -7 15 -11 16 -9 6 28 3 51 -8 60 -16 14 -17 36 0 42 6 3 3 6 -8 6 -12 1 -25
5 -31 11 -6 6 -15 6 -24 0z m24 -58 c3 -5 -1 -9 -9 -9 -8 0 -12 4 -9 9 3 4 7
8 9 8 2 0 6 -4 9 -8z m-44 -58 c0 -8 -19 -13 -24 -6 -3 5 1 9 9 9 8 0 15 -2
15 -3z"/>
<path d="M3007 3260 c-4 -15 -10 -19 -19 -14 -8 4 -10 3 -5 -2 5 -5 12 -9 15
-9 4 0 13 -4 20 -9 11 -6 11 -11 0 -24 -12 -15 -11 -16 5 -3 9 8 15 16 13 19
-13 12 15 39 39 37 14 -2 23 1 19 7 -3 5 -8 7 -11 4 -3 -3 -15 -1 -26 5 -13 7
-17 7 -13 1 3 -6 2 -13 -3 -17 -5 -3 -14 2 -19 11 -8 14 -10 13 -15 -6z m23
-20 c0 -5 -2 -10 -4 -10 -3 0 -8 5 -11 10 -3 6 -1 10 4 10 6 0 11 -4 11 -10z"/>
<path d="M7171 3243 c-1 -21 -5 -22 -113 -26 l-113 -3 112 -2 112 -2 4 -107 3
-108 2 107 c2 102 3 107 25 111 22 4 22 4 0 6 -14 1 -23 9 -26 24 l-4 22 -2
-22z"/>
<path d="M4184 3239 c-12 -20 -14 -39 -3 -39 5 0 9 -5 9 -11 0 -5 -5 -7 -12
-3 -7 5 -8 3 -3 -5 9 -15 24 -2 29 26 6 28 -8 50 -20 32z"/>
<path d="M4127 3202 c-15 -14 -27 -21 -27 -14 0 7 -4 10 -10 7 -18 -11 -11
-22 13 -21 12 1 30 -4 40 -12 18 -16 24 -38 7 -27 -6 4 -9 3 -8 -2 3 -9 -5
-13 -24 -13 -10 0 -10 2 0 9 10 6 10 10 -3 21 -13 11 -14 10 -9 -5 5 -12 4
-16 -4 -11 -6 3 -13 2 -17 -4 -9 -15 -28 -12 -19 3 4 7 3 9 -2 4 -5 -5 -9 -13
-9 -18 0 -5 -3 -9 -7 -9 -5 0 -11 0 -14 0 -3 0 5 15 17 33 18 25 19 29 5 17
-11 -8 -21 -14 -23 -12 -14 10 -22 -3 -18 -30 4 -23 2 -29 -4 -18 -5 8 -7 18
-5 22 7 11 -8 10 -26 -3 -11 -8 -12 -12 -2 -16 6 -2 12 -9 12 -15 0 -6 -8 -4
-18 5 -16 15 -19 14 -41 -9 -19 -19 -21 -28 -12 -33 10 -6 9 -10 -3 -14 -9 -4
-16 -2 -16 3 0 6 -5 10 -11 10 -5 0 -7 -4 -4 -10 3 -5 1 -11 -4 -11 -6 -1 -16
-2 -23 -3 -14 -1 -50 -64 -40 -70 9 -5 34 8 33 18 -1 3 1 6 4 6 6 0 6 -6 -1
-25 -3 -8 -11 -12 -18 -8 -6 3 -7 2 -3 -2 11 -13 37 -15 37 -4 0 6 5 7 12 3 7
-5 8 -3 2 7 -16 26 -13 44 12 62 20 15 28 16 39 7 18 -15 20 -34 3 -24 -7 4
-8 3 -4 -4 4 -7 3 -12 -3 -12 -5 0 -13 5 -16 10 -4 6 -10 8 -15 5 -8 -5 -8
-14 2 -55 2 -10 -3 -14 -17 -11 -19 3 -19 2 -2 -16 14 -16 14 -20 3 -20 -8 0
-14 5 -13 10 1 5 -6 11 -15 12 -24 4 -23 -8 2 -30 16 -15 23 -16 33 -6 6 6 12
19 12 29 0 10 8 17 20 17 11 0 19 3 18 8 -2 4 -3 12 -3 17 0 6 -5 10 -11 10
-5 0 -7 -5 -3 -12 5 -7 3 -8 -6 -3 -10 6 -9 11 5 21 10 7 22 11 27 8 4 -3 11
2 14 10 3 9 11 13 17 9 6 -3 7 -1 3 6 -4 6 -13 9 -19 5 -7 -3 -3 2 7 10 18 14
21 14 38 -1 17 -15 19 -15 38 2 11 10 17 22 14 27 -7 11 -19 1 -19 -15 0 -7
-7 -12 -15 -12 -8 0 -14 5 -13 11 1 5 -14 10 -34 10 -23 -1 -38 4 -41 13 -3 8
0 11 6 7 6 -3 13 -2 16 3 4 5 1 13 -5 17 -8 5 -9 3 -4 -6 5 -9 4 -11 -4 -6 -6
4 -9 12 -6 17 9 14 47 -10 39 -24 -4 -7 -3 -8 2 -4 5 5 9 14 9 20 0 7 5 12 10
12 6 0 16 4 23 9 9 6 12 3 10 -9 -2 -11 4 -19 16 -21 14 -2 16 0 7 9 -16 16
-14 26 7 23 10 -2 17 -11 16 -24 -1 -13 3 -19 9 -15 7 4 8 -1 3 -13 -6 -14 0
-12 22 9 15 15 31 25 34 22 3 -3 11 1 18 10 10 12 10 18 0 30 -9 11 -9 15 -1
15 7 0 9 5 5 12 -4 7 -3 8 5 4 6 -4 9 -11 6 -16 -3 -4 2 -13 11 -21 12 -10 18
-10 30 2 18 19 0 47 -34 54 -36 7 -43 14 -32 35 16 30 -4 31 -33 2z m20 -6
c-3 -7 -1 -19 4 -25 5 -6 2 -5 -7 3 -9 8 -13 19 -10 25 10 16 19 14 13 -3z
m76 -60 c3 -8 0 -17 -8 -19 -17 -7 -25 1 -18 19 7 18 19 18 26 0z m-89 -43 c7
-18 -22 -39 -36 -25 -7 7 -9 12 -5 12 4 0 3 8 -2 19 -6 10 -8 21 -5 24 8 7 42
-14 48 -30z m31 -3 c-5 -8 -11 -8 -17 -2 -6 6 -7 16 -3 22 5 8 11 8 17 2 6 -6
7 -16 3 -22z m-200 -62 c5 4 5 1 1 -6 -6 -10 -11 -10 -22 -1 -8 6 -14 14 -14
16 0 3 6 0 13 -6 8 -6 18 -7 22 -3z m-71 -8 c-14 -14 -56 -22 -49 -9 4 5 10 7
14 5 4 -3 13 -1 21 5 20 12 26 11 14 -1z m21 -39 c3 -5 2 -12 -3 -15 -5 -3 -9
1 -9 9 0 17 3 19 12 6z"/>
<path d="M4090 3116 c0 -2 8 -10 18 -17 15 -13 16 -12 3 4 -13 16 -21 21 -21
13z"/>
<path d="M7468 3223 c6 -2 18 -2 25 0 6 3 1 5 -13 5 -14 0 -19 -2 -12 -5z"/>
<path d="M3505 3187 c3 -24 0 -27 -21 -23 -13 3 -24 4 -24 2 0 -1 15 -15 32
-32 18 -16 24 -19 14 -6 -20 23 -10 31 14 10 12 -11 12 -10 2 3 -7 10 -8 19
-2 25 7 7 5 17 -4 29 -13 18 -14 17 -11 -8z"/>
<path d="M7433 3175 c0 -22 2 -30 4 -17 2 12 2 30 0 40 -3 9 -5 -1 -4 -23z"/>
<path d="M440 3151 c0 -42 11 -51 61 -51 28 0 29 2 29 45 l0 45 -45 0 -45 0 0
-39z"/>
<path d="M3410 3186 c0 -2 8 -10 18 -17 15 -13 16 -12 3 4 -13 16 -21 21 -21
13z"/>
<path d="M3540 3182 c0 -7 6 -12 13 -12 8 0 7 -4 -3 -10 -10 -6 -11 -10 -2
-10 6 0 12 -5 12 -11 0 -5 -5 -7 -12 -3 -7 5 -8 3 -2 -7 15 -25 13 -42 -9 -60
l-22 -18 28 3 c32 4 44 -9 27 -29 -6 -7 -7 -15 -3 -18 12 -7 44 18 35 28 -4 5
-1 5 7 0 9 -5 12 -3 9 6 -3 8 -13 14 -23 14 -24 0 -29 36 -8 52 14 11 21 9 40
-9 21 -20 22 -22 5 -35 -9 -8 -11 -12 -5 -8 9 4 11 1 6 -11 -4 -12 -2 -15 8
-12 8 3 13 12 11 21 -1 9 4 14 12 13 18 -2 34 -16 19 -16 -5 0 -10 -7 -10 -15
0 -18 9 -19 26 -2 11 10 12 9 6 -2 -5 -9 -4 -12 2 -8 13 8 66 -47 56 -57 -5
-4 -1 -6 7 -4 8 2 14 -3 12 -10 -1 -8 2 -11 7 -8 5 3 15 -2 22 -12 12 -15 12
-16 -1 -5 -15 11 -43 4 -41 -11 3 -23 -1 -27 -12 -11 -9 11 -19 15 -27 10 -9
-6 -11 -4 -5 5 6 9 4 11 -6 5 -8 -5 -11 -4 -6 1 5 5 16 9 25 9 21 0 25 40 6
56 -8 6 -14 8 -14 4 0 -5 -9 0 -20 10 -12 11 -20 13 -20 6 0 -7 -4 -9 -10 -6
-5 3 -10 1 -10 -4 0 -10 13 -15 31 -13 4 1 14 -7 24 -18 17 -19 17 -19 -6 -15
-12 3 -26 10 -30 17 -6 9 -12 8 -26 -3 -17 -13 -17 -13 -3 5 8 11 10 17 4 13
-7 -4 -18 1 -25 10 -12 15 -12 16 3 10 10 -3 20 -1 24 5 5 7 2 8 -6 3 -9 -6
-11 -4 -5 4 6 10 3 11 -12 2 -11 -6 -23 -8 -25 -5 -3 2 -11 -2 -18 -11 -8 -10
-9 -15 -1 -15 6 0 10 -3 10 -7 -1 -5 -1 -15 0 -23 1 -12 4 -12 12 3 15 25 32
22 18 -4 -12 -24 -4 -37 30 -44 19 -3 21 -2 11 10 -6 8 -18 11 -26 8 -8 -3
-14 0 -14 6 0 6 5 12 10 12 30 4 40 3 38 -2 -5 -13 34 -48 48 -42 8 3 14 0 14
-7 0 -6 -4 -8 -10 -5 -5 3 -10 2 -10 -4 0 -11 -19 -9 -40 4 -13 8 -13 7 -1 -8
10 -13 10 -17 1 -17 -9 0 -10 -3 -1 -13 6 -8 7 -18 3 -23 -4 -5 -3 -6 2 -2 5
4 15 3 23 -4 11 -9 13 -8 11 3 -2 8 7 15 21 17 15 2 21 0 16 -7 -3 -6 -11 -8
-17 -5 -7 5 -8 2 -2 -7 4 -8 9 -25 10 -39 2 -34 2 -34 17 -21 11 8 19 5 35
-12 12 -13 19 -27 15 -30 -8 -9 24 -3 49 8 10 4 15 12 11 18 -3 6 -1 7 6 3 9
-6 9 -11 -1 -24 -7 -9 -8 -13 -2 -9 7 4 22 -6 35 -23 22 -27 48 -43 34 -21 -3
5 0 13 6 16 5 4 8 13 5 21 -3 8 1 17 9 20 8 4 12 10 9 16 -3 5 -13 7 -21 4
-11 -4 -13 -2 -10 9 4 9 -18 38 -63 81 -38 37 -67 70 -65 74 2 4 -2 16 -9 26
-11 15 -12 22 -3 34 10 13 10 13 -4 3 -13 -11 -25 -3 -78 47 -35 33 -68 58
-74 57 -7 -1 -11 4 -9 11 1 8 -2 11 -7 8 -5 -4 -11 -3 -13 1 -8 18 -88 86 -88
75z m58 -56 c-2 -1 -10 -7 -18 -13 -13 -10 -16 -8 -15 17 0 27 1 28 18 13 9
-9 16 -17 15 -17z m-33 -56 c-3 -5 -12 -10 -18 -10 -7 0 -6 4 3 10 19 12 23
12 15 0z m59 -90 c-6 -6 -10 -2 -11 12 -2 16 1 18 10 9 7 -7 8 -14 1 -21z
m251 -135 c17 -17 26 -27 20 -23 -19 16 -27 7 -10 -12 10 -11 20 -18 23 -15 3
2 13 0 23 -6 15 -8 17 -14 9 -29 -9 -16 -7 -18 12 -15 16 3 19 2 11 -6 -6 -6
-9 -17 -7 -24 7 -16 -12 -29 -21 -15 -4 6 -1 18 7 27 12 15 11 15 -8 5 -23
-12 -35 -7 -28 12 6 16 -22 40 -36 31 -6 -4 -9 -12 -8 -18 2 -7 -2 -12 -7 -12
-5 0 -10 16 -10 37 0 27 -7 41 -27 57 -24 19 -30 43 -19 80 0 2 11 -7 24 -20
12 -13 36 -38 52 -54z m-150 5 c-6 -9 -9 -9 -16 1 -10 17 0 34 13 21 6 -6 7
-16 3 -22z m49 22 c2 -4 -5 -9 -17 -9 -17 -2 -19 0 -7 7 18 12 18 12 24 2z
m48 -74 c-8 -8 -9 -15 -1 -25 21 -25 2 -13 -22 14 -13 15 -17 22 -8 15 9 -6
19 -9 22 -5 13 12 7 20 -15 19 -14 -1 -23 -7 -23 -18 0 -9 -3 -19 -6 -23 -3
-3 -6 8 -5 25 2 42 25 55 51 30 15 -15 17 -22 7 -32z"/>
<path d="M3803 2885 c0 -8 10 -23 21 -32 15 -14 18 -14 8 -2 -6 9 -10 18 -7
21 3 3 -1 10 -8 16 -10 9 -14 8 -14 -3z"/>
<path d="M3848 2855 c5 -11 8 -34 7 -52 -1 -18 2 -30 7 -27 5 3 6 10 3 15 -11
16 8 10 30 -11 14 -13 25 -16 35 -10 10 7 11 10 3 10 -25 0 -28 2 -50 22 -12
12 -20 24 -18 28 2 4 -2 16 -11 26 -15 18 -15 18 -6 -1z"/>
<path d="M3373 3165 c0 -8 4 -15 9 -15 4 0 8 4 8 9 0 6 -4 12 -8 15 -5 3 -9
-1 -9 -9z"/>
<path d="M314 3145 c-10 -25 4 -45 31 -45 22 0 25 -4 25 -35 0 -33 2 -35 35
-35 33 0 35 2 35 35 0 33 -2 35 -35 35 -32 0 -35 2 -35 30 0 25 -4 30 -25 30
-14 0 -28 -7 -31 -15z"/>
<path d="M4245 3150 c-10 -16 7 -31 23 -21 10 6 10 10 -2 20 -10 9 -16 9 -21
1z"/>
<path d="M2874 3122 c4 -3 14 -7 22 -8 9 -1 13 0 10 4 -4 3 -14 7 -22 8 -9 1
-13 0 -10 -4z"/>
<path d="M3473 3115 c0 -8 4 -12 9 -9 5 3 6 10 3 15 -9 13 -12 11 -12 -6z"/>
<path d="M1140 3095 l0 -25 157 1 c86 0 160 2 164 4 4 3 5 14 2 25 -5 19 -14
20 -164 20 l-159 0 0 -25z"/>
<path d="M1528 3113 c-2 -4 -4 -15 -4 -23 1 -12 17 -15 79 -17 75 -1 78 0 75
20 -3 20 -10 22 -75 25 -39 2 -73 -1 -75 -5z"/>
<path d="M1750 3094 l0 -24 371 1 c368 1 370 1 367 22 -4 24 -30 30 -76 17
-20 -5 -30 -5 -26 1 3 6 -119 9 -315 8 l-321 -2 0 -23z"/>
<path d="M3603 3085 c0 -8 4 -12 9 -9 5 3 6 10 3 15 -9 13 -12 11 -12 -6z"/>
<path d="M3488 3063 c7 -3 16 -2 19 1 4 3 -2 6 -13 5 -11 0 -14 -3 -6 -6z"/>
<path d="M1140 2990 c0 -18 7 -20 75 -20 68 0 75 2 75 20 0 18 -7 20 -75 20
-68 0 -75 -2 -75 -20z"/>
<path d="M1350 2990 c0 -19 7 -20 165 -20 158 0 165 1 165 20 0 19 -7 20 -165
20 -158 0 -165 -1 -165 -20z"/>
<path d="M1750 2990 c0 -19 7 -20 229 -20 210 0 230 1 234 18 4 16 5 16 6 0 2
-26 41 -24 41 2 0 19 -7 20 -255 20 -248 0 -255 -1 -255 -20z"/>
<path d="M3755 2931 c-3 -5 -2 -12 3 -15 5 -3 9 1 9 9 0 17 -3 19 -12 6z"/>
<path d="M1140 2896 c0 -23 2 -23 83 -21 45 2 117 3 159 4 70 1 77 3 75 21 -1
19 -8 20 -159 20 l-158 0 0 -24z"/>
<path d="M1540 2894 c0 -20 4 -25 16 -20 9 3 29 6 45 6 22 0 29 5 29 20 0 17
-7 20 -45 20 -42 0 -45 -2 -45 -26z"/>
<path d="M1703 2899 c2 -23 13 -28 55 -22 23 4 32 11 32 24 0 15 -8 18 -44 17
-37 0 -44 -4 -43 -19z"/>
<path d="M1876 2913 c-3 -4 -6 -13 -6 -22 0 -14 29 -16 266 -15 146 1 268 4
271 8 3 3 3 12 0 21 -6 13 -41 15 -265 15 -143 -1 -262 -4 -266 -7z"/>
<path d="M2783 2825 c0 -8 4 -12 9 -9 5 3 6 10 3 15 -9 13 -12 11 -12 -6z"/>
<path d="M3647 2825 c-10 -7 -14 -16 -8 -19 5 -3 12 -1 14 4 3 6 4 5 3 -2 -2
-7 -9 -13 -17 -13 -23 -1 -38 -15 -32 -30 3 -10 1 -13 -9 -10 -8 3 -23 -4 -34
-16 -10 -13 -14 -19 -8 -16 7 4 18 -1 25 -10 12 -15 12 -16 -3 -10 -10 3 -20
1 -24 -6 -4 -7 -4 -9 1 -5 12 11 35 -11 28 -28 -8 -20 13 -17 22 4 13 27 14
43 4 36 -5 -3 -6 -10 -3 -16 4 -7 2 -8 -5 -4 -6 4 -9 12 -5 17 3 6 -2 16 -12
23 -12 10 -14 15 -5 20 7 5 20 1 29 -7 9 -8 24 -12 32 -9 13 5 13 3 0 -14 -14
-17 -14 -18 2 -6 10 8 17 17 16 20 -4 12 22 52 33 52 6 0 7 -5 3 -12 -4 -7 -3
-8 4 -4 16 9 15 -7 0 -22 -7 -7 -10 -12 -7 -13 2 0 11 -2 20 -4 11 -2 16 4 15
19 -1 11 2 27 7 34 5 6 7 13 3 13 -6 1 -34 5 -57 8 -6 0 -9 8 -6 16 8 20 -5
26 -26 10z m17 -61 c-9 -13 -20 -24 -25 -24 -5 0 -12 0 -16 0 -4 0 -7 10 -7
23 0 15 5 21 16 19 9 -1 19 2 23 8 3 6 11 8 16 5 5 -4 2 -17 -7 -31z m66 20
c0 -8 -19 -13 -24 -6 -3 5 1 9 9 9 8 0 15 -2 15 -3z"/>
<path d="M3655 2779 c-4 -6 -12 -8 -19 -6 -6 3 -12 -4 -12 -14 0 -17 2 -17 23
3 13 12 23 23 23 25 0 7 -9 2 -15 -8z"/>
<path d="M1140 2818 c0 -4 6 -8 13 -8 8 0 7 -4 -3 -10 -10 -6 22 -9 98 -9 105
0 112 1 112 20 0 19 -6 20 -110 18 -60 -1 -110 -6 -110 -11z"/>
<path d="M1420 2810 c0 -19 9 -19 300 -20 294 0 300 0 300 20 0 19 -7 20 -174
20 -130 0 -175 -3 -179 -12 -4 -10 -7 -10 -18 0 -9 8 -48 12 -121 12 -101 0
-108 -1 -108 -20z"/>
<path d="M2090 2810 c0 -19 7 -20 200 -20 193 0 200 1 200 20 0 19 -7 20 -200
20 -193 0 -200 -1 -200 -20z"/>
<path d="M2789 2798 c-7 -24 -7 -48 0 -52 4 -3 7 -25 5 -48 -2 -29 0 -38 6
-28 5 8 6 18 4 22 -3 4 2 5 11 1 12 -4 13 -8 5 -13 -9 -5 -9 -9 -1 -14 6 -4
11 -2 11 4 0 6 4 9 8 6 5 -3 9 1 9 9 0 8 -3 12 -7 10 -3 -2 -12 1 -20 6 -12 9
-12 12 -2 16 10 4 8 9 -7 20 -12 8 -21 19 -21 25 0 6 7 5 18 -3 16 -13 16 -13
-1 7 -9 11 -14 24 -10 27 3 4 3 7 0 7 -4 0 -7 -1 -8 -2z"/>
<path d="M2886 2791 c-3 -5 2 -15 12 -22 15 -12 16 -12 5 2 -7 9 -10 19 -6 22
3 4 4 7 0 7 -3 0 -8 -4 -11 -9z"/>
<path d="M1140 2709 c0 -14 7 -19 28 -18 19 1 21 3 8 6 -14 4 -16 7 -6 13 16
10 42 1 34 -11 -3 -5 47 -9 115 -9 114 0 121 1 121 20 0 19 -7 20 -150 19
-141 0 -150 -2 -150 -20z"/>
<path d="M1506 2714 c-3 -9 -6 -17 -6 -18 0 -2 41 -4 91 -5 70 -1 89 2 83 11
-6 10 -4 11 7 1 7 -7 37 -13 66 -13 46 0 53 3 53 20 0 17 -7 20 -44 20 -26 0
-47 -5 -50 -12 -5 -10 -7 -10 -12 0 -4 8 -33 12 -94 12 -71 0 -89 -3 -94 -16z"/>
<path d="M1870 2711 c0 -19 9 -20 195 -20 188 -1 195 0 195 19 0 19 -7 20
-195 20 -186 0 -195 -1 -195 -19z"/>
<path d="M3880 2700 c-8 -5 -18 -6 -22 -4 -17 11 -6 -4 24 -32 l32 -29 -18 29
c-10 16 -13 26 -8 22 6 -3 13 -2 16 3 9 14 -8 21 -24 11z"/>
<path d="M2881 2684 c6 -7 16 -11 21 -8 11 7 3 17 -18 20 -12 2 -13 -1 -3 -12z"/>
<path d="M3524 2692 c3 -6 1 -14 -7 -19 -7 -4 -13 -17 -13 -28 0 -13 -6 -20
-16 -19 -15 1 -16 -2 -6 -20 10 -18 9 -19 -4 -9 -19 16 -32 4 -15 -15 10 -13
9 -14 -9 -8 -25 8 -63 -27 -43 -40 8 -5 10 -3 4 7 -5 8 -5 11 0 7 4 -4 14 -3
22 4 10 8 17 8 24 1 8 -8 5 -15 -11 -23 -18 -10 -21 -9 -15 1 5 8 4 10 -4 5
-6 -4 -10 -13 -9 -19 2 -7 -2 -12 -7 -12 -6 0 -9 5 -7 12 3 13 -2 15 -53 16
-24 1 -29 -3 -27 -19 2 -18 2 -18 -11 -1 -8 9 -18 17 -22 17 -5 0 0 -9 10 -20
18 -20 18 -20 -3 -17 -12 2 -31 12 -42 22 -12 11 -21 15 -20 10 7 -32 -1 -38
-22 -19 -19 15 -20 16 -9 2 9 -12 10 -18 2 -18 -18 0 -26 4 -23 13 1 4 -10 0
-25 -10 -15 -10 -30 -18 -32 -18 -3 0 -4 -6 -3 -14 2 -8 -1 -10 -9 -5 -7 4
-10 3 -6 -3 9 -15 -56 -11 -74 4 -13 11 -20 13 -36 13 -4 0 2 7 13 16 10 8 13
13 7 9 -7 -3 -21 -8 -30 -10 -10 -2 -22 -5 -28 -7 -5 -1 -12 2 -13 7 -7 20
-24 35 -34 29 -5 -3 0 -17 13 -30 16 -17 26 -21 39 -14 13 7 23 3 40 -15 13
-14 19 -25 13 -25 -6 0 -16 7 -23 15 -7 8 -17 12 -22 9 -5 -3 -1 -15 9 -27 16
-18 16 -20 1 -14 -9 3 -24 -1 -35 -8 -10 -8 -16 -15 -13 -16 25 -5 48 -4 44 3
-3 4 1 8 10 8 8 0 16 5 18 10 2 6 13 12 26 15 15 3 22 0 19 -8 -3 -7 -11 -11
-18 -9 -9 2 -7 -4 5 -17 22 -24 35 -29 16 -6 -7 8 -8 15 -2 15 5 0 15 -7 22
-15 7 -8 16 -12 22 -9 5 3 4 12 -3 20 -10 12 -8 14 9 11 12 -2 25 -7 29 -12 5
-4 2 -5 -6 0 -10 6 -12 4 -7 -4 5 -8 12 -9 19 -3 7 5 33 9 59 8 26 -1 45 1 42
6 -13 21 16 4 46 -27 19 -19 29 -35 24 -35 -6 0 -15 5 -20 10 -7 7 -17 3 -30
-12 -11 -13 -12 -18 -3 -10 13 10 20 7 39 -13 13 -14 18 -25 12 -25 -6 0 -14
5 -17 10 -5 8 -11 7 -20 0 -8 -7 -18 -9 -22 -7 -5 3 -17 -1 -28 -9 -10 -8 -15
-14 -11 -14 4 0 0 -7 -8 -16 -21 -20 -20 -27 3 -48 11 -10 17 -24 15 -31 -3
-7 0 -16 5 -20 6 -3 9 -12 5 -18 -3 -7 4 -1 15 12 26 29 26 38 1 51 -11 6 -20
8 -20 4 0 -3 -6 -1 -14 6 -16 12 -10 44 5 34 5 -3 6 -10 3 -16 -4 -6 -2 -8 3
-5 6 4 16 0 22 -7 7 -9 23 -13 39 -10 25 5 25 4 9 -8 -10 -8 -19 -20 -20 -28
-2 -8 -7 -22 -12 -30 -5 -10 -1 -8 13 3 12 12 18 25 15 35 -4 10 -3 14 2 10
10 -9 56 51 49 64 -8 13 -24 -1 -18 -16 6 -17 -12 -31 -21 -16 -4 6 -11 7 -17
4 -7 -5 -8 -2 -4 7 4 8 1 6 -7 -4 -12 -14 -17 -15 -23 -5 -12 19 -14 38 -4 38
5 0 12 -5 15 -10 4 -6 10 -8 15 -5 5 3 11 1 15 -5 10 -16 23 -11 20 8 -1 9 -9
16 -19 14 -9 -2 -16 1 -16 6 0 5 15 8 34 7 32 -3 43 12 23 31 -12 12 -8 26 5
18 7 -5 8 -3 3 6 -5 8 -3 11 6 8 8 -3 14 -17 13 -31 -1 -15 3 -24 8 -21 5 3 7
8 4 11 -10 10 15 44 31 41 9 -2 17 4 19 12 1 8 5 25 8 37 4 20 2 21 -33 14 -2
-1 2 -8 9 -16 11 -13 11 -18 0 -28 -8 -8 -11 -8 -7 -1 4 7 0 17 -8 24 -8 7
-12 17 -8 24 3 6 2 8 -2 3 -5 -4 -19 2 -31 14 -17 16 -21 26 -14 39 5 10 6 21
2 25 -4 4 0 5 8 3 8 -3 14 -11 13 -17 -2 -6 2 -11 8 -11 8 0 8 -4 0 -14 -8 -9
-8 -16 -2 -20 5 -4 12 -2 16 4 3 5 11 10 16 10 6 0 8 -4 5 -9 -4 -5 2 -8 11
-6 22 3 45 -14 37 -27 -3 -5 3 -4 14 3 19 12 23 31 9 45 -3 4 -2 14 3 24 5 10
6 20 3 24 -3 3 -1 6 5 6 6 0 14 -5 17 -10 4 -6 11 -8 16 -4 11 7 -8 35 -21 31
-4 -1 -8 1 -9 6 -1 4 1 7 4 7 3 0 9 0 15 0 12 0 44 -60 36 -68 -13 -12 16 -32
34 -22 20 11 31 4 23 -16 -4 -10 3 -14 26 -14 17 0 31 5 31 11 0 5 -5 7 -12 3
-7 -5 -8 -3 -2 7 16 26 14 45 -6 45 -15 0 -19 -6 -15 -23 2 -12 0 -25 -5 -28
-5 -3 -7 4 -5 15 2 11 0 18 -5 15 -6 -3 -7 0 -4 8 7 20 -15 32 -29 17 -9 -10
-9 -11 2 -5 10 6 12 4 6 -5 -6 -9 -4 -11 6 -5 11 6 11 5 2 -5 -14 -15 -36 -3
-29 17 3 8 1 11 -4 8 -6 -4 -10 -3 -9 2 3 19 -2 43 -8 42 -20 -3 -24 2 -13 17
11 12 11 15 0 12 -7 -2 -14 2 -17 9 -3 8 3 11 17 8 18 -3 20 -2 10 10 -10 12
-10 15 0 15 8 0 10 3 7 7 -13 12 27 32 45 22 10 -5 18 -6 18 -2 0 4 5 1 10 -7
6 -9 10 -10 10 -3 0 6 -5 15 -10 18 -6 4 -7 12 -3 18 4 7 0 7 -10 -1 -19 -16
-41 -7 -33 14 3 8 0 11 -9 7 -8 -3 -12 -9 -9 -14 3 -5 -4 -9 -15 -9 -23 0 -27
10 -10 27 8 8 7 13 -2 18 -7 5 -10 4 -5 -3z m6 -82 c-5 -9 -6 -21 -2 -25 4 -5
1 -5 -6 -1 -7 5 -15 -2 -21 -17 -6 -14 -14 -28 -19 -31 -5 -3 -8 -15 -7 -28 1
-13 -2 -31 -6 -40 -6 -10 -5 -19 1 -23 5 -3 7 -12 3 -21 -4 -11 -8 -12 -20 -3
-11 10 -11 14 -1 20 9 6 9 9 1 9 -6 0 -15 -5 -18 -10 -5 -8 -11 -7 -21 1 -11
9 -18 8 -31 -2 -16 -13 -17 -12 -5 3 11 14 8 22 -20 55 -21 25 -24 31 -9 18
19 -15 23 -16 19 -4 -4 10 -1 16 8 16 8 0 13 -6 10 -13 -7 -17 40 -48 50 -32
5 7 3 8 -5 3 -10 -5 -9 -2 0 13 7 12 17 18 22 15 5 -3 4 -9 -3 -13 -9 -5 -8
-9 3 -13 10 -4 14 1 12 16 0 12 1 27 4 32 11 19 10 40 -2 55 -10 13 -10 13 4
3 13 -10 19 -10 35 3 10 8 13 13 7 9 -15 -7 -18 11 -3 20 6 4 7 12 3 18 -4 7
0 6 10 -2 12 -9 14 -18 7 -31z m-257 -134 c-4 -7 -1 -6 9 1 8 7 18 10 21 6 4
-3 13 0 21 6 13 11 15 9 11 -10 -3 -12 -10 -27 -16 -33 -9 -8 -10 -8 -5 2 8
14 0 17 -8 3 -3 -5 2 -15 11 -22 14 -12 16 -12 8 1 -4 8 11 -3 33 -24 30 -28
38 -42 29 -48 -6 -4 -8 -8 -4 -8 5 0 5 -5 2 -10 -5 -8 -11 -7 -21 1 -22 18
-53 -13 -35 -35 9 -11 9 -16 -1 -22 -7 -4 -10 -3 -5 1 4 5 -5 22 -20 39 -16
17 -20 24 -11 17 9 -7 22 -10 29 -6 7 5 -7 26 -40 59 -28 29 -49 55 -46 59 3
4 2 5 -2 2 -3 -3 -13 1 -22 8 -14 11 -14 10 -2 -6 12 -15 11 -17 -5 -14 -11 1
-25 6 -32 11 -7 4 -16 5 -19 2 -4 -3 0 -6 7 -6 9 0 7 -5 -5 -14 -11 -8 -30
-13 -42 -11 -30 3 -39 -11 -21 -33 12 -15 11 -16 -4 -4 -25 20 -19 51 8 46 25
-5 49 19 38 38 -4 7 -4 10 1 6 4 -4 16 -3 26 2 12 7 20 6 25 -2 5 -7 3 -8 -6
-3 -9 5 -11 4 -6 -3 5 -9 13 -8 30 3 21 14 24 13 39 -3 10 -10 15 -21 13 -23
-3 -2 4 -15 15 -29 15 -20 18 -21 12 -5 -6 18 -5 18 10 6 9 -7 14 -17 12 -22
-3 -4 4 -18 16 -30 16 -16 21 -17 16 -6 -8 22 10 32 31 16 9 -7 6 -1 -8 13
-22 22 -26 23 -38 9 -8 -9 -11 -11 -8 -5 3 6 -12 28 -34 49 -22 21 -36 44 -33
52 4 10 9 11 19 2 8 -6 11 -16 7 -23z m-232 -33 c13 -16 12 -17 -3 -4 -17 13
-22 21 -14 21 2 0 10 -8 17 -17z m-40 -10 c13 -16 12 -17 -3 -4 -17 13 -22 21
-14 21 2 0 10 -8 17 -17z m205 -6 c12 -12 26 -8 18 5 -4 7 -3 8 5 4 18 -11 8
-29 -16 -31 -12 -1 -19 3 -17 10 3 6 -2 12 -11 12 -9 0 -14 -5 -12 -12 3 -6
-4 -11 -14 -11 -23 0 -23 1 -4 19 15 15 38 17 51 4z m89 -137 c4 -6 1 -9 -7
-8 -7 2 -12 -5 -12 -15 2 -17 1 -17 -17 -1 -18 17 -25 10 -20 -19 1 -5 -3 -6
-9 -2 -15 9 7 45 24 39 8 -3 17 -1 21 5 8 14 12 14 20 1z m-50 -99 c3 -5 2
-12 -3 -15 -5 -3 -9 1 -9 9 0 17 3 19 12 6z"/>
<path d="M3381 2481 c7 -10 21 -24 33 -31 15 -9 12 -3 -8 19 -34 35 -41 39
-25 12z"/>
<path d="M3350 2366 c0 -2 8 -10 18 -17 15 -13 16 -12 3 4 -13 16 -21 21 -21
13z"/>
<path d="M2796 2628 c3 -13 6 -29 6 -35 1 -7 4 -11 6 -8 3 3 15 -1 27 -9 13
-9 27 -11 35 -6 8 5 19 5 26 -1 9 -7 12 -5 10 7 -2 10 -10 18 -19 20 -10 1
-15 -2 -11 -7 5 -8 -3 -11 -23 -8 -5 1 -7 5 -5 10 1 5 -1 8 -5 7 -8 -3 -13 5
-13 22 0 6 4 9 9 8 5 -2 8 1 8 7 -2 10 -27 17 -26 7 3 -20 -2 -32 -11 -27 -6
4 -8 10 -5 15 3 5 1 11 -4 15 -6 3 -8 -4 -5 -17z"/>
<path d="M2873 2635 c0 -7 6 -12 14 -11 19 3 21 19 2 21 -9 2 -16 -3 -16 -10z"/>
<path d="M1140 2610 c0 -20 6 -20 295 -20 286 1 295 2 295 21 0 18 -7 19 -97
18 -58 0 -104 -6 -112 -12 -11 -9 -13 -9 -8 -1 4 8 -2 11 -18 10 -14 0 -25 -4
-25 -8 0 -5 -5 -8 -11 -8 -5 0 -7 5 -4 10 4 7 -50 10 -154 10 -155 0 -161 -1
-161 -20z"/>
<path d="M1810 2609 c0 -16 8 -19 45 -19 38 0 45 3 45 20 0 16 -7 19 -45 18
-37 0 -45 -4 -45 -19z"/>
<path d="M1970 2610 c0 -17 7 -20 45 -20 38 0 45 3 45 20 0 17 -7 20 -45 20
-38 0 -45 -3 -45 -20z"/>
<path d="M2140 2610 c0 -20 5 -20 132 -18 117 3 133 5 136 21 3 15 -8 17 -132
17 -130 0 -136 -1 -136 -20z"/>
<path d="M3567 2599 c7 -9 10 -19 6 -23 -4 -4 1 -4 10 0 10 3 17 7 15 8 -2 1
-12 8 -23 16 -18 14 -19 13 -8 -1z"/>
<path d="M2923 2585 c0 -8 4 -12 9 -9 5 3 6 10 3 15 -9 13 -12 11 -12 -6z"/>
<path d="M2824 2553 c2 -10 -2 -21 -8 -25 -8 -6 -8 -8 0 -8 6 0 10 -15 8 -37
-2 -21 -3 -42 -3 -47 -1 -5 -8 -3 -16 4 -12 10 -16 9 -21 -4 -5 -12 -10 -14
-19 -6 -7 6 -16 7 -19 2 -7 -11 -2 -43 7 -42 4 0 10 0 14 0 4 0 2 5 -5 12 -23
23 -12 32 11 10 25 -23 40 -20 30 6 -4 10 -2 13 5 8 14 -8 24 9 27 48 4 50 5
52 15 36 5 -8 5 -19 0 -25 -9 -11 -8 -40 2 -51 11 -10 -3 -34 -16 -27 -6 3 -7
2 -3 -3 5 -5 14 -9 20 -9 7 -1 11 -6 10 -13 -2 -7 2 -12 7 -12 6 0 10 7 10 16
0 14 2 15 18 3 14 -11 13 -10 -2 9 -11 12 -14 22 -8 22 7 0 15 0 20 0 4 0 7
-4 7 -9 0 -5 3 -12 7 -16 3 -4 5 0 4 9 -1 9 -17 32 -36 51 -19 19 -29 35 -22
35 18 0 27 -4 25 -11 -4 -13 55 -61 62 -50 4 7 1 10 -7 9 -7 -2 -12 3 -10 10
1 8 -2 11 -7 8 -5 -3 -14 1 -21 9 -7 8 -9 15 -5 15 4 0 2 7 -5 15 -9 11 -10
18 -1 29 9 10 8 16 -3 26 -13 10 -15 8 -11 -10 3 -14 0 -20 -8 -17 -7 3 -10
11 -9 18 2 8 0 11 -4 6 -4 -4 -15 0 -25 9 -16 14 -17 14 -15 -3z m50 -52 c-3
-3 -10 2 -15 12 -6 9 -14 15 -18 13 -4 -3 -8 2 -8 10 0 11 6 9 24 -8 12 -12
20 -24 17 -27z m12 -53 c10 -12 13 -18 7 -14 -12 6 -18 -5 -14 -26 0 -5 -4 -8
-10 -8 -6 0 -9 7 -6 15 4 8 2 17 -3 20 -7 5 -4 35 5 35 1 0 10 -10 21 -22z"/>
<path d="M2925 2551 c-3 -5 -2 -12 3 -15 5 -3 9 1 9 9 0 17 -3 19 -12 6z"/>
<path d="M3557 2554 c-4 -4 -3 -12 1 -18 3 -6 7 -18 7 -26 0 -8 7 -13 15 -12
39 10 48 10 61 1 10 -7 5 -8 -15 -5 -16 3 -25 2 -21 -2 3 -4 19 -7 33 -7 23
-1 27 -5 28 -33 0 -29 14 -61 14 -34 0 7 5 12 11 12 5 0 7 -4 4 -10 -4 -6 8
-10 28 -10 18 0 36 -3 40 -6 10 -10 146 -11 140 -1 -4 6 -1 7 8 2 21 -14 99
-14 93 -1 -3 6 1 3 9 -6 8 -10 23 -18 34 -18 11 0 23 -3 27 -7 4 -5 13 -8 19
-8 7 -1 11 -6 10 -11 -1 -6 8 -10 20 -9 14 1 21 8 19 18 -1 8 8 23 20 32 15
11 17 15 6 12 -10 -4 -20 -2 -23 3 -4 6 0 10 7 10 7 0 4 9 -9 22 -19 18 -24
19 -38 8 -17 -14 -78 -22 -70 -10 3 4 -4 15 -15 25 -21 19 -28 7 -9 -12 17
-17 -14 -11 -35 6 -14 12 -16 11 -13 -7 2 -11 9 -27 16 -36 7 -9 10 -16 6 -16
-4 0 -14 8 -22 18 -14 16 -14 16 -9 -1 3 -11 2 -16 -4 -12 -6 4 -9 14 -8 22 2
9 -3 18 -10 20 -7 3 -11 1 -10 -4 2 -4 0 -8 -3 -8 -3 0 -12 -5 -20 -11 -24
-18 -48 -24 -55 -12 -4 6 -3 8 3 5 6 -4 13 0 16 7 6 14 1 15 -43 4 -8 -1 -14
3 -15 10 0 6 -3 12 -7 12 -5 0 -13 0 -19 0 -5 0 -8 -4 -5 -9 4 -5 -2 -8 -11
-7 -12 2 -18 13 -19 33 -1 33 20 71 31 54 3 -6 2 -11 -4 -11 -5 0 -8 -9 -6
-20 2 -11 0 -18 -6 -15 -5 4 -9 2 -9 -4 0 -18 18 -21 34 -6 8 8 13 25 11 36
-4 18 -2 19 12 7 15 -11 16 -11 9 6 -7 19 -6 19 14 1 11 -10 20 -15 20 -10 0
4 7 2 15 -5 18 -15 36 -4 28 18 -4 13 -2 13 10 -3 21 -28 6 -42 -43 -39 -34 2
-39 0 -30 -11 7 -8 15 -14 18 -13 23 3 33 -4 28 -18 -4 -10 -1 -14 6 -12 7 3
13 11 13 18 0 7 8 14 18 16 24 3 27 6 33 37 3 18 -1 29 -13 35 -22 10 -63 9
-82 -2 -9 -6 -12 -5 -8 1 4 6 -37 9 -109 9 -64 -1 -118 2 -121 7 -2 4 -9 5
-14 1 -5 -3 -16 -1 -23 5 -7 6 -16 8 -19 5z m24 -21 c13 -16 12 -17 -3 -4 -17
13 -22 21 -14 21 2 0 10 -8 17 -17z m121 -21 c8 -6 17 -10 20 -7 4 4 3 -72 -1
-84 0 -2 -8 2 -16 9 -8 6 -18 9 -23 6 -5 -3 -9 1 -9 8 0 7 7 13 15 12 8 0 17
5 19 12 3 7 -1 10 -9 7 -11 -4 -68 36 -68 49 0 9 58 0 72 -12z m432 -86 c-3
-8 0 -17 5 -21 17 -10 3 -25 -17 -18 -15 6 -14 3 3 -18 l20 -24 -26 23 c-14
12 -29 20 -32 17 -4 -3 -5 -2 -2 2 3 3 0 12 -6 19 -7 9 -6 12 5 10 9 -1 19 -5
22 -9 4 -4 12 -7 18 -7 6 0 4 5 -4 10 -13 9 -13 11 0 20 20 13 20 13 14 -4z"/>
<path d="M3661 2514 c-1 -16 20 -31 42 -31 16 0 16 1 0 19 -11 13 -19 15 -24
7 -5 -8 -8 -7 -12 2 -3 8 -6 9 -6 3z"/>
<path d="M3705 2451 c-3 -5 -2 -12 3 -15 5 -3 9 1 9 9 0 17 -3 19 -12 6z"/>
<path d="M3959 2536 c0 -1 -2 -16 -3 -33 -1 -18 0 -31 2 -28 3 3 14 -3 25 -12
11 -10 17 -12 13 -5 -4 7 -2 19 4 27 7 8 10 16 6 16 -3 1 -10 2 -15 3 -18 2
-22 14 -7 19 15 6 41 -25 31 -35 -9 -8 35 -42 56 -43 19 -2 19 -1 -3 22 -26
28 -29 28 -22 6 5 -15 4 -15 -4 -3 -8 10 -7 19 1 30 6 8 7 12 2 7 -4 -4 -17 1
-27 10 -14 13 -52 25 -59 19z"/>
<path d="M3079 2509 c-6 -31 -5 -37 7 -35 22 3 25 12 9 26 -8 7 -15 11 -16 9z"/>
<path d="M3044 2486 c1 -8 5 -18 8 -22 4 -3 5 1 4 10 -1 8 -5 18 -8 22 -4 3
-5 -1 -4 -10z"/>
<path d="M3803 2479 c-1 -10 3 -21 8 -24 5 -4 7 -11 4 -16 -3 -5 1 -6 10 -3
14 6 14 8 -1 19 -23 16 -8 36 23 31 14 -3 22 -2 19 2 -4 4 -20 7 -35 8 -19 1
-27 -4 -28 -17z"/>
<path d="M3496 2461 c-5 -8 23 -39 31 -33 1 1 6 2 11 1 4 -1 -4 -4 -18 -9 -20
-6 -15 -7 23 -8 27 0 45 4 41 9 -3 5 -9 7 -14 4 -4 -3 -22 6 -38 20 -17 14
-33 21 -36 16z"/>
<path d="M2691 2394 c6 -7 16 -11 21 -8 11 7 3 17 -18 20 -12 2 -13 -1 -3 -12z"/>
<path d="M2633 2386 c-3 -6 -3 -8 2 -4 4 4 13 3 20 -2 8 -7 12 -5 12 3 0 16
-25 18 -34 3z"/>
<path d="M2523 2355 c-11 -8 -23 -12 -26 -9 -3 3 -8 0 -13 -7 -4 -7 -3 -10 3
-6 5 4 23 -7 38 -23 15 -16 32 -27 37 -24 5 4 -3 19 -18 35 -25 26 -22 43 3
18 7 -7 13 -7 17 -1 12 19 -19 32 -41 17z m17 -40 c13 -14 21 -25 18 -25 -2 0
-15 11 -28 25 -13 14 -21 25 -18 25 2 0 15 -11 28 -25z"/>
<path d="M2925 2351 c4 -23 -5 -27 -23 -9 -9 9 -13 7 -18 -6 -6 -16 -8 -15
-29 4 -16 15 -22 17 -22 6 0 -8 4 -13 8 -11 3 3 12 -2 19 -10 7 -8 9 -15 5
-15 -4 0 -1 -7 6 -17 8 -9 14 -28 14 -42 0 -14 5 -26 12 -26 7 0 18 -6 25 -14
11 -12 10 -13 -4 -8 -10 3 -20 2 -23 -3 -8 -13 9 -20 25 -10 9 5 20 4 30 -3
13 -10 13 -10 3 4 -7 9 -9 20 -5 24 4 5 2 5 -4 2 -7 -4 -17 0 -24 9 -12 13
-10 14 14 10 22 -4 25 -2 17 8 -6 7 -8 16 -5 19 4 3 -5 4 -20 1 -28 -5 -33 5
-14 24 7 7 9 13 5 13 -4 1 -11 3 -17 4 -5 1 -13 3 -17 4 -5 1 -1 6 7 11 10 6
22 3 40 -13 14 -12 19 -14 11 -4 -10 13 -11 20 -2 31 9 10 8 16 -3 26 -13 10
-15 8 -11 -9z m-20 -53 c5 4 5 1 1 -6 -6 -10 -11 -10 -22 -1 -8 6 -14 14 -14
16 0 3 6 0 13 -6 8 -6 18 -7 22 -3z m0 -47 c3 -5 2 -12 -3 -15 -5 -3 -9 1 -9
9 0 17 3 19 12 6z"/>
<path d="M2587 2349 c7 -9 9 -20 5 -25 -4 -4 1 -2 11 5 9 7 17 16 17 19 0 3
-3 2 -7 -1 -3 -4 -13 -1 -22 6 -14 10 -14 10 -4 -4z"/>
<path d="M2691 2344 c13 -16 2 -37 -13 -28 -7 4 -8 2 -4 -5 4 -6 11 -9 16 -6
5 3 11 2 14 -3 6 -10 -25 -12 -39 -3 -18 13 -40 6 -37 -12 2 -9 -2 -18 -8 -18
-25 -3 -29 -4 -36 -11 -3 -4 4 -5 17 -3 13 3 29 11 34 18 6 7 24 12 40 11 17
0 38 3 48 9 18 8 18 10 -2 28 -12 11 -19 24 -17 28 3 4 -1 8 -9 8 -11 0 -12
-4 -4 -13z"/>
<path d="M2733 2339 c-1 -9 5 -23 13 -30 11 -9 14 -9 14 0 0 7 5 9 10 6 6 -3
10 -1 10 5 0 7 -7 10 -15 7 -18 -7 -30 9 -14 19 8 5 9 3 4 -6 -6 -9 -4 -11 4
-6 13 9 8 19 -12 22 -7 1 -14 -7 -14 -17z"/>
<path d="M2646 2338 c3 -5 10 -6 15 -3 13 9 11 12 -6 12 -8 0 -12 -4 -9 -9z"/>
<path d="M2444 2313 c7 -13 0 -16 -36 -16 -10 0 -15 -3 -13 -8 3 -4 16 -6 30
-3 13 2 27 0 30 -6 4 -6 10 -8 15 -5 8 5 28 -14 29 -30 1 -5 14 -10 31 -10 16
0 27 1 25 4 -3 2 1 11 8 19 6 9 7 13 1 9 -6 -3 -24 7 -39 23 -21 22 -32 27
-45 20 -11 -6 -21 -5 -30 3 -10 9 -11 9 -6 0z m102 -60 c-7 -7 -46 -12 -42 -5
7 11 -22 45 -33 38 -5 -4 -13 -1 -17 5 -4 7 -3 9 2 6 6 -3 16 -2 24 3 10 6 23
1 42 -17 15 -15 26 -28 24 -30z"/>
<path d="M2500 2281 c5 -11 15 -23 21 -27 6 -3 3 5 -6 20 -20 30 -30 35 -15 7z"/>
<path d="M2583 2295 c0 -6 6 -12 12 -12 6 0 12 6 12 12 0 6 -6 12 -12 12 -6 0
-12 -6 -12 -12z"/>
<path d="M2379 2279 c11 -14 3 -41 -10 -33 -5 3 -7 9 -4 14 11 17 -21 3 -47
-21 -17 -16 -22 -26 -13 -26 8 0 17 7 19 14 4 10 10 11 25 3 14 -7 22 -7 26 1
4 6 13 8 21 5 7 -3 16 -1 19 5 4 5 1 8 -6 7 -7 -2 -13 2 -14 9 0 7 -6 17 -12
23 -9 7 -10 7 -4 -1z m-18 -36 c13 -16 12 -17 -3 -4 -10 7 -18 15 -18 17 0 8
8 3 21 -13z"/>
<path d="M2987 2265 c-4 -8 -3 -16 1 -19 4 -3 9 4 9 15 2 23 -3 25 -10 4z"/>
<path d="M2445 2247 c3 -14 0 -24 -8 -25 -6 0 -21 -3 -32 -6 -11 -2 -22 -5
-24 -5 -2 -1 1 -7 6 -13 13 -17 13 -48 0 -48 -6 0 -7 -3 -4 -6 10 -11 36 16
31 31 -7 18 14 29 29 16 8 -6 18 -6 27 -1 13 9 13 10 0 11 -8 1 -19 1 -23 0
-5 -1 -6 2 -3 7 6 11 36 9 56 -3 8 -4 5 3 -8 17 -12 13 -19 29 -15 34 5 5 4 6
-1 2 -5 -4 -15 -3 -22 3 -10 8 -12 5 -9 -14z m26 -14 c13 -16 12 -17 -3 -4
-10 7 -18 15 -18 17 0 8 8 3 21 -13z m-51 -29 c0 -8 -19 -13 -24 -6 -3 5 1 9
9 9 8 0 15 -2 15 -3z"/>
<path d="M2990 2221 c0 -7 -5 -9 -12 -5 -10 6 -10 5 -1 -8 7 -8 11 -17 8 -20
-3 -2 1 -5 9 -5 9 0 13 8 10 20 -4 23 -14 36 -14 18z"/>
<path d="M2343 2207 c0 -8 6 -14 14 -14 9 0 10 4 2 14 -6 7 -12 13 -14 13 -1
0 -2 -6 -2 -13z"/>
<path d="M2261 2197 c-8 -11 -4 -13 19 -12 16 1 31 3 32 6 2 2 1 3 -1 2 -2 -1
-12 2 -21 7 -12 7 -21 6 -29 -3z"/>
<path d="M3176 2201 c-4 -5 -2 -12 3 -15 5 -4 12 -2 15 3 4 5 2 12 -3 15 -5 4
-12 2 -15 -3z"/>
<path d="M3820 2189 c0 -5 5 -7 10 -4 6 3 10 8 10 11 0 2 -4 4 -10 4 -5 0 -10
-5 -10 -11z"/>
<path d="M3155 2169 c-4 -6 -4 -13 -1 -16 3 -4 6 0 6 7 0 9 7 7 23 -6 l22 -19
-19 23 c-22 25 -23 26 -31 11z"/>
<path d="M2925 2161 c6 -11 4 -13 -11 -8 -16 6 -15 4 4 -12 24 -21 30 -37 10
-25 -10 5 -10 4 -1 -6 7 -8 20 -15 29 -16 12 -2 14 0 5 9 -6 6 -11 15 -11 21
0 5 16 -5 35 -24 19 -18 33 -36 30 -38 -3 -3 -1 -10 5 -16 11 -15 -4 -41 -19
-32 -6 4 -11 12 -11 17 0 6 6 7 13 3 9 -6 9 -5 0 7 -6 8 -11 18 -10 23 1 5 -6
10 -16 12 -15 2 -16 0 -6 -12 14 -17 -2 -19 -18 -3 -9 9 -11 7 -9 -7 2 -11 10
-18 20 -16 9 2 16 -2 16 -8 0 -5 -5 -10 -12 -10 -18 0 -3 -10 22 -15 25 -5 51
-35 43 -49 -4 -5 0 -6 7 -1 9 5 11 4 6 -4 -4 -6 -4 -17 1 -24 5 -7 9 -25 8
-42 -1 -26 -4 -30 -33 -31 -38 -1 -39 1 -11 17 17 9 20 8 14 -2 -6 -8 -4 -10
5 -4 10 6 9 11 -5 21 -10 7 -15 19 -12 27 3 8 0 20 -6 26 -9 9 -8 10 7 5 14
-5 17 -4 12 5 -5 7 -15 10 -23 7 -9 -4 -11 -2 -7 6 4 6 3 8 -4 4 -7 -4 -8 -17
-2 -35 4 -16 6 -31 4 -34 -12 -12 -11 -47 2 -58 8 -6 14 -8 14 -4 0 4 7 2 15
-5 8 -7 12 -17 8 -23 -3 -6 -1 -7 6 -3 6 4 9 11 6 16 -3 4 2 10 10 14 14 5 29
-9 30 -29 0 -5 9 -9 19 -7 13 3 17 -1 13 -12 -6 -15 7 -29 31 -32 10 -2 10 2
-2 15 -17 19 -22 36 -7 26 5 -3 12 -1 15 4 4 5 2 12 -4 16 -5 3 -10 11 -10 16
0 6 4 8 9 5 5 -4 8 2 6 11 -2 10 -4 18 -5 18 -1 0 -3 10 -4 23 -2 12 1 22 6
22 4 0 8 5 8 11 0 5 -4 8 -10 4 -5 -3 -8 5 -7 17 1 13 -1 23 -4 23 -15 0 -48
39 -42 49 3 6 2 8 -2 3 -5 -4 -17 1 -28 10 -11 10 -18 13 -14 7 3 -6 0 -19 -7
-29 -12 -17 -13 -15 -11 16 1 24 6 33 16 30 8 -2 19 -4 25 -5 16 -3 44 -26 41
-34 -1 -4 3 -8 8 -10 20 -7 44 -35 39 -46 -3 -6 4 0 15 13 12 12 19 27 16 31
-3 5 1 10 7 13 7 3 3 4 -9 4 -14 -1 -19 -5 -14 -10 5 -5 7 -16 4 -23 -4 -11
-9 -12 -19 -3 -8 6 -11 15 -8 20 3 5 0 8 -8 7 -7 -2 -11 3 -9 12 2 8 4 29 5
45 1 22 6 30 20 30 11 0 20 8 22 19 2 14 0 16 -9 7 -15 -15 -30 -14 -21 2 6 8
3 8 -9 -1 -9 -8 -16 -17 -15 -20 2 -20 -3 -33 -11 -28 -10 7 -9 -20 2 -30 17
-17 5 -25 -13 -9 -11 10 -18 21 -15 25 2 3 -10 6 -28 5 -32 -2 -71 20 -62 35
3 4 -2 13 -10 20 -8 7 -15 9 -15 4 0 -4 -14 5 -32 22 -17 16 -27 23 -23 15z
m212 -106 c0 -8 -4 -12 -9 -9 -5 3 -6 10 -3 15 9 13 12 11 12 -6z m-6 -91 c3
3 4 -17 4 -45 -1 -28 3 -53 7 -55 5 -3 6 -10 2 -15 -8 -14 -26 0 -18 14 5 8 3
8 -6 0 -11 -11 -10 -17 8 -36 16 -17 18 -24 8 -24 -8 0 -15 3 -14 6 2 20 -4
22 -17 5 -8 -10 -14 -14 -13 -9 1 6 -2 19 -8 30 -6 11 -10 34 -9 50 1 17 -5
38 -13 48 -8 9 -12 17 -7 17 4 0 1 7 -6 16 -11 14 -11 18 4 29 9 6 13 16 9 21
-4 5 9 -6 29 -24 19 -18 37 -30 40 -28z"/>
<path d="M3077 1983 c6 -16 5 -17 -13 -3 -19 14 -19 14 0 -8 13 -15 15 -22 6
-22 -9 0 -8 -6 5 -20 10 -11 14 -20 10 -20 -4 0 0 -9 10 -20 10 -11 22 -17 26
-14 10 6 7 33 -4 51 -4 6 -3 13 3 15 6 2 -3 16 -20 31 -21 21 -28 23 -23 10z
m26 -49 c-3 -8 -1 -14 4 -14 5 0 10 -7 10 -15 0 -19 -19 -14 -23 6 -2 7 -5 25
-8 37 -4 20 -3 22 9 12 8 -6 11 -18 8 -26z"/>
<path d="M3085 1860 c6 -30 16 -40 12 -12 -2 12 -6 24 -10 28 -3 4 -4 -4 -2
-16z"/>
<path d="M2976 2158 c3 -5 10 -6 15 -3 13 9 11 12 -6 12 -8 0 -12 -4 -9 -9z"/>
<path d="M3029 2157 c6 -8 7 -18 3 -22 -4 -5 -1 -5 6 -1 10 6 10 11 1 22 -6 8
-14 14 -16 14 -3 0 0 -6 6 -13z"/>
<path d="M2250 2155 c0 -2 6 -8 13 -14 10 -8 14 -7 14 2 0 8 -6 14 -14 14 -7
0 -13 -1 -13 -2z"/>
<path d="M2306 2148 c3 -5 10 -6 15 -3 13 9 11 12 -6 12 -8 0 -12 -4 -9 -9z"/>
<path d="M2211 2117 c-8 -10 -7 -14 2 -14 8 0 14 6 14 14 0 7 -1 13 -2 13 -2
0 -8 -6 -14 -13z"/>
<path d="M2346 2121 c-4 -5 -2 -12 3 -15 5 -4 12 -2 15 3 4 5 2 12 -3 15 -5 4
-12 2 -15 -3z"/>
<path d="M2248 2108 c6 -6 8 -18 5 -27 -3 -13 -2 -12 7 2 6 9 17 14 23 11 8
-5 8 -3 0 6 -7 8 -20 15 -29 16 -12 2 -13 -1 -6 -8z"/>
<path d="M2165 2101 c-3 -5 -2 -12 3 -15 5 -3 9 1 9 9 0 17 -3 19 -12 6z"/>
<path d="M3024 2098 c-4 -7 -4 -10 1 -6 4 4 15 2 24 -5 14 -11 14 -10 2 6 -16
20 -18 21 -27 5z"/>
<path d="M3163 2067 c0 -8 6 -14 14 -14 9 0 10 4 2 14 -6 7 -12 13 -14 13 -1
0 -2 -6 -2 -13z"/>
<path d="M2157 2063 c-9 -17 -1 -68 10 -68 7 0 18 -6 25 -12 6 -7 8 -13 4 -13
-5 0 -4 -6 2 -13 11 -13 11 -42 -1 -53 -4 -4 -17 1 -29 12 -23 19 -23 19 0 -7
21 -24 21 -27 6 -33 -15 -6 -13 -11 15 -39 17 -19 29 -36 26 -40 -3 -4 -2 -4
2 -1 11 8 12 64 2 70 -5 3 -5 13 1 23 5 10 6 22 2 26 -4 5 2 5 13 2 19 -7 19
-6 2 7 -10 7 -20 23 -22 35 -3 18 0 21 15 16 10 -3 21 -1 25 4 4 7 -1 8 -12 4
-10 -3 -15 -3 -11 2 10 10 -11 37 -23 30 -4 -3 -5 -13 -2 -23 4 -12 -3 -9 -22
9 -26 25 -27 58 -2 42 7 -4 6 0 -2 10 -15 19 -18 20 -24 10z m54 -171 c-7 -13
-6 -23 2 -32 9 -10 9 -11 0 -6 -7 4 -13 3 -13 -3 0 -5 6 -11 13 -14 6 -2 9 -7
6 -11 -3 -3 -16 6 -30 21 -13 14 -19 23 -13 20 6 -4 16 5 22 18 7 14 14 25 17
25 3 0 1 -8 -4 -18z"/>
<path d="M3211 2054 c6 -7 16 -11 21 -8 11 7 3 17 -18 20 -12 2 -13 -1 -3 -12z"/>
<path d="M3896 2061 c-4 -5 -2 -12 3 -15 5 -4 12 -2 15 3 4 5 2 12 -3 15 -5 4
-12 2 -15 -3z"/>
<path d="M3945 2060 c-3 -6 -4 -10 0 -10 3 0 1 -9 -5 -19 -7 -15 -7 -22 2 -28
20 -12 39 -12 32 -1 -4 6 -1 8 7 6 8 -3 13 -11 11 -17 -1 -7 2 -10 8 -6 5 3
10 2 10 -3 0 -16 -13 -22 -27 -11 -9 9 -17 8 -27 0 -10 -8 -16 -9 -21 -1 -3 5
-3 10 1 10 4 0 -1 9 -11 20 -10 11 -22 17 -27 14 -4 -3 12 -28 37 -56 32 -36
43 -54 35 -62 -16 -16 -12 -26 10 -23 32 5 35 16 10 42 -24 25 -35 55 -21 55
15 0 29 -23 24 -39 -4 -13 -3 -14 5 -1 6 8 8 18 5 24 -3 5 -2 6 4 3 12 -7 12
-136 0 -154 -5 -7 -6 -17 -2 -22 3 -5 1 -12 -5 -16 -5 -3 -10 -15 -10 -25 0
-14 -5 -18 -17 -13 -10 4 -14 2 -9 -5 12 -20 -11 -22 -30 -1 -16 18 -31 60
-16 44 4 -4 7 -11 7 -17 0 -6 8 -12 18 -14 19 -3 22 7 7 22 -7 7 -6 11 4 11 8
0 13 -4 10 -8 -2 -4 1 -11 7 -15 8 -4 9 -3 5 4 -4 7 -2 12 5 12 10 0 10 3 1
12 -7 7 -12 17 -12 23 0 5 4 4 9 -3 7 -11 9 -11 14 2 7 17 -8 30 -23 21 -5 -3
-10 -14 -10 -23 0 -11 -8 -18 -20 -19 -13 -1 -18 2 -14 9 4 7 2 8 -4 4 -21
-12 -13 12 8 27 11 8 17 17 12 22 -4 5 -1 5 6 1 12 -7 17 6 6 17 -9 9 -35 -4
-28 -14 3 -5 0 -9 -6 -9 -6 0 -8 -5 -4 -12 4 -7 3 -8 -4 -4 -8 5 -9 13 -2 25
5 10 7 21 4 24 -3 3 3 4 12 3 13 -1 18 7 18 29 1 30 -3 35 -25 35 -8 0 -7 -6
2 -17 12 -15 12 -16 -1 -8 -12 6 -13 5 -3 -5 10 -11 9 -16 -5 -26 -9 -7 -18
-17 -18 -23 -1 -6 -2 -16 -3 -21 0 -6 -11 -8 -24 -6 -15 3 -24 -1 -24 -9 0 -8
9 -12 23 -9 33 6 55 -49 29 -74 -11 -12 -75 -11 -68 1 3 6 1 7 -5 3 -13 -8
-17 6 -5 18 4 3 8 13 9 22 2 11 -1 12 -10 5 -7 -6 -15 -9 -18 -6 -3 3 -4 -11
-3 -30 3 -34 -7 -46 -20 -25 -11 17 -35 -9 -28 -28 6 -15 5 -15 -10 -3 -9 7
-15 17 -12 21 3 4 -2 13 -9 19 -8 7 -17 8 -20 3 -3 -6 1 -15 9 -22 8 -7 15
-17 15 -23 0 -6 -11 0 -25 13 -29 27 -64 38 -44 14 6 -7 15 -12 19 -9 5 3 11
1 15 -5 3 -5 1 -10 -4 -10 -6 0 -10 -3 -9 -7 2 -5 -1 -8 -7 -8 -5 0 -9 4 -7 8
1 5 -2 6 -8 2 -6 -4 -17 -2 -25 5 -14 12 -22 5 -21 -20 1 -10 11 -15 30 -15
16 -1 31 -6 33 -12 3 -7 -9 -10 -31 -8 -28 1 -34 -1 -25 -11 6 -7 17 -10 25
-7 8 3 14 -1 14 -8 0 -8 6 -5 15 7 11 13 13 14 9 3 -3 -10 2 -19 12 -23 14 -5
15 -4 4 9 -8 9 -9 15 -2 15 6 0 16 -8 21 -17 7 -12 10 -14 11 -4 0 11 3 11 15
1 13 -11 15 -10 9 6 -5 18 -5 18 9 1 13 -16 15 -16 21 -2 4 11 2 14 -6 9 -6
-4 -8 -3 -5 3 9 14 53 8 49 -6 -4 -17 50 -9 56 8 3 9 0 11 -9 6 -8 -5 -11 -5
-7 0 12 13 -12 47 -28 41 -10 -4 -12 -2 -8 6 5 7 3 8 -6 3 -9 -5 -11 -4 -6 4
4 6 15 10 24 9 11 -2 16 3 16 15 -1 13 1 15 10 8 9 -7 19 -6 34 4 13 10 23 12
27 5 3 -5 5 -10 3 -11 -2 0 -11 -2 -21 -4 -49 -9 -32 -28 26 -30 39 -1 44 3
67 40 13 22 24 43 22 48 -1 4 3 7 10 7 6 0 8 3 5 6 -3 4 -1 16 5 27 5 11 10
46 9 79 -2 80 -3 88 -13 88 -4 0 -8 7 -8 15 0 16 -32 37 -51 33 -6 -2 -13 2
-16 8 -2 7 6 10 22 9 31 -4 31 -1 1 19 -15 10 -27 12 -31 6z m-24 -67 c13 -16
12 -17 -3 -4 -17 13 -22 21 -14 21 2 0 10 -8 17 -17z m-100 -280 c9 -10 9 -14
2 -10 -18 11 -36 -28 -19 -42 7 -6 16 -7 21 -3 4 4 6 0 3 -8 -3 -8 -16 -15
-29 -15 -13 0 -30 -4 -38 -9 -10 -7 -12 -6 -6 3 4 8 -2 7 -17 -3 -23 -15 -26
-15 -48 6 -20 19 -21 22 -7 33 9 7 13 16 9 20 -4 5 -1 5 6 1 7 -4 9 -13 6 -19
-5 -9 -4 -9 6 0 7 6 18 9 25 7 7 -3 16 -1 19 5 4 6 14 8 24 5 9 -3 7 1 -6 8
-12 8 -20 17 -16 21 4 4 13 2 20 -4 15 -12 37 -3 29 12 -10 15 2 10 16 -8z
m-172 -50 c2 -1 -5 -1 -16 0 -11 0 -20 7 -20 14 0 10 4 10 16 1 9 -7 18 -13
20 -15z"/>
<path d="M3755 1669 c-4 -6 -14 -8 -23 -4 -9 3 -13 2 -8 -2 7 -7 76 -12 76 -6
0 1 -9 7 -19 13 -14 7 -22 7 -26 -1z"/>
<path d="M3694 1642 c18 -21 29 -23 27 -5 -1 4 -4 8 -8 8 -5 0 -15 4 -23 9 -9
6 -7 1 4 -12z"/>
<path d="M2206 2048 c3 -5 10 -6 15 -3 13 9 11 12 -6 12 -8 0 -12 -4 -9 -9z"/>
<path d="M2250 2039 c0 -5 5 -7 10 -4 6 3 10 8 10 11 0 2 -4 4 -10 4 -5 0 -10
-5 -10 -11z"/>
<path d="M2246 2008 c3 -5 10 -6 15 -3 13 9 11 12 -6 12 -8 0 -12 -4 -9 -9z"/>
<path d="M2972 1988 c2 -5 6 -8 8 -7 3 1 16 -4 30 -11 24 -13 25 -12 7 7 -17
20 -50 28 -45 11z"/>
<path d="M2144 1969 c-2 -4 0 -10 6 -14 5 -3 10 -3 10 1 0 3 8 0 18 -7 15 -12
16 -12 5 2 -7 9 -11 18 -8 21 3 2 -2 5 -10 5 -9 0 -18 -4 -21 -8z"/>
<path d="M2110 1966 c0 -2 8 -10 18 -17 15 -13 16 -12 3 4 -13 16 -21 21 -21
13z"/>
<path d="M3026 1922 c-3 -5 1 -15 8 -21 11 -10 14 -9 12 3 -3 21 -13 29 -20
18z"/>
<path d="M4230 1923 c0 -5 4 -14 9 -21 6 -10 10 -9 14 7 3 14 0 21 -9 21 -8 0
-14 -3 -14 -7z"/>
<path d="M2115 1911 c4 -8 10 -32 11 -54 2 -23 12 -49 24 -62 11 -12 18 -24
15 -27 -3 -2 16 -27 42 -54 26 -27 46 -51 45 -54 -1 -3 2 -5 6 -5 9 0 48 -37
45 -42 -8 -10 -1 -15 8 -6 13 13 39 6 39 -9 0 -6 -8 -7 -17 -4 -10 4 0 -8 22
-26 21 -18 40 -31 41 -28 1 3 10 -2 20 -11 11 -9 26 -16 35 -16 19 0 22 24 3
24 -7 0 -10 -5 -7 -10 3 -5 0 -7 -8 -5 -8 3 -13 11 -11 17 1 7 -2 10 -8 6 -14
-9 -13 8 2 23 7 7 10 12 8 13 -3 0 -12 2 -22 4 -13 2 -15 -3 -12 -24 4 -21 3
-24 -8 -13 -7 7 -13 24 -13 37 0 14 -4 25 -10 26 -5 0 -19 6 -30 12 -11 6 -23
10 -27 9 -10 -2 -32 28 -35 50 -2 10 1 17 6 14 10 -7 9 13 -1 30 -4 6 -5 21
-3 34 2 12 2 20 -2 16 -3 -3 -13 0 -21 7 -13 10 -14 9 -7 -2 6 -11 4 -13 -7
-8 -9 3 -20 1 -26 -5 -7 -7 -19 -2 -37 18 -34 36 -46 67 -31 76 8 6 8 8 -1 8
-7 0 -10 6 -7 13 3 8 -3 20 -12 28 -15 12 -17 12 -9 0z m125 -181 c14 9 13 11
-10 14 -5 0 -11 5 -12 10 -4 13 41 15 49 3 3 -6 1 -7 -5 -3 -17 10 -15 -9 3
-24 8 -7 12 -17 9 -22 -4 -6 -10 -6 -17 1 -6 6 -16 11 -21 11 -7 0 -8 -3 -1
-8 25 -18 36 -40 24 -48 -7 -4 -9 -3 -5 4 3 6 1 14 -6 19 -7 5 -29 26 -48 48
-30 35 -31 36 -5 13 22 -20 34 -25 45 -18z m127 -139 c0 -11 -5 -18 -9 -15 -4
3 -5 11 -1 19 7 21 12 19 10 -4z"/>
<path d="M3615 1911 c-3 -5 -2 -12 3 -15 5 -3 9 1 9 9 0 17 -3 19 -12 6z"/>
<path d="M3813 1908 c-21 -28 -22 -36 -5 -49 15 -12 16 -12 5 2 -10 12 -9 20
3 37 16 23 13 31 -3 10z"/>
<path d="M3845 1911 c-6 -10 11 -24 33 -27 10 -2 8 3 -4 17 -20 22 -21 22 -29
10z"/>
<path d="M3953 1905 c0 -8 4 -12 9 -9 5 3 6 10 3 15 -9 13 -12 11 -12 -6z"/>
<path d="M3681 1894 c0 -11 3 -14 6 -6 3 7 2 16 -1 19 -3 4 -6 -2 -5 -13z"/>
<path d="M3844 1859 c-8 -14 14 -19 25 -6 8 10 7 14 -5 14 -8 0 -17 -4 -20 -8z"/>
<path d="M3959 1857 c12 -15 11 -20 -5 -40 l-19 -22 22 19 c17 14 26 16 36 8
11 -9 13 -6 13 17 0 17 -5 28 -13 28 -9 0 -10 -4 -3 -11 5 -5 10 -15 10 -20 0
-7 -3 -8 -8 -1 -4 6 -16 17 -27 25 -19 14 -19 14 -6 -3z"/>
<path d="M2157 1833 c-3 -4 3 -18 13 -31 11 -13 21 -18 25 -12 3 5 1 10 -5 10
-6 0 -9 4 -6 9 3 5 -1 14 -8 20 -8 7 -16 8 -19 4z"/>
<path d="M2246 1821 c-4 -5 -2 -12 3 -15 5 -4 12 -2 15 3 4 5 2 12 -3 15 -5 4
-12 2 -15 -3z"/>
<path d="M3806 1821 c-4 -5 -2 -12 3 -15 5 -4 12 -2 15 3 4 5 2 12 -3 15 -5 4
-12 2 -15 -3z"/>
<path d="M2294 1777 c1 -9 5 -20 9 -23 12 -12 8 -26 -5 -18 -7 4 -1 -6 14 -22
21 -21 31 -25 39 -17 6 6 19 9 28 6 9 -4 14 -4 11 -2 -3 2 -26 24 -52 48 -28
26 -46 37 -44 28z m56 -71 c-11 -11 -43 12 -34 26 3 5 0 17 -7 26 -7 9 1 4 19
-12 21 -19 29 -33 22 -40z"/>
<path d="M2320 1726 c0 -2 7 -7 16 -10 8 -3 12 -2 9 4 -6 10 -25 14 -25 6z"/>
<path d="M3165 1781 c-6 -10 11 -24 33 -27 10 -2 8 3 -4 17 -20 22 -21 22 -29
10z"/>
<path d="M3848 1783 c-10 -20 -1 -36 22 -39 21 -3 23 -2 7 7 -9 6 -15 14 -12
19 3 5 1 11 -4 14 -5 4 -11 3 -13 -1z"/>
<path d="M3665 1761 c-3 -5 -2 -12 3 -15 5 -3 9 1 9 9 0 17 -3 19 -12 6z"/>
<path d="M3554 1723 c2 -10 6 -17 10 -16 15 3 16 11 2 22 -12 10 -14 9 -12 -6z"/>
<path d="M2349 1673 c-6 -7 -10 -13 -8 -14 31 -6 38 -6 34 1 -3 4 2 10 10 14
18 7 23 -1 20 -40 -1 -19 3 -31 11 -31 7 0 11 4 8 9 -3 4 0 8 5 8 18 0 26 -5
23 -13 -1 -5 2 -6 8 -2 17 10 -8 35 -27 28 -11 -4 -14 -2 -11 8 3 8 13 13 22
13 14 -2 15 1 4 13 -8 10 -14 11 -16 4 -3 -9 -8 -9 -19 0 -20 17 -51 18 -64 2z"/>
<path d="M3566 1682 c-3 -5 1 -9 9 -9 8 0 12 4 9 9 -3 4 -7 8 -9 8 -2 0 -6 -4
-9 -8z"/>
<path d="M3846 1682 c-3 -4 5 -21 18 -36 20 -26 24 -27 44 -15 32 20 37 40 8
35 -13 -2 -33 2 -44 10 -12 8 -23 11 -26 6z m54 -32 c0 7 3 11 6 7 10 -9 -5
-27 -19 -21 -7 2 -19 14 -26 27 -13 21 -12 21 13 -2 16 -16 26 -20 26 -11z"/>
<path d="M2293 1666 c-3 -6 -3 -8 2 -4 4 4 13 3 20 -2 8 -7 12 -5 12 3 0 16
-25 18 -34 3z"/>
<path d="M3793 1613 c-15 -5 -17 -23 -4 -23 5 0 11 7 15 15 3 8 4 15 3 14 -1
0 -8 -3 -14 -6z"/>
<path d="M2535 1533 c4 -26 -12 -41 -40 -37 -30 3 -32 -2 -7 -15 16 -8 25 -3
53 27 19 20 30 33 25 29 -5 -4 -15 -2 -22 4 -9 7 -12 6 -9 -8z"/>
<path d="M2505 1530 c-4 -6 -12 -7 -18 -4 -7 4 -8 3 -4 -1 13 -15 34 -14 34 1
0 17 -4 18 -12 4z"/>
<path d="M2549 1498 c0 -2 -2 -11 -4 -21 -3 -15 -1 -16 11 -6 7 6 11 15 8 20
-5 9 -13 12 -15 7z"/>
<path d="M3998 1463 c7 -3 16 -2 19 1 4 3 -2 6 -13 5 -11 0 -14 -3 -6 -6z"/>
<path d="M4038 1453 c7 -3 16 -2 19 1 4 3 -2 6 -13 5 -11 0 -14 -3 -6 -6z"/>
<path d="M23 1363 c15 -2 37 -2 50 0 12 2 0 4 -28 4 -27 0 -38 -2 -22 -4z"/>
<path d="M242 1220 c-5 -236 -2 -883 3 -888 3 -3 5 45 5 106 l0 111 98 4 97 3
-97 2 -98 2 0 259 c0 239 1 260 18 264 16 4 16 5 0 6 -15 1 -18 17 -21 134
l-3 132 -2 -135z"/>
<path d="M288 1343 c6 -2 18 -2 25 0 6 3 1 5 -13 5 -14 0 -19 -2 -12 -5z"/>
<path d="M3458 1322 c9 -10 19 -17 21 -16 6 5 -20 34 -30 34 -5 0 -1 -8 9 -18z"/>
<path d="M514 1000 c0 -58 1 -81 3 -52 2 28 2 76 0 105 -2 28 -3 5 -3 -53z"/>
<path d="M18 1083 c12 -2 32 -2 45 0 12 2 2 4 -23 4 -25 0 -35 -2 -22 -4z"/>
<path d="M173 1083 c9 -2 25 -2 35 0 9 3 1 5 -18 5 -19 0 -27 -2 -17 -5z"/>
<path d="M990 705 c0 -147 2 -175 15 -175 11 0 15 18 17 77 3 71 5 77 25 78
19 1 27 -9 49 -69 30 -79 38 -91 53 -82 6 4 0 33 -17 82 -24 68 -25 76 -11 84
25 14 42 65 35 104 -10 51 -47 76 -112 76 l-54 0 0 -175z m126 120 c11 -17 14
-34 9 -57 -9 -40 -19 -48 -67 -48 l-38 0 0 65 0 65 40 0 c31 0 43 -5 56 -25z"/>
<path d="M1280 705 l0 -175 70 0 c56 0 70 3 70 15 0 12 -13 15 -55 15 l-56 0
3 68 c3 73 -3 68 76 71 12 1 22 7 22 16 0 11 -12 15 -50 15 l-50 0 0 60 0 60
55 0 c42 0 55 3 55 15 0 12 -14 15 -70 15 l-70 0 0 -175z"/>
<path d="M1601 848 c-19 -61 -81 -293 -81 -305 0 -29 27 -10 36 25 9 37 9 37
65 40 l56 3 12 -41 c7 -24 18 -40 27 -40 9 0 14 6 12 13 -3 6 -24 85 -48 175
-45 167 -59 191 -79 130z m65 -190 c5 -15 -1 -18 -40 -18 -52 0 -53 2 -31 75
28 92 23 96 71 -57z"/>
<path d="M1872 873 c-29 -11 -42 -62 -42 -162 0 -139 19 -180 85 -181 35 0 75
24 75 46 0 18 -24 18 -40 -1 -16 -20 -54 -19 -71 1 -21 26 -24 219 -4 250 18
27 56 32 79 9 19 -19 36 -19 36 -1 0 33 -73 57 -118 39z"/>
<path d="M2097 874 c-12 -12 4 -24 34 -24 l29 0 0 -154 c0 -99 4 -157 11 -161
6 -4 12 -5 14 -3 2 2 6 73 8 158 l4 155 32 5 c18 3 33 10 34 15 2 11 -155 20
-166 9z"/>
<path d="M7278 823 c18 -2 45 -2 60 0 15 2 0 4 -33 4 -33 0 -45 -2 -27 -4z"/>
<path d="M7172 668 l-2 -108 -87 -2 -88 -2 85 -5 85 -6 3 -127 3 -128 -126 0
-125 0 0 71 c0 44 -4 68 -10 64 -5 -3 -10 -35 -10 -70 l0 -64 -57 -4 -58 -3
58 -2 57 -2 0 -95 c0 -123 18 -125 22 -3 l3 93 122 3 122 3 4 -88 3 -88 2 87
2 87 93 4 92 3 -92 2 -93 2 0 130 0 129 98 4 97 3 -97 2 -97 2 -4 108 -3 107
-2 -107z"/>
<path d="M52 553 c32 -2 84 -2 115 0 32 2 6 3 -57 3 -63 0 -89 -1 -58 -3z"/>
<path d="M6638 313 c-3 -7 -3 -126 1 -272 0 -24 3 -42 6 -39 3 3 6 67 6 142 0
134 0 136 22 137 14 0 17 2 7 6 -8 3 -20 12 -27 20 -6 8 -13 11 -15 6z"/>
<path d="M0 290 c0 -6 36 -10 89 -10 50 0 93 5 96 10 4 6 -28 10 -89 10 -57 0
-96 -4 -96 -10z"/>
<path d="M390 289 c-89 -4 -66 -5 100 -6 212 0 252 3 95 9 -44 2 -132 1 -195
-3z"/>
<path d="M6543 283 c15 -2 39 -2 55 0 15 2 2 4 -28 4 -30 0 -43 -2 -27 -4z"/>
<path d="M6718 283 c12 -2 32 -2 45 0 12 2 2 4 -23 4 -25 0 -35 -2 -22 -4z"/>
<path d="M770 142 c0 -51 4 -92 8 -92 10 0 9 166 -1 176 -4 4 -7 -34 -7 -84z"/>
<path d="M240 101 c0 -56 3 -100 8 -97 9 5 8 184 -2 193 -3 3 -6 -40 -6 -96z"/>
<path d="M807 28 c-7 -4 39 -8 102 -8 63 0 111 3 107 8 -10 9 -194 9 -209 0z"/>
<path d="M500 20 c0 -5 5 -10 10 -10 6 0 10 5 10 10 0 6 -4 10 -10 10 -5 0
-10 -4 -10 -10z"/>
</g>
</svg>
