<?xml version="1.0" standalone="no"?>
<!DOCTYPE svg PUBLIC "-//W3C//DTD SVG 20010904//EN"
 "http://www.w3.org/TR/2001/REC-SVG-20010904/DTD/svg10.dtd">
<svg version="1.0" xmlns="http://www.w3.org/2000/svg"
 width="1200.000000pt" height="838.000000pt" viewBox="0 0 1200.000000 838.000000"
 preserveAspectRatio="xMidYMid meet">

<g transform="translate(0.000000,838.000000) scale(0.100000,-0.100000)"
fill="#000000" stroke="none">
<path d="M461 8027 c-24 -29 17 -70 46 -46 20 17 12 53 -13 57 -11 2 -26 -3
-33 -11z m33 -12 c-6 16 -4 18 6 8 14 -13 5 -33 -16 -33 -8 0 -14 10 -14 22 0
21 0 21 15 2 15 -19 15 -19 9 1z"/>
<path d="M3550 8036 c0 -2 8 -10 18 -17 15 -13 16 -12 3 4 -13 16 -21 21 -21
13z"/>
<path d="M5576 8017 c-11 -8 -16 -20 -13 -28 4 -10 6 -9 6 5 1 11 6 16 14 13
8 -3 14 1 14 9 0 17 1 17 -21 1z"/>
<path d="M5804 8014 c-18 -14 -18 -15 4 -4 12 6 22 13 22 15 0 8 -5 6 -26 -11z"/>
<path d="M5921 8014 c0 -11 3 -14 6 -6 3 7 2 16 -1 19 -3 4 -6 -2 -5 -13z"/>
<path d="M6161 8014 c0 -11 3 -14 6 -6 3 7 2 16 -1 19 -3 4 -6 -2 -5 -13z"/>
<path d="M5660 8016 c0 -2 7 -7 16 -10 8 -3 12 -2 9 4 -6 10 -25 14 -25 6z"/>
<path d="M5725 8009 c-4 -6 -4 -13 -1 -16 3 -4 6 -1 6 5 0 7 5 12 11 12 6 0 8
-7 4 -17 -5 -14 -3 -15 6 -6 12 12 5 33 -11 33 -5 0 -12 -5 -15 -11z"/>
<path d="M6020 8016 c0 -2 7 -7 16 -10 8 -3 12 -2 9 4 -6 10 -25 14 -25 6z"/>
<path d="M6184 8009 c-5 -8 -3 -9 6 -4 7 4 16 2 22 -6 8 -12 9 -12 6 0 -6 20
-24 25 -34 10z"/>
<path d="M6247 7999 c4 -13 8 -18 11 -10 2 7 -1 18 -6 23 -8 8 -9 4 -5 -13z"/>
<path d="M6385 8009 c-11 -16 -1 -19 13 -3 7 8 8 14 3 14 -5 0 -13 -5 -16 -11z"/>
<path d="M6442 8006 c7 -8 15 -12 17 -11 5 6 -10 25 -20 25 -5 0 -4 -6 3 -14z"/>
<path d="M5861 7994 c0 -11 3 -14 6 -6 3 7 2 16 -1 19 -3 4 -6 -2 -5 -13z"/>
<path d="M6081 7994 c0 -11 3 -14 6 -6 3 7 2 16 -1 19 -3 4 -6 -2 -5 -13z"/>
<path d="M6320 8001 c0 -5 7 -12 16 -15 14 -5 15 -4 4 9 -14 17 -20 19 -20 6z"/>
<path d="M3555 7990 c-3 -5 -1 -10 4 -10 6 0 11 5 11 10 0 6 -2 10 -4 10 -3 0
-8 -4 -11 -10z"/>
<path d="M11546 7975 c-3 -8 -1 -15 4 -15 6 0 10 7 10 15 0 8 -2 15 -4 15 -2
0 -6 -7 -10 -15z"/>
<path d="M9986 7801 c-10 -11 -27 -53 -38 -93 -20 -76 -28 -91 -35 -70 -3 6
-9 12 -14 12 -18 0 -8 -23 24 -55 44 -44 97 -53 154 -25 54 26 57 32 28 60
-19 18 -22 26 -14 37 14 16 5 17 -23 2 -15 -8 -27 -8 -45 0 -19 9 -24 9 -21
-1 3 -7 20 -18 39 -25 19 -7 32 -12 29 -13 -38 -10 -51 -7 -69 17 -12 14 -21
36 -21 49 0 19 5 24 26 24 18 0 25 4 21 14 -5 12 30 56 45 56 5 0 22 -59 33
-119 7 -38 15 -37 15 1 0 19 -3 38 -7 42 -4 3 -8 17 -10 29 -9 63 -80 99 -117
58z"/>
<path d="M2483 7772 c-22 -3 -54 -56 -47 -77 3 -6 -4 -20 -16 -30 -11 -10 -20
-22 -20 -27 0 -5 11 3 25 18 14 15 25 36 25 48 0 28 11 42 38 51 48 15 85 -58
44 -87 -19 -14 -37 -38 -28 -38 14 0 56 57 56 75 0 37 -41 73 -77 67z"/>
<path d="M10050 7736 c0 -9 7 -16 16 -16 17 0 14 22 -4 28 -7 2 -12 -3 -12
-12z"/>
<path d="M2477 7717 c-8 -21 8 -39 29 -35 27 5 25 42 -2 46 -12 2 -24 -3 -27
-11z m38 -6 c7 -12 -12 -24 -25 -16 -11 7 -4 25 10 25 5 0 11 -4 15 -9z"/>
<path d="M2462 7640 c-7 -11 -19 -20 -28 -20 -8 0 -12 -5 -9 -10 6 -10 63 27
64 43 2 14 -14 7 -27 -13z"/>
<path d="M11343 7633 c9 -2 25 -2 35 0 9 3 1 5 -18 5 -19 0 -27 -2 -17 -5z"/>
<path d="M2478 7563 c6 -2 18 -2 25 0 6 3 1 5 -13 5 -14 0 -19 -2 -12 -5z"/>
<path d="M367 7493 c-12 -11 -8 -6972 3 -6994 10 -19 31 -19 915 -19 l905 0 0
3510 0 3510 -908 0 c-500 0 -912 -3 -915 -7z m201 -126 c2 -8 -6 -21 -17 -27
-19 -9 -21 -8 -21 13 0 39 31 50 38 14z m48 15 c5 -4 10 -17 10 -28 0 -15 -7
-21 -22 -21 -19 0 -22 4 -19 26 4 36 8 39 31 23z m74 -11 c12 -23 -12 -54 -35
-45 -18 7 -20 50 -2 57 21 9 26 7 37 -12z m130 8 c0 -5 -4 -7 -10 -4 -5 3 -10
1 -10 -4 0 -6 6 -11 13 -12 8 0 8 -2 -2 -6 -11 -5 -11 -7 0 -14 11 -7 10 -9
-3 -9 -18 0 -26 39 -11 53 10 10 23 8 23 -4z m56 -22 c1 -21 -2 -24 -12 -17
-8 8 -14 7 -17 -2 -3 -7 -6 -1 -6 13 -1 14 2 29 6 33 13 13 28 -1 29 -27z m60
21 c5 -8 2 -9 -9 -5 -22 8 -22 -2 1 -19 14 -10 15 -15 5 -25 -10 -10 -16 -10
-25 -1 -9 9 -8 12 7 12 18 0 18 0 0 13 -10 8 -15 19 -11 25 9 15 23 15 32 0z
m78 6 c21 -8 21 -50 0 -58 -22 -8 -34 1 -34 28 0 33 8 40 34 30z m76 -26 c0
-25 -3 -29 -12 -20 -15 15 -32 16 -23 2 3 -5 1 -10 -4 -10 -6 0 -10 11 -9 25
3 28 8 31 26 13 9 -9 12 -8 12 5 0 9 2 17 5 17 3 0 5 -14 5 -32z m-350 7 c0
-8 5 -15 10 -15 6 0 10 8 10 17 0 9 3 14 6 10 8 -7 -5 -47 -15 -47 -4 0 -13
11 -19 25 -7 15 -8 25 -2 25 6 0 10 -7 10 -15z m217 -22 c-3 -10 -5 -4 -5 12
0 17 2 24 5 18 2 -7 2 -21 0 -30z m543 -242 c0 -24 -25 -45 -45 -37 -18 7 -20
62 -2 69 19 7 47 -12 47 -32z m-655 -26 c6 0 11 12 13 28 2 15 7 27 11 27 10
0 1 -59 -9 -65 -20 -12 -40 8 -39 39 l1 31 7 -30 c3 -16 11 -30 16 -30z m276
23 c-8 -39 -36 -45 -36 -8 0 15 5 24 13 23 6 -2 12 2 12 7 0 6 4 10 9 10 5 0
5 -15 2 -32z m246 16 c2 -6 -8 -19 -22 -28 -25 -16 -25 -16 -25 14 0 27 3 31
22 28 12 -2 23 -8 25 -14z m59 -24 c2 -32 1 -33 -12 -15 -13 17 -16 18 -24 5
-7 -11 -10 -7 -10 18 0 29 3 33 22 30 18 -2 23 -10 24 -38z m-496 -1 c0 -15
-26 -39 -43 -39 -5 0 0 28 9 57 5 19 34 4 34 -18z m47 -10 c1 -19 0 -28 -3
-21 -3 6 -12 12 -20 12 -14 0 -20 31 -7 44 14 14 28 -2 30 -35z m36 11 c-7
-28 -13 -25 -13 6 0 14 4 23 9 20 5 -3 7 -15 4 -26z m52 -1 c0 -25 -26 -35
-31 -11 -1 7 0 8 3 2 7 -15 23 -2 17 15 -4 8 -11 12 -17 8 -6 -3 -7 -1 -3 6
12 19 31 7 31 -20z m110 2 c-3 -3 -10 1 -15 9 -8 12 -10 10 -10 -8 0 -13 4
-20 10 -17 6 3 10 1 10 -4 0 -16 -16 -13 -30 4 -18 21 6 51 27 34 7 -7 11 -14
8 -18z m53 -1 c-1 -16 -5 -27 -10 -24 -11 7 -10 54 1 54 5 0 9 -13 9 -30z m52
14 c11 -12 11 -18 -2 -31 -19 -18 -38 -10 -38 16 0 33 20 40 40 15z m-710
-280 c0 -3 -6 -4 -14 -1 -8 3 -17 1 -20 -6 -2 -7 -5 3 -5 22 l-1 35 20 -22
c11 -12 20 -24 20 -28z m19 14 c0 -28 -2 -30 -9 -13 -12 28 -12 45 0 45 6 0
10 -15 9 -32z m41 22 c-13 -9 -13 -10 0 -10 13 0 13 -1 0 -10 -13 -9 -13 -11
0 -21 12 -8 12 -10 -5 -7 -13 2 -19 11 -18 26 1 32 1 32 21 32 14 0 15 -2 2
-10z m44 -28 c-8 -30 -22 -19 -16 13 2 15 8 23 13 18 5 -5 6 -18 3 -31z m26 6
c0 -23 -3 -29 -9 -19 -8 12 -4 51 5 51 2 0 4 -15 4 -32z m45 -9 c6 0 13 10 17
23 6 19 7 18 5 -7 -2 -23 -7 -30 -22 -30 -15 0 -20 7 -22 30 -2 25 -1 26 5 7
4 -13 12 -23 17 -23z m125 -224 c18 -22 3 -55 -26 -55 -21 0 -24 5 -24 35 0
28 4 35 19 35 10 0 24 -7 31 -15z m150 -2 c11 -10 20 -25 20 -35 0 -26 -20
-22 -21 5 l-2 22 -4 -22 c-7 -36 -23 -27 -23 12 0 40 2 41 30 18z m97 -7 c17
5 29 1 39 -12 14 -17 15 -17 10 -1 -4 12 0 17 14 17 14 0 20 -7 20 -24 0 -22
-4 -24 -45 -24 -25 1 -45 6 -45 12 0 6 -5 5 -12 -2 -7 -7 -20 -12 -30 -12 -14
0 -18 8 -18 36 0 34 1 35 22 20 13 -9 31 -13 45 -10z m183 -11 c0 -29 -4 -35
-20 -35 -12 0 -24 9 -29 23 l-9 22 -10 -25 -11 -25 0 27 c-1 24 3 27 31 26 18
-1 34 4 36 10 7 22 12 12 12 -23z m80 25 c0 -5 -8 -10 -17 -11 -15 0 -15 -2 2
-9 17 -7 17 -9 3 -9 -10 -1 -18 -5 -18 -10 0 -5 8 -12 18 -15 10 -3 7 -4 -7
-3 -18 2 -25 8 -26 27 -2 14 -1 28 2 33 6 11 43 9 43 -3z m267 -42 c-2 -13 -4
-5 -4 17 -1 22 1 32 4 23 2 -10 2 -28 0 -40z m63 6 c0 -17 -6 -24 -20 -24 -25
0 -36 25 -20 45 16 20 40 7 40 -21z m-780 1 c0 -18 -5 -25 -18 -25 -25 0 -31
7 -25 31 8 29 43 25 43 -6z m40 15 c-10 -6 -11 -10 -2 -10 6 0 12 -7 12 -15 0
-8 -9 -15 -20 -15 -11 0 -20 5 -20 11 0 5 6 7 13 3 10 -6 10 -4 0 7 -19 19
-16 29 10 29 18 0 19 -2 7 -10z m513 -10 c7 -25 -2 -30 -49 -28 -33 1 -39 4
-39 23 0 19 6 22 41 24 34 1 43 -3 47 -19z m87 -6 c0 -14 -4 -23 -10 -19 -6 4
-8 10 -5 15 3 5 1 11 -5 15 -6 3 -10 -4 -11 -17 0 -23 0 -23 -11 2 l-11 25 -7
-25 -8 -25 -1 28 c-1 24 2 27 34 27 31 0 35 -3 35 -26z m60 8 c0 -15 -32 -52
-45 -52 -3 0 -5 16 -5 35 0 31 3 35 25 35 17 0 25 -5 25 -18z m-1077 -269 c7
2 11 12 11 21 -1 9 2 16 7 16 13 0 11 -34 -2 -47 -19 -19 -39 -3 -38 31 2 31
2 31 6 3 3 -16 10 -26 16 -24z m44 0 c-3 -10 -5 -2 -5 17 0 19 2 27 5 18 2
-10 2 -26 0 -35z m83 36 c12 -8 12 -9 -5 -7 -12 2 -21 -4 -23 -16 -3 -14 0
-17 12 -13 9 4 16 2 16 -3 0 -17 -37 -11 -44 6 -6 16 9 44 23 44 3 0 13 -5 21
-11z m68 -18 c4 -26 -13 -42 -35 -34 -14 5 -18 45 -6 57 14 14 38 0 41 -23z
m34 -9 c-7 -2 -10 -8 -6 -13 3 -5 1 -9 -5 -9 -8 0 -8 25 -1 60 0 3 6 -4 12
-14 8 -15 8 -21 0 -24z m48 0 c0 -21 -2 -24 -10 -12 -9 13 -11 13 -20 0 -13
-20 -13 -6 1 24 14 31 29 25 29 -12z m49 24 c9 -11 6 -17 -14 -30 -24 -16 -25
-16 -25 7 0 37 18 48 39 23z m61 -1 c16 -20 6 -45 -19 -45 -26 0 -34 15 -21
40 13 24 23 25 40 5z m63 2 c3 10 5 3 6 -16 1 -33 0 -34 -18 -17 -18 17 -19
17 -24 -1 -3 -10 -5 -3 -6 16 -1 33 0 34 18 17 18 -17 19 -17 24 1z m47 3
c-13 -9 -13 -11 0 -20 13 -9 13 -10 0 -10 -13 0 -13 -1 0 -10 13 -8 12 -10 -2
-10 -13 0 -18 8 -18 30 0 22 5 30 18 30 14 0 15 -2 2 -10z m41 -31 c-9 -23
-10 -22 -10 11 -1 23 2 31 9 24 7 -7 7 -19 1 -35z m85 25 c-3 -9 -6 -22 -6
-30 0 -27 -18 -14 -22 16 -4 25 -1 30 15 30 13 0 17 -5 13 -16z m60 4 c5 -8 2
-9 -9 -5 -22 8 -22 -2 1 -19 14 -11 15 -15 3 -23 -8 -5 -21 -6 -30 -3 -14 6
-13 7 2 10 17 4 17 4 1 16 -18 14 -12 36 11 36 8 0 17 -5 21 -12z m-106 -23
c0 -26 -14 -33 -26 -13 -4 6 -2 14 4 16 7 2 10 8 6 13 -3 5 0 9 5 9 6 0 11
-11 11 -25z m-285 -235 c-17 -7 -17 -9 -2 -9 9 -1 17 -5 17 -11 0 -5 -8 -11
-17 -11 -17 -1 -17 -2 0 -6 9 -2 17 -8 17 -13 0 -4 -8 -7 -17 -6 -12 2 -19 13
-21 34 -3 28 0 32 20 31 22 0 22 -1 3 -9z m32 -37 c-3 -10 -5 -2 -5 17 0 19 2
27 5 18 2 -10 2 -26 0 -35z m269 6 c1 -16 -2 -26 -7 -23 -5 3 -9 19 -9 36 0
39 14 28 16 -13z m-211 2 c-3 -3 -10 1 -15 9 -8 13 -10 12 -10 -2 0 -10 5 -18
11 -18 5 0 7 -5 3 -11 -4 -7 -11 -6 -22 5 -13 12 -13 18 -2 31 10 12 16 13 27
4 7 -7 11 -14 8 -18z m77 15 c4 -6 13 -5 23 4 14 12 18 12 25 0 5 -8 7 -17 4
-19 -3 -3 -9 1 -14 9 -8 12 -10 10 -10 -8 0 -15 4 -21 12 -16 7 5 8 3 3 -5 -5
-9 -11 -9 -17 -3 -6 6 -18 8 -27 5 -12 -4 -13 -3 -3 4 10 8 10 12 -3 23 -13
11 -15 9 -16 -11 l0 -24 -11 25 -11 25 -7 -25 c-7 -22 -8 -22 -9 -4 -1 11 2
23 5 27 9 9 48 4 56 -7z m105 -16 l3 -25 -11 25 -12 25 -7 -25 -8 -25 -1 28
c-1 22 3 28 17 25 10 -2 18 -14 19 -28z m79 18 c4 -6 3 -8 -4 -4 -5 3 -12 0
-15 -6 -2 -7 -8 -10 -12 -6 -8 8 2 28 15 28 5 0 12 -5 16 -12z m4 -27 c0 -14
-18 -23 -31 -15 -8 4 -7 9 2 15 18 11 29 11 29 0z m-330 -220 c0 -5 -8 -8 -17
-7 -12 1 -18 -6 -18 -19 0 -14 6 -19 20 -17 16 3 17 1 8 -9 -10 -10 -15 -10
-28 1 -15 13 -20 42 -8 53 9 10 43 8 43 -2z m49 -47 c-14 -14 -17 -14 -29 0
-10 13 -10 19 0 32 12 14 15 14 29 0 14 -15 14 -17 0 -32z m83 31 c11 -15 10
-35 -2 -35 -5 0 -7 6 -4 14 3 8 1 17 -5 21 -7 4 -11 -3 -12 -17 0 -23 0 -23
-11 2 l-11 25 -7 -25 c-7 -22 -8 -22 -9 -4 -1 11 2 23 5 27 9 9 48 4 56 -8z
m53 -16 c0 -14 -5 -23 -12 -21 -7 1 -13 -2 -13 -8 0 -5 -4 -10 -9 -10 -8 0 -6
22 5 58 7 22 29 7 29 -19z m55 16 c10 -12 10 -18 0 -29 -14 -18 -40 -10 -40
13 0 32 20 40 40 16z m58 -13 c2 -12 -1 -22 -7 -22 -6 0 -8 6 -5 14 3 8 1 17
-5 21 -7 3 -11 -2 -11 -14 0 -12 -5 -21 -11 -21 -5 0 -8 3 -6 8 2 4 7 15 10
25 9 24 31 17 35 -11z m47 17 c4 -6 4 -13 0 -17 -3 -3 -10 0 -15 8 -8 13 -10
12 -10 -2 0 -10 5 -18 10 -18 6 0 10 -4 10 -10 0 -16 -20 -12 -26 5 -12 31 15
60 31 34z m52 -20 l3 -24 -11 25 -12 25 -7 -25 c-7 -22 -8 -22 -9 -4 -2 41 32
45 36 3z m30 1 c0 -20 -3 -26 -9 -18 -10 17 -10 48 0 48 5 0 9 -14 9 -30z m49
18 c4 -6 3 -8 -4 -4 -5 3 -12 0 -15 -6 -2 -7 -8 -10 -12 -6 -8 8 2 28 15 28 5
0 12 -5 16 -12z m4 -27 c0 -14 -18 -23 -31 -15 -8 4 -7 9 2 15 18 11 29 11 29
0z m-485 -243 c1 -29 -10 -37 -18 -15 -4 9 -8 8 -16 -3 -8 -12 -11 -8 -11 18
0 29 3 33 23 30 16 -2 22 -10 22 -30z m185 12 c0 -11 -2 -20 -4 -20 -2 0 -6 9
-9 20 -3 11 -1 20 4 20 5 0 9 -9 9 -20z m152 -10 c-2 -16 -8 -30 -12 -30 -4 0
-10 14 -12 30 -4 23 -1 30 12 30 13 0 16 -7 12 -30z m106 -5 c2 -9 -1 -22 -7
-28 -15 -15 -38 8 -38 37 0 21 3 23 21 17 11 -5 23 -16 24 -26z m19 -12 c-3
-10 -5 -2 -5 17 0 19 2 27 5 18 2 -10 2 -26 0 -35z m-414 25 c3 -10 7 -10 17
-1 7 6 19 9 26 6 16 -6 19 -63 3 -63 -5 0 -7 5 -4 10 3 6 -1 10 -9 10 -9 0
-16 5 -16 10 0 6 -6 10 -14 10 -8 0 -17 6 -19 13 -3 6 -6 2 -6 -11 -1 -13 3
-20 9 -17 6 3 10 1 10 -4 0 -16 -20 -13 -26 4 -7 18 2 45 15 45 5 0 11 -6 14
-12z m187 -23 c0 -14 -25 -27 -34 -18 -3 4 -6 11 -6 17 0 6 5 4 10 -4 8 -12
10 -10 10 8 0 15 -4 21 -12 16 -7 -4 -8 -3 -4 5 9 14 36 -4 36 -24z m29 28 c0
-5 -4 -17 -9 -28 -8 -18 -9 -17 -9 8 -1 15 4 27 9 27 6 0 10 -3 9 -7z m119
-17 c5 -25 -14 -44 -30 -28 -6 6 -8 15 -4 19 4 4 11 1 16 -7 8 -12 10 -10 10
8 0 13 -4 20 -10 17 -5 -3 -10 -1 -10 5 0 18 25 5 28 -14z m130 3 c3 -11 2
-11 -7 1 -7 10 -11 11 -11 3 0 -24 2 -28 14 -25 8 3 8 0 -1 -8 -14 -15 -33 -4
-33 19 0 33 29 41 38 10z m48 9 c4 -7 3 -8 -4 -4 -7 4 -12 2 -12 -4 0 -6 -5
-8 -10 -5 -11 7 -4 25 10 25 5 0 12 -5 16 -12z m-416 -18 c7 23 8 23 9 3 1
-12 -4 -25 -10 -29 -13 -7 -29 13 -28 36 0 8 5 4 11 -10 l11 -25 7 25z m420
-9 c0 -14 -18 -23 -31 -15 -8 4 -7 9 2 15 18 11 29 11 29 0z m-878 -265 c-6
-12 -22 15 -22 39 0 17 2 17 14 -5 7 -14 11 -29 8 -34z m37 39 c11 19 12 18 7
-5 -3 -14 -6 -28 -6 -32 0 -15 -20 -8 -20 7 0 8 -4 15 -10 15 -5 0 -6 8 -3 17
6 15 7 15 13 -2 7 -19 7 -19 19 0z m28 -32 c-3 -10 -5 -2 -5 17 0 19 2 27 5
18 2 -10 2 -26 0 -35z m67 31 c7 -19 -10 -44 -30 -44 -9 0 -14 11 -14 30 0 23
5 30 19 30 10 0 22 -7 25 -16z m60 7 c4 -5 -3 -7 -14 -4 -14 4 -20 0 -20 -10
0 -20 17 -31 23 -15 2 7 8 10 12 6 10 -10 -3 -28 -21 -28 -17 0 -28 24 -20 45
6 17 32 20 40 6z m46 -1 c-13 -9 -13 -10 0 -10 13 0 13 -1 0 -10 -13 -9 -13
-11 0 -21 12 -8 12 -10 -5 -7 -13 2 -21 12 -23 31 -3 23 0 27 20 27 18 0 20
-2 8 -10z m63 3 c-7 -2 -14 -17 -14 -31 l-2 -27 -4 25 c-3 14 -10 28 -17 32
-6 4 3 7 19 7 17 0 24 -3 18 -6z m44 0 c-17 -4 -17 -5 -1 -17 9 -7 14 -18 10
-24 -9 -14 -36 -16 -36 -2 0 5 8 7 18 4 16 -5 16 -5 0 9 -25 20 -22 37 5 36
18 -1 18 -2 4 -6z m-27 -264 c14 -24 -2 -49 -31 -49 -14 0 -19 7 -19 28 0 46
30 59 50 21z m136 1 c8 0 14 -9 13 -22 0 -21 -1 -22 -8 -3 -8 19 -8 19 -19 0
-10 -18 -11 -16 -11 15 0 19 3 29 6 23 2 -7 11 -13 19 -13z m60 0 c8 0 14 -5
14 -10 0 -6 8 -5 20 2 17 11 22 10 29 -1 5 -8 7 -20 4 -28 -6 -16 -29 -17 -39
-2 -4 8 -9 8 -17 0 -19 -19 -35 -12 -39 19 -4 29 3 52 10 31 2 -6 10 -11 18
-11z m204 -15 c0 -29 -4 -35 -21 -35 -13 0 -23 8 -26 21 -6 21 -7 21 -20 4
-12 -18 -13 -18 -13 2 0 18 6 21 32 21 18 -1 34 4 36 10 7 22 12 12 12 -23z
m81 3 c8 -30 3 -38 -23 -38 -14 0 -18 8 -18 36 0 28 4 35 17 32 9 -2 20 -15
24 -30z m-431 -13 c0 -15 -6 -25 -14 -25 -22 0 -30 19 -11 26 13 6 14 8 3 15
-10 7 -9 9 5 9 12 0 17 -8 17 -25z m41 16 c-9 -6 -10 -11 -2 -15 13 -9 5 -26
-12 -26 -8 0 -8 3 1 9 11 7 10 9 -3 15 -20 7 -10 26 13 26 13 0 14 -2 3 -9z
m219 -16 c0 -15 -6 -25 -14 -25 -18 0 -30 17 -17 24 5 4 12 0 14 -6 4 -8 6 -7
6 4 1 9 -5 19 -11 21 -8 3 -6 6 5 6 12 1 17 -7 17 -24z m225 0 c0 -11 -7 -21
-16 -23 -18 -3 -33 23 -23 39 10 17 39 5 39 -16z m43 0 c0 -12 -6 -22 -13 -22
-7 0 -12 10 -12 22 0 12 5 22 12 22 7 0 13 -10 13 -22z m51 8 c0 -11 -3 -13
-6 -5 -2 6 -9 12 -14 12 -14 0 -6 -24 11 -32 13 -5 12 -7 -2 -7 -21 -1 -32 15
-24 34 8 21 36 19 35 -2z m42 8 c-9 -6 -10 -11 -2 -15 13 -9 5 -26 -12 -26 -8
0 -8 3 1 9 11 7 10 9 -3 15 -20 7 -10 26 13 26 13 0 14 -2 3 -9z m-991 -241
c-11 -7 -12 -12 -4 -17 9 -6 8 -12 -2 -21 -12 -11 -14 -8 -14 18 0 22 5 30 18
30 14 0 15 -2 2 -10z m75 -20 c0 -18 -6 -26 -22 -28 -18 -3 -23 1 -23 21 0 28
9 39 30 35 9 -2 15 -14 15 -28z m60 -3 c1 -28 -10 -36 -18 -14 -4 9 -8 8 -16
-3 -9 -12 -11 -10 -11 11 0 30 8 41 30 37 9 -2 15 -14 15 -31z m55 -21 c0 -5
-6 -3 -14 3 -11 9 -15 9 -19 -1 -3 -7 -6 3 -6 22 l-1 35 20 -25 c11 -14 20
-29 20 -34z m20 22 c-1 -28 -2 -30 -11 -15 -6 10 -8 25 -5 33 9 24 16 16 16
-18z m56 20 c5 -8 2 -9 -9 -5 -10 3 -17 2 -17 -3 0 -6 7 -10 15 -10 8 0 15 -6
15 -14 0 -17 -27 -29 -35 -16 -4 6 2 10 11 10 17 0 16 1 -1 13 -10 8 -15 19
-11 25 9 15 23 15 32 0z m54 -258 c0 -5 -9 -6 -20 -3 -15 4 -20 0 -20 -16 0
-15 6 -21 22 -21 17 0 19 -3 10 -12 -8 -8 -15 -8 -27 2 -18 15 -20 41 -4 57
12 12 39 7 39 -7z m247 -37 c-3 -10 -5 -2 -5 17 0 19 2 27 5 18 2 -10 2 -26 0
-35z m-193 21 c4 -9 1 -23 -5 -31 -11 -12 -14 -12 -27 1 -17 17 -10 46 12 46
7 0 17 -7 20 -16z m53 -15 l3 -24 -11 25 -12 25 -7 -25 c-7 -22 -8 -22 -9 -4
-2 41 32 45 36 3z m29 6 c-1 -33 -16 -33 -16 0 0 14 4 25 9 25 5 0 8 -11 7
-25z m31 0 c-7 -13 -14 -20 -15 -14 -5 14 6 39 17 39 5 0 4 -11 -2 -25z m60 9
c3 -8 -1 -22 -9 -30 -13 -13 -16 -13 -28 0 -10 13 -10 19 0 31 16 19 29 19 37
-1z m68 6 c4 -6 -1 -7 -11 -3 -12 4 -15 3 -10 -5 4 -7 2 -12 -3 -12 -12 0 -14
13 -4 23 9 10 21 9 28 -3z m5 -29 c0 -14 -29 -21 -36 -9 -4 7 -3 8 4 4 7 -4
12 -2 12 3 0 6 5 11 10 11 6 0 10 -4 10 -9z m-324 -261 c8 0 14 -5 14 -11 0
-6 -7 -8 -16 -5 -9 3 -18 6 -20 6 -2 0 -3 15 -3 33 2 30 2 30 6 5 2 -16 11
-28 19 -28z m62 13 c2 -11 -4 -23 -12 -26 -16 -6 -33 10 -22 20 3 4 6 1 6 -6
0 -7 4 -10 10 -6 5 3 7 12 4 20 -4 8 -11 12 -17 8 -6 -3 -7 -1 -3 6 11 17 30
8 34 -16z m98 12 c4 -8 0 -22 -7 -31 -12 -15 -15 -14 -30 5 l-17 21 -6 -25
c-9 -35 -21 -31 -23 8 -2 23 0 28 7 17 7 -12 10 -12 10 -1 0 7 6 11 15 8 8 -4
17 -2 20 3 9 15 25 12 31 -5z m84 5 c0 -5 -4 -10 -10 -10 -5 0 -10 5 -10 10 0
6 5 10 10 10 6 0 10 -4 10 -10z m46 -2 c4 -6 3 -8 -4 -4 -5 3 -12 0 -15 -6 -2
-7 -8 -10 -12 -6 -8 8 2 28 15 28 5 0 12 -5 16 -12z m-96 -28 c5 0 11 8 13 18
4 13 5 12 6 -4 0 -12 -5 -24 -13 -27 -18 -7 -26 1 -25 27 1 17 2 18 6 4 2 -10
8 -18 13 -18z m50 -5 c0 -8 -2 -15 -4 -15 -2 0 -6 7 -10 15 -3 8 -1 15 4 15 6
0 10 -7 10 -15z m50 6 c0 -17 -21 -24 -33 -11 -9 10 -9 11 1 6 6 -4 12 -2 12
3 0 6 5 11 10 11 6 0 10 -4 10 -9z m-285 -232 c4 12 9 21 11 18 3 -2 0 -17 -6
-33 -11 -28 -12 -28 -26 -10 -8 11 -14 27 -14 35 1 11 5 7 14 -8 l14 -24 7 22z
m82 -26 c-3 -10 -5 -2 -5 17 0 19 2 27 5 18 2 -10 2 -26 0 -35z m61 -14 c-7
-4 -17 -4 -21 0 -12 12 -3 47 11 44 7 -2 13 3 13 10 1 6 4 -1 6 -17 3 -17 -1
-32 -9 -37z m-91 15 c-4 -15 -5 -14 -6 4 -1 15 -5 21 -13 16 -7 -5 -8 -3 -3 5
10 18 28 -2 22 -25z m151 12 c5 -25 -14 -44 -30 -28 -6 6 -8 15 -4 19 4 4 11
1 16 -7 8 -12 10 -10 10 8 0 13 -4 20 -10 17 -5 -3 -10 -1 -10 5 0 18 25 5 28
-14z m31 -3 c0 -25 -1 -26 -9 -8 -12 27 -12 35 0 35 6 0 10 -12 9 -27z m76 -3
c0 -13 -6 -25 -12 -27 -16 -6 -27 21 -19 43 9 23 31 11 31 -16z m56 2 c5 -12
4 -22 -1 -22 -5 0 -10 10 -13 23 -4 22 -4 22 -15 -3 -10 -23 -11 -23 -11 -4
-2 40 26 44 40 6z m-264 -14 c-3 -7 -5 -2 -5 12 0 14 2 19 5 13 2 -7 2 -19 0
-25z m160 0 c-3 -7 -5 -2 -5 12 0 14 2 19 5 13 2 -7 2 -19 0 -25z m-227 -4 c0
-8 -4 -12 -10 -9 -5 3 -10 10 -10 16 0 5 5 9 10 9 6 0 10 -7 10 -16z m-314
-215 c4 -8 -1 -9 -16 -4 -18 6 -21 3 -18 -12 2 -12 11 -17 23 -15 16 3 17 1 8
-8 -18 -19 -43 -4 -43 25 0 18 5 25 19 25 11 0 23 -5 27 -11z m39 -9 c7 0 16
6 18 13 3 6 6 -4 6 -23 0 -28 -2 -32 -10 -17 -5 9 -14 17 -19 17 -5 0 -11 -8
-13 -17 -3 -10 -5 -2 -5 17 0 19 2 29 5 23 2 -7 11 -13 18 -13z m79 -2 c9 -35
7 -41 -7 -29 -10 8 -17 7 -25 -1 -15 -15 -15 -7 -2 26 12 32 26 33 34 4z m63
-11 c2 -24 0 -27 -13 -17 -11 10 -14 10 -14 1 0 -7 -4 -9 -10 -6 -5 3 -10 17
-10 31 0 21 4 25 22 22 17 -2 23 -10 25 -31z m44 1 c-5 -30 -6 -31 -9 -8 -2
14 -9 28 -16 32 -7 5 -3 8 10 8 18 0 20 -5 15 -32z m56 25 c-17 -4 -17 -5 -1
-17 9 -7 14 -18 10 -24 -9 -14 -36 -16 -36 -2 0 5 8 7 18 4 12 -4 10 0 -6 13
-25 21 -20 34 12 32 18 -1 18 -2 3 -6z m7 -252 c3 -5 -2 -8 -12 -7 -11 1 -17
-6 -17 -19 0 -13 6 -20 18 -19 9 1 17 -3 17 -8 0 -5 -10 -8 -22 -6 -23 3 -34
28 -24 54 6 16 32 19 40 5z m66 -32 c0 -5 7 -6 16 -2 13 5 13 8 2 15 -9 7 -8
8 7 6 24 -4 27 -41 3 -46 -9 -2 -26 7 -37 19 -19 21 -21 21 -21 4 0 -27 -15
-8 -15 20 -1 21 0 22 22 8 13 -9 23 -19 23 -24z m160 6 c0 -35 -20 -49 -36
-23 -5 8 -2 9 9 5 14 -5 17 0 17 23 0 17 2 30 5 30 3 0 5 -16 5 -35z m55 25
c3 -6 -1 -7 -9 -4 -9 3 -16 2 -16 -4 0 -5 7 -12 15 -16 22 -8 18 -36 -5 -36
-11 0 -20 4 -20 10 0 5 7 7 15 4 20 -8 19 6 -2 21 -9 7 -13 17 -9 23 9 15 23
15 31 2z m-105 -32 c0 -36 -4 -35 -14 5 -4 16 -2 27 4 27 5 0 10 -14 10 -32z
m-38 -3 c-2 -14 -6 -25 -8 -25 -2 0 -4 11 -4 25 0 14 4 25 9 25 4 0 6 -11 3
-25z"/>
<path d="M540 7359 c0 -5 5 -7 10 -4 6 3 10 8 10 11 0 2 -4 4 -10 4 -5 0 -10
-5 -10 -11z"/>
<path d="M595 7370 c-3 -5 1 -10 10 -10 9 0 13 5 10 10 -3 6 -8 10 -10 10 -2
0 -7 -4 -10 -10z"/>
<path d="M650 7355 c0 -8 7 -15 15 -15 8 0 15 7 15 15 0 8 -7 15 -15 15 -8 0
-15 -7 -15 -15z"/>
<path d="M990 7355 c0 -8 7 -15 15 -15 8 0 15 7 15 15 0 8 -7 15 -15 15 -8 0
-15 -7 -15 -15z"/>
<path d="M1450 7102 c0 -10 3 -22 7 -25 10 -11 32 13 26 29 -8 20 -33 17 -33
-4z"/>
<path d="M1090 7090 c0 -5 5 -10 10 -10 6 0 10 5 10 10 0 6 -4 10 -10 10 -5 0
-10 -4 -10 -10z"/>
<path d="M1330 7110 c0 -5 7 -10 16 -10 8 0 12 5 9 10 -3 6 -10 10 -16 10 -5
0 -9 -4 -9 -10z"/>
<path d="M1390 7110 c0 -5 5 -10 10 -10 6 0 10 5 10 10 0 6 -4 10 -10 10 -5 0
-10 -4 -10 -10z"/>
<path d="M900 7090 c0 -19 3 -21 12 -12 9 9 9 15 0 24 -9 9 -12 7 -12 -12z"/>
<path d="M956 7101 c-4 -7 -5 -15 -2 -18 9 -9 19 4 14 18 -4 11 -6 11 -12 0z"/>
<path d="M1250 7090 c0 -5 5 -10 10 -10 6 0 10 5 10 10 0 6 -4 10 -10 10 -5 0
-10 -4 -10 -10z"/>
<path d="M840 6579 c0 -11 5 -17 10 -14 6 3 10 13 10 21 0 8 -4 14 -10 14 -5
0 -10 -9 -10 -21z"/>
<path d="M1065 6581 c-3 -5 -1 -12 5 -16 5 -3 10 1 10 9 0 18 -6 21 -15 7z"/>
<path d="M1120 6574 c0 -8 5 -12 10 -9 6 3 10 10 10 16 0 5 -4 9 -10 9 -5 0
-10 -7 -10 -16z"/>
<path d="M1270 6574 c0 -8 5 -12 10 -9 6 4 8 11 5 16 -9 14 -15 11 -15 -7z"/>
<path d="M1425 6581 c-3 -5 -1 -12 4 -15 5 -3 11 1 15 9 6 16 -9 21 -19 6z"/>
<path d="M1600 6580 c0 -5 5 -10 11 -10 5 0 7 5 4 10 -3 6 -8 10 -11 10 -2 0
-4 -4 -4 -10z"/>
<path d="M716 6343 c-12 -12 -6 -33 9 -33 8 0 15 6 15 14 0 17 -14 28 -24 19z"/>
<path d="M855 6340 c-3 -5 -1 -10 4 -10 6 0 11 5 11 10 0 6 -2 10 -4 10 -3 0
-8 -4 -11 -10z"/>
<path d="M914 6336 c-8 -22 3 -33 18 -18 9 9 9 15 0 24 -9 9 -13 7 -18 -6z"/>
<path d="M896 5813 c-11 -11 -6 -23 9 -23 8 0 15 4 15 9 0 13 -16 22 -24 14z"/>
<path d="M1030 5806 c0 -9 5 -16 10 -16 6 0 10 4 10 9 0 6 -4 13 -10 16 -5 3
-10 -1 -10 -9z"/>
<path d="M1086 5811 c-4 -7 -5 -15 -2 -18 9 -9 19 4 14 18 -4 11 -6 11 -12 0z"/>
<path d="M830 5560 c0 -5 7 -10 15 -10 8 0 15 5 15 10 0 6 -7 10 -15 10 -8 0
-15 -4 -15 -10z"/>
<path d="M1280 5540 c0 -19 3 -21 12 -12 9 9 9 15 0 24 -9 9 -12 7 -12 -12z"/>
<path d="M940 5546 c0 -9 5 -16 10 -16 6 0 10 4 10 9 0 6 -4 13 -10 16 -5 3
-10 -1 -10 -9z"/>
<path d="M650 5290 c0 -11 4 -20 9 -20 11 0 22 26 14 34 -12 12 -23 5 -23 -14z"/>
<path d="M830 5035 c0 -17 5 -25 13 -22 6 2 12 12 12 22 0 10 -6 20 -12 23 -8
2 -13 -6 -13 -23z"/>
<path d="M1050 5025 c0 -8 5 -15 10 -15 6 0 10 7 10 15 0 8 -4 15 -10 15 -5 0
-10 -7 -10 -15z"/>
<path d="M1100 5025 c0 -8 5 -15 10 -15 6 0 10 7 10 15 0 8 -4 15 -10 15 -5 0
-10 -7 -10 -15z"/>
<path d="M1237 5034 c-8 -8 1 -24 14 -24 5 0 9 7 9 15 0 15 -12 20 -23 9z"/>
<path d="M1320 5050 c0 -5 5 -10 10 -10 6 0 10 5 10 10 0 6 -4 10 -10 10 -5 0
-10 -4 -10 -10z"/>
<path d="M1320 5020 c0 -5 5 -10 10 -10 6 0 10 5 10 10 0 6 -4 10 -10 10 -5 0
-10 -4 -10 -10z"/>
<path d="M1380 5024 c0 -8 5 -12 10 -9 6 3 10 10 10 16 0 5 -4 9 -10 9 -5 0
-10 -7 -10 -16z"/>
<path d="M594 4786 c-8 -22 3 -33 18 -18 9 9 9 15 0 24 -9 9 -13 7 -18 -6z"/>
<path d="M655 4790 c-3 -5 -1 -10 4 -10 6 0 11 5 11 10 0 6 -2 10 -4 10 -3 0
-8 -4 -11 -10z"/>
<path d="M896 4523 c-11 -11 -6 -23 9 -23 8 0 15 4 15 9 0 13 -16 22 -24 14z"/>
<path d="M1066 4523 c-11 -11 -6 -23 9 -23 8 0 15 4 15 9 0 13 -16 22 -24 14z"/>
<path d="M976 4262 c-3 -6 -1 -14 5 -17 15 -10 25 3 12 16 -7 7 -13 7 -17 1z"/>
<path d="M980 3990 c0 -5 5 -10 10 -10 6 0 10 5 10 10 0 6 -4 10 -10 10 -5 0
-10 -4 -10 -10z"/>
<path d="M1140 3990 c0 -5 5 -10 10 -10 6 0 10 5 10 10 0 6 -4 10 -10 10 -5 0
-10 -4 -10 -10z"/>
<path d="M2980 7186 c0 -44 1 -46 30 -46 29 0 30 1 27 43 -2 38 -5 42 -29 45
-27 3 -28 2 -28 -42z m48 17 c2 -8 -5 -13 -17 -13 -12 0 -21 6 -21 16 0 18 31
15 38 -3z m2 -38 c0 -8 -9 -15 -20 -15 -11 0 -20 7 -20 15 0 8 9 15 20 15 11
0 20 -7 20 -15z"/>
<path d="M3319 7223 c-1 -4 -2 -25 -3 -45 -1 -35 1 -38 25 -38 37 0 55 24 43
58 -7 19 -18 28 -37 30 -15 2 -28 0 -28 -5z m51 -18 c16 -19 3 -55 -21 -55
-15 0 -19 7 -19 35 0 37 18 47 40 20z"/>
<path d="M3540 7210 c-1 -14 -3 -35 -4 -47 -2 -13 1 -23 6 -23 4 0 8 11 8 25
0 34 28 32 33 -2 4 -26 4 -26 6 5 1 29 -3 34 -26 31 -4 0 -10 8 -14 18 -6 15
-8 14 -9 -7z"/>
<path d="M3611 7188 c-1 -44 1 -48 23 -48 26 0 39 20 30 45 -4 8 -14 15 -24
15 -10 0 -21 8 -23 18 -3 9 -5 -4 -6 -30z m44 -18 c0 -8 -8 -16 -17 -18 -13
-2 -18 3 -18 18 0 15 5 20 18 18 9 -2 17 -10 17 -18z"/>
<path d="M3910 7215 c0 -9 -7 -15 -16 -13 -21 4 -39 -24 -31 -46 4 -9 17 -16
32 -16 23 0 25 4 25 45 0 25 -2 45 -5 45 -3 0 -5 -7 -5 -15z m-5 -45 c0 -8 -8
-16 -17 -18 -13 -2 -18 3 -18 18 0 15 5 20 18 18 9 -2 17 -10 17 -18z"/>
<path d="M3070 7200 c-13 -8 -13 -10 0 -10 9 0 16 -9 17 -20 1 -11 -3 -20 -8
-20 -6 0 -7 5 -3 11 4 7 2 10 -5 8 -23 -8 -16 -24 12 -27 23 -3 27 0 27 21 0
31 -20 49 -40 37z"/>
<path d="M3130 7195 c-8 -10 -6 -17 12 -30 l23 -17 -23 5 c-12 3 -20 1 -16 -4
8 -14 44 -10 44 5 0 8 -8 17 -17 21 -17 7 -17 8 1 14 17 7 17 8 3 14 -8 3 -21
0 -27 -8z"/>
<path d="M10384 7197 c-2 -7 -4 -54 -2 -103 l3 -89 125 0 125 0 0 100 0 100
-123 3 c-96 2 -124 0 -128 -11z m136 -67 c0 -5 7 -10 16 -10 11 0 14 -5 10
-16 -3 -9 -6 -21 -6 -28 0 -7 -13 -13 -30 -13 -17 0 -30 6 -30 13 0 7 -3 19
-6 28 -4 11 -1 16 10 16 9 0 16 5 16 10 0 6 5 10 10 10 6 0 10 -4 10 -10z"/>
<path d="M3192 7170 c0 -19 2 -27 5 -17 2 9 2 25 0 35 -3 9 -5 1 -5 -18z"/>
<path d="M3216 7185 c-12 -33 22 -66 43 -41 8 9 5 12 -12 12 -13 -1 -22 5 -22
14 0 9 9 15 23 14 12 0 22 3 22 8 0 14 -48 8 -54 -7z"/>
<path d="M3423 7193 c18 -4 17 -6 -3 -20 -25 -18 -11 -44 21 -36 30 8 21 57
-12 60 -16 1 -18 0 -6 -4z m17 -33 c0 -5 -7 -10 -16 -10 -8 0 -12 5 -9 10 3 6
10 10 16 10 5 0 9 -4 9 -10z"/>
<path d="M3475 7191 c-3 -5 5 -17 17 -26 l23 -17 -22 5 c-24 5 -32 -8 -10 -16
37 -13 50 23 15 42 l-23 12 23 -5 c12 -2 22 0 22 5 0 12 -37 12 -45 0z"/>
<path d="M3687 7194 c-11 -12 -8 -41 6 -53 19 -15 50 9 45 35 -3 19 -38 31
-51 18z m38 -24 c0 -8 -8 -16 -17 -18 -13 -2 -18 3 -18 18 0 15 5 20 18 18 9
-2 17 -10 17 -18z"/>
<path d="M3775 7191 c19 -8 19 -8 -2 -15 -31 -10 -30 -36 2 -36 21 0 25 5 25
30 0 25 -4 30 -22 29 -22 0 -22 -1 -3 -8z m15 -31 c0 -5 -7 -10 -16 -10 -8 0
-12 5 -9 10 3 6 10 10 16 10 5 0 9 -4 9 -10z"/>
<path d="M3821 7168 c1 -22 3 -26 6 -13 3 11 10 26 15 33 8 9 6 12 -6 12 -12
0 -16 -9 -15 -32z"/>
<path d="M10752 7059 c-2 -35 2 -48 14 -53 23 -9 652 -7 657 2 3 4 -144 7
-326 7 l-332 0 -6 45 -6 45 -1 -46z"/>
<path d="M9332 6508 c-19 -19 -17 -1331 2 -1347 10 -8 294 -10 1057 -9 l1044
3 3 669 c1 486 -1 673 -9 682 -16 19 -2078 21 -2097 2z m1226 -267 c2 -112 -1
-168 -9 -177 -15 -19 -319 -20 -337 -2 -17 17 -17 319 0 336 9 9 58 12 178 10
l165 -3 3 -164z m-393 -426 c0 -86 -1 -90 -22 -93 -22 -3 -23 0 -23 67 0 65
-9 87 -25 61 -10 -15 -25 -12 -25 6 0 24 42 54 70 51 25 -2 25 -3 25 -92z
m168 83 c2 -7 -14 -50 -37 -95 -33 -68 -45 -83 -63 -83 -13 0 -23 2 -23 4 0 2
18 35 39 75 l39 71 -44 0 c-37 0 -44 3 -44 20 0 18 7 20 64 20 43 0 66 -4 69
-12z m189 -5 c27 -24 22 -48 -18 -93 l-36 -40 36 0 c29 0 36 -4 36 -20 0 -18
-7 -20 -70 -20 -86 0 -91 14 -25 72 25 22 45 48 45 59 0 26 -30 37 -45 16 -14
-19 -45 -23 -45 -5 0 43 85 65 122 31z m78 -30 l0 -46 23 21 c13 12 34 22 47
22 l24 0 -27 -28 -27 -28 25 -36 c30 -44 30 -48 6 -48 -11 0 -28 11 -39 25
-11 14 -23 25 -26 25 -3 0 -6 -11 -6 -25 0 -18 -5 -25 -20 -25 -19 0 -20 7
-20 95 0 88 1 95 20 95 17 0 20 -7 20 -47z m-233 -104 c14 -14 6 -39 -12 -39
-18 0 -28 17 -21 35 6 18 18 19 33 4z m23 -184 c0 -19 -4 -35 -10 -35 -11 0
-14 53 -3 63 11 12 13 8 13 -28z m-115 15 c3 -5 12 -7 19 -4 10 4 12 -2 9 -20
-6 -28 -23 -36 -23 -11 0 16 -29 10 -42 -9 -4 -6 -8 4 -8 22 0 25 4 32 19 32
11 0 22 -4 26 -10z m165 -5 c0 -8 -5 -14 -11 -12 -6 1 -14 -4 -16 -10 -7 -21
14 -15 37 9 15 17 23 19 32 10 6 -6 8 -15 4 -19 -4 -4 -11 -1 -16 7 -8 13 -10
12 -10 -2 0 -10 7 -18 17 -18 12 0 14 -3 6 -11 -7 -7 -17 -8 -25 -3 -7 5 -23
7 -35 5 -26 -3 -31 20 -10 44 16 19 27 19 27 0z m-82 -19 c6 -29 -15 -43 -35
-24 -14 14 -14 20 -3 33 16 19 34 15 38 -9z m172 15 c0 -12 -20 -25 -27 -18
-7 7 6 27 18 27 5 0 9 -4 9 -9z m8 -33 c-6 -17 -38 -23 -38 -8 0 6 5 8 10 5 6
-3 10 -1 10 4 0 6 5 11 11 11 6 0 9 -6 7 -12z m-291 -221 c-2 -25 -7 -32 -22
-32 -23 0 -33 38 -15 60 18 22 38 7 37 -28z m51 -2 c-1 -27 -6 -35 -20 -35
-22 0 -23 13 -3 30 8 7 15 17 15 22 0 6 -7 8 -15 4 -8 -3 -15 -1 -15 3 0 11
22 20 32 14 4 -2 7 -19 6 -38z m242 37 c0 -4 -5 -13 -11 -19 -7 -7 -3 -9 15
-6 15 3 26 1 26 -6 0 -6 -12 -11 -26 -11 -22 0 -25 -2 -14 -15 19 -23 -4 -18
-25 5 -17 19 -17 21 0 40 19 21 35 26 35 12z m-128 -17 c-2 -5 -12 -9 -22 -8
-12 2 -20 -6 -24 -22 -4 -14 -11 -25 -17 -25 -6 0 -8 7 -5 15 3 8 9 21 12 29
3 9 -2 16 -13 19 -10 3 2 5 27 4 25 -1 44 -6 42 -12z m16 -20 c-13 -19 -27
-35 -31 -35 -4 0 -4 6 0 13 28 43 39 57 45 57 5 0 -2 -16 -14 -35z m24 -27
c-15 -15 -26 -4 -18 18 5 13 9 15 18 6 9 -9 9 -15 0 -24z m-126 -15 c-10 -10
-19 5 -10 18 6 11 8 11 12 0 2 -7 1 -15 -2 -18z"/>
<path d="M10240 5580 c0 -5 5 -10 10 -10 6 0 10 5 10 10 0 6 -4 10 -10 10 -5
0 -10 -4 -10 -10z"/>
<path d="M10330 5560 c0 -5 5 -10 10 -10 6 0 10 5 10 10 0 6 -4 10 -10 10 -5
0 -10 -4 -10 -10z"/>
<path d="M10220 5314 c0 -8 5 -12 10 -9 6 4 8 11 5 16 -9 14 -15 11 -15 -7z"/>
<path d="M6003 6428 c-13 -16 -16 -158 -5 -176 7 -9 49 -12 178 -10 l169 3 0
95 0 95 -166 3 c-125 2 -169 -1 -176 -10z m107 -82 c-5 -13 -6 -27 -3 -30 4
-3 2 -6 -4 -6 -6 0 -13 14 -15 30 -4 24 -1 30 13 30 15 0 17 -4 9 -24z m81 14
c25 -14 25 -50 0 -50 -13 0 -20 9 -23 30 -5 34 -4 34 23 20z m79 -20 c0 -16
-4 -30 -10 -30 -5 0 -10 6 -10 14 0 8 -3 21 -6 30 -4 11 -1 16 10 16 11 0 16
-9 16 -30z m-112 -8 c3 -17 -2 -22 -17 -22 -14 0 -21 6 -21 18 0 38 33 41 38
4z"/>
<path d="M6180 6330 c0 -5 5 -10 10 -10 6 0 10 5 10 10 0 6 -4 10 -10 10 -5 0
-10 -4 -10 -10z"/>
<path d="M2780 6335 c0 -36 18 -47 38 -22 13 16 -3 57 -23 57 -11 0 -15 -10
-15 -35z m30 15 c0 -5 -4 -10 -10 -10 -5 0 -10 5 -10 10 0 6 5 10 10 10 6 0
10 -4 10 -10z m0 -30 c0 -5 -4 -10 -10 -10 -5 0 -10 5 -10 10 0 6 5 10 10 10
6 0 10 -4 10 -10z"/>
<path d="M2851 6352 c-16 -29 -14 -42 5 -35 9 3 20 0 26 -8 7 -10 8 -5 3 16
-9 41 -21 51 -34 27z"/>
<path d="M2911 6335 c1 -40 1 -40 10 -10 5 18 5 33 -1 39 -7 7 -10 -4 -9 -29z"/>
<path d="M2950 6349 c0 -11 -4 -17 -10 -14 -16 10 -12 -11 5 -25 13 -11 15 -7
15 24 0 20 -2 36 -5 36 -3 0 -5 -9 -5 -21z"/>
<path d="M2975 6351 c-14 -44 24 -67 48 -29 8 12 7 21 -2 32 -18 21 -38 20
-46 -3z m39 -22 c-10 -16 -24 -9 -24 12 0 18 2 19 15 9 8 -7 12 -16 9 -21z"/>
<path d="M3041 6355 c1 -31 15 -60 22 -48 4 6 0 24 -8 39 -12 23 -15 25 -14 9z"/>
<path d="M3070 6362 c0 -5 6 -22 14 -36 l14 -27 11 32 c13 38 6 53 -8 18 -7
-16 -10 -19 -10 -7 -1 17 -21 37 -21 20z"/>
<path d="M3133 6335 c0 -22 2 -30 4 -17 2 12 2 30 0 40 -3 9 -5 -1 -4 -23z"/>
<path d="M3160 6341 c0 -34 10 -44 35 -35 25 10 16 58 -12 62 -20 3 -23 -1
-23 -27z m40 -7 c0 -8 -7 -14 -15 -14 -15 0 -21 21 -9 33 10 9 24 -2 24 -19z"/>
<path d="M3228 6363 c6 -2 13 -19 13 -36 2 -28 2 -29 6 -7 3 14 10 31 15 38 8
9 4 12 -18 11 -16 0 -23 -3 -16 -6z"/>
<path d="M3289 6343 c-3 -18 -2 -33 3 -33 4 0 8 5 8 10 0 17 28 11 33 -7 3
-10 5 0 5 22 0 22 -2 32 -5 23 -2 -10 -11 -18 -18 -18 -7 0 -15 8 -17 18 -3
10 -6 4 -9 -15z"/>
<path d="M3381 6333 c0 -28 2 -33 8 -19 6 16 9 17 16 6 7 -11 10 -10 15 6 10
26 1 44 -21 44 -15 0 -19 -7 -18 -37z m29 17 c0 -5 -4 -10 -10 -10 -5 0 -10 5
-10 10 0 6 5 10 10 10 6 0 10 -4 10 -10z"/>
<path d="M3444 6356 c-10 -25 0 -51 21 -54 20 -3 20 -3 0 9 -19 12 -19 12 0
20 20 7 20 8 0 9 -20 1 -20 1 -1 15 18 13 18 15 3 15 -10 0 -20 -6 -23 -14z"/>
<path d="M3500 6335 l0 -36 21 20 c23 21 20 51 -6 51 -11 0 -15 -10 -15 -35z
m30 16 c0 -6 -4 -13 -10 -16 -5 -3 -10 1 -10 9 0 9 5 16 10 16 6 0 10 -4 10
-9z"/>
<path d="M3564 6356 c-10 -26 0 -51 21 -51 16 0 20 7 20 30 0 33 -30 49 -41
21z m32 -32 c-5 -13 -10 -14 -18 -6 -6 6 -8 18 -4 28 5 13 10 14 18 6 6 -6 8
-18 4 -28z"/>
<path d="M3631 6333 c1 -21 3 -30 6 -20 4 17 6 17 23 2 17 -15 18 -14 16 17
-1 26 -6 34 -24 36 -20 3 -22 -1 -21 -35z m29 17 c0 -5 -4 -10 -10 -10 -5 0
-10 5 -10 10 0 6 5 10 10 10 6 0 10 -4 10 -10z"/>
<path d="M3697 6362 c6 -4 13 -21 16 -37 l4 -30 2 32 c0 17 7 34 14 36 6 3 -1
6 -18 6 -16 0 -25 -3 -18 -7z"/>
<path d="M3754 6358 c-4 -6 0 -16 9 -23 22 -16 22 -26 0 -18 -11 4 -14 3 -9
-5 9 -15 33 -15 42 -1 4 7 -4 20 -17 31 l-24 19 24 -6 c16 -5 21 -4 17 4 -9
14 -33 14 -42 -1z"/>
<path d="M6478 6340 c2 -16 5 -30 7 -30 2 0 5 14 7 30 3 19 0 30 -7 30 -7 0
-10 -11 -7 -30z"/>
<path d="M6550 6343 c0 -27 4 -33 21 -33 15 0 20 5 17 20 -2 12 -7 20 -12 20
-5 -1 -13 4 -17 12 -6 9 -9 2 -9 -19z m26 -20 c-10 -10 -19 5 -10 18 6 11 8
11 12 0 2 -7 1 -15 -2 -18z"/>
<path d="M6630 6359 c0 -5 5 -7 10 -4 6 3 10 2 10 -4 0 -5 -4 -13 -10 -16 -15
-9 -12 -25 5 -25 8 0 12 6 9 14 -3 8 0 17 5 21 6 3 9 11 6 16 -8 12 -35 11
-35 -2z"/>
<path d="M6528 6333 c5 -21 7 -23 10 -9 2 10 0 22 -6 28 -6 6 -7 0 -4 -19z"/>
<path d="M6505 6320 c3 -5 8 -10 11 -10 2 0 4 5 4 10 0 6 -5 10 -11 10 -5 0
-7 -4 -4 -10z"/>
<path d="M2548 5919 c-10 -5 -18 -15 -18 -21 0 -6 9 -3 20 7 16 15 22 15 35 5
8 -7 15 -8 15 -2 0 5 -7 13 -16 16 -19 7 -15 8 -36 -5z"/>
<path d="M2639 5913 c-12 -16 -12 -17 2 -5 17 12 49 7 49 -9 0 -4 -10 -15 -22
-23 l-22 -16 23 0 c16 0 22 -5 19 -17 -4 -22 -37 -30 -50 -11 -8 10 -9 10 -5
-2 2 -9 15 -15 33 -15 28 0 29 2 30 45 2 65 -27 92 -57 53z"/>
<path d="M2730 5916 c-10 -13 -10 -19 0 -32 12 -14 15 -14 29 0 14 15 14 17 0
32 -14 14 -17 14 -29 0z m25 -26 c-5 -8 -11 -8 -17 -2 -6 6 -7 16 -3 22 5 8
11 8 17 2 6 -6 7 -16 3 -22z"/>
<path d="M4719 5913 c-13 -15 -12 -15 9 -4 38 20 59 -9 25 -35 -17 -13 -17
-13 0 -14 21 0 23 -28 2 -36 -8 -4 -23 0 -32 7 -14 12 -16 12 -11 -1 3 -9 17
-15 34 -15 28 0 29 2 30 45 2 65 -26 91 -57 53z"/>
<path d="M4822 5918 c-20 -20 -13 -32 7 -14 20 19 41 14 41 -8 0 -7 -13 -25
-30 -41 -39 -38 -38 -45 8 -44 30 2 32 3 9 6 l-28 4 26 30 c14 17 25 36 25 43
0 15 -20 36 -35 36 -6 0 -16 -5 -23 -12z"/>
<path d="M4907 5923 c-11 -10 -8 -41 4 -49 6 -3 16 -1 22 5 9 9 8 11 -5 6 -14
-6 -18 -2 -18 15 0 16 4 20 16 16 8 -3 12 -2 9 4 -7 12 -19 13 -28 3z"/>
<path d="M4953 5869 c-24 -32 -40 -59 -35 -59 8 1 85 110 80 115 -1 2 -22 -23
-45 -56z"/>
<path d="M2782 5878 c-41 -61 -48 -78 -19 -43 29 34 61 85 53 85 -3 0 -18 -19
-34 -42z"/>
<path d="M2530 5849 c0 -41 51 -55 70 -18 15 28 -4 50 -41 47 -24 -2 -29 -7
-29 -29z m63 7 c7 -19 -18 -40 -38 -32 -15 6 -20 28 -8 39 12 12 41 7 46 -7z"/>
<path d="M2797 5847 c-3 -8 -2 -20 3 -27 11 -18 42 -4 38 17 -4 22 -34 29 -41
10z m33 -12 c0 -8 -4 -15 -9 -15 -13 0 -22 16 -14 24 11 11 23 6 23 -9z"/>
<path d="M4974 5845 c-4 -9 -2 -21 4 -27 15 -15 44 -1 40 19 -4 23 -36 29 -44
8z m36 -10 c0 -8 -7 -15 -15 -15 -8 0 -15 7 -15 15 0 8 7 15 15 15 8 0 15 -7
15 -15z"/>
<path d="M3118 5712 c-590 -2 -598 -2 -598 -22 0 -20 7 -20 620 -20 601 0 620
1 620 19 0 12 -8 20 -22 22 -13 2 -292 3 -620 1z"/>
<path d="M5300 5706 c0 -2 7 -7 16 -10 8 -3 12 -2 9 4 -6 10 -25 14 -25 6z"/>
<path d="M2553 5323 c32 -5 33 -12 7 -63 -11 -22 -20 -43 -20 -47 1 -4 14 17
29 47 31 59 27 71 -19 68 -24 -1 -24 -1 3 -5z"/>
<path d="M2697 5323 c-12 -12 -7 -41 7 -46 22 -9 41 19 26 38 -14 16 -23 19
-33 8z m28 -21 c0 -18 -20 -15 -23 4 -3 10 1 15 10 12 7 -3 13 -10 13 -16z"/>
<path d="M2747 5273 c-22 -30 -37 -56 -35 -58 2 -2 21 21 42 51 21 31 36 57
35 59 -2 1 -21 -22 -42 -52z"/>
<path d="M4748 5313 c-16 -19 -38 -57 -38 -67 0 -3 5 -6 10 -6 6 0 9 3 9 8 -3
17 2 30 22 51 12 12 19 24 17 27 -3 2 -12 -4 -20 -13z"/>
<path d="M4824 5315 c-15 -12 -15 -14 -2 -9 14 5 17 -3 21 -48 l3 -53 2 63 c1
34 1 62 -1 62 -2 0 -12 -7 -23 -15z"/>
<path d="M4890 5316 c-10 -13 -10 -19 0 -32 12 -14 15 -14 29 0 14 15 14 17 0
32 -14 14 -17 14 -29 0z m25 -26 c-5 -8 -11 -8 -17 -2 -6 6 -7 16 -3 22 5 8
11 8 17 2 6 -6 7 -16 3 -22z"/>
<path d="M2625 5310 c-3 -5 0 -7 9 -4 12 5 16 -5 19 -48 l3 -53 2 58 c2 44 -1
57 -12 57 -8 0 -18 -4 -21 -10z"/>
<path d="M4935 5269 c-20 -28 -34 -53 -32 -55 2 -3 17 15 33 38 41 60 46 68
40 68 -2 0 -21 -23 -41 -51z"/>
<path d="M4752 5253 c-7 -7 -8 -13 -3 -13 5 0 11 -7 13 -15 2 -13 5 -13 14 2
15 25 -5 47 -24 26z"/>
<path d="M2764 5245 c-4 -9 -2 -21 4 -27 15 -15 44 -1 40 19 -4 23 -36 29 -44
8z m36 -10 c0 -8 -7 -15 -15 -15 -8 0 -15 7 -15 15 0 8 7 15 15 15 8 0 15 -7
15 -15z"/>
<path d="M4957 5246 c-8 -20 20 -43 35 -28 14 14 3 42 -16 42 -7 0 -16 -6 -19
-14z m33 -11 c0 -8 -4 -15 -9 -15 -13 0 -22 16 -14 24 11 11 23 6 23 -9z"/>
<path d="M2533 5113 c-7 -2 -13 -13 -13 -24 0 -19 17 -19 701 -19 l700 0 -3
23 -3 22 -685 2 c-377 1 -691 -1 -697 -4z"/>
<path d="M4705 5099 c-4 -6 -3 -15 2 -20 5 -5 172 -8 404 -7 342 3 394 5 394
18 0 13 -52 15 -397 18 -280 1 -399 -1 -403 -9z m438 -6 c-79 -2 -207 -2 -285
0 -79 1 -15 3 142 3 157 0 221 -2 143 -3z"/>
<path d="M7533 4943 c284 -2 750 -2 1035 0 284 1 51 2 -518 2 -569 0 -802 -1
-517 -2z"/>
<path d="M3829 4879 c-9 -17 -8 -25 6 -38 15 -15 16 -15 10 1 -5 13 0 18 22
21 l28 4 -27 2 c-20 1 -26 5 -22 16 9 23 -4 18 -17 -6z"/>
<path d="M7901 4836 c-8 -9 -11 -65 -9 -177 l3 -164 169 -3 c129 -2 171 1 178
10 12 19 10 306 -2 329 -10 18 -23 19 -169 19 -123 0 -161 -3 -170 -14z m210
-128 c35 -10 54 -28 29 -28 -5 0 -10 -18 -10 -41 0 -28 -4 -39 -12 -36 -7 2
-12 11 -11 19 2 10 -5 13 -31 10 -39 -4 -76 12 -76 33 0 8 -4 15 -10 15 -22 0
-8 18 23 28 44 14 54 14 98 0z"/>
<path d="M8034 4695 l-29 -11 34 -7 c19 -4 36 -5 39 -2 3 3 0 5 -6 5 -7 0 -12
4 -12 9 0 5 9 7 20 4 11 -3 20 -3 20 0 0 12 -39 13 -66 2z"/>
<path d="M8020 4659 c0 -13 51 -19 70 -9 11 6 20 12 20 13 0 1 -20 2 -45 2
-25 0 -45 -3 -45 -6z"/>
<path d="M5568 4770 c-35 -27 -86 -129 -161 -321 -106 -271 -157 -359 -210
-359 -36 0 -101 63 -191 184 -110 148 -153 186 -209 186 -58 0 -122 -39 -242
-149 -128 -116 -251 -183 -430 -232 -52 -15 -59 -18 -27 -14 59 7 159 43 263
94 62 31 112 67 185 132 118 106 175 146 220 155 76 14 106 -8 235 -182 141
-189 195 -220 258 -149 41 47 55 77 140 290 96 240 135 318 172 349 34 29 53
28 101 -6 40 -28 84 -85 188 -243 51 -77 118 -169 149 -205 31 -36 96 -113
145 -172 126 -155 183 -198 259 -198 95 0 185 104 333 385 35 67 64 126 64
131 0 5 -35 -57 -78 -137 -115 -212 -171 -291 -245 -341 -55 -38 -110 -38
-164 1 -82 60 -305 324 -430 511 -136 204 -178 256 -227 285 -52 30 -66 31
-98 5z"/>
<path d="M9112 4167 c-2 -488 -3 -518 -19 -515 -12 2 -20 16 -24 43 l-6 40 -3
-45 -3 -45 -7 45 c-5 30 -7 36 -8 18 -2 -26 -5 -28 -42 -28 -22 0 -40 -4 -40
-10 0 -5 -18 -10 -40 -10 -22 0 -40 5 -40 10 0 6 -33 10 -80 10 -47 0 -80 -4
-80 -10 0 -5 -18 -10 -40 -10 -22 0 -40 5 -40 10 0 6 -47 10 -120 10 -73 0
-120 -4 -120 -10 0 -5 -18 -10 -40 -10 -22 0 -40 5 -40 10 0 6 -21 10 -46 10
-25 0 -43 -4 -40 -8 2 -4 -11 -8 -31 -9 -19 0 -31 2 -25 6 7 4 4 11 -9 19 -19
12 -20 11 -14 -10 5 -21 5 -21 -6 -5 -7 13 -8 22 -1 29 6 6 12 6 17 -1 4 -8
12 -6 23 5 10 10 18 12 20 6 4 -12 32 -5 32 9 0 4 -7 6 -15 3 -10 -4 -15 0
-15 11 0 14 -4 13 -19 -6 -11 -13 -22 -21 -26 -17 -4 4 0 15 10 24 13 14 14
19 3 25 -9 6 -14 3 -16 -9 -7 -31 -22 -37 -22 -8 0 21 -4 27 -15 22 -13 -5
-14 -2 -4 15 7 14 17 19 30 16 10 -3 21 -2 24 3 9 14 -34 18 -46 4 -9 -11 -15
-11 -25 -3 -18 15 -118 23 -109 8 4 -5 9 -8 12 -5 3 2 16 1 29 -4 14 -6 26 -6
29 0 9 14 35 0 35 -19 0 -9 -5 -22 -11 -28 -7 -7 -3 -9 17 -5 20 4 25 1 22 -9
-3 -8 -10 -15 -16 -15 -7 -1 -17 -2 -23 -3 -10 -1 14 -31 25 -31 3 0 6 7 6 15
0 8 4 15 9 15 5 0 4 -13 -2 -30 -7 -20 -15 -26 -22 -20 -7 6 -16 5 -23 -2 -9
-9 -18 -9 -37 0 -25 12 -26 32 -2 32 7 0 6 -4 -3 -10 -9 -6 -10 -10 -3 -10 7
0 17 10 24 21 9 17 8 23 -2 30 -10 6 -9 12 6 28 10 12 15 24 12 28 -4 3 -7 1
-7 -5 0 -7 -6 -12 -13 -12 -8 0 -22 -18 -33 -39 -10 -22 -22 -37 -25 -35 -4 2
-13 -4 -20 -13 -12 -14 -11 -15 8 -9 12 4 24 3 27 -2 3 -5 -13 -9 -34 -8 -22
0 -40 4 -40 8 0 5 7 8 15 8 8 0 15 5 15 11 0 6 -7 8 -16 5 -9 -3 -18 -6 -20
-6 -2 0 -4 -7 -4 -15 0 -13 -5 -11 -22 5 -16 14 -29 19 -43 14 -11 -4 -57 -9
-102 -11 -46 -3 -83 -9 -83 -14 0 -5 -18 -9 -40 -9 -22 0 -40 5 -40 10 0 6
-47 10 -120 10 -73 0 -120 -4 -120 -10 0 -5 -18 -10 -40 -10 -22 0 -40 5 -40
10 0 6 -33 10 -80 10 -47 0 -80 -4 -80 -10 0 -5 -19 -11 -42 -12 -24 -1 13 -5
82 -8 l125 -5 -127 -5 c-69 -3 -126 -3 -126 0 0 3 -1 82 -2 175 -2 127 -5 157
-11 120 -11 -70 -9 -317 3 -332 15 -19 2086 -19 2093 0 3 6 4 253 3 547 l-3
535 -3 -518z m-1057 -447 c3 -5 -3 -10 -15 -10 -12 0 -18 5 -15 10 3 6 10 10
15 10 5 0 12 -4 15 -10z m-512 -77 c-35 -2 -91 -2 -125 0 -35 2 -7 3 62 3 69
0 97 -1 63 -3z m320 0 c-35 -2 -91 -2 -125 0 -35 2 -7 3 62 3 69 0 97 -1 63
-3z m400 0 c-35 -2 -91 -2 -125 0 -35 2 -7 3 62 3 69 0 97 -1 63 -3z m320 0
c-35 -2 -91 -2 -125 0 -35 2 -7 3 62 3 69 0 97 -1 63 -3z m260 0 c-24 -2 -62
-2 -85 0 -24 2 -5 4 42 4 47 0 66 -2 43 -4z m201 -1 c2 -4 -12 -6 -32 -4 -56
5 -62 10 -15 11 23 1 44 -3 47 -7z m56 -22 c0 -5 -15 -9 -32 -9 l-33 1 30 8
c17 4 31 8 33 9 1 0 2 -3 2 -9z"/>
<path d="M2390 4583 c0 -4 97 -68 215 -141 118 -73 252 -163 298 -200 138
-113 199 -153 229 -151 7 0 -2 7 -21 16 -47 20 -101 58 -196 137 -44 37 -154
114 -245 170 -91 57 -191 120 -222 140 -32 20 -58 33 -58 29z"/>
<path d="M9331 4170 c-1 -162 -5 -354 -7 -426 -4 -104 -2 -133 9 -143 11 -8
279 -10 1058 -9 l1044 3 3 290 c2 160 0 328 -4 375 -7 84 -8 84 -17 43 -9 -41
-30 -57 -40 -30 -4 8 -6 7 -6 -3 -1 -13 -21 -15 -132 -12 -109 3 -130 6 -125
18 6 16 -9 20 -19 4 -3 -5 -13 -6 -22 -3 -14 6 -14 4 0 -18 9 -13 25 -60 37
-104 45 -168 81 -265 99 -265 9 0 22 -5 28 -11 13 -13 118 8 138 28 22 22 47
16 43 -9 -2 -16 -9 -22 -23 -21 -27 4 -148 -18 -159 -29 -30 -26 -60 25 -115
198 -55 172 -69 201 -99 207 -14 3 -34 0 -43 -6 -31 -22 -94 -84 -105 -103 -6
-10 -24 -20 -40 -22 -60 -7 -134 -34 -144 -53 -6 -10 -19 -19 -29 -19 -23 0
-43 -24 -45 -53 -1 -16 -8 -23 -26 -25 -16 -2 -40 -22 -65 -53 -29 -35 -45
-48 -59 -45 -23 6 -122 -12 -154 -27 -17 -8 -28 -8 -40 0 -9 6 -45 26 -80 44
-46 24 -66 29 -74 21 -8 -8 -17 -8 -30 -1 -14 8 -35 2 -93 -25 -40 -20 -78
-36 -84 -36 -14 0 -47 75 -93 215 -47 142 -66 185 -83 185 -17 0 -39 -63 -70
-195 -53 -227 -92 -365 -108 -381 -4 -4 -22 0 -39 9 -90 44 -135 61 -155 59
-17 -1 -23 4 -23 18 0 38 39 36 52 -3 2 -4 29 -18 61 -31 75 -30 113 -20 127
34 19 74 40 170 66 300 14 74 32 153 39 175 14 39 11 61 -4 37 -6 -10 -47 -12
-169 -10 -103 2 -163 -1 -164 -7 -1 -5 -5 40 -8 100 -4 78 -7 25 -9 -185z
m964 -390 c3 -11 2 -28 -4 -37 -9 -16 -10 -16 -11 4 0 12 -5 23 -12 25 -12 4
-3 28 12 28 5 0 11 -9 15 -20z m55 10 c0 -17 -23 -60 -33 -60 -5 0 -6 7 -3 15
3 8 9 22 13 32 4 10 3 14 -5 9 -6 -3 -13 -2 -17 4 -4 6 5 10 19 10 14 0 26 -4
26 -10z m50 -1 c0 -5 -6 -7 -12 -3 -7 4 -2 -5 12 -20 l25 -28 5 29 c5 24 10
28 43 30 20 0 40 -4 43 -9 4 -6 10 -5 15 3 4 7 11 10 15 7 7 -8 -36 -67 -50
-67 -6 -1 -5 4 2 11 15 15 16 32 2 23 -6 -3 -13 1 -16 9 -3 9 -13 16 -22 16
-13 0 -13 -2 3 -14 33 -24 12 -43 -49 -44 l-56 0 0 34 c0 27 4 34 20 34 11 0
20 -5 20 -11z m-151 -22 c8 -11 5 -14 -19 -14 -24 0 -27 3 -19 14 6 7 15 13
19 13 4 0 13 -6 19 -13z m311 -23 c0 -14 -21 -19 -33 -7 -9 9 13 34 24 27 5
-3 9 -12 9 -20z"/>
<path d="M10370 3750 c0 -5 5 -10 10 -10 6 0 10 5 10 10 0 6 -4 10 -10 10 -5
0 -10 -4 -10 -10z"/>
<path d="M10445 3750 c4 -6 11 -8 16 -5 14 9 11 15 -7 15 -8 0 -12 -5 -9 -10z"/>
<path d="M10625 4360 c-16 -7 -17 -9 -3 -9 9 -1 20 4 23 9 7 11 7 11 -20 0z"/>
<path d="M7731 4334 c-12 -15 -21 -32 -21 -38 0 -6 9 3 19 20 11 18 25 34 33
37 8 3 9 6 1 6 -6 1 -21 -11 -32 -25z"/>
<path d="M8012 4345 c9 -11 18 -31 21 -45 l4 -25 2 26 c0 16 -8 33 -21 45 -23
19 -23 19 -6 -1z"/>
<path d="M8298 4353 c7 -3 16 -2 19 1 4 3 -2 6 -13 5 -11 0 -14 -3 -6 -6z"/>
<path d="M10075 4340 c-14 -16 -21 -18 -27 -8 -6 8 -7 5 -3 -10 4 -12 3 -22
-2 -21 -4 1 -16 1 -26 0 -14 -1 -16 -5 -7 -20 5 -11 10 -21 10 -23 0 -9 -176
5 -182 15 -5 8 -8 7 -8 -3 -1 -11 -4 -10 -15 4 -11 14 -15 16 -15 5 -1 -10 -5
-9 -15 5 -21 28 -19 16 14 -88 16 -50 43 -137 60 -193 25 -80 36 -103 49 -103
10 0 23 -5 29 -11 8 -8 33 0 92 31 74 39 83 41 99 27 34 -29 123 -68 143 -62
11 4 27 1 35 -6 18 -15 133 7 141 28 3 7 15 13 28 13 23 0 75 41 75 60 0 14
-17 13 -23 -2 -3 -8 -9 -3 -15 12 -10 24 -11 24 -11 3 -1 -25 -35 -33 -44 -10
-4 10 -6 10 -6 0 -1 -7 -6 -13 -11 -13 -6 0 -8 14 -6 33 l5 32 -15 -32 c-16
-37 -29 -42 -37 -15 -2 9 -8 25 -12 35 -11 25 10 21 23 -5 8 -18 11 -19 11 -6
1 10 10 22 21 28 17 9 20 8 20 -10 0 -15 4 -19 13 -13 17 11 57 11 57 0 0 -5
7 -4 15 3 12 10 15 9 15 -6 0 -12 3 -15 8 -8 4 6 17 14 29 18 11 4 28 22 38
41 9 19 22 35 30 35 8 0 46 10 84 22 47 15 71 27 74 40 3 11 14 18 29 18 14 0
46 23 86 60 34 33 55 60 47 60 -8 0 -15 -4 -15 -10 0 -5 -9 -14 -21 -20 -15
-9 -24 -8 -36 2 -13 10 -17 10 -20 1 -3 -8 -21 -13 -44 -13 -24 0 -39 5 -39
13 0 9 -2 9 -8 -1 -5 -8 -16 -10 -27 -6 -14 6 -17 4 -12 -9 3 -9 1 -19 -5 -23
-7 -4 -8 -3 -4 4 4 7 2 12 -5 12 -8 0 -6 6 4 18 31 34 17 36 -18 2 l-34 -33
29 -38 c17 -20 30 -40 30 -43 0 -15 -57 9 -77 32 l-22 27 2 -30 c2 -25 -1 -29
-18 -27 -11 2 -21 5 -23 7 -1 1 -3 37 -4 79 -1 42 -5 76 -10 76 -5 0 -7 4 -4
9 7 10 -52 37 -61 27 -3 -3 1 -6 10 -6 9 0 24 -11 33 -25 15 -23 15 -27 1 -49
-14 -21 -14 -25 -2 -30 16 -6 20 -43 7 -62 -24 -37 -97 -41 -134 -7 -22 20
-23 41 -1 65 15 16 15 20 1 36 -20 22 -7 59 24 72 13 5 16 9 8 9 -35 1 -67
-48 -50 -78 15 -30 12 -33 -10 -11 -12 12 -18 25 -15 30 4 6 4 10 1 10 -12 0
-35 -60 -30 -77 3 -10 -2 -7 -10 7 -8 14 -15 30 -15 35 -1 6 3 4 8 -3 6 -11
10 -9 14 7 4 17 2 19 -11 12 -10 -5 -26 -5 -37 0 -19 7 -19 8 1 8 25 1 40 29
24 45 -7 7 -10 3 -10 -12 0 -19 -5 -22 -45 -22 -31 0 -45 -4 -45 -13 0 -9 9
-12 29 -9 36 5 71 -26 71 -63 0 -31 -41 -75 -70 -75 -39 0 -80 29 -80 58 0 17
41 15 54 -4 15 -20 46 -8 46 17 0 24 -27 36 -43 20 -6 -6 -22 -11 -35 -11 -24
0 -25 1 -18 68 4 43 3 62 -3 52 -5 -8 -7 -18 -5 -22 3 -4 0 -8 -5 -8 -7 0 -9
-14 -6 -35 2 -19 0 -35 -5 -35 -5 0 -10 24 -12 53 -3 52 -3 52 -39 55 -25 2
-40 -3 -54 -18z m85 -50 c0 -33 4 -60 10 -60 6 0 10 -9 10 -20 0 -11 -4 -20
-10 -20 -5 0 -10 -7 -10 -15 0 -9 -9 -15 -25 -15 -16 0 -25 6 -25 15 0 11 -12
15 -45 15 -40 0 -45 2 -45 23 0 12 17 48 37 80 33 50 41 57 70 57 l33 0 0 -60z
m-128 -12 c-7 -7 -12 -8 -12 -2 0 14 12 26 19 19 2 -3 -1 -11 -7 -17z m381
-22 c4 -10 1 -13 -9 -9 -15 6 -19 23 -5 23 5 0 11 -7 14 -14z m-5 -73 c4 -25
-22 -37 -38 -17 -10 11 -10 17 0 29 17 20 34 14 38 -12z m-215 -150 c-7 -2
-13 -15 -13 -28 0 -13 -4 -27 -10 -30 -6 -3 -10 4 -10 17 0 13 -5 29 -12 36
-9 9 -4 12 23 11 18 0 28 -3 22 -6z m71 -29 c-8 -32 4 -31 16 2 12 32 34 27
38 -9 3 -24 1 -26 -32 -25 -29 1 -36 5 -37 22 0 20 -1 20 -9 -1 -11 -26 -38
-30 -46 -8 -8 19 15 48 32 41 7 -3 16 -1 19 5 11 17 25 -2 19 -27z m73 -16
c-2 -13 -4 -5 -4 17 -1 22 1 32 4 23 2 -10 2 -28 0 -40z"/>
<path d="M10087 4260 c-18 -29 -18 -30 2 -30 17 0 21 6 21 30 0 17 -1 30 -3
30 -1 0 -11 -13 -20 -30z"/>
<path d="M10211 3994 c0 -11 3 -14 6 -6 3 7 2 16 -1 19 -3 4 -6 -2 -5 -13z"/>
<path d="M10248 4353 c18 -2 45 -2 60 0 15 2 0 4 -33 4 -33 0 -45 -2 -27 -4z"/>
<path d="M7856 4330 c6 -8 13 -22 16 -30 3 -9 7 -10 11 -3 4 6 -3 19 -16 29
-12 11 -17 12 -11 4z"/>
<path d="M8341 4324 c0 -11 3 -14 6 -6 3 7 2 16 -1 19 -3 4 -6 -2 -5 -13z"/>
<path d="M10659 4303 c-4 -34 -2 -40 8 -30 9 8 10 22 4 42 -8 30 -8 29 -12
-12z"/>
<path d="M8116 4303 c-6 -14 -5 -15 5 -6 7 7 10 15 7 18 -3 3 -9 -2 -12 -12z"/>
<path d="M8270 4295 c0 -17 -12 -39 -33 -60 l-34 -34 36 -3 c29 -2 35 -7 33
-22 -2 -11 1 -15 7 -11 21 12 11 36 -19 41 l-29 6 26 33 c29 36 37 62 22 71
-5 3 -9 -7 -9 -21z"/>
<path d="M10685 4310 c-3 -5 -2 -10 4 -10 5 0 13 5 16 10 3 6 2 10 -4 10 -5 0
-13 -4 -16 -10z"/>
<path d="M7769 4286 c-9 -18 -8 -19 3 -5 7 9 19 14 26 12 6 -3 12 -1 12 5 0
17 -31 8 -41 -12z"/>
<path d="M7935 4293 c-5 -15 -4 -16 6 -5 15 14 33 16 24 2 -3 -5 -1 -10 4 -10
6 0 11 7 11 15 0 21 -36 19 -45 -2z"/>
<path d="M8176 4301 c-4 -5 3 -7 14 -4 21 5 28 -11 10 -22 -5 -3 -10 -11 -10
-18 0 -6 7 -1 16 11 8 12 12 27 9 32 -8 12 -32 13 -39 1z"/>
<path d="M9738 4303 c7 -3 16 -2 19 1 4 3 -2 6 -13 5 -11 0 -14 -3 -6 -6z"/>
<path d="M10490 4295 c0 -11 7 -15 23 -13 12 2 22 8 22 13 0 6 -10 11 -22 13
-16 2 -23 -2 -23 -13z"/>
<path d="M11018 4303 c7 -3 16 -2 19 1 4 3 -2 6 -13 5 -11 0 -14 -3 -6 -6z"/>
<path d="M8337 4279 c-4 -16 -3 -18 9 -8 7 6 11 15 8 20 -8 13 -11 11 -17 -12z"/>
<path d="M7840 4280 c8 -5 20 -10 25 -10 6 0 3 5 -5 10 -8 5 -19 10 -25 10 -5
0 -3 -5 5 -10z"/>
<path d="M3505 4261 c-22 -10 -67 -38 -100 -63 -95 -70 -152 -100 -208 -108
-49 -7 -50 -8 -12 -9 50 -1 119 31 204 94 94 70 147 95 198 95 60 0 90 -16
203 -105 113 -89 148 -107 215 -111 l50 -3 -50 8 c-69 11 -120 39 -212 116
-43 36 -96 74 -119 85 -50 25 -117 25 -169 1z"/>
<path d="M8397 4262 c-23 -25 -21 -31 14 -72 32 -37 30 -25 -5 22 -19 27 -19
28 -1 48 10 11 16 20 13 20 -3 0 -12 -8 -21 -18z"/>
<path d="M7701 4254 c0 -11 3 -14 6 -6 3 7 2 16 -1 19 -3 4 -6 -2 -5 -13z"/>
<path d="M8010 4264 c0 -3 7 -12 15 -20 26 -26 19 -62 -16 -80 -30 -15 -60
-15 -104 0 -11 4 -7 0 9 -9 40 -24 91 -13 132 26 28 27 36 30 49 19 8 -7 15
-19 15 -27 0 -8 5 -11 11 -8 6 4 8 10 4 13 -3 3 9 22 27 41 l33 36 -37 -34
c-21 -19 -38 -30 -38 -24 0 16 -30 25 -44 14 -9 -8 -16 -1 -25 24 -7 19 -17
35 -22 35 -5 0 -9 -3 -9 -6z"/>
<path d="M7783 4243 c-16 -6 -17 -25 -2 -40 13 -13 39 -6 39 9 0 6 -6 6 -14
-1 -10 -8 -16 -9 -21 -1 -10 16 4 30 22 23 11 -4 14 -3 9 5 -8 13 -13 14 -33
5z"/>
<path d="M10489 4224 c-10 -13 -10 -17 2 -25 8 -5 20 -9 27 -9 19 0 27 31 11
41 -19 12 -25 11 -40 -7z"/>
<path d="M7920 4226 c0 -2 8 -10 18 -17 15 -13 16 -12 3 4 -13 16 -21 21 -21
13z"/>
<path d="M7973 4215 c0 -8 4 -12 9 -9 5 3 6 10 3 15 -9 13 -12 11 -12 -6z"/>
<path d="M7710 4218 c0 -21 25 -57 47 -67 38 -17 72 -13 98 13 13 13 26 22 29
19 2 -3 2 5 -1 17 -6 21 -7 20 -19 -9 -23 -55 -100 -54 -134 2 -11 17 -20 29
-20 25z"/>
<path d="M8340 4188 c0 -9 5 -20 11 -23 17 -11 18 -2 3 19 -12 17 -14 17 -14
4z"/>
<path d="M8062 4155 c15 -16 20 -17 30 -6 11 11 10 13 0 7 -7 -4 -21 -2 -30 5
-15 12 -15 11 0 -6z"/>
<path d="M8158 4143 c7 -3 16 -2 19 1 4 3 -2 6 -13 5 -11 0 -14 -3 -6 -6z"/>
<path d="M7880 4040 c8 -5 20 -10 25 -10 6 0 3 5 -5 10 -8 5 -19 10 -25 10 -5
0 -3 -5 5 -10z"/>
<path d="M7970 4040 c0 -6 7 -10 15 -10 8 0 15 2 15 4 0 2 -7 6 -15 10 -8 3
-15 1 -15 -4z"/>
<path d="M8020 4040 c0 -5 5 -10 11 -10 5 0 7 5 4 10 -3 6 -8 10 -11 10 -2 0
-4 -4 -4 -10z"/>
<path d="M8250 4035 c0 -9 6 -12 15 -9 8 4 15 7 15 9 0 2 -7 5 -15 9 -9 3 -15
0 -15 -9z"/>
<path d="M8210 4036 c0 -2 7 -7 16 -10 8 -3 12 -2 9 4 -6 10 -25 14 -25 6z"/>
<path d="M8302 4020 c0 -14 2 -19 5 -12 2 6 2 18 0 25 -3 6 -5 1 -5 -13z"/>
<path d="M7832 4005 c0 -16 2 -22 5 -12 2 9 2 23 0 30 -3 6 -5 -1 -5 -18z"/>
<path d="M7921 4004 c0 -11 3 -14 6 -6 3 7 2 16 -1 19 -3 4 -6 -2 -5 -13z"/>
<path d="M8050 3995 c0 -9 5 -15 11 -13 6 2 11 8 11 13 0 5 -5 11 -11 13 -6 2
-11 -4 -11 -13z"/>
<path d="M8265 4000 c-3 -5 -1 -10 4 -10 6 0 11 5 11 10 0 6 -2 10 -4 10 -3 0
-8 -4 -11 -10z"/>
<path d="M8105 3980 c3 -5 8 -10 11 -10 2 0 4 5 4 10 0 6 -5 10 -11 10 -5 0
-7 -4 -4 -10z"/>
<path d="M8301 3974 c0 -11 3 -14 6 -6 3 7 2 16 -1 19 -3 4 -6 -2 -5 -13z"/>
<path d="M7880 3970 c-13 -8 -12 -10 3 -10 9 0 17 5 17 10 0 12 -1 12 -20 0z"/>
<path d="M8174 3969 c1 -7 12 -13 24 -14 11 -1 19 2 16 7 -4 5 -12 7 -19 4 -8
-3 -16 -1 -19 5 -2 5 -3 4 -2 -2z"/>
<path d="M8235 3970 c-3 -5 1 -10 10 -10 9 0 13 5 10 10 -3 6 -8 10 -10 10 -2
0 -7 -4 -10 -10z"/>
<path d="M7915 3961 c-3 -5 0 -13 6 -17 7 -4 9 -3 5 4 -3 5 0 13 6 15 9 4 10
6 1 6 -6 1 -14 -3 -18 -8z"/>
<path d="M7950 3946 c0 -7 40 -14 44 -7 3 4 -6 8 -20 9 -13 1 -24 0 -24 -2z"/>
<path d="M7850 3810 c-9 -6 -10 -10 -3 -10 6 0 15 5 18 10 8 12 4 12 -15 0z"/>
<path d="M7956 3789 l29 -31 -29 -24 c-15 -14 -25 -28 -22 -31 3 -4 11 -2 17
4 6 6 17 9 25 6 7 -2 19 8 28 26 20 37 20 45 1 38 -8 -4 -17 -1 -21 5 -5 7 -2
8 6 3 9 -5 11 -4 6 4 -4 6 -11 9 -16 6 -4 -3 -13 2 -20 10 -7 8 -17 15 -23 15
-6 0 2 -14 19 -31z m34 -54 c-7 -9 -15 -13 -17 -11 -7 7 7 26 19 26 6 0 6 -6
-2 -15z"/>
<path d="M8190 3815 c0 -5 4 -16 8 -23 6 -9 13 -7 28 10 17 20 17 21 1 8 -16
-12 -20 -12 -28 1 -5 8 -9 10 -9 4z"/>
<path d="M7877 3783 c-3 -15 -2 -30 2 -33 4 -3 10 -13 14 -22 8 -21 27 -24 27
-4 0 8 6 17 13 19 6 3 0 6 -15 6 -19 1 -28 6 -28 17 0 12 7 15 24 12 21 -4 23
-3 13 13 -8 13 -13 15 -19 6 -6 -9 -10 -9 -17 1 -6 10 -10 6 -14 -15z"/>
<path d="M8233 3789 c-8 -8 -5 -17 9 -31 25 -25 32 -18 15 15 -10 19 -17 23
-24 16z"/>
<path d="M7846 3765 c4 -8 8 -15 10 -15 2 0 4 7 4 15 0 8 -4 15 -10 15 -5 0
-7 -7 -4 -15z"/>
<path d="M8300 3766 c0 -8 4 -17 9 -20 5 -4 7 3 4 14 -6 23 -13 26 -13 6z"/>
<path d="M9062 3760 c0 -14 2 -19 5 -12 2 6 2 18 0 25 -3 6 -5 1 -5 -13z"/>
<path d="M9082 3685 c0 -16 2 -22 5 -12 2 9 2 23 0 30 -3 6 -5 -1 -5 -18z"/>
<path d="M8201 3683 c7 -8 15 -10 18 -6 4 4 10 11 14 14 4 4 -4 7 -18 7 -21 0
-23 -3 -14 -15z"/>
<path d="M3391 3162 c-29 -32 -39 -102 -14 -102 8 0 17 -9 20 -19 4 -15 13
-19 41 -17 45 2 103 49 84 68 -8 8 -8 15 -1 24 13 16 4 34 -17 34 -8 0 -14 6
-14 14 0 21 -19 30 -35 16 -9 -7 -15 -8 -20 0 -9 15 -18 12 -44 -18z m64 8 c9
14 58 -38 52 -54 -2 -6 -1 -18 4 -27 6 -12 3 -18 -11 -22 -11 -3 -20 -11 -20
-19 0 -22 -68 -19 -76 4 -3 10 -11 18 -18 18 -20 0 -15 68 6 73 10 3 18 12 18
21 0 13 4 15 19 6 14 -7 22 -7 26 0z"/>
<path d="M3424 3115 c-4 -9 -2 -21 4 -27 15 -15 44 -1 40 19 -4 23 -36 29 -44
8z m34 -13 c2 -7 -3 -12 -12 -12 -9 0 -16 7 -16 16 0 17 22 14 28 -4z"/>
<path d="M9148 3163 c-6 -7 -8 -16 -4 -20 3 -3 6 -1 6 5 0 17 39 25 55 12 12
-10 18 -10 30 0 8 6 23 9 35 5 31 -10 25 -50 -15 -93 l-35 -37 -40 42 c-22 23
-40 38 -40 33 0 -12 68 -80 79 -80 16 0 62 42 77 72 14 26 14 32 1 52 -13 19
-24 23 -76 23 -39 0 -65 -5 -73 -14z"/>
<path d="M5692 3158 c-7 -7 -12 -16 -12 -22 0 -5 6 -2 13 6 6 9 26 19 42 21
l30 4 -30 2 c-17 0 -36 -4 -43 -11z"/>
<path d="M5800 3166 c0 -2 7 -9 15 -16 9 -7 15 -8 15 -2 0 5 -7 12 -15 16 -8
3 -15 4 -15 2z"/>
<path d="M5784 3116 c-11 -30 1 -81 20 -84 10 -2 22 0 27 5 6 6 1 9 -13 9 -20
-1 -23 5 -26 37 -3 31 0 37 17 37 12 0 21 -8 24 -22 4 -20 4 -19 6 5 1 23 -3
27 -24 27 -14 0 -28 -6 -31 -14z"/>
<path d="M5684 3090 c1 -11 14 -15 44 -16 l42 -1 -39 4 c-22 2 -42 9 -44 16
-2 7 -3 5 -3 -3z"/>
<path d="M5670 3051 c0 -6 4 -12 8 -15 5 -3 9 1 9 9 0 8 -4 15 -9 15 -4 0 -8
-4 -8 -9z"/>
<path d="M5718 3033 c12 -2 30 -2 40 0 9 3 -1 5 -23 4 -22 0 -30 -2 -17 -4z"/>
<path d="M8775 2735 c-19 -30 -35 -63 -35 -75 0 -17 6 -20 45 -20 33 0 45 -4
45 -15 0 -8 7 -15 15 -15 8 0 15 7 15 15 0 8 7 15 15 15 8 0 15 7 15 15 0 8
-7 15 -15 15 -12 0 -15 13 -15 60 0 57 -1 60 -25 60 -20 0 -33 -12 -60 -55z
m55 -25 c0 -38 -2 -40 -30 -40 l-31 0 23 40 c13 22 26 40 31 40 4 0 7 -18 7
-40z"/>
<path d="M8920 2735 c0 -41 4 -55 14 -55 8 0 18 5 21 10 10 16 44 11 54 -8 21
-39 -31 -71 -59 -37 -14 17 -40 20 -40 6 0 -16 30 -41 56 -47 26 -7 71 17 81
42 17 46 -36 96 -78 74 -16 -9 -19 -7 -19 15 0 23 4 25 45 25 33 0 45 4 45 15
0 12 -13 15 -60 15 l-60 0 0 -55z"/>
<path d="M9093 2766 c-31 -27 -27 -44 6 -26 20 10 21 9 21 -60 0 -63 2 -70 20
-70 19 0 20 7 20 90 0 82 -2 90 -19 90 -11 0 -33 -11 -48 -24z"/>
<path d="M9200 2775 c0 -11 12 -15 46 -15 25 0 44 -3 42 -7 -2 -5 -18 -36 -36
-70 -37 -73 -37 -73 -14 -73 12 0 29 24 55 75 51 103 51 105 -28 105 -51 0
-65 -3 -65 -15z"/>
<path d="M9428 2779 c-20 -11 -24 -54 -7 -64 7 -5 5 -13 -6 -25 -40 -44 14
-102 77 -84 17 5 37 18 44 30 13 18 12 24 -7 47 -11 15 -16 27 -10 27 5 0 13
9 16 21 14 44 -58 77 -107 48z m56 -15 c21 -8 20 -40 -1 -48 -9 -4 -23 0 -31
8 -13 12 -13 18 -2 30 14 18 13 18 34 10z m16 -89 c10 -12 10 -18 0 -30 -17
-21 -54 -15 -58 9 -7 32 36 48 58 21z"/>
<path d="M9586 2768 c-21 -29 -4 -48 22 -25 23 21 51 22 59 1 4 -10 -12 -33
-46 -68 -28 -28 -51 -55 -51 -59 0 -4 32 -7 71 -7 52 0 70 3 67 12 -3 8 -19
12 -41 10 -20 -2 -37 0 -37 5 0 5 16 24 35 43 59 57 43 110 -34 110 -19 0 -35
-8 -45 -22z"/>
<path d="M3125 2728 c-19 -29 -35 -63 -35 -75 0 -21 5 -23 45 -23 33 0 45 -4
45 -15 0 -8 7 -15 15 -15 8 0 15 7 15 15 0 8 7 15 15 15 8 0 15 6 15 14 0 8
-7 16 -15 20 -11 4 -15 21 -15 61 0 52 -1 55 -25 55 -18 0 -33 -13 -60 -52z
m52 -65 c-3 -2 -17 -3 -31 -1 l-26 3 28 45 27 45 3 -44 c2 -23 1 -45 -1 -48z"/>
<path d="M3276 2749 c-13 -65 -11 -69 42 -66 42 2 47 0 50 -20 4 -30 -29 -47
-54 -28 -25 19 -44 19 -44 0 0 -33 86 -48 114 -19 41 40 3 112 -53 101 -25 -5
-29 -3 -28 13 1 17 9 20 44 20 32 0 43 4 43 15 0 11 -13 15 -54 15 -52 0 -54
-1 -60 -31z"/>
<path d="M3522 2768 c-16 -16 -15 -55 1 -61 9 -3 7 -9 -5 -24 -38 -42 -7 -83
60 -83 33 0 45 5 57 24 13 19 14 29 5 45 -6 12 -16 21 -22 21 -6 0 -4 8 5 18
36 39 14 72 -48 72 -23 0 -46 -5 -53 -12z m73 -33 c0 -22 -31 -33 -48 -16 -7
7 -6 15 3 26 17 21 45 15 45 -10z m5 -71 c18 -21 -9 -49 -39 -39 -20 6 -28 34
-14 48 11 12 40 7 53 -9z"/>
<path d="M3678 2690 c3 -70 7 -90 18 -90 8 0 14 10 14 25 0 14 4 25 9 25 5 0
16 -11 25 -25 9 -14 25 -25 36 -25 19 0 19 2 -6 40 l-27 41 21 22 c12 13 22
26 22 29 0 14 -34 0 -51 -20 -25 -31 -29 -28 -29 23 0 36 -3 45 -17 45 -16 0
-18 -10 -15 -90z"/>
<path d="M5420 2726 l0 -54 35 11 c30 9 38 8 53 -6 15 -16 15 -18 -5 -39 -21
-21 -23 -21 -42 -4 -11 10 -27 16 -36 14 -14 -3 -14 -5 0 -25 21 -29 84 -32
108 -5 40 44 0 112 -58 98 -20 -5 -25 -3 -25 14 0 17 7 20 45 20 33 0 45 4 45
15 0 12 -13 15 -60 15 l-60 0 0 -54z"/>
<path d="M5666 2764 c-20 -19 -20 -25 -2 -49 11 -16 11 -21 0 -33 -20 -20 -17
-60 5 -72 11 -5 34 -10 51 -10 48 0 70 16 70 51 0 17 -6 32 -15 35 -13 5 -13
8 0 27 8 12 15 25 15 29 0 19 -35 38 -70 38 -22 0 -45 -7 -54 -16z m79 -29 c0
-22 -31 -33 -47 -17 -17 17 -1 44 24 40 15 -2 23 -10 23 -23z m4 -69 c9 -11 8
-18 -4 -30 -9 -9 -20 -16 -25 -16 -5 0 -16 7 -25 16 -18 19 -4 44 25 44 10 0
23 -6 29 -14z"/>
<path d="M5836 2764 c-9 -8 -16 -20 -16 -25 0 -15 37 -10 44 6 7 19 30 19 46
-1 11 -13 6 -23 -38 -67 -29 -29 -52 -58 -52 -65 0 -8 21 -12 65 -12 51 0 65
3 65 15 0 11 -11 15 -36 15 l-36 0 36 42 c56 65 45 108 -25 108 -21 0 -45 -7
-53 -16z"/>
<path d="M5980 2690 c0 -83 1 -90 20 -90 15 0 20 7 20 25 0 14 4 25 8 25 5 0
15 -11 22 -25 7 -14 22 -25 32 -25 23 0 22 9 -2 40 -25 32 -25 43 0 65 11 10
20 21 20 26 0 13 -38 -2 -56 -22 -25 -28 -30 -24 -26 26 4 40 2 45 -17 45 -20
0 -21 -5 -21 -90z"/>
<path d="M3434 2629 c-10 -17 13 -36 27 -22 12 12 4 33 -11 33 -5 0 -12 -5
-16 -11z"/>
<path d="M5583 2625 c-7 -20 2 -29 21 -22 9 4 13 13 10 22 -8 19 -23 19 -31 0z"/>
<path d="M9330 2625 c0 -8 9 -15 20 -15 11 0 20 7 20 15 0 8 -9 15 -20 15 -11
0 -20 -7 -20 -15z"/>
<path d="M8500 2233 c8 -3 22 -11 30 -17 13 -10 13 -9 1 7 -7 9 -21 17 -30 16
-13 0 -14 -1 -1 -6z"/>
<path d="M8752 2210 c0 -19 2 -27 5 -17 2 9 2 25 0 35 -3 9 -5 1 -5 -18z"/>
<path d="M8960 2225 c0 -8 7 -15 15 -15 8 0 15 -7 15 -16 0 -11 -5 -14 -17 -9
-14 5 -15 3 -6 -6 6 -6 16 -8 22 -5 16 10 13 36 -5 43 -13 5 -13 7 -2 14 10 7
9 9 -4 9 -10 0 -18 -7 -18 -15z"/>
<path d="M9030 2226 c-6 -9 -10 -21 -7 -28 4 -9 6 -7 6 4 1 9 7 18 14 21 6 2
9 7 6 11 -3 4 -12 0 -19 -8z"/>
<path d="M9106 2213 c10 -40 15 -42 12 -5 -1 18 -6 32 -10 32 -5 0 -5 -12 -2
-27z"/>
<path d="M9135 2231 c-6 -11 9 -23 19 -14 9 9 7 23 -3 23 -6 0 -12 -4 -16 -9z"/>
<path d="M9466 2232 c-2 -4 4 -8 15 -8 10 0 19 4 19 8 0 4 -6 8 -14 8 -8 0
-17 -4 -20 -8z"/>
<path d="M9525 2231 c-3 -7 0 -8 9 -5 10 4 16 -3 19 -23 l5 -28 -2 29 c-1 30
-19 45 -31 27z"/>
<path d="M9628 2213 c-2 -17 -8 -27 -16 -25 -8 1 -11 -2 -7 -7 11 -19 35 1 35
30 0 37 -8 38 -12 2z"/>
<path d="M5681 2218 c-1 -10 6 -18 14 -18 21 0 19 -18 -2 -23 -14 -4 -12 -5 5
-6 16 -1 22 5 22 19 0 11 -6 20 -14 20 -8 0 -17 6 -19 13 -3 7 -6 5 -6 -5z"/>
<path d="M5743 2210 c-11 -16 -10 -21 6 -30 13 -7 22 -7 26 0 6 9 -1 14 -17
11 -12 -2 -9 14 4 27 7 7 8 12 2 12 -5 0 -15 -9 -21 -20z"/>
<path d="M5852 2218 c6 -18 36 -18 50 0 12 15 11 16 -4 3 -12 -9 -18 -10 -18
-2 0 6 -7 11 -16 11 -9 0 -14 -5 -12 -12z"/>
<path d="M5590 2216 c0 -4 6 -14 14 -21 10 -10 16 -11 25 -2 16 16 14 32 -2
18 -10 -8 -17 -7 -25 1 -7 7 -12 9 -12 4z"/>
<path d="M8550 2201 c0 -11 4 -22 9 -25 4 -3 6 6 3 19 -5 30 -12 33 -12 6z"/>
<path d="M8577 2199 c4 -13 8 -18 11 -10 2 7 -1 18 -6 23 -8 8 -9 4 -5 -13z"/>
<path d="M8632 2200 c7 -10 14 -18 15 -16 6 6 -9 36 -18 36 -5 0 -4 -9 3 -20z"/>
<path d="M8670 2200 c0 -11 2 -20 4 -20 2 0 6 9 9 20 3 11 1 20 -4 20 -5 0 -9
-9 -9 -20z"/>
<path d="M8702 2200 c0 -14 2 -19 5 -12 2 6 2 18 0 25 -3 6 -5 1 -5 -13z"/>
<path d="M8775 2196 c0 -13 3 -22 8 -19 4 2 7 13 7 24 0 10 -3 19 -7 19 -5 0
-8 -11 -8 -24z"/>
<path d="M8887 2203 c7 -17 18 -16 32 1 10 11 7 14 -12 12 -15 0 -23 -6 -20
-13z"/>
<path d="M9155 2200 c-10 -11 -14 -20 -9 -20 5 0 15 9 22 20 7 11 11 20 9 20
-2 0 -12 -9 -22 -20z"/>
<path d="M9270 2200 c0 -11 2 -20 4 -20 2 0 6 9 9 20 3 11 1 20 -4 20 -5 0 -9
-9 -9 -20z"/>
<path d="M9304 2209 c-3 -6 0 -18 9 -26 10 -10 17 -12 22 -4 4 7 1 10 -7 9 -7
-2 -12 5 -12 15 2 20 -2 22 -12 6z"/>
<path d="M9870 2200 c0 -11 2 -20 4 -20 2 0 6 9 9 20 3 11 1 20 -4 20 -5 0 -9
-9 -9 -20z"/>
<path d="M9902 2190 c0 -19 2 -27 5 -17 2 9 2 25 0 35 -3 9 -5 1 -5 -18z"/>
<path d="M9954 2213 c12 -21 -4 -36 -22 -21 -15 12 -16 11 -3 -5 13 -16 16
-16 30 -3 13 13 13 18 2 28 -11 10 -12 10 -7 1z"/>
<path d="M3266 2202 c-2 -4 4 -8 14 -8 10 0 16 4 14 8 -3 4 -9 8 -14 8 -5 0
-11 -4 -14 -8z"/>
<path d="M5832 2190 c0 -14 2 -19 5 -12 2 6 2 18 0 25 -3 6 -5 1 -5 -13z"/>
<path d="M9487 2193 c5 -13 3 -15 -13 -9 -14 5 -16 4 -7 -5 6 -6 16 -8 22 -5
14 9 15 36 1 36 -5 0 -6 -8 -3 -17z"/>
<path d="M9681 2194 c0 -11 3 -14 6 -6 3 7 2 16 -1 19 -3 4 -6 -2 -5 -13z"/>
<path d="M5896 2192 c-3 -6 -1 -14 5 -17 15 -10 25 3 12 16 -7 7 -13 7 -17 1z"/>
<path d="M9040 2190 c0 -5 5 -10 10 -10 6 0 10 5 10 10 0 6 -4 10 -10 10 -5 0
-10 -4 -10 -10z"/>
<path d="M9185 2190 c-3 -5 -1 -10 4 -10 6 0 11 5 11 10 0 6 -2 10 -4 10 -3 0
-8 -4 -11 -10z"/>
<path d="M9520 2191 c0 -6 4 -13 10 -16 6 -3 7 1 4 9 -7 18 -14 21 -14 7z"/>
<path d="M9713 2185 c-3 -9 -3 -18 -1 -21 3 -3 8 4 11 16 6 23 -1 27 -10 5z"/>
<path d="M9766 2183 c-6 -14 -5 -15 5 -6 7 7 10 15 7 18 -3 3 -9 -2 -12 -12z"/>
<path d="M9820 2193 c0 -17 14 -23 29 -14 9 6 10 11 2 15 -6 4 -11 1 -11 -6 0
-9 -3 -9 -10 2 -6 9 -10 10 -10 3z"/>
<path d="M8810 2175 c0 -8 2 -15 4 -15 2 0 6 7 10 15 3 8 1 15 -4 15 -6 0 -10
-7 -10 -15z"/>
<path d="M9689 1996 c-63 -36 -133 -103 -248 -238 -45 -53 -97 -106 -116 -118
-19 -12 -35 -24 -35 -27 0 -8 51 26 83 56 16 14 71 76 123 138 95 112 132 146
191 176 21 11 34 13 38 6 4 -5 19 -8 33 -5 54 12 100 -36 249 -259 85 -128
185 -245 209 -245 3 0 -17 21 -45 46 -29 26 -95 111 -153 197 -133 199 -153
223 -219 267 l-55 37 -55 -31z m71 3 c0 -5 -7 -9 -15 -9 -15 0 -20 12 -9 23 8
8 24 -1 24 -14z"/>
<path d="M8164 1929 c-3 -6 -2 -15 3 -20 5 -5 9 -1 9 11 0 23 -2 24 -12 9z"/>
<path d="M8194 1920 c0 -13 4 -16 10 -10 7 7 7 13 0 20 -6 6 -10 3 -10 -10z"/>
<path d="M8023 1913 c15 -2 39 -2 55 0 15 2 2 4 -28 4 -30 0 -43 -2 -27 -4z"/>
<path d="M8263 1913 c9 -2 23 -2 30 0 6 3 -1 5 -18 5 -16 0 -22 -2 -12 -5z"/>
<path d="M7933 1903 c9 -2 23 -2 30 0 6 3 -1 5 -18 5 -16 0 -22 -2 -12 -5z"/>
<path d="M8328 1903 c7 -3 16 -2 19 1 4 3 -2 6 -13 5 -11 0 -14 -3 -6 -6z"/>
<path d="M7853 1893 c9 -2 23 -2 30 0 6 3 -1 5 -18 5 -16 0 -22 -2 -12 -5z"/>
<path d="M8368 1893 c6 -2 18 -2 25 0 6 3 1 5 -13 5 -14 0 -19 -2 -12 -5z"/>
<path d="M7650 1875 c-7 -8 -20 -15 -29 -16 -9 0 -1 -5 18 -11 26 -7 37 -6 47
4 11 11 11 15 -5 25 -15 10 -22 9 -31 -2z m30 -16 c0 -5 -7 -9 -15 -9 -15 0
-20 12 -9 23 8 8 24 -1 24 -14z"/>
<path d="M7788 1883 c6 -2 18 -2 25 0 6 3 1 5 -13 5 -14 0 -19 -2 -12 -5z"/>
<path d="M8425 1880 c11 -5 27 -9 35 -9 9 0 8 4 -5 9 -11 5 -27 9 -35 9 -9 0
-8 -4 5 -9z"/>
<path d="M6071 1645 l0 -235 64 0 65 0 0 235 0 235 -64 0 -64 0 -1 -235z m119
0 l0 -225 -50 0 -50 0 0 225 0 225 50 0 50 0 0 -225z"/>
<path d="M7728 1873 c6 -2 18 -2 25 0 6 3 1 5 -13 5 -14 0 -19 -2 -12 -5z"/>
<path d="M8525 1850 c11 -5 27 -9 35 -9 9 0 8 4 -5 9 -11 5 -27 9 -35 9 -9 0
-8 -4 5 -9z"/>
<path d="M7568 1843 c6 -2 18 -2 25 0 6 3 1 5 -13 5 -14 0 -19 -2 -12 -5z"/>
<path d="M7518 1833 c7 -3 16 -2 19 1 4 3 -2 6 -13 5 -11 0 -14 -3 -6 -6z"/>
<path d="M8580 1836 c0 -3 17 -10 38 -16 20 -7 48 -19 62 -28 14 -9 40 -17 58
-18 28 -1 31 1 15 9 -10 6 -22 17 -26 24 -6 9 -18 13 -32 9 -13 -3 -42 1 -65
9 -46 16 -50 17 -50 11z m140 -42 c0 -9 -5 -14 -12 -12 -18 6 -21 28 -4 28 9
0 16 -7 16 -16z"/>
<path d="M7478 1823 c7 -3 16 -2 19 1 4 3 -2 6 -13 5 -11 0 -14 -3 -6 -6z"/>
<path d="M7438 1813 c7 -3 16 -2 19 1 4 3 -2 6 -13 5 -11 0 -14 -3 -6 -6z"/>
<path d="M4850 1610 l0 -200 60 0 60 0 0 200 0 200 -60 0 -60 0 0 -200z m110
0 l0 -190 -50 0 -50 0 0 190 0 190 50 0 50 0 0 -190z"/>
<path d="M7358 1793 c7 -3 16 -2 19 1 4 3 -2 6 -13 5 -11 0 -14 -3 -6 -6z"/>
<path d="M7318 1783 c7 -3 16 -2 19 1 4 3 -2 6 -13 5 -11 0 -14 -3 -6 -6z"/>
<path d="M7278 1773 c7 -3 16 -2 19 1 4 3 -2 6 -13 5 -11 0 -14 -3 -6 -6z"/>
<path d="M7238 1763 c7 -3 16 -2 19 1 4 3 -2 6 -13 5 -11 0 -14 -3 -6 -6z"/>
<path d="M8780 1766 c0 -2 7 -7 16 -10 8 -3 12 -2 9 4 -6 10 -25 14 -25 6z"/>
<path d="M5770 1585 l0 -175 60 0 60 0 0 175 0 175 -60 0 -60 0 0 -175z m110
0 l0 -165 -50 0 -50 0 0 165 0 165 50 0 50 0 0 -165z"/>
<path d="M6540 1585 l0 -175 60 0 60 0 0 175 0 175 -60 0 -60 0 0 -175z m108
-2 l2 -163 -50 0 -50 0 0 166 0 165 48 -3 47 -3 3 -162z"/>
<path d="M7124 1749 c-3 -6 1 -18 10 -27 16 -16 18 -16 32 2 11 16 11 22 1 28
-17 11 -35 10 -43 -3z m36 -15 c0 -17 -22 -14 -28 4 -2 7 3 12 12 12 9 0 16
-7 16 -16z"/>
<path d="M7198 1753 c7 -3 16 -2 19 1 4 3 -2 6 -13 5 -11 0 -14 -3 -6 -6z"/>
<path d="M11278 1741 c-15 -18 -15 -19 5 -25 28 -7 51 12 36 30 -15 18 -21 18
-41 -5z m34 -6 c0 -5 -5 -11 -11 -13 -6 -2 -11 4 -11 13 0 9 5 15 11 13 6 -2
11 -8 11 -13z"/>
<path d="M8821 1746 c10 -9 69 -36 69 -32 0 6 -55 36 -66 36 -4 0 -5 -2 -3 -4z"/>
<path d="M11228 1713 c7 -3 16 -2 19 1 4 3 -2 6 -13 5 -11 0 -14 -3 -6 -6z"/>
<path d="M5000 1560 l0 -150 60 0 60 0 0 150 0 150 -60 0 -60 0 0 -150z m110
0 l0 -140 -50 0 -50 0 0 140 0 140 50 0 50 0 0 -140z"/>
<path d="M8928 1690 c42 -26 56 -26 17 0 -16 11 -34 20 -40 20 -5 0 5 -9 23
-20z"/>
<path d="M6230 1555 l0 -145 60 0 60 0 0 145 0 145 -60 0 -60 0 0 -145z m110
0 l0 -135 -50 0 -50 0 0 135 0 135 50 0 50 0 0 -135z"/>
<path d="M11158 1693 c7 -3 16 -2 19 1 4 3 -2 6 -13 5 -11 0 -14 -3 -6 -6z"/>
<path d="M5310 1550 l0 -140 60 0 60 0 0 140 0 140 -60 0 -60 0 0 -140z m110
0 l0 -130 -50 0 -50 0 0 130 0 130 50 0 50 0 0 -130z"/>
<path d="M11025 1660 c-13 -5 -14 -9 -5 -9 8 0 24 4 35 9 13 5 14 9 5 9 -8 0
-24 -4 -35 -9z"/>
<path d="M5610 1530 l0 -120 65 0 65 0 0 120 0 120 -65 0 -65 0 0 -120z m120
0 l0 -110 -49 0 -50 0 -3 94 c-4 129 -6 126 53 126 l49 0 0 -110z"/>
<path d="M9030 1640 c8 -5 20 -10 25 -10 6 0 3 5 -5 10 -8 5 -19 10 -25 10 -5
0 -3 -5 5 -10z"/>
<path d="M10978 1643 c7 -3 16 -2 19 1 4 3 -2 6 -13 5 -11 0 -14 -3 -6 -6z"/>
<path d="M10938 1633 c7 -3 16 -2 19 1 4 3 -2 6 -13 5 -11 0 -14 -3 -6 -6z"/>
<path d="M9095 1615 c17 -8 39 -14 50 -14 11 0 0 7 -25 15 -56 17 -64 17 -25
-1z"/>
<path d="M10775 1609 c-4 -6 -21 -17 -38 -24 -30 -12 -30 -13 18 -11 50 1 66
14 41 35 -11 9 -16 9 -21 0z m25 -20 c0 -5 -7 -9 -15 -9 -15 0 -20 12 -9 23 8
8 24 -1 24 -14z"/>
<path d="M10868 1613 c7 -3 16 -2 19 1 4 3 -2 6 -13 5 -11 0 -14 -3 -6 -6z"/>
<path d="M5150 1510 l0 -100 65 0 65 0 0 100 0 100 -65 0 -65 0 0 -100z m120
0 l0 -90 -55 0 -55 0 0 90 0 90 55 0 55 0 0 -90z"/>
<path d="M5920 1510 l0 -100 65 0 65 0 0 100 0 100 -65 0 -65 0 0 -100z m110
0 l0 -90 -50 0 -50 0 0 90 0 90 50 0 50 0 0 -90z"/>
<path d="M9187 1602 c-16 -3 -15 -6 8 -18 16 -8 30 -12 33 -9 3 3 0 5 -6 5 -6
0 -12 6 -14 13 -2 7 -11 11 -21 9z"/>
<path d="M9250 1600 c-8 -5 -12 -11 -10 -14 3 -2 14 2 24 10 22 15 10 19 -14
4z"/>
<path d="M10828 1603 c7 -3 16 -2 19 1 4 3 -2 6 -13 5 -11 0 -14 -3 -6 -6z"/>
<path d="M5460 1505 l0 -95 60 0 60 0 0 95 0 95 -60 0 -60 0 0 -95z m110 0 l0
-85 -50 0 -50 0 0 85 0 85 50 0 50 0 0 -85z"/>
<path d="M10630 1550 c-18 -12 -2 -12 25 0 13 6 15 9 5 9 -8 0 -22 -4 -30 -9z"/>
<path d="M6380 1480 l0 -70 65 0 65 0 0 70 0 70 -65 0 -65 0 0 -70z m113 53
c2 -5 2 -32 -1 -60 l-4 -53 -49 0 -49 0 0 60 0 60 49 0 c28 0 52 -3 54 -7z"/>
<path d="M10537 1525 c-53 -15 -80 -31 -32 -19 55 13 110 32 95 32 -8 0 -37
-6 -63 -13z"/>
<path d="M10247 1486 c-15 -12 -16 -15 -2 -26 12 -10 21 -10 38 -2 12 6 36 13
52 15 24 3 22 4 -10 6 -23 0 -45 5 -50 10 -6 6 -17 5 -28 -3z m33 -17 c0 -5
-7 -9 -15 -9 -15 0 -20 12 -9 23 8 8 24 -1 24 -14z"/>
<path d="M10438 1493 c7 -3 16 -2 19 1 4 3 -2 6 -13 5 -11 0 -14 -3 -6 -6z"/>
<path d="M10388 1483 c6 -2 18 -2 25 0 6 3 1 5 -13 5 -14 0 -19 -2 -12 -5z"/>
<path d="M2609 929 c-24 -20 -24 -20 -2 -14 18 5 22 2 21 -17 -2 -45 2 -68 12
-68 12 0 13 107 1 114 -5 3 -20 -3 -32 -15z"/>
<path d="M2680 935 c-16 -19 -6 -45 19 -45 23 0 35 28 20 46 -15 18 -24 18
-39 -1z m30 -20 c0 -8 -4 -15 -10 -15 -5 0 -10 7 -10 15 0 8 5 15 10 15 6 0
10 -7 10 -15z"/>
<path d="M7342 941 c-19 -11 -11 -45 11 -49 9 -2 20 4 23 13 9 21 -16 47 -34
36z m26 -23 c-6 -18 -28 -21 -28 -4 0 9 7 16 16 16 9 0 14 -5 12 -12z"/>
<path d="M2518 933 c17 -2 32 -6 32 -9 0 -3 -9 -22 -20 -44 -23 -45 -24 -50
-10 -50 8 0 60 90 60 105 0 3 -21 4 -47 3 -37 -1 -40 -2 -15 -5z"/>
<path d="M2732 889 c-18 -28 -31 -53 -29 -55 5 -5 77 89 77 100 0 18 -19 0
-48 -45z"/>
<path d="M4821 918 c1 -16 3 -18 6 -6 2 10 17 18 36 21 31 4 31 4 -5 5 -34 2
-38 -1 -37 -20z"/>
<path d="M4953 928 c-15 -18 -35 -58 -29 -58 2 0 13 16 25 35 20 35 22 46 4
23z"/>
<path d="M5061 923 c-1 -26 -11 -29 -30 -10 -10 10 -11 9 -6 -5 4 -10 14 -18
21 -18 17 0 28 24 21 42 -3 7 -6 3 -6 -9z"/>
<path d="M5090 895 c-17 -25 -29 -45 -26 -45 3 0 19 20 36 45 17 25 29 45 26
45 -3 0 -19 -20 -36 -45z"/>
<path d="M7130 924 c0 -13 3 -14 15 -4 8 7 23 9 32 5 16 -6 16 -8 -6 -24 -23
-18 -23 -18 -2 -24 11 -3 21 -10 21 -16 0 -17 -30 -25 -43 -12 -17 17 -31 13
-17 -4 20 -24 67 -19 76 7 4 13 2 24 -4 26 -7 2 -9 15 -5 33 5 28 4 29 -31 29
-27 0 -36 -4 -36 -16z"/>
<path d="M7235 929 c-4 -6 -4 -13 0 -17 3 -3 10 0 15 7 8 14 40 9 40 -7 0 -4
-13 -21 -30 -37 -16 -16 -30 -32 -30 -37 0 -4 18 -8 40 -8 22 0 40 4 40 9 0 4
-11 6 -25 3 -32 -6 -32 5 1 39 33 34 26 59 -15 59 -16 0 -33 -5 -36 -11z"/>
<path d="M7386 885 c-20 -30 -33 -55 -29 -55 11 1 84 110 74 110 -5 0 -25 -25
-45 -55z"/>
<path d="M9445 930 c-4 -7 2 -21 12 -32 18 -17 23 -18 42 -6 12 7 20 20 19 28
-4 18 -63 26 -73 10z m59 -9 c8 -12 -21 -34 -34 -26 -17 11 -11 35 9 35 11 0
22 -4 25 -9z"/>
<path d="M9563 933 c-20 -8 -15 -41 8 -54 16 -8 24 -8 33 1 8 8 7 10 -4 6 -21
-8 -44 9 -37 28 8 21 43 20 57 -1 11 -17 11 -17 6 0 -3 10 -6 21 -6 23 0 5
-42 4 -57 -3z"/>
<path d="M9655 929 c-4 -6 -5 -12 -2 -15 2 -3 7 2 10 11 7 17 1 20 -8 4z"/>
<path d="M9687 921 c3 -12 -1 -21 -11 -24 -13 -4 -13 -5 1 -3 19 1 32 46 15
46 -6 0 -8 -9 -5 -19z"/>
<path d="M9712 888 c-44 -68 -36 -70 11 -2 21 30 35 54 30 54 -4 0 -23 -24
-41 -52z"/>
<path d="M4982 895 c0 -16 2 -22 5 -12 2 9 2 23 0 30 -3 6 -5 -1 -5 -18z"/>
<path d="M4860 893 c8 -3 19 -11 23 -17 6 -7 7 -6 4 4 -2 8 -12 16 -23 17 -13
2 -15 1 -4 -4z"/>
<path d="M2762 873 c-13 -25 -4 -43 19 -43 25 0 35 25 19 45 -16 20 -27 19
-38 -2z m28 -18 c0 -8 -4 -15 -10 -15 -5 0 -10 7 -10 15 0 8 5 15 10 15 6 0
10 -7 10 -15z"/>
<path d="M7420 875 c-16 -19 -5 -47 17 -43 22 4 29 43 9 51 -8 3 -20 -1 -26
-8z m30 -21 c0 -17 -22 -14 -28 4 -2 7 3 12 12 12 9 0 16 -7 16 -16z"/>
<path d="M9440 861 c0 -22 30 -35 60 -26 12 4 20 15 19 28 0 22 0 22 -10 -1
-11 -28 -55 -28 -53 1 1 9 -2 17 -7 17 -5 0 -9 -9 -9 -19z"/>
<path d="M9616 862 c-6 -18 -13 -23 -32 -19 -13 2 -21 0 -18 -4 15 -25 71 5
62 33 -3 8 -8 3 -12 -10z"/>
<path d="M9768 858 c4 -17 2 -20 -11 -15 -10 4 -17 2 -17 -4 0 -6 8 -9 18 -7
18 3 31 48 14 48 -6 0 -8 -10 -4 -22z"/>
<path d="M4820 851 c0 -13 30 -22 51 -16 11 4 19 11 19 17 0 6 -6 5 -16 -3
-12 -10 -20 -10 -35 -1 -10 7 -19 8 -19 3z"/>
<path d="M2870 840 c0 -7 187 -10 540 -10 353 0 540 3 540 10 0 7 -187 10
-540 10 -353 0 -540 -3 -540 -10z"/>
<path d="M5120 836 c7 -7 13 -7 20 0 6 6 3 10 -10 10 -13 0 -16 -4 -10 -10z"/>
<path d="M6000 840 c0 -5 5 -10 11 -10 5 0 7 5 4 10 -3 6 -8 10 -11 10 -2 0
-4 -4 -4 -10z"/>
<path d="M7530 840 c0 -6 85 -10 235 -10 150 0 235 4 235 10 0 6 -85 10 -235
10 -150 0 -235 -4 -235 -10z"/>
<path d="M9855 840 c-4 -7 229 -10 654 -10 440 0 661 3 661 10 0 14 -1307 13
-1315 0z"/>
</g>
</svg>
