<?xml version="1.0" standalone="no"?>
<!DOCTYPE svg PUBLIC "-//W3C//DTD SVG 20010904//EN"
 "http://www.w3.org/TR/2001/REC-SVG-20010904/DTD/svg10.dtd">
<svg version="1.0" xmlns="http://www.w3.org/2000/svg"
 width="1100.000000pt" height="566.000000pt" viewBox="0 0 1100.000000 566.000000"
 preserveAspectRatio="xMidYMid meet">

<g transform="translate(0.000000,566.000000) scale(0.100000,-0.100000)"
fill="#000000" stroke="none">
<path d="M932 5493 l-64 -36 32 -20 c30 -19 33 -19 66 -4 31 15 37 15 67 1 31
-15 36 -15 67 1 33 17 33 18 14 32 -18 14 -110 63 -116 63 -2 -1 -32 -17 -66
-37z"/>
<path d="M1063 5392 c-60 -34 -63 -38 -63 -74 l0 -38 43 21 c80 41 97 57 97
95 0 19 -3 34 -7 34 -5 -1 -36 -17 -70 -38z"/>
<path d="M1436 5418 c-3 -7 -9 -35 -16 -63 -6 -27 -13 -58 -16 -67 -4 -13 0
-18 14 -18 14 0 21 10 28 42 6 30 15 44 28 46 17 4 18 -1 12 -42 -6 -38 -4
-46 8 -46 9 0 19 16 26 41 15 56 7 72 -31 67 -28 -4 -30 -3 -24 24 5 22 3 28
-10 28 -8 0 -17 -6 -19 -12z"/>
<path d="M1280 5405 c0 -9 9 -15 21 -15 17 0 20 -5 16 -22 -3 -13 -9 -40 -13
-61 -6 -35 -4 -39 12 -35 10 2 20 12 22 23 13 74 23 95 47 95 16 0 25 6 25 15
0 12 -14 15 -65 15 -51 0 -65 -3 -65 -15z"/>
<path d="M1690 5345 l0 -75 49 0 c68 0 109 43 65 68 -11 6 -13 11 -5 16 17 11
13 53 -5 60 -9 3 -36 6 -60 6 l-44 0 0 -75z m88 33 c-7 -20 -58 -23 -58 -4 0
11 10 16 31 16 20 0 29 -4 27 -12z m2 -63 c0 -10 -10 -15 -30 -15 -20 0 -30 5
-30 15 0 10 10 15 30 15 20 0 30 -5 30 -15z"/>
<path d="M6590 5358 c0 -39 3 -47 22 -51 12 -4 28 -1 35 5 20 16 12 52 -12 56
-11 2 -26 11 -32 20 -11 13 -13 9 -13 -30z m55 -23 c0 -28 -29 -25 -33 3 -3
19 0 23 15 20 10 -2 18 -12 18 -23z"/>
<path d="M5733 5345 c0 -27 2 -40 4 -27 3 15 11 22 28 22 17 0 25 -7 28 -22 2
-13 4 0 4 27 0 28 -2 40 -4 28 -3 -16 -11 -23 -28 -23 -17 0 -25 7 -28 23 -2
12 -4 0 -4 -28z"/>
<path d="M6514 5354 c-8 -20 -13 -41 -10 -47 2 -7 5 -4 5 6 1 19 51 25 51 5 0
-6 3 -9 6 -6 6 7 -22 78 -31 78 -3 0 -13 -16 -21 -36z m36 -6 c0 -5 -6 -8 -14
-8 -9 0 -12 7 -9 21 4 16 8 17 14 7 5 -7 9 -16 9 -20z"/>
<path d="M6848 5377 c-7 -21 6 -70 20 -73 7 -1 8 0 2 3 -12 6 -13 50 -1 55 5
2 3 8 -4 15 -10 9 -14 9 -17 0z"/>
<path d="M6951 5359 c-1 -42 18 -64 49 -54 16 5 20 14 19 48 l-2 42 -6 -40
c-5 -31 -10 -40 -26 -40 -16 0 -21 9 -26 40 l-6 40 -2 -36z"/>
<path d="M7511 5343 c1 -26 4 -38 6 -26 3 13 13 23 26 25 34 5 29 42 -5 46
-27 3 -28 2 -27 -45z m49 22 c0 -8 -9 -15 -20 -15 -11 0 -20 7 -20 15 0 8 9
15 20 15 11 0 20 -7 20 -15z"/>
<path d="M7928 5377 c-7 -21 6 -70 20 -73 7 -1 8 0 2 3 -12 6 -13 50 -1 55 5
2 3 8 -4 15 -10 9 -14 9 -17 0z"/>
<path d="M8445 5380 c-9 -14 3 -30 32 -41 32 -12 19 -32 -16 -25 -21 5 -23 4
-8 -4 22 -14 57 -4 57 16 0 8 -13 20 -30 25 -39 14 -39 33 -1 27 17 -2 28 -1
25 4 -7 11 -52 10 -59 -2z"/>
<path d="M1560 5361 c-5 -11 -10 -31 -10 -46 0 -31 36 -51 74 -41 37 9 32 27
-5 24 -19 -2 -34 2 -36 10 -3 8 8 12 36 12 33 0 41 4 41 18 0 27 -20 42 -57
42 -22 0 -36 -6 -43 -19z m65 -11 c3 -5 -3 -10 -14 -10 -12 0 -21 5 -21 10 0
6 6 10 14 10 8 0 18 -4 21 -10z"/>
<path d="M1852 5368 c-7 -7 -12 -27 -12 -45 0 -35 21 -53 62 -53 32 0 48 18
48 55 0 39 -16 55 -55 55 -17 0 -36 -5 -43 -12z m66 -39 c2 -16 -3 -29 -12
-32 -20 -8 -39 18 -31 43 9 29 39 21 43 -11z"/>
<path d="M1985 5354 c16 -25 16 -28 -4 -55 -21 -28 -21 -29 -3 -29 11 0 26 10
34 22 l15 22 12 -22 c6 -12 18 -22 26 -22 19 0 19 5 -1 35 -14 22 -14 26 1 49
16 25 16 26 0 26 -10 0 -24 -8 -31 -17 -12 -17 -13 -17 -19 0 -4 9 -16 17 -27
17 -20 0 -20 -1 -3 -26z"/>
<path d="M5825 5350 c-7 -23 10 -50 30 -50 20 0 37 27 30 50 -4 13 -15 20 -30
20 -15 0 -26 -7 -30 -20z m49 1 c9 -14 -4 -41 -19 -41 -18 0 -28 17 -21 35 6
17 32 20 40 6z"/>
<path d="M5912 5332 l1 -37 4 33 c5 40 33 41 44 2 l7 -25 1 28 c1 35 31 38 31
2 0 -14 4 -25 9 -25 7 0 8 22 2 52 0 3 -23 6 -51 6 l-50 1 2 -37z"/>
<path d="M6047 5363 c-4 -3 -7 -17 -7 -30 0 -26 26 -41 42 -25 8 8 5 9 -11 5
-12 -3 -21 -1 -21 6 0 6 8 11 18 11 24 0 32 8 25 26 -5 14 -35 19 -46 7z m33
-13 c0 -5 -7 -10 -15 -10 -8 0 -15 5 -15 10 0 6 7 10 15 10 8 0 15 -4 15 -10z"/>
<path d="M6681 5352 c-7 -14 -6 -24 4 -38 18 -25 50 -7 50 27 0 31 -39 39 -54
11z m47 -14 c-5 -34 -38 -37 -38 -4 0 20 5 26 21 26 15 0 20 -5 17 -22z"/>
<path d="M6763 5340 c2 -31 5 -35 30 -36 25 -1 27 2 26 35 -1 36 -1 36 -8 6
-3 -17 -13 -30 -21 -30 -8 0 -18 13 -22 30 -6 29 -6 29 -5 -5z"/>
<path d="M7050 5354 c0 -9 9 -18 20 -21 31 -8 24 -26 -7 -19 -23 5 -25 4 -10
-5 20 -12 47 -6 47 12 0 6 -9 13 -20 16 -25 7 -26 20 -2 26 13 4 11 5 -5 6
-15 1 -23 -5 -23 -15z"/>
<path d="M7591 5338 c1 -21 3 -26 6 -13 3 11 12 26 21 33 14 11 13 12 -6 12
-18 0 -22 -5 -21 -32z"/>
<path d="M7650 5355 c-26 -31 18 -71 47 -42 19 19 8 57 -16 57 -10 0 -24 -7
-31 -15z m48 -18 c4 -20 -25 -34 -40 -19 -15 15 -1 44 19 40 10 -2 19 -11 21
-21z"/>
<path d="M7732 5338 c-1 -20 -5 -45 -8 -55 -5 -14 -4 -15 5 -7 7 7 11 29 8 55
-3 42 -4 42 -5 7z"/>
<path d="M7764 5356 c-13 -34 25 -71 48 -48 8 8 5 9 -9 6 -12 -3 -24 -1 -27 5
-5 7 3 11 19 11 20 0 26 4 23 18 -4 22 -46 29 -54 8z m46 -6 c0 -5 -7 -10 -15
-10 -8 0 -15 5 -15 10 0 6 7 10 15 10 8 0 15 -4 15 -10z"/>
<path d="M7844 5355 c-13 -32 25 -70 47 -48 6 6 2 9 -13 9 -17 -1 -23 5 -23
19 0 14 6 20 22 19 12 0 20 3 17 8 -9 14 -44 9 -50 -7z"/>
<path d="M7980 5354 c0 -9 9 -18 20 -21 11 -3 20 -10 20 -15 0 -6 -10 -8 -21
-5 -16 4 -19 3 -11 -5 12 -12 42 -4 42 13 0 6 -9 13 -20 16 -25 7 -26 20 -2
26 13 4 11 5 -5 6 -15 1 -23 -5 -23 -15z"/>
<path d="M8537 5364 c-4 -4 -7 -18 -7 -31 0 -26 26 -41 42 -25 8 8 5 9 -11 5
-11 -3 -21 -1 -21 5 0 6 10 12 23 14 28 4 29 32 2 36 -12 2 -24 0 -28 -4z m33
-14 c0 -5 -7 -10 -15 -10 -8 0 -15 5 -15 10 0 6 7 10 15 10 8 0 15 -4 15 -10z"/>
<path d="M8612 5333 c1 -37 1 -37 5 -6 3 19 11 34 21 36 12 3 10 5 -5 6 -20 1
-23 -3 -21 -36z"/>
<path d="M8666 5350 c13 -51 21 -55 39 -21 9 18 14 35 11 38 -3 3 -10 -7 -17
-23 l-11 -29 -14 30 c-11 25 -13 26 -8 5z"/>
<path d="M8742 5340 c0 -19 2 -27 5 -17 2 9 2 25 0 35 -3 9 -5 1 -5 -18z"/>
<path d="M8777 5363 c-25 -24 10 -72 40 -54 16 9 15 10 -7 8 -20 -1 -26 3 -28
22 -3 21 0 23 22 19 14 -3 23 -1 20 3 -6 11 -38 12 -47 2z"/>
<path d="M8857 5363 c-4 -3 -7 -17 -7 -30 0 -26 26 -41 42 -25 8 8 5 9 -11 5
-12 -3 -21 -1 -21 6 0 6 8 11 18 11 24 0 32 8 25 26 -5 14 -35 19 -46 7z m38
-13 c3 -5 -3 -10 -14 -10 -12 0 -21 5 -21 10 0 6 6 10 14 10 8 0 18 -4 21 -10z"/>
<path d="M8930 5354 c0 -9 9 -18 20 -21 11 -3 20 -10 20 -15 0 -6 -10 -8 -21
-5 -16 4 -19 3 -11 -5 12 -12 42 -4 42 13 0 6 -9 13 -20 16 -25 7 -26 20 -2
26 13 4 11 5 -5 6 -15 1 -23 -5 -23 -15z"/>
<path d="M1063 5291 c-59 -34 -62 -38 -63 -73 0 -21 3 -38 6 -38 3 0 34 17 69
38 61 35 65 39 65 75 0 20 -3 37 -7 36 -5 -1 -36 -17 -70 -38z"/>
<path d="M7604 4091 c4 -6 16 -16 28 -22 15 -8 18 -8 14 0 -4 6 -16 16 -28 22
-15 8 -18 8 -14 0z"/>
<path d="M7590 3866 c0 -2 14 -14 30 -26 17 -12 30 -19 30 -16 0 2 -13 14 -30
26 -16 12 -30 19 -30 16z"/>
<path d="M7710 3776 c0 -2 8 -10 18 -17 15 -13 16 -12 3 4 -13 16 -21 21 -21
13z"/>
<path d="M7725 3510 c10 -11 20 -20 23 -20 3 0 -3 9 -13 20 -10 11 -20 20 -23
20 -3 0 3 -9 13 -20z"/>
<path d="M7760 3486 c0 -2 8 -10 18 -17 15 -13 16 -12 3 4 -13 16 -21 21 -21
13z"/>
<path d="M6068 3453 c-85 -3 -98 -6 -98 -21 0 -15 2 -15 10 -2 6 9 10 11 10 3
0 -7 6 -10 13 -8 25 10 39 -11 32 -49 -4 -20 -11 -36 -16 -36 -5 0 -9 -5 -9
-10 0 -7 6 -7 18 -1 16 9 18 6 14 -19 -2 -17 3 -38 13 -52 16 -22 16 -22 10
25 -5 32 -4 47 4 47 6 0 11 -8 12 -17 0 -16 1 -16 8 1 7 19 -7 66 -21 66 -3 0
-9 -8 -11 -17 -3 -10 -5 -3 -6 15 -1 19 6 40 16 50 16 16 16 16 10 0 -3 -10
-2 -20 2 -23 5 -3 11 1 14 9 6 14 57 10 57 -5 0 -10 -21 -23 -39 -24 -8 0 -16
-7 -19 -15 -3 -10 -1 -12 6 -5 6 6 40 9 76 7 73 -4 80 -12 60 -72 -7 -19 -9
-37 -6 -40 6 -4 7 -20 3 -67 -1 -9 -22 -13 -70 -13 -58 0 -70 -3 -74 -17 -3
-11 -5 -5 -6 11 -1 26 -3 28 -13 13 -10 -13 -31 -17 -90 -18 -69 -2 -78 -4
-78 -20 0 -11 -5 -19 -11 -19 -5 0 -7 5 -4 10 3 6 3 15 -1 21 -4 8 -12 3 -20
-12 -12 -22 -13 -22 -14 -4 0 17 -2 17 -10 5 -7 -11 -10 -12 -10 -2 0 8 -8 12
-17 10 -10 -2 -18 -9 -17 -16 1 -6 2 -23 3 -37 1 -27 34 -36 45 -12 5 9 7 9
12 -2 5 -11 10 -8 20 10 l13 24 1 -25 1 -25 13 25 c8 14 12 28 10 32 -2 3 1
10 7 14 12 7 10 -10 -6 -48 -4 -10 -3 -18 2 -18 5 0 15 17 23 38 7 20 15 32
17 25 2 -7 -1 -21 -7 -32 -10 -20 -8 -21 64 -21 50 0 76 4 79 13 3 6 6 7 6 2
1 -7 35 -9 99 -7 53 2 98 5 98 6 1 0 -11 78 -27 171 -16 94 -29 173 -29 178 0
4 -17 6 -37 5 -21 -1 -82 -4 -135 -5z m140 -46 c-3 -6 -17 -13 -31 -15 -19 -2
-25 1 -22 10 7 18 58 23 53 5z m-222 -293 c-4 -9 -9 -15 -11 -12 -3 3 -3 13 1
22 4 9 9 15 11 12 3 -3 3 -13 -1 -22z m-156 -4 c0 -11 -4 -20 -9 -20 -5 0 -7
9 -4 20 3 11 7 20 9 20 2 0 4 -9 4 -20z m177 -2 c-3 -8 -6 -5 -6 6 -1 11 2 17
5 13 3 -3 4 -12 1 -19z"/>
<path d="M7826 3441 c-8 -12 19 -40 39 -40 6 0 3 5 -6 12 -9 7 -18 19 -21 27
-3 11 -6 11 -12 1z"/>
<path d="M5760 3426 c0 -15 16 -16 38 -3 8 6 12 2 12 -9 0 -17 1 -17 13 0 11
15 24 17 75 14 34 -2 62 0 62 4 0 4 -45 8 -100 8 -79 0 -100 -3 -100 -14z"/>
<path d="M5933 3299 c-13 -5 -23 -10 -23 -13 0 -6 41 1 48 9 10 10 -3 13 -25
4z"/>
<path d="M7821 3173 c0 -4 24 -26 52 -49 29 -22 51 -48 51 -57 -1 -9 4 -13 13
-10 7 3 24 -3 36 -13 20 -17 20 -17 -2 8 -14 17 -20 31 -15 40 6 11 5 11 -8 0
-10 -8 -19 -9 -22 -3 -10 16 -106 93 -105 84z"/>
<path d="M1612 3101 c-8 -5 -12 -21 -10 -37 2 -24 8 -30 33 -32 19 -3 33 2 42
14 17 23 16 29 -3 48 -17 18 -42 20 -62 7z"/>
<path d="M1760 2930 c0 -167 1 -181 20 -200 22 -22 60 -26 91 -10 23 13 27 52
4 44 -8 -4 -22 -1 -30 6 -12 10 -15 43 -15 176 l0 164 -35 0 -35 0 0 -180z"/>
<path d="M2120 3053 c1 -32 1 -68 1 -80 l-1 -23 -20 20 c-42 42 -130 19 -161
-42 -66 -130 58 -278 160 -192 30 25 31 25 31 5 0 -17 6 -21 35 -21 l35 0 0
195 0 195 -41 0 -40 0 1 -57z m-20 -133 c14 -14 20 -33 20 -63 0 -54 -22 -87
-58 -87 -36 0 -49 10 -62 44 -31 82 44 162 100 106z"/>
<path d="M2282 3098 c-28 -28 -3 -72 39 -66 30 4 47 33 33 56 -14 21 -55 27
-72 10z"/>
<path d="M3480 2915 l0 -195 35 0 35 0 0 88 c0 96 9 117 51 127 47 11 59 -14
59 -121 l0 -94 40 0 39 0 -2 111 c-2 108 -3 111 -30 135 -36 31 -94 32 -131 3
l-26 -20 0 80 0 81 -35 0 -35 0 0 -195z"/>
<path d="M3820 3096 c-6 -8 -10 -25 -8 -38 6 -44 88 -32 88 13 0 33 -57 51
-80 25z"/>
<path d="M7610 3107 c0 -2 15 -16 33 -33 l32 -29 -29 33 c-28 30 -36 37 -36
29z"/>
<path d="M907 3073 c-4 -3 -7 -84 -7 -180 l0 -173 113 0 c134 0 171 15 183 75
7 40 -15 84 -47 92 -17 5 -16 8 11 33 54 50 29 128 -48 150 -41 11 -195 14
-205 3z m184 -63 c12 -7 19 -21 19 -41 0 -34 -27 -49 -91 -49 l-39 0 0 50 0
50 46 0 c25 0 54 -5 65 -10z m10 -150 c12 -7 19 -21 19 -40 0 -37 -23 -50 -89
-50 l-51 0 0 50 0 50 51 0 c28 0 59 -5 70 -10z"/>
<path d="M3290 3061 c-19 -5 -26 -14 -28 -39 -3 -27 -7 -32 -28 -32 -22 0 -25
-4 -22 -27 2 -20 9 -29 26 -31 21 -3 22 -8 22 -92 0 -84 1 -90 26 -109 45 -36
134 -23 134 19 0 15 -8 19 -42 22 l-43 3 -3 77 -3 77 43 3 c39 3 43 6 46 31 3
26 2 27 -42 27 l-46 0 0 40 c0 22 -3 40 -7 39 -5 -1 -19 -4 -33 -8z"/>
<path d="M2967 3032 c-10 -10 -17 -23 -17 -29 0 -6 -30 -12 -71 -15 -63 -3
-74 -7 -95 -31 -29 -34 -31 -76 -6 -107 18 -23 18 -24 0 -42 -22 -22 -23 -51
-3 -68 14 -12 13 -15 -5 -32 -54 -51 1 -108 105 -108 106 0 172 55 145 121
-14 32 -61 50 -127 48 -64 -3 -73 0 -73 21 0 17 7 20 49 20 67 0 109 17 126
51 19 36 19 59 -1 87 -19 28 -12 52 16 52 15 0 20 7 20 25 0 20 -5 25 -23 25
-13 0 -31 -8 -40 -18z m-48 -101 c24 -24 17 -59 -13 -70 -50 -19 -89 22 -61
65 19 29 48 31 74 5z m42 -237 c20 -24 -13 -44 -72 -44 -59 0 -79 7 -79 29 0
27 9 31 75 31 45 0 66 -4 76 -16z"/>
<path d="M4498 3020 c-20 -27 -27 -30 -79 -30 -75 0 -119 -32 -119 -88 0 -19
7 -44 17 -54 15 -17 15 -19 0 -36 -19 -21 -22 -63 -6 -79 8 -8 5 -17 -10 -32
-27 -27 -26 -34 3 -68 23 -27 29 -28 109 -28 107 0 140 19 145 82 4 59 -19 74
-120 82 -64 5 -83 9 -83 21 0 11 17 16 67 21 104 9 145 58 110 130 -20 41 -14
59 20 59 19 0 22 8 12 34 -10 25 -42 19 -66 -14z m-44 -83 c12 -9 17 -23 14
-42 -3 -26 -8 -30 -36 -33 -55 -5 -82 37 -46 72 19 19 44 20 68 3z m45 -241
c21 -25 -13 -46 -74 -46 -36 0 -59 5 -70 16 -27 28 -1 44 70 44 41 0 66 -5 74
-14z"/>
<path d="M7720 3001 c0 -5 7 -12 16 -15 14 -5 15 -4 4 9 -14 17 -20 19 -20 6z"/>
<path d="M1262 2876 c3 -104 5 -118 26 -138 29 -29 110 -32 139 -5 24 21 33
22 33 2 0 -10 10 -15 30 -15 l30 0 0 135 0 135 -35 0 -35 0 0 -88 c0 -101 -14
-132 -59 -132 -16 0 -33 6 -39 13 -6 7 -13 56 -14 108 l-3 94 -38 3 -39 3 4
-115z"/>
<path d="M1607 2983 c-4 -3 -7 -64 -7 -135 l0 -128 40 0 40 0 0 135 0 135 -33
0 c-19 0 -37 -3 -40 -7z"/>
<path d="M2280 2855 l0 -135 35 0 35 0 0 135 0 135 -35 0 -35 0 0 -135z"/>
<path d="M2437 2983 c-4 -3 -7 -64 -7 -135 l0 -128 40 0 40 0 0 86 c0 47 4 94
10 104 14 27 58 35 81 14 16 -14 19 -32 19 -111 l0 -93 35 0 35 0 0 110 c0
104 -1 112 -25 135 -32 33 -100 35 -139 4 l-26 -20 0 20 c0 16 -6 21 -28 21
-16 0 -32 -3 -35 -7z"/>
<path d="M3814 2966 c-3 -13 -4 -73 -2 -133 l3 -108 38 -3 37 -3 0 135 0 136
-35 0 c-28 0 -36 -4 -41 -24z"/>
<path d="M3970 2855 l0 -135 34 0 34 0 4 91 c4 81 7 94 27 110 30 24 46 24 71
-1 17 -17 20 -33 20 -110 l0 -90 35 0 35 0 0 101 c0 135 -19 168 -96 169 -27
0 -50 -7 -68 -21 l-26 -20 0 20 c0 17 -6 21 -35 21 l-35 0 0 -135z"/>
<path d="M4629 2961 c-53 -53 -30 -110 53 -131 93 -23 111 -44 55 -63 -21 -7
-37 -4 -69 12 -40 19 -43 20 -61 3 -18 -16 -18 -17 7 -39 52 -45 177 -39 211
10 39 55 5 106 -85 127 -59 14 -75 27 -58 47 16 19 62 16 90 -7 l25 -19 23 24
22 24 -33 20 c-24 15 -51 21 -92 21 -51 0 -62 -4 -88 -29z"/>
<path d="M8006 2903 c-6 -14 -5 -15 5 -6 7 7 10 15 7 18 -3 3 -9 -2 -12 -12z"/>
<path d="M7830 2908 c0 -4 25 -30 55 -59 30 -28 52 -56 48 -62 -3 -5 -1 -7 4
-4 6 4 46 -27 89 -67 43 -41 81 -73 83 -71 2 3 -6 13 -19 23 -20 16 -21 21
-11 43 12 23 11 23 -4 4 -15 -18 -17 -17 -69 34 -54 53 -54 54 -39 80 l15 26
-20 -25 -21 -25 -56 55 c-30 30 -55 51 -55 48z"/>
<path d="M7726 2741 c-3 -5 2 -15 12 -22 15 -12 16 -12 5 2 -7 9 -10 19 -6 22
3 4 4 7 0 7 -3 0 -8 -4 -11 -9z"/>
<path d="M7616 2563 c-6 -14 -5 -15 5 -6 7 7 10 15 7 18 -3 3 -9 -2 -12 -12z"/>
<path d="M7940 2521 c0 -5 7 -12 16 -15 14 -5 15 -4 4 9 -14 17 -20 19 -20 6z"/>
<path d="M8110 2475 c-17 -25 -29 -45 -26 -45 3 0 19 20 36 45 17 25 29 45 26
45 -3 0 -19 -20 -36 -45z"/>
<path d="M7716 2466 c3 -8 13 -17 22 -21 13 -5 13 -2 -3 15 -21 24 -26 25 -19
6z"/>
<path d="M897 2453 c-15 -14 -6 -53 13 -63 42 -22 88 21 60 55 -13 15 -61 20
-73 8z"/>
<path d="M3087 2453 c-15 -14 -6 -53 13 -63 42 -22 88 21 60 55 -13 15 -61 20
-73 8z"/>
<path d="M3820 2441 c-19 -37 13 -66 59 -54 46 12 30 73 -19 73 -19 0 -33 -7
-40 -19z"/>
<path d="M7780 2405 c13 -14 26 -25 28 -25 3 0 -5 11 -18 25 -13 14 -26 25
-28 25 -3 0 5 -11 18 -25z"/>
<path d="M8048 2418 c8 -9 11 -22 7 -27 -3 -6 0 -9 7 -6 7 3 38 -19 68 -50 51
-52 54 -57 41 -78 -13 -20 -13 -21 2 -9 14 12 21 11 49 -9 l33 -22 -30 32
c-16 18 -58 60 -92 93 -34 34 -60 66 -56 72 3 6 3 8 -2 4 -4 -4 -15 -2 -24 5
-14 10 -14 10 -3 -5z"/>
<path d="M7826 2357 c3 -10 9 -15 12 -12 3 3 0 11 -7 18 -10 9 -11 8 -5 -6z"/>
<path d="M8020 2340 c-6 -11 -8 -20 -6 -20 3 0 10 9 16 20 6 11 8 20 6 20 -3
0 -10 -9 -16 -20z"/>
<path d="M1094 2334 c-93 -46 -56 -141 62 -159 47 -7 57 -15 48 -39 -9 -23
-75 -21 -106 4 -23 17 -27 18 -46 4 -29 -20 -28 -29 11 -52 29 -18 79 -27 134
-23 32 2 83 49 83 76 0 53 -28 77 -107 90 -23 3 -46 12 -52 19 -28 33 47 53
92 23 22 -14 27 -14 46 0 19 12 20 17 9 30 -34 41 -120 54 -174 27z"/>
<path d="M1571 2332 c-50 -25 -71 -59 -72 -118 -2 -91 49 -147 136 -147 85 0
135 52 135 140 0 111 -102 175 -199 125z m113 -64 c9 -12 16 -42 16 -65 0 -52
-26 -83 -69 -83 -38 0 -61 32 -61 85 0 56 22 85 65 85 24 0 39 -7 49 -22z"/>
<path d="M2300 2343 c-8 -3 -25 -15 -37 -26 l-23 -20 0 21 c0 18 -6 22 -30 22
l-30 0 0 -135 0 -135 34 0 34 0 4 90 c3 99 16 123 65 122 31 0 43 12 43 46 0
22 -23 28 -60 15z"/>
<path d="M2668 2326 c-36 -24 -38 -24 -38 -6 0 16 -7 20 -30 20 l-30 0 0 -135
0 -135 35 0 35 0 0 81 c0 99 17 138 62 139 37 0 48 -27 48 -126 l0 -94 35 0
35 0 0 80 c0 91 13 128 48 137 48 12 57 -5 60 -116 l3 -101 39 0 40 0 0 94 c0
110 -12 151 -51 171 -40 21 -71 19 -111 -9 -35 -24 -36 -24 -55 -5 -32 33 -82
35 -125 5z"/>
<path d="M3284 2334 c-38 -19 -59 -54 -50 -88 9 -37 30 -53 88 -65 63 -14 83
-28 67 -47 -17 -21 -73 -17 -103 7 -26 20 -28 20 -46 4 -27 -24 -25 -30 13
-53 114 -69 268 11 202 105 -10 14 -34 26 -73 33 -63 13 -83 25 -76 45 8 21
52 24 89 5 33 -17 35 -17 51 1 20 22 11 37 -32 55 -43 18 -91 17 -130 -2z"/>
<path d="M3573 2334 c-17 -9 -37 -29 -44 -45 -23 -56 17 -99 108 -114 47 -7
56 -15 47 -39 -9 -23 -75 -21 -106 4 -24 19 -26 19 -42 1 -22 -25 -20 -34 12
-53 58 -34 152 -28 193 13 14 14 19 31 17 57 -3 31 -9 40 -38 54 -19 9 -54 22
-77 28 -32 8 -43 16 -43 30 0 17 7 20 42 20 24 0 49 -7 60 -17 17 -15 19 -15
37 1 26 24 17 41 -30 60 -50 20 -95 20 -136 0z"/>
<path d="M4044 2336 c-64 -29 -94 -101 -74 -176 28 -105 192 -128 250 -35 39
63 18 174 -39 204 -34 19 -104 22 -137 7z m107 -63 c8 -9 14 -39 14 -70 0 -43
-4 -58 -19 -69 -30 -21 -72 -18 -90 8 -21 30 -21 106 1 130 20 23 76 24 94 1z"/>
<path d="M4425 2338 c-11 -6 -26 -18 -33 -27 -11 -14 -13 -13 -18 7 -5 16 -14
22 -35 22 l-29 0 0 -135 0 -135 35 0 35 0 0 90 c0 77 3 93 20 110 22 22 60 26
78 8 8 -8 12 -47 12 -110 l0 -98 40 0 40 0 0 100 c0 55 -5 111 -12 125 -21 46
-88 68 -133 43z"/>
<path d="M900 2205 l0 -135 35 0 35 0 0 135 0 135 -35 0 -35 0 0 -135z"/>
<path d="M1840 2231 c0 -100 2 -112 23 -136 31 -37 106 -39 142 -5 l25 23 0
-21 c0 -18 6 -22 35 -22 l35 0 0 135 0 135 -40 0 -40 0 0 -90 c0 -77 -3 -93
-20 -110 -24 -24 -53 -26 -74 -4 -12 12 -16 37 -16 110 l0 94 -35 0 -35 0 0
-109z"/>
<path d="M3090 2205 l0 -135 35 0 35 0 0 135 0 135 -35 0 -35 0 0 -135z"/>
<path d="M3820 2205 l0 -135 40 0 40 0 0 135 0 135 -40 0 -40 0 0 -135z"/>
<path d="M7616 2307 c3 -10 9 -15 12 -12 3 3 0 11 -7 18 -10 9 -11 8 -5 -6z"/>
<path d="M5660 2263 c0 -13 5 -23 10 -23 13 0 13 11 0 30 -8 12 -10 11 -10 -7z"/>
<path d="M7948 2233 c-3 -4 16 -26 41 -48 l46 -39 -40 44 c-22 25 -41 46 -41
48 -1 2 -4 0 -6 -5z"/>
<path d="M7710 2205 c7 -8 9 -22 6 -31 -5 -13 -4 -14 7 -6 8 7 18 8 23 4 5 -4
-2 5 -15 21 -25 28 -43 39 -21 12z"/>
<path d="M5674 2093 c0 -51 4 -93 9 -93 4 0 7 -22 7 -49 0 -28 5 -53 11 -57 8
-5 10 3 6 27 -3 19 -9 73 -12 121 -10 130 -23 162 -21 51z"/>
<path d="M8099 2153 c-13 -16 -12 -17 4 -4 16 13 21 21 13 21 -2 0 -10 -8 -17
-17z"/>
<path d="M5620 2156 c0 -2 7 -7 16 -10 8 -3 12 -2 9 4 -6 10 -25 14 -25 6z"/>
<path d="M4653 2143 c-21 -8 -16 -61 6 -73 30 -15 71 4 71 33 0 39 -35 58 -77
40z"/>
<path d="M7770 2136 c0 -2 8 -10 18 -17 15 -13 16 -12 3 4 -13 16 -21 21 -21
13z"/>
<path d="M8072 2118 c-7 -7 -12 -16 -12 -22 0 -5 2 -7 5 -4 3 3 33 -23 67 -58
58 -60 60 -65 45 -82 -10 -10 -17 -22 -17 -26 0 -5 9 2 19 15 l19 24 29 -25
28 -25 -28 31 c-15 17 -24 34 -20 39 5 4 3 5 -3 2 -16 -9 -127 111 -120 129 7
17 4 18 -12 2z"/>
<path d="M8245 2049 c-20 -28 -32 -48 -26 -45 12 8 74 96 67 96 -2 0 -21 -23
-41 -51z"/>
<path d="M7850 2045 c13 -14 25 -25 27 -25 9 0 -33 49 -41 50 -5 0 1 -11 14
-25z"/>
<path d="M7690 1946 c0 -2 8 -10 18 -17 15 -13 16 -12 3 4 -13 16 -21 21 -21
13z"/>
<path d="M5550 1915 c0 -9 6 -12 15 -9 8 4 15 7 15 9 0 2 -7 5 -15 9 -9 3 -15
0 -15 -9z"/>
<path d="M5756 1893 c-6 -14 -5 -15 5 -6 7 7 10 15 7 18 -3 3 -9 -2 -12 -12z"/>
<path d="M8288 1877 c18 -21 32 -40 32 -43 0 -3 -11 -20 -24 -37 -12 -18 -26
-39 -30 -47 -9 -18 23 17 46 51 l16 24 36 -34 c45 -43 48 -29 4 16 -25 26 -29
36 -20 45 7 7 12 16 12 22 0 5 -6 1 -14 -10 -14 -18 -16 -18 -52 16 l-38 35
32 -38z"/>
<path d="M5698 1808 c4 -66 3 -71 -12 -59 -9 8 -16 28 -16 47 0 19 -4 34 -10
34 -5 0 -10 -9 -10 -19 0 -11 -5 -23 -11 -27 -8 -5 -10 1 -7 20 6 31 -13 31
-22 0 -6 -23 -30 -30 -30 -9 0 8 5 15 10 15 6 0 10 4 10 8 0 4 -9 8 -20 8 -11
0 -20 -6 -20 -13 0 -18 -9 -17 -90 13 -76 27 -106 28 -43 1 21 -9 59 -25 84
-35 45 -19 46 -20 53 -77 3 -32 5 -60 3 -62 -7 -6 -57 19 -52 27 2 4 -7 5 -22
2 -20 -4 -24 -2 -18 8 6 10 4 12 -8 7 -34 -13 -47 3 -49 62 l-2 56 -3 -52 c-2
-29 -8 -53 -13 -53 -18 0 -40 12 -35 20 3 5 -5 6 -17 2 -19 -5 -16 -8 25 -26
l47 -21 0 -66 0 -66 -56 19 c-77 26 -79 16 -4 -11 34 -13 64 -29 67 -38 4 -9
8 -11 12 -4 5 7 28 4 71 -10 35 -11 66 -22 68 -24 3 -2 8 -34 11 -70 7 -64 6
-66 -13 -60 -12 3 -43 13 -71 21 -27 8 -61 18 -75 21 l-25 5 23 -17 c12 -9 25
-14 30 -12 4 2 36 -7 72 -22 l65 -26 3 -63 c2 -47 0 -62 -11 -62 -16 0 -120
30 -127 37 -3 2 -8 32 -11 66 l-7 62 2 -63 c0 -34 -3 -62 -8 -62 -16 0 -141
43 -146 51 -3 3 -12 4 -21 0 -14 -5 -14 -8 2 -25 11 -11 19 -15 19 -9 0 11
124 -21 145 -37 6 -4 17 -7 25 -7 8 0 45 -10 81 -22 l66 -22 7 -60 c3 -34 4
-65 1 -69 -2 -4 -35 1 -72 12 -38 11 -84 23 -103 28 -124 28 -142 35 -150 54
-5 12 -9 15 -9 9 -1 -17 -31 -16 -87 3 -25 8 -48 13 -51 11 -2 -3 28 -16 69
-29 l73 -23 6 -70 5 -70 2 68 c1 37 5 67 9 67 28 0 140 -35 149 -47 7 -8 14
-10 15 -4 3 6 26 2 59 -9 30 -11 62 -19 71 -20 17 0 29 -44 29 -109 0 -33 0
-34 -37 -27 -90 14 -113 25 -114 54 -2 24 -2 24 -6 5 -5 -29 -27 -29 -111 -3
-67 21 -117 26 -108 11 3 -5 38 -16 78 -26 131 -31 138 -34 138 -75 0 -19 5
-42 11 -50 7 -11 9 -2 6 33 -3 40 -1 47 15 47 10 0 18 -7 18 -15 0 -8 0 -18 1
-22 1 -10 29 -26 35 -20 8 8 -8 37 -17 31 -5 -3 -9 0 -9 5 0 14 15 14 62 1 41
-12 44 -19 52 -102 6 -56 6 -57 -21 -61 l-28 -4 28 -2 c15 0 27 -6 27 -12 0
-7 10 -9 25 -5 14 4 25 2 25 -4 0 -5 16 -10 35 -10 26 0 33 -3 29 -15 -4 -8
-1 -15 5 -15 6 0 11 7 11 15 0 8 5 15 11 15 5 0 7 -5 4 -10 -3 -6 0 -10 9 -10
8 0 17 -6 19 -12 4 -10 6 -10 6 0 1 6 6 12 12 12 5 0 7 -5 4 -10 -4 -6 7 -10
25 -10 l31 0 -6 53 c-3 28 -30 300 -60 602 -31 303 -57 555 -59 562 -3 6 -17
10 -32 8 -19 -2 -28 3 -31 16 -11 42 -18 15 -15 -53z m-93 -58 c19 -8 19 -9
-2 -9 -12 -1 -25 4 -28 9 -7 12 2 12 30 0z m52 -16 c-3 -3 -12 -4 -19 -1 -8 3
-5 6 6 6 11 1 17 -2 13 -5z m55 -75 c3 -30 5 -55 4 -56 -1 -2 -24 4 -50 13
-36 12 -45 19 -35 26 10 7 5 8 -16 4 -29 -4 -31 -3 -33 29 -2 32 -1 34 28 32
16 -1 30 -5 30 -9 0 -15 28 -8 34 8 12 31 31 7 38 -47z m-207 -3 c65 -26 73
-38 74 -110 1 -40 -2 -47 -15 -42 -9 3 -28 9 -42 12 -15 4 -31 11 -37 18 -5 6
-19 11 -30 11 -17 0 -20 8 -23 68 -2 37 1 67 6 67 5 0 35 -11 67 -24z m192
-77 c17 -9 23 -24 29 -66 7 -57 2 -72 -18 -56 -7 5 -34 16 -60 23 -53 14 -54
15 -57 87 l-2 53 43 -15 c24 -8 53 -20 65 -26z m-20 -134 c56 -20 63 -31 63
-101 l0 -41 -62 20 c-35 11 -64 21 -65 21 -1 1 -5 30 -9 65 -6 53 -4 63 7 59
8 -3 37 -13 66 -23z m14 -150 l56 -18 6 -61 c3 -33 5 -62 3 -63 -1 -1 -32 7
-69 18 -51 15 -67 24 -67 38 0 10 -3 40 -7 66 -5 39 -4 47 8 43 8 -3 39 -13
70 -23z m-1 -154 c30 -11 57 -18 61 -15 7 4 19 -70 19 -113 0 -14 -4 -21 -10
-18 -5 3 -10 15 -10 26 0 20 -15 26 -25 9 -7 -12 -65 -13 -81 -2 -9 6 -21 132
-12 132 2 0 28 -9 58 -19z m-38 -163 c-9 -9 -12 -7 -12 12 0 19 3 21 12 12 9
-9 9 -15 0 -24z m132 -79 c6 -62 1 -76 -21 -54 -8 8 -32 15 -53 15 -37 0 -75
23 -66 39 3 4 30 6 61 3 l55 -4 0 38 c0 55 16 30 24 -37z m-100 -65 c9 -3 16
-17 16 -30 0 -13 3 -24 8 -24 4 0 17 -3 29 -6 19 -5 22 -3 18 15 -2 12 -1 21
3 21 23 -1 34 -24 39 -79 l6 -61 -49 1 -49 2 40 6 40 7 -57 5 c-32 3 -60 8
-62 10 -2 2 -7 34 -11 72 -7 68 -5 74 29 61z"/>
<path d="M5490 1620 c0 -5 7 -7 15 -4 8 4 15 8 15 10 0 2 -7 4 -15 4 -8 0 -15
-4 -15 -10z"/>
<path d="M5731 1194 c0 -11 3 -14 6 -6 3 7 2 16 -1 19 -3 4 -6 -2 -5 -13z"/>
<path d="M5710 876 c0 -2 13 -6 29 -8 17 -2 28 -1 25 4 -5 8 -54 12 -54 4z"/>
<path d="M5743 703 c9 -2 23 -2 30 0 6 3 -1 5 -18 5 -16 0 -22 -2 -12 -5z"/>
<path d="M9409 1863 c-13 -16 -12 -17 4 -4 16 13 21 21 13 21 -2 0 -10 -8 -17
-17z"/>
<path d="M8080 1813 c-19 -27 -26 -42 -17 -34 15 12 20 11 40 -5 21 -18 21
-18 -1 8 -15 16 -20 28 -13 33 11 6 35 45 28 45 -2 0 -19 -21 -37 -47z"/>
<path d="M5453 1783 c-15 -5 -17 -23 -4 -23 5 0 11 7 15 15 3 8 4 15 3 14 -1
0 -8 -3 -14 -6z"/>
<path d="M5198 1768 c5 -5 16 -8 23 -6 8 3 3 7 -10 11 -17 4 -21 3 -13 -5z"/>
<path d="M5480 1760 c0 -5 5 -10 10 -10 6 0 10 5 10 10 0 6 -4 10 -10 10 -5 0
-10 -4 -10 -10z"/>
<path d="M5521 1761 c-10 -6 -10 -10 -1 -16 13 -8 24 -1 19 14 -3 6 -10 7 -18
2z"/>
<path d="M7865 1740 c10 -11 20 -20 23 -20 3 0 -3 9 -13 20 -10 11 -20 20 -23
20 -3 0 3 -9 13 -20z"/>
<path d="M8228 1700 l-22 -30 -30 27 -31 28 29 -32 c17 -18 31 -33 32 -33 1 0
14 16 28 35 15 19 25 35 22 35 -3 0 -15 -14 -28 -30z"/>
<path d="M7936 1658 c22 -32 30 -34 38 -12 3 9 2 12 -5 9 -6 -4 -20 1 -31 12
l-22 18 20 -27z"/>
<path d="M5261 1644 c0 -11 3 -14 6 -6 3 7 2 16 -1 19 -3 4 -6 -2 -5 -13z"/>
<path d="M8791 1620 c-13 -11 -19 -20 -14 -20 6 0 18 9 28 20 23 25 17 25 -14
0z"/>
<path d="M5205 1616 c17 -8 36 -15 43 -16 7 0 13 -17 14 -47 1 -48 1 -48 5 -8
3 22 9 43 15 47 6 3 -8 11 -31 18 -23 6 -50 13 -59 16 -9 2 -3 -2 13 -10z"/>
<path d="M7985 1600 c10 -11 20 -20 23 -20 3 0 -3 9 -13 20 -10 11 -20 20 -23
20 -3 0 3 -9 13 -20z"/>
<path d="M7809 1548 c-4 -99 4 -90 -130 -155 -13 -6 -58 -29 -99 -51 -70 -37
-151 -80 -295 -155 -33 -18 -62 -34 -65 -37 -3 -3 -39 -22 -80 -42 -164 -81
-365 -190 -372 -201 -4 -7 -13 -12 -20 -12 -13 -1 -47 -20 -101 -57 -16 -11
-31 -17 -34 -14 -4 3 0 6 7 6 7 0 11 3 8 6 -6 5 -47 -14 -58 -27 -8 -9 -49
-25 -70 -28 -25 -3 -6 -19 30 -25 22 -3 40 -11 40 -17 0 -8 4 -8 13 0 13 10
101 8 177 -5 19 -4 51 -7 70 -8 95 -5 110 -7 124 -22 9 -8 16 -11 16 -5 0 12
118 15 136 3 7 -4 14 -16 17 -27 4 -19 5 -19 6 2 1 20 5 21 60 18 67 -3 79 -8
91 -39 8 -19 9 -19 9 8 1 21 5 27 17 22 9 -3 38 -6 65 -6 42 0 51 -3 59 -22 7
-19 9 -20 9 -4 1 16 7 18 59 13 31 -4 61 -6 65 -7 4 0 12 -10 17 -22 9 -23 9
-23 9 -2 1 19 6 21 46 18 63 -4 85 -13 95 -37 l9 -22 0 22 c1 13 10 24 23 29
44 13 48 -10 45 -272 -2 -194 1 -245 11 -249 7 -3 364 -5 792 -5 l779 0 4 158
3 157 2 -157 2 -157 774 -1 c425 0 780 2 788 5 13 5 15 91 11 703 -2 383 -4
707 -3 720 l0 22 -1580 0 -1580 0 -1 -22z m1871 -179 c0 -5 -7 -9 -15 -9 -15
0 -20 12 -9 23 8 8 24 -1 24 -14z m-820 -4 c0 -10 -10 -15 -27 -15 -21 0 -24
-3 -13 -9 8 -6 18 -7 22 -5 4 3 8 -2 8 -10 0 -9 -9 -16 -20 -16 -13 0 -20 -7
-20 -20 0 -11 -7 -20 -15 -20 -12 0 -15 13 -15 55 l0 55 40 0 c29 0 40 -4 40
-15z m241 -15 c24 0 29 -4 29 -25 0 -14 5 -25 10 -25 6 0 10 11 10 25 0 16 6
25 15 25 11 0 15 -11 15 -38 l0 -39 -66 0 c-41 -1 -67 4 -69 11 -14 47 -14 66
2 82 17 16 18 16 21 1 2 -11 13 -17 33 -17z m379 11 c14 -26 4 -48 -26 -55
-13 -4 -24 -13 -24 -21 0 -8 -7 -15 -15 -15 -12 0 -15 13 -15 55 l0 55 35 0
c24 0 37 -6 45 -19z m438 -8 c12 -12 13 -18 4 -21 -20 -6 -15 -44 5 -40 11 2
18 13 18 28 0 19 6 26 24 28 13 2 28 -1 34 -7 8 -8 4 -11 -13 -12 l-25 0 23
-10 c15 -5 22 -15 20 -26 -3 -15 -14 -18 -63 -18 -57 0 -60 1 -63 26 -3 21 -8
25 -38 25 -26 0 -34 -4 -32 -15 2 -10 12 -15 27 -13 16 3 22 -1 19 -10 -7 -19
-53 -22 -67 -4 -8 9 -11 26 -7 41 6 23 11 26 48 23 26 -1 43 3 46 10 5 17 20
15 40 -5z m-983 -43 c0 -30 -4 -35 -26 -38 -33 -4 -53 20 -45 53 6 22 11 26
39 23 29 -3 32 -6 32 -38z m80 29 c4 -5 9 -24 12 -40 4 -30 4 -30 -34 -27 -35
3 -38 6 -39 33 -1 17 0 33 3 38 6 11 51 8 58 -4z m320 -29 c0 -29 -4 -36 -23
-38 -28 -4 -52 14 -52 40 0 29 -24 16 -28 -15 -5 -44 -32 -34 -32 13 l0 40 68
-3 67 -2 0 -35z m300 6 c0 -55 -65 -62 -73 -7 -5 30 -26 21 -30 -12 -5 -44
-32 -34 -32 13 l0 40 68 -3 c67 -2 67 -2 67 -31z m43 -18 c-3 -46 -6 -53 -25
-56 -13 -2 -23 1 -23 7 0 6 5 11 10 11 6 0 10 20 10 45 0 34 4 45 16 45 12 0
14 -10 12 -52z m87 12 c0 -29 -4 -36 -23 -38 -43 -6 -69 37 -40 66 7 7 24 12
38 10 21 -3 25 -8 25 -38z m-1375 -284 c0 -8 14 -16 30 -19 28 -6 30 -9 30
-52 0 -25 -4 -45 -10 -45 -5 0 -10 18 -10 41 0 33 -3 40 -17 37 -13 -2 -19
-14 -21 -41 -6 -65 -22 -40 -22 34 0 44 4 68 10 64 6 -3 10 -12 10 -19z m587
-2 c-9 -9 -28 6 -21 18 4 6 10 6 17 -1 6 -6 8 -13 4 -17z m373 -33 c0 -38 4
-61 13 -64 6 -2 9 -8 5 -12 -4 -4 -14 -5 -23 -2 -11 5 -15 22 -15 72 0 37 4
65 10 65 6 0 10 -26 10 -59z m357 33 c-9 -9 -28 6 -21 18 4 6 10 6 17 -1 6 -6
8 -13 4 -17z m409 -1 c-10 -10 -19 5 -10 18 6 11 8 11 12 0 2 -7 1 -15 -2 -18z
m424 18 c0 -5 -8 -12 -17 -16 -16 -6 -15 -8 7 -17 23 -9 24 -11 5 -17 -14 -6
-20 -17 -20 -39 0 -18 -3 -32 -7 -32 -5 0 -8 1 -8 3 -1 1 -5 20 -10 41 -6 30
-5 45 7 62 15 23 43 33 43 15z m-2190 -11 c0 -5 -9 -10 -20 -10 -18 0 -20 -7
-20 -55 0 -30 -4 -55 -10 -55 -5 0 -10 25 -10 55 0 48 -2 55 -20 55 -11 0 -20
5 -20 10 0 6 23 10 50 10 28 0 50 -4 50 -10z m350 -37 l30 -48 0 48 c0 26 5
47 10 47 6 0 10 -28 10 -65 0 -78 -14 -84 -50 -22 l-25 42 -3 -42 c-5 -68 -22
-50 -22 22 0 37 4 65 10 65 5 0 23 -21 40 -47z m765 -40 c4 -16 13 -23 30 -23
23 0 25 3 25 49 0 28 4 53 10 56 11 7 22 -32 16 -60 -3 -11 -5 -28 -5 -37 -1
-20 -40 -33 -70 -23 -23 7 -39 82 -25 112 6 14 9 10 11 -17 2 -19 6 -45 8 -57z
m-555 67 c0 -5 7 -10 15 -10 8 0 15 -4 15 -10 0 -5 -7 -10 -15 -10 -10 0 -15
-10 -15 -30 0 -20 5 -30 15 -30 8 0 15 -5 15 -11 0 -6 -10 -9 -22 -7 -18 2
-24 11 -26 38 -2 19 -8 38 -14 41 -7 5 -6 12 3 23 16 18 29 20 29 6z m1270 0
c0 -5 7 -10 15 -10 8 0 15 -4 15 -10 0 -5 -7 -10 -15 -10 -10 0 -15 -10 -15
-30 0 -20 5 -30 15 -30 8 0 15 -5 15 -11 0 -6 -10 -9 -22 -7 -18 2 -24 11 -26
38 -2 19 -8 38 -14 41 -7 5 -6 12 3 23 16 18 29 20 29 6z m-1632 -22 c7 -7 12
-20 12 -30 0 -13 -8 -18 -30 -18 -16 0 -30 -5 -30 -11 0 -7 11 -9 30 -5 33 6
42 -9 10 -19 -51 -16 -84 27 -56 70 18 27 45 32 64 13z m286 6 c10 -4 16 -18
16 -38 0 -18 5 -37 11 -43 8 -8 -1 -11 -29 -11 -49 -1 -70 18 -47 42 9 9 23
16 31 16 8 0 14 5 14 11 0 7 -10 9 -25 5 -25 -6 -36 8 -12 17 18 8 23 8 41 1z
m146 -44 c0 -27 -4 -50 -10 -50 -5 0 -10 23 -10 50 0 28 5 50 10 50 6 0 10
-22 10 -50z m91 40 c22 -12 26 -59 7 -78 -18 -18 -56 -14 -68 7 -14 27 -13 47
6 65 18 19 28 20 55 6z m115 -1 c16 -13 19 -89 4 -89 -5 0 -10 18 -10 40 0 33
-3 40 -20 40 -19 0 -22 -7 -23 -57 -1 -45 -17 -22 -17 25 0 44 2 48 26 50 15
1 33 -3 40 -9z m100 3 c6 -4 13 -25 16 -48 l6 -41 -39 -1 c-21 -1 -40 2 -43 7
-10 16 6 41 30 47 37 9 29 27 -8 18 -29 -6 -31 -5 -19 10 14 17 39 21 57 8z
m360 -3 c16 -13 19 -89 4 -89 -5 0 -10 16 -10 35 0 23 -6 38 -16 42 -20 7 -34
-13 -34 -49 0 -16 -4 -28 -10 -28 -10 0 -15 82 -6 91 10 10 60 8 72 -2z m64
-45 c0 -24 -4 -44 -10 -44 -5 0 -10 23 -10 51 0 31 4 48 10 44 6 -3 10 -26 10
-51z m45 14 l7 -32 20 38 c11 21 22 35 25 33 7 -8 -28 -97 -39 -97 -11 0 -47
82 -41 93 8 14 21 -3 28 -35z m143 30 c7 -7 12 -20 12 -30 0 -14 -8 -18 -36
-18 -23 0 -33 -4 -28 -11 3 -6 19 -9 35 -5 30 6 41 -10 14 -20 -26 -10 -62 5
-68 28 -12 46 40 87 71 56z m92 5 c0 -3 -7 -11 -16 -18 -10 -6 -17 -24 -18
-38 -2 -40 -19 -37 -22 3 -2 19 -2 40 0 45 4 11 56 19 56 8z m81 -9 c12 -15
10 -16 -19 -10 -41 10 -42 -6 -1 -21 43 -17 37 -48 -10 -48 -19 0 -36 6 -38
12 -3 9 4 11 26 7 20 -4 31 -2 31 5 0 6 -8 11 -19 11 -28 0 -47 26 -31 45 16
20 44 19 61 -1z m49 -34 c0 -27 -4 -50 -10 -50 -11 0 -14 83 -3 93 12 12 13 8
13 -43z m129 13 l19 -37 7 32 c7 34 25 54 25 28 0 -9 -11 -40 -24 -71 -23 -52
-46 -69 -61 -45 -3 6 1 10 10 10 24 0 27 22 10 63 -27 64 -17 79 14 20z m206
17 c20 -22 14 -67 -10 -77 -48 -18 -88 31 -59 74 18 28 45 29 69 3z m-3698
-125 c0 -8 -4 -12 -9 -9 -5 3 -6 10 -3 15 9 13 12 11 12 -6z m-31 -20 c-3 -18
-53 -48 -70 -42 -6 3 4 13 21 23 18 11 33 22 33 27 0 4 4 7 9 7 5 0 8 -7 7
-15z m2444 -40 c0 -18 4 -23 15 -19 25 10 45 -16 45 -57 0 -22 -4 -39 -10 -39
-5 0 -10 18 -10 40 0 33 -3 40 -20 40 -17 0 -20 -7 -20 -40 0 -22 -4 -40 -10
-40 -6 0 -10 30 -10 70 0 40 4 70 10 70 6 0 10 -11 10 -25z m110 10 c0 -8 -4
-15 -10 -15 -5 0 -10 7 -10 15 0 8 5 15 10 15 6 0 10 -7 10 -15z m-351 -51
c24 -63 25 -74 11 -74 -5 0 -10 6 -10 14 0 24 -49 26 -65 3 -22 -32 -27 -15
-9 29 9 21 20 49 25 62 13 34 24 27 48 -34z m411 36 c0 -5 7 -10 15 -10 8 0
15 -4 15 -10 0 -5 -7 -10 -15 -10 -22 0 -20 -57 3 -63 16 -4 16 -4 -1 -12 -23
-10 -36 3 -43 40 -3 16 -7 32 -10 37 -5 8 16 37 29 38 4 0 7 -4 7 -10z m280 0
c0 -5 7 -10 15 -10 8 0 15 -4 15 -10 0 -5 -7 -10 -15 -10 -10 0 -15 -10 -15
-30 0 -20 5 -30 15 -30 8 0 15 -5 15 -11 0 -6 -10 -9 -22 -7 -18 2 -24 11 -26
38 -2 19 -8 38 -14 41 -7 5 -6 12 3 23 16 18 29 20 29 6z m-2891 -26 c8 -7
-94 -2 -124 6 -18 5 1 6 45 3 41 -3 77 -7 79 -9z m2301 6 c0 -4 -9 -10 -20
-13 -15 -4 -20 -14 -20 -41 0 -20 -4 -36 -10 -36 -5 0 -10 22 -10 48 0 47 1
49 30 50 17 0 30 -3 30 -8z m87 -7 c3 -8 -6 -11 -24 -10 -24 2 -28 -2 -28 -23
0 -21 4 -25 28 -23 18 1 27 -2 24 -10 -5 -17 -45 -21 -63 -7 -17 15 -18 62 -2
78 15 15 60 12 65 -5z m163 -33 c0 -27 -4 -50 -10 -50 -5 0 -10 23 -10 50 0
28 5 50 10 50 6 0 10 -22 10 -50z m174 34 c27 -27 20 -44 -20 -44 -23 0 -33
-4 -28 -11 3 -6 17 -8 31 -4 18 4 24 2 21 -7 -6 -18 -46 -22 -64 -8 -17 15
-19 61 -2 78 17 17 44 15 62 -4z m106 1 c11 -13 8 -14 -17 -9 -33 6 -48 -12
-36 -42 4 -12 14 -14 36 -10 25 5 28 4 17 -9 -18 -21 -46 -19 -64 6 -32 47 28
107 64 64z m130 -26 c0 -33 3 -40 18 -37 12 2 18 14 20 41 5 54 22 45 22 -11
0 -52 -6 -57 -57 -46 -20 4 -23 11 -23 49 0 25 5 45 10 45 6 0 10 -18 10 -41z
m150 30 c0 -5 -6 -9 -14 -9 -16 0 -26 -21 -26 -56 0 -13 -4 -24 -10 -24 -5 0
-10 22 -10 48 0 47 1 49 30 50 17 0 30 -4 30 -9z m90 -9 c15 -27 5 -40 -31
-40 -19 0 -28 -4 -23 -11 3 -6 17 -9 31 -6 15 3 22 0 20 -7 -5 -16 -46 -20
-63 -6 -17 15 -19 61 -2 78 19 19 56 14 68 -8z m-3092 -7 c-10 -2 -28 -2 -40
0 -13 2 -5 4 17 4 22 1 32 -1 23 -4z m100 -10 c-16 -2 -40 -2 -55 0 -16 2 -3
4 27 4 30 0 43 -2 28 -4z m115 -10 c-13 -2 -33 -2 -45 0 -13 2 -3 4 22 4 25 0
35 -2 23 -4z m100 -10 c-13 -2 -33 -2 -45 0 -13 2 -3 4 22 4 25 0 35 -2 23 -4z
m115 -10 c-10 -2 -26 -2 -35 0 -10 3 -2 5 17 5 19 0 27 -2 18 -5z m125 -10
c-7 -2 -19 -2 -25 0 -7 3 -2 5 12 5 14 0 19 -2 13 -5z m977 -380 c0 -4 -9 -17
-21 -29 l-21 -22 83 -1 c45 0 84 -3 87 -6 3 -3 -34 -5 -83 -5 l-88 0 23 -25
c13 -14 21 -27 19 -30 -3 -3 -21 11 -39 30 l-34 35 29 30 c28 29 45 38 45 23z
m2084 -22 l28 -29 -27 -36 c-15 -20 -31 -36 -36 -36 -15 0 -10 12 13 37 l21
23 -89 2 -89 2 83 3 c82 4 95 10 67 33 -16 13 -20 30 -7 30 5 0 21 -13 36 -29z
m-1595 -28 c7 10 18 17 23 17 6 0 5 -6 -1 -14 -9 -11 -10 -20 -1 -35 6 -12 7
-21 1 -21 -5 0 -12 8 -16 18 -6 16 -7 16 -21 -2 -13 -18 -14 -15 -13 35 1 46
3 49 8 20 5 -31 7 -33 20 -18z m-214 10 c0 -12 4 -25 7 -28 14 -14 -6 -35 -33
-35 -28 0 -29 2 -29 46 0 44 1 45 28 42 20 -2 27 -9 27 -25z m1302 -5 l17 -33
7 35 c6 33 6 33 8 -12 0 -27 -2 -48 -7 -48 -4 0 -16 17 -27 37 l-20 37 -6 -40
-6 -39 -2 48 c-1 55 11 60 36 15z m243 12 c10 -6 11 -10 3 -10 -7 0 -13 -11
-13 -24 0 -13 6 -27 13 -30 6 -3 3 -5 -8 -3 -13 1 -21 13 -26 34 -8 43 1 53
31 33z m-1459 -38 c7 -32 6 -33 -24 -30 -38 4 -47 25 -13 34 14 3 23 10 20 15
-3 6 -15 7 -26 3 -14 -4 -18 -3 -13 6 14 23 49 6 56 -28z m74 28 c4 -6 -4 -9
-17 -7 -17 1 -23 -3 -23 -18 0 -14 6 -20 23 -19 12 0 22 -3 22 -8 0 -12 -48
-10 -55 3 -12 19 4 59 25 59 10 0 22 -4 25 -10z m1249 4 c25 -10 19 -34 -9
-34 -14 0 -25 -5 -25 -11 0 -6 9 -9 20 -6 11 3 20 1 20 -4 0 -5 -11 -9 -24 -9
-29 0 -44 33 -26 55 14 17 21 18 44 9z m49 -6 c3 -10 8 -9 22 2 17 14 18 14 6
-8 -10 -18 -10 -27 0 -38 7 -9 8 -14 1 -14 -6 0 -13 6 -16 13 -5 10 -7 10 -12
0 -3 -7 -10 -13 -16 -13 -7 0 -6 5 1 14 9 11 10 20 1 35 -6 12 -7 21 -1 21 5
0 11 -6 14 -12z"/>
<path d="M9072 1313 c5 -25 28 -28 28 -4 0 12 -6 21 -16 21 -9 0 -14 -7 -12
-17z"/>
<path d="M9430 1340 c0 -5 5 -10 10 -10 6 0 10 5 10 10 0 6 -4 10 -10 10 -5 0
-10 -4 -10 -10z"/>
<path d="M9590 1310 c0 -11 5 -20 10 -20 6 0 10 9 10 20 0 11 -4 20 -10 20 -5
0 -10 -9 -10 -20z"/>
<path d="M8500 980 c0 -5 9 -10 20 -10 11 0 20 5 20 10 0 6 -9 10 -20 10 -11
0 -20 -4 -20 -10z"/>
<path d="M8800 940 c0 -5 7 -10 15 -10 8 0 15 5 15 10 0 6 -7 10 -15 10 -8 0
-15 -4 -15 -10z"/>
<path d="M9024 976 c-9 -24 3 -46 26 -46 17 0 21 5 18 27 -3 31 -34 44 -44 19z"/>
<path d="M9245 940 c-3 -5 3 -10 14 -10 12 0 21 5 21 10 0 6 -6 10 -14 10 -8
0 -18 -4 -21 -10z"/>
<path d="M9850 980 c0 -5 9 -10 20 -10 11 0 20 5 20 10 0 6 -9 10 -20 10 -11
0 -20 -4 -20 -10z"/>
<path d="M10395 970 c-8 -26 1 -40 26 -40 25 0 35 25 19 45 -17 21 -37 19 -45
-5z"/>
<path d="M8890 781 c0 -5 -3 -16 -6 -25 -4 -11 -1 -16 10 -16 18 0 22 35 6 45
-5 3 -10 2 -10 -4z"/>
<path d="M9405 760 c-4 -6 5 -10 20 -10 15 0 24 4 20 10 -3 6 -12 10 -20 10
-8 0 -17 -4 -20 -10z"/>
<path d="M9875 760 c-4 -6 5 -10 20 -10 15 0 24 4 20 10 -3 6 -12 10 -20 10
-8 0 -17 -4 -20 -10z"/>
<path d="M8600 296 c0 -10 9 -16 21 -16 24 0 21 23 -4 28 -10 2 -17 -3 -17
-12z"/>
<path d="M8600 255 c0 -8 9 -15 20 -15 11 0 20 7 20 15 0 8 -9 15 -20 15 -11
0 -20 -7 -20 -15z"/>
<path d="M8690 250 c0 -5 4 -10 9 -10 6 0 13 5 16 10 3 6 -1 10 -9 10 -9 0
-16 -4 -16 -10z"/>
<path d="M10025 280 c-3 -5 1 -10 9 -10 9 0 16 5 16 10 0 6 -4 10 -9 10 -6 0
-13 -4 -16 -10z"/>
<path d="M5090 1500 c0 -8 50 -24 56 -18 2 2 -10 9 -26 15 -17 6 -30 8 -30 3z"/>
<path d="M5212 1458 l57 -22 4 -55 3 -56 2 57 2 56 50 -19 c28 -10 56 -19 63
-18 6 0 -12 9 -42 20 -29 10 -59 23 -66 29 -6 5 -15 7 -18 4 -3 -4 -24 1 -47
10 -22 9 -46 16 -53 15 -6 0 14 -10 45 -21z"/>
<path d="M5433 1445 c0 -22 2 -30 4 -17 2 12 2 30 0 40 -3 9 -5 -1 -4 -23z"/>
<path d="M5030 1356 c0 -2 7 -6 15 -10 8 -3 15 -1 15 4 0 6 -7 10 -15 10 -8 0
-15 -2 -15 -4z"/>
<path d="M5098 1348 c-2 -7 -1 -29 2 -48 l6 -35 5 38 c5 38 -4 71 -13 45z"/>
<path d="M5190 1306 c42 -17 58 -20 45 -7 -6 5 -26 12 -45 15 l-35 6 35 -14z"/>
<path d="M5242 1240 c0 -14 2 -19 5 -12 2 6 2 18 0 25 -3 6 -5 1 -5 -13z"/>
<path d="M5283 1200 c0 -25 2 -35 4 -22 2 12 2 32 0 45 -2 12 -4 2 -4 -23z"/>
<path d="M5453 1150 c0 -30 2 -43 4 -27 2 15 2 39 0 55 -2 15 -4 2 -4 -28z"/>
<path d="M5028 1183 c7 -3 16 -2 19 1 4 3 -2 6 -13 5 -11 0 -14 -3 -6 -6z"/>
<path d="M5100 1165 c0 -16 16 -20 24 -6 3 5 -1 11 -9 15 -9 3 -15 0 -15 -9z"/>
<path d="M5112 1051 c-2 -43 -5 -52 -17 -47 -38 14 -138 37 -143 32 -2 -3 1
-7 9 -10 94 -28 136 -39 145 -39 6 0 9 -10 7 -21 -4 -18 -2 -17 11 4 8 14 15
19 16 13 0 -7 10 -13 23 -12 19 0 18 2 -10 16 -29 15 -32 21 -36 67 l-3 51 -2
-54z"/>
<path d="M4778 1073 c7 -3 16 -2 19 1 4 3 -2 6 -13 5 -11 0 -14 -3 -6 -6z"/>
<path d="M4876 1051 c-3 -4 7 -8 22 -9 14 -1 30 -8 35 -15 6 -9 8 -8 5 2 -5
16 -55 34 -62 22z"/>
<path d="M5462 1000 c0 -19 2 -27 5 -17 2 9 2 25 0 35 -3 9 -5 1 -5 -18z"/>
<path d="M5220 960 c0 -5 5 -10 10 -10 6 0 10 5 10 10 0 6 -4 10 -10 10 -5 0
-10 -4 -10 -10z"/>
<path d="M4920 860 c0 -5 5 -10 10 -10 6 0 10 5 10 10 0 6 -4 10 -10 10 -5 0
-10 -4 -10 -10z"/>
<path d="M5301 854 c0 -11 3 -14 6 -6 3 7 2 16 -1 19 -3 4 -6 -2 -5 -13z"/>
<path d="M5117 840 c-3 -11 -1 -20 4 -20 5 0 9 9 9 20 0 11 -2 20 -4 20 -2 0
-6 -9 -9 -20z"/>
<path d="M5013 833 c9 -2 25 -2 35 0 9 3 1 5 -18 5 -19 0 -27 -2 -17 -5z"/>
<path d="M5302 810 c0 -14 2 -19 5 -12 2 6 2 18 0 25 -3 6 -5 1 -5 -13z"/>
<path d="M4998 793 c7 -3 16 -2 19 1 4 3 -2 6 -13 5 -11 0 -14 -3 -6 -6z"/>
<path d="M5038 793 c7 -3 16 -2 19 1 4 3 -2 6 -13 5 -11 0 -14 -3 -6 -6z"/>
<path d="M5208 783 c7 -3 16 -2 19 1 4 3 -2 6 -13 5 -11 0 -14 -3 -6 -6z"/>
<path d="M5053 773 c9 -2 23 -2 30 0 6 3 -1 5 -18 5 -16 0 -22 -2 -12 -5z"/>
<path d="M5295 772 c32 -3 36 -6 20 -12 -15 -7 -10 -8 20 -8 22 0 32 2 23 5
-10 2 -18 9 -18 14 0 5 -19 8 -42 7 l-43 -1 40 -5z"/>
<path d="M5480 755 c0 -23 -3 -26 -12 -17 -7 7 -28 11 -47 10 l-36 -1 33 -4
c17 -2 32 -8 32 -14 0 -5 9 -9 21 -9 11 0 17 -4 14 -10 -3 -5 -1 -10 5 -10 7
0 9 13 4 38 -8 47 -14 54 -14 17z"/>
<path d="M5925 740 c17 -4 41 -8 55 -9 20 0 22 1 10 9 -8 5 -33 9 -55 9 -39
-1 -39 -2 -10 -9z"/>
<path d="M6010 738 c0 -5 6 -8 13 -8 6 -1 46 -3 87 -6 41 -3 72 -2 67 2 -10
10 -167 21 -167 12z"/>
<path d="M5510 720 c0 -5 19 -10 42 -10 49 0 47 5 -4 14 -24 4 -38 3 -38 -4z"/>
<path d="M6190 720 c0 -5 3 -9 8 -8 5 1 146 -9 214 -16 16 -2 21 -18 8 -26
-12 -8 -11 -10 5 -11 17 -1 16 -2 -5 -9 -22 -7 -22 -8 -4 -9 38 -2 23 -30 -20
-39 l-41 -8 48 -8 c27 -4 50 -6 52 -4 2 2 -2 29 -7 61 -8 45 -15 60 -32 66
-36 14 -226 23 -226 11z"/>
<path d="M6150 683 c0 -13 5 -23 10 -23 13 0 13 11 0 30 -8 12 -10 11 -10 -7z"/>
<path d="M6332 650 c0 -14 2 -19 5 -12 2 6 2 18 0 25 -3 6 -5 1 -5 -13z"/>
<path d="M5650 650 c0 -5 5 -10 10 -10 6 0 10 5 10 10 0 6 -4 10 -10 10 -5 0
-10 -4 -10 -10z"/>
<path d="M6278 653 c7 -3 16 -2 19 1 4 3 -2 6 -13 5 -11 0 -14 -3 -6 -6z"/>
<path d="M6298 633 c7 -3 16 -2 19 1 4 3 -2 6 -13 5 -11 0 -14 -3 -6 -6z"/>
<path d="M6390 620 c0 -5 7 -7 15 -4 8 4 15 8 15 10 0 2 -7 4 -15 4 -8 0 -15
-4 -15 -10z"/>
<path d="M6328 593 c7 -3 16 -2 19 1 4 3 -2 6 -13 5 -11 0 -14 -3 -6 -6z"/>
</g>
</svg>
